<svg width="375" height="600" viewBox="0 0 375 600" fill="none" xmlns="http://www.w3.org/2000/svg">
<g clip-path="url(#clip0_486_9246)">
<rect width="375" height="600" fill="#060212"/>
<path d="M74.296 72C73.592 72 73 71.76 72.52 71.28C72.04 70.8 71.8 70.208 71.8 69.504V37.008C71.8 36.272 72.04 35.68 72.52 35.232C73 34.752 73.592 34.512 74.296 34.512H95.992C96.728 34.512 97.32 34.736 97.768 35.184C98.216 35.6 98.44 36.16 98.44 36.864C98.44 37.536 98.216 38.08 97.768 38.496C97.32 38.912 96.728 39.12 95.992 39.12H76.792V50.784H90.568C91.304 50.784 91.896 51.008 92.344 51.456C92.792 51.872 93.016 52.416 93.016 53.088C93.016 53.76 92.792 54.32 92.344 54.768C91.896 55.184 91.304 55.392 90.568 55.392H76.792V67.392H95.992C96.728 67.392 97.32 67.6 97.768 68.016C98.216 68.432 98.44 68.976 98.44 69.648C98.44 70.352 98.216 70.928 97.768 71.376C97.32 71.792 96.728 72 95.992 72H74.296ZM121.908 72C121.588 72 121.284 71.952 120.996 71.856C120.708 71.76 120.436 71.552 120.18 71.232L111.78 61.152L110.052 59.424L101.7 49.536C101.284 49.024 101.06 48.48 101.028 47.904C100.996 47.296 101.156 46.784 101.508 46.368C101.86 45.952 102.388 45.744 103.092 45.744C103.86 45.744 104.468 46.016 104.916 46.56L113.124 56.352L114.372 57.504L123.396 68.304C123.876 68.88 124.1 69.456 124.068 70.032C124.068 70.576 123.86 71.04 123.444 71.424C123.06 71.808 122.548 72 121.908 72ZM103.572 72C102.932 72 102.42 71.808 102.036 71.424C101.684 71.008 101.508 70.512 101.508 69.936C101.508 69.36 101.732 68.784 102.18 68.208L110.34 57.984L112.932 61.632L105.3 71.232C104.82 71.744 104.244 72 103.572 72ZM115.428 59.664L112.116 56.832L119.844 46.56C120.1 46.24 120.372 46.032 120.66 45.936C120.948 45.808 121.268 45.744 121.62 45.744C122.324 45.744 122.852 45.968 123.204 46.416C123.556 46.832 123.716 47.344 123.684 47.952C123.684 48.56 123.46 49.152 123.012 49.728L115.428 59.664ZM139.708 72.192C137.148 72.192 134.86 71.616 132.844 70.464C130.86 69.28 129.292 67.696 128.14 65.712C127.02 63.696 126.46 61.424 126.46 58.896C126.46 56.304 127.02 54 128.14 51.984C129.26 49.968 130.796 48.4 132.748 47.28C134.7 46.128 136.94 45.552 139.468 45.552C141.356 45.552 143.084 45.92 144.652 46.656C146.22 47.36 147.628 48.432 148.876 49.872C149.324 50.384 149.484 50.912 149.356 51.456C149.228 52 148.876 52.48 148.3 52.896C147.852 53.216 147.356 53.328 146.812 53.232C146.268 53.104 145.772 52.816 145.324 52.368C143.756 50.704 141.804 49.872 139.468 49.872C137.836 49.872 136.396 50.256 135.148 51.024C133.9 51.76 132.924 52.8 132.22 54.144C131.516 55.488 131.164 57.072 131.164 58.896C131.164 60.624 131.516 62.16 132.22 63.504C132.956 64.848 133.964 65.92 135.244 66.72C136.524 67.488 138.012 67.872 139.708 67.872C140.828 67.872 141.804 67.744 142.636 67.488C143.5 67.2 144.284 66.768 144.988 66.192C145.5 65.776 146.028 65.552 146.572 65.52C147.116 65.456 147.596 65.6 148.012 65.952C148.556 66.4 148.86 66.912 148.924 67.488C148.988 68.032 148.796 68.528 148.348 68.976C146.044 71.12 143.164 72.192 139.708 72.192ZM168.969 72.192C166.312 72.192 163.945 71.632 161.865 70.512C159.817 69.36 158.201 67.792 157.017 65.808C155.865 63.792 155.289 61.488 155.289 58.896C155.289 56.272 155.833 53.968 156.921 51.984C158.041 49.968 159.577 48.4 161.529 47.28C163.481 46.128 165.721 45.552 168.249 45.552C170.745 45.552 172.889 46.112 174.681 47.232C176.473 48.32 177.833 49.84 178.76 51.792C179.721 53.712 180.201 55.936 180.201 58.464C180.201 59.072 179.993 59.584 179.577 60C179.161 60.384 178.633 60.576 177.993 60.576H158.648V56.736H177.849L175.881 58.08C175.849 56.48 175.529 55.056 174.921 53.808C174.313 52.528 173.449 51.52 172.329 50.784C171.209 50.048 169.849 49.68 168.249 49.68C166.425 49.68 164.857 50.08 163.545 50.88C162.265 51.68 161.289 52.784 160.617 54.192C159.945 55.568 159.609 57.136 159.609 58.896C159.609 60.656 160.009 62.224 160.809 63.6C161.609 64.976 162.713 66.064 164.121 66.864C165.529 67.664 167.145 68.064 168.969 68.064C169.961 68.064 170.969 67.888 171.993 67.536C173.049 67.152 173.897 66.72 174.537 66.24C175.017 65.888 175.529 65.712 176.073 65.712C176.649 65.68 177.145 65.84 177.561 66.192C178.105 66.672 178.393 67.2 178.425 67.776C178.457 68.352 178.201 68.848 177.656 69.264C176.569 70.128 175.209 70.832 173.577 71.376C171.977 71.92 170.441 72.192 168.969 72.192ZM192.685 72C191.277 72 190.029 71.616 188.941 70.848C187.853 70.08 187.005 69.04 186.397 67.728C185.789 66.384 185.485 64.848 185.485 63.12V36.912C185.485 36.208 185.709 35.632 186.157 35.184C186.605 34.736 187.181 34.512 187.885 34.512C188.589 34.512 189.165 34.736 189.613 35.184C190.061 35.632 190.285 36.208 190.285 36.912V63.12C190.285 64.304 190.509 65.28 190.957 66.048C191.405 66.816 191.981 67.2 192.685 67.2H193.885C194.525 67.2 195.037 67.424 195.421 67.872C195.837 68.32 196.045 68.896 196.045 69.6C196.045 70.304 195.741 70.88 195.133 71.328C194.525 71.776 193.741 72 192.781 72H192.685ZM211.719 72.192C209.062 72.192 206.695 71.632 204.615 70.512C202.567 69.36 200.951 67.792 199.767 65.808C198.615 63.792 198.039 61.488 198.039 58.896C198.039 56.272 198.583 53.968 199.671 51.984C200.791 49.968 202.327 48.4 204.279 47.28C206.231 46.128 208.471 45.552 210.999 45.552C213.495 45.552 215.639 46.112 217.431 47.232C219.223 48.32 220.583 49.84 221.51 51.792C222.471 53.712 222.951 55.936 222.951 58.464C222.951 59.072 222.743 59.584 222.327 60C221.911 60.384 221.383 60.576 220.743 60.576H201.398V56.736H220.599L218.631 58.08C218.599 56.48 218.279 55.056 217.671 53.808C217.063 52.528 216.199 51.52 215.079 50.784C213.959 50.048 212.599 49.68 210.999 49.68C209.175 49.68 207.607 50.08 206.295 50.88C205.015 51.68 204.039 52.784 203.367 54.192C202.695 55.568 202.359 57.136 202.359 58.896C202.359 60.656 202.759 62.224 203.559 63.6C204.359 64.976 205.463 66.064 206.871 66.864C208.279 67.664 209.895 68.064 211.719 68.064C212.711 68.064 213.719 67.888 214.743 67.536C215.799 67.152 216.647 66.72 217.287 66.24C217.767 65.888 218.279 65.712 218.823 65.712C219.399 65.68 219.895 65.84 220.311 66.192C220.855 66.672 221.143 67.2 221.175 67.776C221.207 68.352 220.951 68.848 220.406 69.264C219.319 70.128 217.959 70.832 216.327 71.376C214.727 71.92 213.191 72.192 211.719 72.192ZM205.191 42.48C204.487 42.48 203.895 42.304 203.415 41.952C202.967 41.568 202.743 41.088 202.743 40.512C202.743 39.68 203.127 38.976 203.895 38.4L209.271 34.896C209.687 34.64 210.103 34.512 210.519 34.512C210.775 34.512 210.999 34.544 211.191 34.608C211.383 34.64 211.591 34.736 211.815 34.896L217.143 38.4C217.911 38.976 218.295 39.68 218.295 40.512C218.295 41.088 218.071 41.568 217.623 41.952C217.175 42.304 216.599 42.48 215.895 42.48C215.575 42.48 215.287 42.448 215.031 42.384C214.807 42.288 214.567 42.144 214.311 41.952L210.519 39.264L206.727 41.952C206.279 42.304 205.767 42.48 205.191 42.48ZM251.371 72.048C250.667 72.048 250.075 71.824 249.595 71.376C249.147 70.896 248.923 70.304 248.923 69.6V57.792C248.923 55.968 248.587 54.48 247.915 53.328C247.243 52.176 246.331 51.328 245.179 50.784C244.059 50.208 242.763 49.92 241.291 49.92C239.947 49.92 238.731 50.192 237.643 50.736C236.555 51.28 235.691 52.016 235.051 52.944C234.411 53.84 234.091 54.88 234.091 56.064H231.067C231.067 54.048 231.547 52.256 232.507 50.688C233.499 49.088 234.843 47.824 236.539 46.896C238.235 45.968 240.139 45.504 242.251 45.504C244.459 45.504 246.427 45.984 248.155 46.944C249.915 47.872 251.291 49.248 252.283 51.072C253.307 52.896 253.819 55.136 253.819 57.792V69.6C253.819 70.304 253.579 70.896 253.099 71.376C252.651 71.824 252.075 72.048 251.371 72.048ZM231.643 72.048C230.939 72.048 230.347 71.824 229.867 71.376C229.419 70.896 229.195 70.304 229.195 69.6V48.192C229.195 47.456 229.419 46.864 229.867 46.416C230.347 45.968 230.939 45.744 231.643 45.744C232.379 45.744 232.971 45.968 233.419 46.416C233.867 46.864 234.091 47.456 234.091 48.192V69.6C234.091 70.304 233.867 70.896 233.419 71.376C232.971 71.824 232.379 72.048 231.643 72.048ZM273.818 72.192C271.258 72.192 268.97 71.616 266.954 70.464C264.97 69.28 263.402 67.696 262.25 65.712C261.13 63.696 260.57 61.424 260.57 58.896C260.57 56.304 261.13 54 262.25 51.984C263.37 49.968 264.906 48.4 266.858 47.28C268.81 46.128 271.05 45.552 273.578 45.552C275.466 45.552 277.194 45.92 278.762 46.656C280.33 47.36 281.738 48.432 282.986 49.872C283.434 50.384 283.594 50.912 283.466 51.456C283.338 52 282.986 52.48 282.41 52.896C281.962 53.216 281.466 53.328 280.922 53.232C280.378 53.104 279.882 52.816 279.434 52.368C277.866 50.704 275.914 49.872 273.578 49.872C271.946 49.872 270.506 50.256 269.258 51.024C268.01 51.76 267.034 52.8 266.33 54.144C265.626 55.488 265.274 57.072 265.274 58.896C265.274 60.624 265.626 62.16 266.33 63.504C267.066 64.848 268.074 65.92 269.354 66.72C270.634 67.488 272.122 67.872 273.818 67.872C274.938 67.872 275.914 67.744 276.746 67.488C277.61 67.2 278.394 66.768 279.098 66.192C279.61 65.776 280.138 65.552 280.682 65.52C281.226 65.456 281.706 65.6 282.122 65.952C282.666 66.4 282.97 66.912 283.034 67.488C283.098 68.032 282.906 68.528 282.458 68.976C280.154 71.12 277.274 72.192 273.818 72.192ZM293.67 72C292.966 72 292.374 71.776 291.894 71.328C291.446 70.848 291.222 70.256 291.222 69.552V48.192C291.222 47.456 291.446 46.864 291.894 46.416C292.374 45.968 292.966 45.744 293.67 45.744C294.406 45.744 294.998 45.968 295.446 46.416C295.894 46.864 296.118 47.456 296.118 48.192V69.552C296.118 70.256 295.894 70.848 295.446 71.328C294.998 71.776 294.406 72 293.67 72ZM293.67 41.472C292.806 41.472 292.054 41.168 291.414 40.56C290.806 39.92 290.502 39.168 290.502 38.304C290.502 37.44 290.806 36.704 291.414 36.096C292.054 35.456 292.806 35.136 293.67 35.136C294.534 35.136 295.27 35.456 295.878 36.096C296.518 36.704 296.838 37.44 296.838 38.304C296.838 39.168 296.518 39.92 295.878 40.56C295.27 41.168 294.534 41.472 293.67 41.472ZM316.17 72.192C313.834 72.192 311.738 71.616 309.882 70.464C308.026 69.28 306.554 67.696 305.466 65.712C304.41 63.696 303.882 61.424 303.882 58.896C303.882 56.368 304.458 54.096 305.61 52.08C306.794 50.064 308.378 48.48 310.362 47.328C312.378 46.144 314.634 45.552 317.13 45.552C319.626 45.552 321.866 46.144 323.85 47.328C325.834 48.48 327.402 50.064 328.554 52.08C329.738 54.096 330.33 56.368 330.33 58.896H328.458C328.458 61.424 327.914 63.696 326.826 65.712C325.77 67.696 324.314 69.28 322.458 70.464C320.602 71.616 318.506 72.192 316.17 72.192ZM317.13 67.872C318.762 67.872 320.218 67.488 321.498 66.72C322.778 65.92 323.786 64.848 324.522 63.504C325.258 62.128 325.626 60.592 325.626 58.896C325.626 57.168 325.258 55.632 324.522 54.288C323.786 52.912 322.778 51.84 321.498 51.072C320.218 50.272 318.762 49.872 317.13 49.872C315.53 49.872 314.074 50.272 312.762 51.072C311.482 51.84 310.458 52.912 309.69 54.288C308.954 55.632 308.586 57.168 308.586 58.896C308.586 60.592 308.954 62.128 309.69 63.504C310.458 64.848 311.482 65.92 312.762 66.72C314.074 67.488 315.53 67.872 317.13 67.872ZM327.882 72.048C327.178 72.048 326.586 71.824 326.106 71.376C325.658 70.896 325.434 70.304 325.434 69.6V62.256L326.346 57.168L330.33 58.896V69.6C330.33 70.304 330.09 70.896 329.61 71.376C329.162 71.824 328.586 72.048 327.882 72.048Z" fill="#FFB200"/>
<path d="M298 681.75C263 681.75 231.5 674.25 203.5 659.25C176 643.75 154.25 622.75 138.25 596.25C122.25 569.75 114.25 539.75 114.25 506.25C114.25 497.75 116.75 490.5 121.75 484.5C126.75 478.5 133.5 475.5 142 475.5C150.5 475.5 157.25 478.5 162.25 484.5C167.25 490.5 169.75 497.75 169.75 506.25C169.75 529.25 175.25 550 186.25 568.5C197.25 586.5 212.25 601 231.25 612C250.75 622.5 272.25 627.75 295.75 627.75C334.75 627.75 365.25 617 387.25 595.5C409.25 573.5 420.25 545.25 420.25 510.75C420.25 486.25 415 465 404.5 447C394 428.5 379.75 414.25 361.75 404.25C343.75 393.75 323.5 388.5 301 388.5C293 388.5 286.25 385.75 280.75 380.25C275.25 374.75 272.5 367.75 272.5 359.25C272.5 351.25 275.25 344.5 280.75 339C286.25 333.5 293 330.75 301 330.75C318.5 330.75 334.5 326.5 349 318C364 309 376 297.25 385 282.75C394 268.25 398.5 252.25 398.5 234.75C398.5 208.25 389.5 186.25 371.5 168.75C353.5 150.75 329.5 141.75 299.5 141.75C278.5 141.75 259.75 146 243.25 154.5C226.75 162.5 213.75 173.5 204.25 187.5C195.25 201 190.75 216.5 190.75 234C190.75 242.5 188 249.75 182.5 255.75C177.5 261.25 171 264 163 264C154.5 264 147.75 261.25 142.75 255.75C137.75 249.75 135.25 242.75 135.25 234.75C135.25 207.25 142.25 182.5 156.25 160.5C170.75 138 190.25 120.5 214.75 108C239.25 95 267.5 88.5 299.5 88.5C328.5 88.5 354.5 95 377.5 108C401 120.5 419.5 138 433 160.5C447 182.5 454 207.25 454 234.75C454 251.75 449.75 268.25 441.25 284.25C433.25 300.25 422.5 314.75 409 327.75C395.5 340.25 380.75 350 364.75 357C390.25 364.5 411.5 376 428.5 391.5C445.5 407 458 425.25 466 446.25C474 466.75 478 488.25 478 510.75C478 543.75 470 573.25 454 599.25C438.5 624.75 417 645 389.5 660C362 674.5 331.5 681.75 298 681.75Z" fill="#FFB200" fill-opacity="0.5"/>
<path d="M61.6792 382.909V379.71" stroke="#EBEBEB" stroke-width="0.7" stroke-miterlimit="10"/>
<path d="M58.6267 384.148L56.3657 381.887" stroke="#EBEBEB" stroke-width="0.7" stroke-miterlimit="10"/>
<path d="M57.3391 387.179H54.1401" stroke="#EBEBEB" stroke-width="0.7" stroke-miterlimit="10"/>
<path d="M58.5779 390.231L56.3169 392.492" stroke="#EBEBEB" stroke-width="0.7" stroke-miterlimit="10"/>
<path d="M61.6089 391.519V394.718" stroke="#EBEBEB" stroke-width="0.7" stroke-miterlimit="10"/>
<path d="M64.6611 390.28L66.9221 392.541" stroke="#EBEBEB" stroke-width="0.7" stroke-miterlimit="10"/>
<path d="M65.9487 387.249H69.1477" stroke="#EBEBEB" stroke-width="0.7" stroke-miterlimit="10"/>
<path d="M64.71 384.197L66.971 381.936" stroke="#EBEBEB" stroke-width="0.7" stroke-miterlimit="10"/>
<path d="M314.141 335.386V332.187" stroke="#EBEBEB" stroke-width="0.7" stroke-miterlimit="10"/>
<path d="M311.089 336.625L308.828 334.364" stroke="#EBEBEB" stroke-width="0.7" stroke-miterlimit="10"/>
<path d="M309.808 339.656H306.609" stroke="#EBEBEB" stroke-width="0.7" stroke-miterlimit="10"/>
<path d="M311.04 342.708L308.779 344.969" stroke="#EBEBEB" stroke-width="0.7" stroke-miterlimit="10"/>
<path d="M314.078 343.989V347.188" stroke="#EBEBEB" stroke-width="0.7" stroke-miterlimit="10"/>
<path d="M317.13 342.757L319.391 345.018" stroke="#EBEBEB" stroke-width="0.7" stroke-miterlimit="10"/>
<path d="M318.411 339.726H321.61" stroke="#EBEBEB" stroke-width="0.7" stroke-miterlimit="10"/>
<path d="M317.172 336.674L319.433 334.406" stroke="#EBEBEB" stroke-width="0.7" stroke-miterlimit="10"/>
<path d="M245.807 252.709V249.51" stroke="#EBEBEB" stroke-width="0.7" stroke-miterlimit="10"/>
<path d="M242.755 253.948L240.494 251.687" stroke="#EBEBEB" stroke-width="0.7" stroke-miterlimit="10"/>
<path d="M241.467 256.979H238.268" stroke="#EBEBEB" stroke-width="0.7" stroke-miterlimit="10"/>
<path d="M242.706 260.031L240.445 262.292" stroke="#EBEBEB" stroke-width="0.7" stroke-miterlimit="10"/>
<path d="M245.737 261.312V264.511" stroke="#EBEBEB" stroke-width="0.7" stroke-miterlimit="10"/>
<path d="M248.789 260.08L251.05 262.341" stroke="#EBEBEB" stroke-width="0.7" stroke-miterlimit="10"/>
<path d="M250.077 257.042H253.276" stroke="#EBEBEB" stroke-width="0.7" stroke-miterlimit="10"/>
<path d="M248.838 253.99L251.099 251.729" stroke="#EBEBEB" stroke-width="0.7" stroke-miterlimit="10"/>
<path d="M195.015 248.691V246.927" stroke="#EBEBEB" stroke-width="0.7" stroke-miterlimit="10"/>
<path d="M193.335 249.377L192.082 248.124" stroke="#EBEBEB" stroke-width="0.7" stroke-miterlimit="10"/>
<path d="M192.621 251.05H190.857" stroke="#EBEBEB" stroke-width="0.7" stroke-miterlimit="10"/>
<path d="M193.307 252.737L192.061 253.983" stroke="#EBEBEB" stroke-width="0.7" stroke-miterlimit="10"/>
<path d="M194.98 253.444V255.208" stroke="#EBEBEB" stroke-width="0.7" stroke-miterlimit="10"/>
<path d="M196.667 252.758L197.913 254.011" stroke="#EBEBEB" stroke-width="0.7" stroke-miterlimit="10"/>
<path d="M197.374 251.085H199.138" stroke="#EBEBEB" stroke-width="0.7" stroke-miterlimit="10"/>
<path d="M196.688 249.398L197.941 248.152" stroke="#EBEBEB" stroke-width="0.7" stroke-miterlimit="10"/>
<path d="M158.314 306.847V305.076" stroke="#EBEBEB" stroke-width="0.7" stroke-miterlimit="10"/>
<path d="M156.627 307.526L155.381 306.28" stroke="#EBEBEB" stroke-width="0.7" stroke-miterlimit="10"/>
<path d="M155.92 309.199H154.156" stroke="#EBEBEB" stroke-width="0.7" stroke-miterlimit="10"/>
<path d="M156.606 310.886L155.353 312.132" stroke="#EBEBEB" stroke-width="0.7" stroke-miterlimit="10"/>
<path d="M158.279 311.593V313.357" stroke="#EBEBEB" stroke-width="0.7" stroke-miterlimit="10"/>
<path d="M159.959 310.914L161.212 312.16" stroke="#EBEBEB" stroke-width="0.7" stroke-miterlimit="10"/>
<path d="M160.673 309.234H162.437" stroke="#EBEBEB" stroke-width="0.7" stroke-miterlimit="10"/>
<path d="M159.987 307.554L161.233 306.301" stroke="#EBEBEB" stroke-width="0.7" stroke-miterlimit="10"/>
<path d="M292.644 292.847V291.083" stroke="#EBEBEB" stroke-width="0.7" stroke-miterlimit="10"/>
<path d="M290.957 293.533L289.711 292.28" stroke="#EBEBEB" stroke-width="0.7" stroke-miterlimit="10"/>
<path d="M290.25 295.206H288.486" stroke="#EBEBEB" stroke-width="0.7" stroke-miterlimit="10"/>
<path d="M290.929 296.886L289.683 298.139" stroke="#EBEBEB" stroke-width="0.7" stroke-miterlimit="10"/>
<path d="M292.609 297.6V299.364" stroke="#EBEBEB" stroke-width="0.7" stroke-miterlimit="10"/>
<path d="M294.289 296.914L295.542 298.16" stroke="#EBEBEB" stroke-width="0.7" stroke-miterlimit="10"/>
<path d="M294.996 295.241H296.767" stroke="#EBEBEB" stroke-width="0.7" stroke-miterlimit="10"/>
<path d="M294.317 293.554L295.563 292.308" stroke="#EBEBEB" stroke-width="0.7" stroke-miterlimit="10"/>
<path d="M97.2598 287.317V285.546" stroke="#EBEBEB" stroke-width="0.7" stroke-miterlimit="10"/>
<path d="M95.5733 287.996L94.3203 286.75" stroke="#EBEBEB" stroke-width="0.7" stroke-miterlimit="10"/>
<path d="M94.8662 289.669H93.0952" stroke="#EBEBEB" stroke-width="0.7" stroke-miterlimit="10"/>
<path d="M95.5448 291.356L94.2988 292.602" stroke="#EBEBEB" stroke-width="0.7" stroke-miterlimit="10"/>
<path d="M97.2183 292.063V293.827" stroke="#EBEBEB" stroke-width="0.7" stroke-miterlimit="10"/>
<path d="M98.9048 291.384L100.151 292.63" stroke="#EBEBEB" stroke-width="0.7" stroke-miterlimit="10"/>
<path d="M99.6123 289.704H101.383" stroke="#EBEBEB" stroke-width="0.7" stroke-miterlimit="10"/>
<path d="M98.9331 288.024L100.179 286.771" stroke="#EBEBEB" stroke-width="0.7" stroke-miterlimit="10"/>
<path d="M187.875 445.034C172.948 445.034 158.356 440.608 145.944 432.314C133.533 424.021 123.859 412.234 118.147 398.443C112.434 384.652 110.939 369.476 113.852 354.836C116.764 340.195 123.952 326.747 134.507 316.192C145.062 305.637 158.511 298.448 173.151 295.536C187.792 292.624 202.967 294.119 216.758 299.831C230.549 305.544 242.337 315.217 250.63 327.629C258.923 340.04 263.349 354.633 263.349 369.56C263.327 389.57 255.368 408.754 241.219 422.904C227.07 437.053 207.886 445.012 187.875 445.034ZM187.875 294.765C173.082 294.765 158.621 299.152 146.322 307.37C134.022 315.589 124.435 327.27 118.774 340.937C113.113 354.604 111.632 369.643 114.518 384.152C117.404 398.661 124.527 411.988 134.987 422.448C145.448 432.908 158.775 440.032 173.284 442.918C187.792 445.804 202.831 444.323 216.498 438.662C230.165 433 241.847 423.414 250.065 411.114C258.284 398.814 262.67 384.353 262.67 369.56C262.643 349.732 254.754 330.723 240.733 316.703C226.712 302.682 207.704 294.793 187.875 294.765Z" fill="#EBEBEB"/>
<path d="M187.875 436.851C174.566 436.851 161.556 432.905 150.49 425.51C139.424 418.116 130.799 407.607 125.706 395.311C120.613 383.015 119.281 369.485 121.877 356.432C124.473 343.379 130.882 331.389 140.293 321.978C149.704 312.567 161.694 306.158 174.747 303.562C187.8 300.966 201.33 302.298 213.626 307.391C225.922 312.484 236.431 321.109 243.825 332.175C251.219 343.241 255.166 356.251 255.166 369.56C255.147 387.401 248.052 404.506 235.436 417.122C222.821 429.737 205.716 436.833 187.875 436.851ZM187.875 302.948C174.698 302.947 161.817 306.853 150.861 314.172C139.904 321.492 131.365 331.897 126.321 344.07C121.278 356.243 119.958 369.639 122.529 382.562C125.099 395.486 131.444 407.357 140.761 416.674C150.079 425.991 161.95 432.336 174.873 434.906C187.796 437.477 201.192 436.157 213.365 431.114C225.539 426.071 235.943 417.531 243.263 406.574C250.582 395.618 254.488 382.737 254.487 369.56C254.467 351.9 247.442 334.969 234.954 322.481C222.467 309.993 205.535 302.968 187.875 302.948Z" fill="#EBEBEB"/>
<path d="M141.657 254.261L141.027 254.515L145.69 266.055L146.319 265.801L141.657 254.261Z" fill="#EBEBEB"/>
<path d="M148.391 270.917L147.762 271.171L155.453 290.207L156.082 289.953L148.391 270.917Z" fill="#EBEBEB"/>
<path d="M73.6628 320.713L73.3975 321.338L84.8541 326.201L85.1194 325.576L73.6628 320.713Z" fill="#EBEBEB"/>
<path d="M90.2043 327.737L89.939 328.362L108.838 336.384L109.103 335.759L90.2043 327.737Z" fill="#EBEBEB"/>
<path d="M84.1174 411.113L72.5776 415.775L72.832 416.404L84.3717 411.742L84.1174 411.113Z" fill="#EBEBEB"/>
<path d="M108.266 401.366L89.23 409.057L89.4843 409.686L108.52 401.995L108.266 401.366Z" fill="#EBEBEB"/>
<path d="M143.887 472.315L139.024 483.771L139.649 484.037L144.512 472.58L143.887 472.315Z" fill="#EBEBEB"/>
<path d="M154.07 448.338L146.048 467.237L146.673 467.502L154.695 448.603L154.07 448.338Z" fill="#EBEBEB"/>
<path d="M230.059 473.067L229.429 473.321L234.092 484.861L234.721 484.607L230.059 473.067Z" fill="#EBEBEB"/>
<path d="M220.305 448.918L219.675 449.172L227.366 468.208L227.996 467.954L220.305 448.918Z" fill="#EBEBEB"/>
<path d="M290.89 412.922L290.625 413.547L302.082 418.41L302.347 417.785L290.89 412.922Z" fill="#EBEBEB"/>
<path d="M266.921 402.742L266.655 403.367L285.554 411.389L285.819 410.764L266.921 402.742Z" fill="#EBEBEB"/>
<path d="M302.924 322.711L291.384 327.373L291.638 328.003L303.178 323.34L302.924 322.711Z" fill="#EBEBEB"/>
<path d="M286.266 329.442L267.23 337.133L267.485 337.763L286.521 330.072L286.266 329.442Z" fill="#EBEBEB"/>
<path d="M236.095 255.087L231.232 266.544L231.857 266.809L236.72 255.353L236.095 255.087Z" fill="#EBEBEB"/>
<path d="M229.079 271.628L221.057 290.527L221.682 290.793L229.704 271.894L229.079 271.628Z" fill="#EBEBEB"/>
<path d="M188.218 235.685H187.539V266.303H188.218V235.685Z" fill="#EBEBEB"/>
<path d="M188.218 273.205H187.539V283.838H188.218V273.205Z" fill="#EBEBEB"/>
<path d="M93.4567 274.651L92.9766 275.131L114.627 296.782L115.107 296.301L93.4567 274.651Z" fill="#EBEBEB"/>
<path d="M119.992 301.18L119.512 301.66L127.03 309.178L127.511 308.698L119.992 301.18Z" fill="#EBEBEB"/>
<path d="M84.618 369.224H54V369.903H84.618V369.224Z" fill="#EBEBEB"/>
<path d="M102.153 369.224H91.52V369.903H102.153V369.224Z" fill="#EBEBEB"/>
<path d="M114.613 442.355L92.9629 464.005L93.443 464.485L115.093 442.835L114.613 442.355Z" fill="#EBEBEB"/>
<path d="M127.012 429.95L119.493 437.469L119.973 437.949L127.492 430.43L127.012 429.95Z" fill="#EBEBEB"/>
<path d="M188.218 472.817H187.539V503.435H188.218V472.817Z" fill="#EBEBEB"/>
<path d="M188.218 455.282H187.539V465.915H188.218V455.282Z" fill="#EBEBEB"/>
<path d="M261.129 442.308L260.648 442.789L282.299 464.439L282.779 463.959L261.129 442.308Z" fill="#EBEBEB"/>
<path d="M248.731 429.91L248.25 430.39L255.769 437.908L256.249 437.428L248.731 429.91Z" fill="#EBEBEB"/>
<path d="M321.75 369.224H291.132V369.903H321.75V369.224Z" fill="#EBEBEB"/>
<path d="M284.23 369.224H273.597V369.903H284.23V369.224Z" fill="#EBEBEB"/>
<path d="M282.305 274.677L260.655 296.327L261.135 296.807L282.786 275.157L282.305 274.677Z" fill="#EBEBEB"/>
<path d="M255.775 301.207L248.256 308.726L248.736 309.206L256.255 301.687L255.775 301.207Z" fill="#EBEBEB"/>
<path d="M189.422 369.56C189.424 369.866 189.334 370.166 189.165 370.421C188.996 370.676 188.755 370.876 188.472 370.994C188.189 371.112 187.878 371.144 187.578 371.085C187.277 371.026 187.001 370.879 186.784 370.663C186.567 370.447 186.419 370.171 186.358 369.871C186.298 369.571 186.328 369.259 186.445 368.976C186.562 368.693 186.76 368.451 187.015 368.281C187.269 368.11 187.569 368.02 187.875 368.02C188.284 368.02 188.677 368.182 188.967 368.47C189.256 368.759 189.42 369.15 189.422 369.56Z" fill="#EBEBEB"/>
<path d="M260.598 506.732C257.434 502.651 253.836 498.15 254.053 492.732C254.256 487.727 255.936 482.176 260.535 479.509C261.844 478.753 262.803 478.494 263.223 480.209C263.867 482.778 262.768 485.907 262.222 488.399C261.467 491.616 261.022 494.897 260.892 498.199C260.815 500.509 260.983 502.826 260.976 505.143C260.976 505.437 260.976 505.724 260.976 506.018C260.976 506.13 260.976 506.242 260.976 506.354C261 506.396 261.028 506.436 261.06 506.473C261.079 506.51 261.088 506.551 261.088 506.592C261.088 506.633 261.079 506.674 261.06 506.711C261.052 506.743 261.035 506.772 261.011 506.795C260.982 506.822 260.947 506.843 260.908 506.855C260.87 506.867 260.829 506.87 260.79 506.864C260.75 506.858 260.712 506.843 260.679 506.82C260.646 506.797 260.618 506.767 260.598 506.732Z" fill="#795C06"/>
<path d="M261.018 506.739C258.435 503.015 255.418 499.158 255.789 494.412C256.012 492.199 256.584 490.035 257.483 488C257.868 487.076 259.016 484.318 260.22 484.255C262.397 484.143 259.52 492.893 259.345 493.915C258.907 497.727 259.469 501.587 260.976 505.115C260.976 505.409 260.976 505.696 260.976 505.99C259.866 503.523 259.168 500.891 258.911 498.199C258.589 494.461 259.849 491.346 260.528 487.755C260.682 486.978 261.284 484.521 259.947 484.717C259.072 484.85 257.931 487.517 257.693 488.112C256.844 490.042 256.296 492.091 256.069 494.188C255.614 498.969 258.554 502.861 261.067 506.683C261.055 506.705 261.038 506.724 261.018 506.739Z" fill="white"/>
<path d="M259.702 510.883L259.142 511.128C259.121 511.14 259.097 511.147 259.072 511.147C259.048 511.147 259.024 511.14 259.002 511.128C258.957 511.099 258.924 511.054 258.91 511.003C258.896 510.951 258.901 510.896 258.925 510.848C258.936 510.829 258.95 510.813 258.967 510.799C258.983 510.786 259.003 510.776 259.023 510.771H259.107L259.282 510.715L259.317 510.666C261.557 507.929 264.217 505.57 266.443 502.791C268.543 500.138 270.482 497.345 272.799 494.86C274.255 493.299 281.955 485.963 283.6 490.492C284.3 492.501 282.732 495.392 281.745 497.058C280.389 499.285 278.647 501.252 276.6 502.868C271.574 506.837 265.463 508.342 259.702 510.883Z" fill="#795C06"/>
<path d="M271.217 504.429C273.221 503.099 275.026 501.492 276.579 499.655C277.111 499.011 279.666 495.931 278.826 494.923C278.28 494.265 276.838 495.126 276.355 495.392C274.255 496.519 272.778 498.535 271.196 500.236C267.959 503.684 264.476 506.892 260.773 509.833C260.507 509.973 260.234 510.113 259.975 510.26C259.716 510.407 259.534 510.498 259.317 510.617L259.086 510.736L258.911 510.834C258.886 510.883 258.881 510.939 258.895 510.992C258.909 511.045 258.942 511.091 258.988 511.121C259.156 511.023 259.331 510.939 259.499 510.848L259.128 511.135L259.583 510.925L259.688 510.883C259.905 510.729 260.108 510.568 260.311 510.407C264 508.489 267.787 506.767 271.217 504.429ZM261.669 509.399C263.832 507.684 265.911 505.857 267.899 503.939C269.509 502.399 271.042 500.782 272.533 499.137C273.352 498.178 274.248 497.288 275.214 496.477C275.97 495.889 278.938 493.922 278.217 496.694C277.692 498.703 275.116 500.943 273.618 502.217C271.942 503.616 270.143 504.861 268.242 505.934C266.1 507.138 263.867 508.237 261.669 509.399Z" fill="white"/>
<path d="M249.832 521.411C249.785 521.369 249.742 521.322 249.706 521.271C247.144 517.302 243.112 512.458 243.35 507.446C243.532 503.75 245.569 498.773 249.244 497.261C253.388 495.56 252.583 503.393 252.464 505.395C251.968 510.755 251.175 516.083 250.091 521.355C250.091 521.355 250.091 521.418 250.056 521.453C250.056 521.453 249.909 521.481 249.832 521.411Z" fill="#795C06"/>
<path d="M250.035 521.46L249.972 520.501C249.748 516.84 249.678 513.165 249.79 509.504C249.79 508.58 250.553 501.503 248.712 501.839C247.599 502.049 246.934 504.688 246.696 505.556C246.261 507.108 246.088 508.722 246.185 510.33C246.437 514.026 248.32 517.372 249.629 520.83C249.706 520.984 249.762 521.152 249.825 521.313C249.821 521.348 249.821 521.383 249.825 521.418C249.916 521.481 250 521.537 250.035 521.46ZM246.766 512.311C246.442 510.698 246.392 509.041 246.619 507.411C246.766 506.333 247.431 502.413 248.81 502.343C249.51 502.301 249.461 502.756 249.601 503.582C249.661 503.962 249.701 504.346 249.72 504.73C249.762 505.675 249.72 506.627 249.643 507.565C249.559 509.224 249.51 510.869 249.503 512.535C249.503 515.244 249.587 517.953 249.769 520.662C248.824 517.841 247.354 515.209 246.766 512.311Z" fill="white"/>
<path d="M262.754 522.699C257.644 524.856 252.008 525.443 246.563 524.386C246.529 524.381 246.498 524.366 246.472 524.344C246.435 524.315 246.409 524.274 246.396 524.229C246.384 524.184 246.386 524.136 246.402 524.092C246.418 524.044 246.451 524.003 246.495 523.977C246.538 523.952 246.59 523.943 246.64 523.952L246.976 524.008C252.639 520.9 258.316 517.869 263.93 514.649C265.246 513.893 273.772 509.217 274.227 512.549C274.514 514.6 271.371 517.008 270.027 518.149C267.851 520.03 265.398 521.565 262.754 522.699Z" fill="#795C06"/>
<path d="M268.739 516.315C269.075 515.874 269.362 515.321 268.739 515.055C267.486 514.537 263.538 516.819 262.404 517.4C257.742 519.78 252.989 521.691 248.145 523.637L246.92 524.134H246.437C246.422 524.177 246.42 524.224 246.433 524.268C246.445 524.312 246.471 524.351 246.507 524.379L246.633 524.337C246.843 524.337 247.067 524.337 247.284 524.337C250.718 524.363 254.134 523.848 257.406 522.811C259.476 522.158 261.472 521.292 263.363 520.228C265.064 519.241 267.5 517.939 268.739 516.315ZM247.522 524.099H247.2L247.711 523.924C251.556 522.658 255.313 521.143 258.96 519.388C260.801 518.485 262.586 517.47 264.462 516.637C265.253 516.28 267.458 515.202 268.193 515.545C268.928 515.888 268.144 516.427 267.745 516.805C267.451 517.071 266.877 517.505 266.583 517.708C261.064 521.798 254.392 524.036 247.522 524.099Z" fill="white"/>
<path d="M235.79 533.129L235.244 532.366C235.909 531.862 236.574 531.365 237.225 530.861C239.885 528.817 242.519 526.738 245.128 524.624C246.619 523.42 248.075 522.202 249.482 520.942C249.531 520.9 249.58 520.851 249.629 520.816C249.678 520.781 249.853 520.606 249.972 520.501C250.091 520.396 250.217 520.277 250.343 520.158C253.544 517.338 256.28 514.031 258.449 510.358C259.149 509.112 259.807 507.838 260.43 506.536C260.493 506.417 260.549 506.291 260.605 506.165C260.626 506.134 260.642 506.101 260.654 506.067C260.717 505.941 260.773 505.808 260.836 505.675C260.899 505.542 260.927 505.486 260.969 505.381C262.81 501.37 264.336 497.198 265.953 493.117C266.408 491.948 266.877 490.772 267.353 489.617C267.381 489.538 267.409 489.468 267.437 489.407C267.467 489.319 267.502 489.232 267.542 489.148C269.642 483.989 271.742 478.851 273.681 473.65C273.751 473.454 274.038 473.594 273.968 473.783C272.708 477.283 271.525 480.783 270.321 484.283C270.167 484.752 269.999 485.221 269.845 485.683L268.9 488.399C268.256 490.24 267.598 492.074 266.912 493.901C264.994 499.025 263.125 504.282 260.577 509.161C260.388 509.525 260.192 509.861 259.989 510.246C259.863 510.47 259.744 510.701 259.611 510.911C259.478 511.121 259.317 511.429 259.17 511.681C256.489 516.189 252.905 519.689 248.957 522.944C248.684 523.168 248.411 523.399 248.124 523.644L247.739 523.959C247.668 524.011 247.6 524.067 247.536 524.127L247.263 524.337C247.193 524.379 247.13 524.442 247.06 524.491L246.36 525.065C243.721 527.13 241.047 529.16 238.38 531.169C237.484 531.799 236.637 532.499 235.79 533.129Z" fill="#795C06"/>
<path d="M268.634 474.798C269.943 470.668 273.828 463.794 279.078 464.711C280.07 464.847 280.977 465.346 281.624 466.111C282.27 466.876 282.61 467.854 282.578 468.855C282.578 471.34 280.863 473.678 279.4 475.54C275.48 480.503 271.133 485.06 267.57 490.31C267.57 490.359 267.262 490.758 267.185 490.877C267.108 490.996 266.954 490.877 267.024 490.744L267.374 490.233C267.374 485.144 267.08 479.691 268.634 474.798Z" fill="#795C06"/>
<path d="M267.556 490.345L267.605 490.233C268.258 488.661 269.006 487.13 269.845 485.648C271.626 482.584 273.599 479.636 275.753 476.821C276.565 475.722 280.653 470.521 277.272 470.122C275.872 469.968 274.381 471.186 273.401 472.075C271.846 473.517 270.591 475.251 269.705 477.178C267.906 480.993 267.5 485.214 267.437 489.372C267.437 489.568 267.437 489.757 267.437 489.946L267.36 490.114L267.311 490.226C267.305 490.251 267.305 490.278 267.311 490.303C267.314 490.324 267.321 490.344 267.333 490.362C267.345 490.379 267.36 490.394 267.378 490.405C267.397 490.416 267.417 490.422 267.438 490.424C267.459 490.426 267.48 490.423 267.5 490.415C267.527 490.4 267.547 490.375 267.556 490.345ZM267.556 489.113C267.594 485.66 268.158 482.233 269.229 478.949C269.833 477.248 270.689 475.648 271.77 474.203C272.255 473.566 272.791 472.969 273.373 472.418C273.804 472 274.273 471.623 274.773 471.291C275.858 470.556 277.342 470.164 277.902 470.71C278.602 471.41 278.343 471.977 277.811 473.132C277.638 473.524 277.437 473.903 277.209 474.266C276.656 475.183 276.019 476.051 275.382 476.905C274.325 478.305 273.282 479.747 272.281 481.21C271.581 482.204 270.951 483.212 270.342 484.241C269.283 486.013 268.347 487.856 267.542 489.757C267.5 489.547 267.5 489.33 267.542 489.099L267.556 489.113Z" fill="white"/>
<path d="M104.4 500.145C106.955 502.497 109.342 505.045 111.701 507.558C113.045 508.993 114.368 510.449 115.712 511.891C117.189 513.48 118.582 515.251 120.661 516.028C120.751 516.072 120.835 516.126 120.913 516.189V516.224C120.925 516.269 120.925 516.316 120.913 516.361C120.9 516.406 120.876 516.447 120.842 516.479C120.809 516.511 120.767 516.534 120.721 516.545C120.676 516.555 120.628 516.553 120.584 516.539L120.451 516.49H120.395C119.75 516.421 119.115 516.275 118.505 516.056C116.796 515.655 115.113 515.153 113.465 514.551C110.07 513.355 106.839 511.737 103.847 509.735C101.193 507.932 98.7901 505.785 96.7 503.351C95.02 501.398 92.5 498.521 92.024 495.889C91.604 493.509 94.67 493.978 96.098 494.398C99.318 495.357 101.999 497.919 104.4 500.145Z" fill="#795C06"/>
<path d="M96.7003 498.402C96.0003 499.424 98.7373 502.525 99.8993 503.911C101.74 506.086 103.839 508.027 106.15 509.693C110.317 512.658 114.956 514.894 119.87 516.308C120.066 516.364 120.269 516.434 120.465 516.483H120.5L120.633 516.532C120.678 516.546 120.725 516.548 120.771 516.538C120.816 516.527 120.858 516.505 120.892 516.472C120.925 516.44 120.95 516.399 120.962 516.354C120.975 516.309 120.975 516.262 120.962 516.217C120.57 516.035 120.192 515.846 119.821 515.636C119.45 515.426 119.121 515.265 118.827 515.069C115.278 512.969 112.191 510.015 109.167 507.215C105.618 503.932 97.6523 497.051 96.7003 498.402ZM119.352 515.699C119.849 515.972 120.346 516.217 120.85 516.455L119.653 516.063C115.364 514.691 111.28 512.749 107.508 510.288C105.396 508.882 103.439 507.256 101.67 505.437C100.726 504.478 99.8402 503.464 99.0173 502.399C98.6743 501.944 96.4483 499.228 97.0363 498.696C97.4493 498.318 100.011 499.991 100.067 500.026C100.578 500.348 101.082 500.726 101.579 501.076C102.594 501.825 103.574 502.63 104.533 503.442C106.633 505.227 108.6 507.124 110.623 508.979C113.311 511.408 116.139 513.949 119.352 515.699Z" fill="white"/>
<path d="M123.65 489.589C125.974 494.076 126.513 499.242 126.583 504.219C126.583 506.886 126.527 509.56 126.499 512.22C126.499 514.453 126.296 517.043 126.751 519.367C126.751 519.465 126.793 519.57 126.821 519.675C126.961 520.328 127.173 520.964 127.451 521.572C127.463 521.591 127.469 521.612 127.469 521.635C127.469 521.657 127.463 521.679 127.451 521.698C127.495 521.756 127.535 521.816 127.57 521.88C127.57 521.922 127.57 521.978 127.507 521.936L127.339 521.789C127.308 521.793 127.276 521.787 127.249 521.77C127.222 521.754 127.202 521.728 127.192 521.698C127.189 521.672 127.189 521.646 127.192 521.621L127.031 521.474C123.132 517.883 120.948 511.8 119.464 506.914C117.98 502.028 117.301 496.834 118.589 491.85C118.911 490.597 119.464 487.65 120.976 487.195C122.306 486.789 123.167 488.637 123.65 489.589Z" fill="#795C06"/>
<path d="M121.599 492.501C120.073 492.753 120.395 496.946 120.437 497.975C120.637 501.076 121.105 504.153 121.837 507.173C122.936 512.15 124.364 516.91 126.912 521.278C126.912 521.341 126.912 521.397 126.961 521.453C127.013 521.51 127.07 521.564 127.129 521.614C127.141 521.655 127.165 521.692 127.197 521.72C127.229 521.749 127.269 521.768 127.311 521.775C127.311 521.691 127.269 521.614 127.255 521.537C127.087 520.921 126.94 520.298 126.807 519.675L126.744 519.367C125.862 515.034 125.708 510.554 125.386 506.123C125.204 503.034 124.736 499.969 123.986 496.967C123.797 496.204 122.88 492.284 121.599 492.501ZM122.999 494.72C125.099 499.557 125.029 505.304 125.379 510.47C125.517 513.966 125.993 517.44 126.8 520.844C124.752 516.78 123.26 512.46 122.362 507.999C121.75 505.477 121.282 502.923 120.962 500.348C120.78 498.956 120.703 497.552 120.731 496.148C120.742 495.303 120.848 494.463 121.046 493.642C121.585 492.116 122.6 493.887 122.971 494.699L122.999 494.72Z" fill="white"/>
<path d="M135.739 528.397C135.762 528.437 135.775 528.483 135.775 528.53C135.775 528.576 135.762 528.622 135.739 528.663H135.837C135.848 528.662 135.858 528.663 135.869 528.666C135.879 528.67 135.888 528.675 135.896 528.683C135.904 528.69 135.91 528.699 135.915 528.709C135.919 528.718 135.921 528.729 135.921 528.74C135.923 528.75 135.923 528.76 135.921 528.77C135.919 528.781 135.915 528.79 135.909 528.799C135.903 528.807 135.895 528.814 135.887 528.82C135.878 528.825 135.868 528.829 135.858 528.831C129.852 529.776 123.174 530.049 117.266 528.439C114.777 527.769 112.413 526.701 110.266 525.275C108.796 524.288 105.849 522.293 105.674 520.312C105.345 516.322 115.901 520.459 117.49 521.089C120.388 522.23 123.181 523.616 126.051 524.82C129.201 526.129 132.435 527.207 135.662 528.32C135.694 528.338 135.721 528.365 135.739 528.397Z" fill="#795C06"/>
<path d="M135.739 528.397C135.41 528.397 135.095 528.334 134.773 528.292C129.521 527.709 124.39 526.318 119.562 524.169C117.169 523.024 114.682 522.088 112.128 521.369C111.491 521.215 109.146 520.473 109.517 521.978C109.72 522.762 113.584 524.995 114.634 525.478C117.055 526.576 119.601 527.375 122.215 527.858C126.593 528.717 131.061 529.025 135.515 528.775H135.9C135.9 528.764 135.898 528.754 135.894 528.744C135.889 528.734 135.883 528.725 135.875 528.718C135.867 528.711 135.858 528.705 135.848 528.702C135.838 528.698 135.827 528.697 135.816 528.698H135.718C135.752 528.656 135.772 528.604 135.775 528.551C135.779 528.497 135.766 528.443 135.739 528.397ZM124.455 527.928C121.83 527.576 119.249 526.947 116.755 526.052C115.785 525.689 114.836 525.271 113.913 524.799C113.184 524.43 112.482 524.009 111.813 523.539C110.189 522.356 109.86 521.929 110 521.614C110.084 521.418 110.427 521.313 111.75 521.53C112.6 521.679 113.433 521.913 114.235 522.23C115.376 522.664 116.503 523.133 117.63 523.63C119.877 524.603 122.124 525.604 124.434 526.43C127.749 527.596 131.205 528.317 134.71 528.572C131.28 528.645 127.849 528.43 124.455 527.928Z" fill="white"/>
<path d="M135.116 511.142C136.543 512.783 137.601 514.712 138.217 516.798C139.617 520.886 140.072 525.198 141.15 529.398C141.311 530.021 141.486 530.637 141.675 531.26C141.675 531.323 142.109 532.009 142.06 531.96C142.011 531.911 141.85 531.75 141.528 531.407C139.904 529.699 135.067 524.456 133.212 520.907C132.002 518.709 131.062 516.373 130.412 513.949C130.146 512.801 129.656 510.19 130.804 509.301C131.952 508.412 134.339 510.323 135.116 511.142Z" fill="#795C06"/>
<path d="M132.652 512.157C131.049 512.822 134.374 519.892 134.752 520.823C136.316 524.26 138.321 527.479 140.716 530.399C140.975 530.735 141.248 531.057 141.521 531.379C141.794 531.701 142.046 531.932 142.06 531.939C142.074 531.946 141.703 531.295 141.675 531.239C141.647 531.183 141.612 531.029 141.577 530.924C141.423 530.406 141.283 529.895 141.15 529.391C140.093 526.591 139.092 523.791 137.972 520.991C137.198 518.984 136.262 517.043 135.172 515.188C134.906 514.789 133.359 511.863 132.652 512.157ZM133.968 513.613C137.566 518.779 138.868 524.988 141.248 530.721L141.36 530.994C141.269 530.868 141.157 530.742 141.066 530.616C139.147 528.159 137.466 525.524 136.047 522.748C135.185 521.058 134.427 519.316 133.779 517.533C133.38 516.569 133.046 515.58 132.778 514.572C132.68 514.131 132.463 512.906 132.778 512.752C133.177 512.528 133.73 513.277 133.968 513.599V513.613Z" fill="white"/>
<path d="M103.952 470.598C109.615 480.048 106.752 492.179 111.743 501.909V501.958C111.897 502.256 112.058 502.55 112.226 502.84C112.242 502.869 112.251 502.902 112.252 502.935C112.252 502.969 112.245 503.002 112.23 503.032C112.214 503.061 112.192 503.087 112.164 503.106C112.137 503.125 112.105 503.137 112.072 503.141C112.043 503.144 112.013 503.139 111.987 503.125C111.96 503.111 111.939 503.09 111.925 503.064C111.881 502.994 111.841 502.921 111.806 502.847C107.319 498.682 103.679 493.047 101.012 487.538C98.6949 482.778 97.1619 477.43 97.9529 472.138C98.1419 470.822 98.4429 468.204 100.053 467.714C101.663 467.224 103.252 469.436 103.952 470.598Z" fill="#795C06"/>
<path d="M102.006 474.07C101.306 474.287 101.257 475.267 101.18 475.806C100.991 477.144 100.963 478.5 101.096 479.845C101.375 482.602 102.067 485.301 103.147 487.853C104.854 492.278 107.101 496.475 109.839 500.348C110.469 501.209 111.134 502.049 111.841 502.847C111.925 502.952 112.016 503.043 112.1 503.141C112.133 503.137 112.165 503.125 112.193 503.106C112.22 503.087 112.242 503.061 112.258 503.032C112.273 503.002 112.281 502.969 112.28 502.935C112.279 502.902 112.27 502.869 112.254 502.84C112.086 502.56 111.939 502.28 111.785 501.993L111.743 501.916C110.6 500.046 109.641 498.07 108.88 496.015C107.829 492.772 106.985 489.466 106.353 486.117C106.073 484.808 104.281 473.321 102.006 474.07ZM103.497 476.002C104.652 478.473 105.023 481.287 105.597 483.926C106.171 486.565 106.759 489.274 107.396 491.934C107.898 494.05 108.58 496.121 109.433 498.122C110.139 499.791 110.994 501.394 111.988 502.91C110.859 501.53 109.819 500.081 108.873 498.57C108.867 498.549 108.867 498.527 108.873 498.507C107.219 495.804 105.739 492.998 104.442 490.107L104.386 490.002C103.172 487.485 102.265 484.832 101.684 482.099C101.387 480.608 101.26 479.089 101.306 477.57C101.383 475.848 101.621 474.462 102.209 474.441C102.608 474.399 103.161 475.274 103.497 476.002Z" fill="white"/>
<path d="M104.652 489.981C106.199 492.711 107.816 495.42 109.447 498.122C110.212 499.391 110.978 500.656 111.743 501.916L111.785 501.993L112.611 503.393C115.11 507.516 117.581 511.863 120.731 515.538C122.417 517.463 124.277 519.228 126.289 520.809L126.912 521.306L127.255 521.565C127.317 521.618 127.383 521.667 127.451 521.712C129.201 523.063 131.035 524.337 132.813 525.555C135.298 527.263 137.881 528.796 140.513 530.301C140.587 530.351 140.664 530.395 140.744 530.434L141.094 530.644L141.276 530.749L141.605 530.945C142.445 531.421 143.271 531.911 144.111 532.408L143.572 533.157C140.843 531.931 138.208 530.504 135.69 528.887C135.636 528.859 135.585 528.826 135.536 528.789C135.284 528.642 135.039 528.481 134.836 528.32C134.633 528.159 134.227 527.935 133.933 527.732C133.233 527.256 132.533 526.78 131.833 526.332C127.773 523.532 123.629 520.508 120.332 516.812L120.066 516.504L119.947 516.371C119.877 516.301 119.814 516.224 119.751 516.154L119.45 515.79C119.268 515.573 119.1 515.349 118.925 515.132L118.778 514.929C116.083 511.429 113.92 507.446 111.778 503.666L110.609 501.566L109.965 500.397C109.65 499.809 109.335 499.207 109.013 498.619C109.007 498.599 109.007 498.577 109.013 498.556C107.522 495.756 106.087 492.956 104.582 490.156C104.4 489.974 104.582 489.848 104.652 489.981Z" fill="#795C06"/>
<path d="M55.3999 532.835C140.282 532.408 235.51 532.408 320.399 532.835C235.51 533.269 140.282 533.269 55.3999 532.835Z" fill="#263238"/>
<path d="M240.837 385.618L187.875 408.368L134.92 385.618V336.289H240.837V385.618Z" fill="white"/>
<path d="M156.102 336.289V394.718L134.913 385.611V336.289H156.102Z" fill="#640D5F"/>
<path d="M198.473 336.289V403.818L187.882 408.368L177.284 403.818V336.289H198.473Z" fill="#640D5F"/>
<path d="M240.837 336.289V385.611L219.648 394.718V336.289H240.837Z" fill="#640D5F"/>
<path opacity="0.1" d="M134.913 376.084V336.289H240.837V342.19C240.837 342.19 156.102 333.216 134.913 376.084Z" fill="black"/>
<path d="M244.75 328.743H131C129.074 328.743 127.514 330.303 127.514 332.229V332.803C127.514 334.728 129.074 336.289 131 336.289H244.75C246.675 336.289 248.236 334.728 248.236 332.803V332.229C248.236 330.303 246.675 328.743 244.75 328.743Z" fill="#FFC727"/>
<path d="M187.875 396.699C185.966 396.695 184.099 397.257 182.51 398.314C180.921 399.372 179.682 400.877 178.948 402.639C178.215 404.401 178.021 406.341 178.391 408.214C178.761 410.086 179.678 411.807 181.026 413.158C182.374 414.509 184.093 415.43 185.964 415.804C187.836 416.178 189.777 415.988 191.541 415.258C193.304 414.529 194.812 413.293 195.873 411.706C196.934 410.119 197.5 408.253 197.5 406.345C197.5 403.79 196.487 401.34 194.682 399.531C192.878 397.723 190.43 396.704 187.875 396.699ZM187.875 409.999C187.156 409.999 186.454 409.786 185.857 409.386C185.259 408.987 184.794 408.42 184.519 407.756C184.244 407.092 184.172 406.362 184.312 405.657C184.452 404.952 184.798 404.305 185.306 403.797C185.814 403.289 186.462 402.943 187.166 402.803C187.871 402.662 188.601 402.734 189.265 403.009C189.929 403.284 190.497 403.75 190.896 404.347C191.295 404.945 191.508 405.647 191.508 406.366C191.508 407.329 191.125 408.253 190.444 408.935C189.763 409.616 188.839 409.999 187.875 409.999Z" fill="#FFC727"/>
<path opacity="0.1" d="M197.5 406.345C197.432 408.857 196.386 411.244 194.585 412.997C192.784 414.75 190.37 415.731 187.857 415.731C185.344 415.731 182.93 414.75 181.129 412.997C179.328 411.244 178.282 408.857 178.215 406.345C178.212 406.092 178.224 405.84 178.25 405.589C180.397 404.935 182.607 404.51 184.844 404.322C184.525 404.793 184.322 405.332 184.25 405.896C184.178 406.46 184.239 407.033 184.429 407.569C184.619 408.105 184.932 408.589 185.343 408.982C185.754 409.375 186.251 409.666 186.795 409.832C187.339 409.997 187.914 410.033 188.475 409.936C189.035 409.838 189.564 409.611 190.021 409.272C190.477 408.933 190.848 408.491 191.102 407.983C191.357 407.474 191.488 406.913 191.487 406.345C191.487 405.623 191.27 404.918 190.864 404.322C193.114 404.507 195.339 404.932 197.5 405.589C197.517 405.84 197.517 406.093 197.5 406.345Z" fill="black"/>
<path d="M232.238 514.178C256.74 489.676 256.74 449.951 232.238 425.449C207.736 400.947 168.011 400.947 143.509 425.449C119.007 449.951 119.007 489.676 143.509 514.178C168.011 538.68 207.736 538.68 232.238 514.178Z" fill="#FFC727"/>
<path d="M250.616 469.814C250.442 486.338 243.755 502.126 232.008 513.749C220.262 525.373 204.404 531.892 187.879 531.892C171.353 531.892 155.496 525.373 143.749 513.749C132.002 502.126 125.316 486.338 125.141 469.814C125.141 469.233 125.141 468.652 125.141 468.071C125.574 451.72 132.377 436.184 144.099 424.776C155.82 413.367 171.535 406.988 187.892 406.998C204.249 407.008 219.955 413.406 231.663 424.829C243.371 436.252 250.154 451.796 250.567 468.148C250.609 468.701 250.616 469.254 250.616 469.814Z" fill="#FFC727"/>
<path d="M222.145 504.086C241.073 485.158 241.073 454.469 222.145 435.541C203.217 416.614 172.529 416.613 153.601 435.541C134.673 454.469 134.673 485.158 153.601 504.086C172.529 523.013 203.217 523.013 222.145 504.086Z" fill="#FFC727"/>
<path opacity="0.1" d="M236.336 469.814C236.336 470.395 236.336 470.976 236.336 471.557C235.884 459.013 230.582 447.134 221.548 438.42C212.514 429.706 200.451 424.836 187.899 424.836C175.347 424.836 163.285 429.706 154.251 438.42C145.217 447.134 139.915 459.013 139.463 471.557C139.463 470.976 139.463 470.395 139.463 469.814C139.386 463.401 140.583 457.036 142.984 451.088C145.385 445.141 148.942 439.729 153.45 435.166C157.958 430.604 163.327 426.981 169.245 424.509C175.163 422.037 181.514 420.764 187.927 420.764C194.341 420.764 200.692 422.037 206.61 424.509C212.528 426.981 217.897 430.604 222.405 435.166C226.913 439.729 230.47 445.141 232.871 451.088C235.272 457.036 236.469 463.401 236.392 469.814H236.336Z" fill="black"/>
<path opacity="0.05" d="M250.616 469.814C250.442 486.338 243.755 502.126 232.008 513.749C220.262 525.373 204.404 531.892 187.879 531.892C171.353 531.892 155.496 525.373 143.749 513.749C132.002 502.126 125.316 486.338 125.141 469.814C125.141 469.233 125.141 468.652 125.141 468.071C129.936 468.233 134.707 468.816 139.4 469.814C145.077 470.941 173.42 456.066 198.648 459.181C222.448 462.121 236.329 469.814 236.329 469.814C236.329 469.814 244.211 468.477 250.588 468.148C250.609 468.701 250.616 469.254 250.616 469.814Z" fill="black"/>
<path d="M139.4 469.814C139.4 469.233 139.4 468.652 139.4 468.078C139.852 480.621 145.153 492.501 154.188 501.215C163.222 509.929 175.284 514.798 187.836 514.798C200.388 514.798 212.451 509.929 221.485 501.215C230.519 492.501 235.82 480.621 236.273 468.078C236.273 468.652 236.273 469.233 236.273 469.814C236.35 476.227 235.153 482.592 232.752 488.54C230.351 494.487 226.794 499.899 222.286 504.462C217.778 509.024 212.409 512.646 206.491 515.119C200.572 517.591 194.222 518.864 187.808 518.864C181.394 518.864 175.044 517.591 169.126 515.119C163.208 512.646 157.839 509.024 153.331 504.462C148.823 499.899 145.265 494.487 142.864 488.54C140.463 482.592 139.267 476.227 139.344 469.814H139.4Z" fill="#FFC727"/>
<g opacity="0.2">
<path d="M174.771 493.138C174.393 492.325 174.227 491.429 174.288 490.534V489.365C174.227 488.47 174.393 487.575 174.771 486.761C174.93 486.49 175.162 486.269 175.44 486.123C175.719 485.977 176.032 485.912 176.346 485.935H183.689V455.135L176.283 456.164C175.499 456.164 174.939 455.541 174.596 454.281C174.254 453.017 174.082 451.713 174.085 450.403C174.085 449.353 174.68 448.709 175.87 448.485L191.032 445.685C191.681 445.698 192.316 445.874 192.88 446.196C193.524 446.541 193.846 446.919 193.846 447.33V485.956H199.6C199.914 485.933 200.227 485.998 200.506 486.144C200.784 486.29 201.016 486.511 201.175 486.782C201.553 487.596 201.719 488.491 201.658 489.386V490.555C201.719 491.45 201.553 492.346 201.175 493.159C201.018 493.433 200.787 493.657 200.508 493.806C200.23 493.954 199.915 494.021 199.6 493.999H176.346C176.029 494.019 175.713 493.949 175.434 493.797C175.155 493.644 174.925 493.416 174.771 493.138Z" fill="black"/>
</g>
<path d="M201.182 486.761C201.023 486.49 200.791 486.269 200.513 486.123C200.234 485.977 199.92 485.912 199.607 485.935H198.627C198.762 486.518 198.826 487.115 198.816 487.713V488.805C198.872 489.637 198.718 490.47 198.368 491.227C198.218 491.477 198.002 491.681 197.744 491.815C197.486 491.95 197.195 492.011 196.905 491.99H175.296C174.971 492.003 174.648 491.925 174.365 491.766C174.406 492.255 174.544 492.731 174.771 493.166C174.931 493.435 175.164 493.655 175.442 493.799C175.72 493.944 176.033 494.008 176.346 493.985H199.6C199.912 494.008 200.225 493.944 200.504 493.799C200.782 493.655 201.014 493.435 201.175 493.166C201.55 492.349 201.716 491.452 201.658 490.555V489.386C201.724 488.485 201.56 487.582 201.182 486.761ZM192.887 446.161C192.321 445.838 191.683 445.66 191.032 445.643L190.759 445.692C191.284 445.993 191.55 446.329 191.55 446.686V485.886H193.839V447.309C193.839 446.903 193.517 446.525 192.887 446.182V446.161ZM175.24 454.911C175.083 454.914 174.927 454.881 174.785 454.813C175.128 455.702 175.625 456.143 176.283 456.143L183.689 455.107V453.707L175.24 454.911Z" fill="#FFC727"/>
<g opacity="0.4">
<path d="M201.182 486.761C201.023 486.49 200.791 486.269 200.513 486.123C200.234 485.977 199.92 485.912 199.607 485.935H198.627C198.762 486.518 198.826 487.115 198.816 487.713V488.805C198.872 489.637 198.718 490.47 198.368 491.227C198.218 491.477 198.002 491.681 197.744 491.815C197.486 491.95 197.195 492.011 196.905 491.99H175.296C174.971 492.003 174.648 491.925 174.365 491.766C174.406 492.255 174.544 492.731 174.771 493.166C174.931 493.435 175.164 493.655 175.442 493.799C175.72 493.944 176.033 494.008 176.346 493.985H199.6C199.912 494.008 200.225 493.944 200.504 493.799C200.782 493.655 201.014 493.435 201.175 493.166C201.55 492.349 201.716 491.452 201.658 490.555V489.386C201.724 488.485 201.56 487.582 201.182 486.761ZM192.887 446.161C192.321 445.838 191.683 445.66 191.032 445.643L190.759 445.692C191.284 445.993 191.55 446.329 191.55 446.686V485.886H193.839V447.309C193.839 446.903 193.517 446.525 192.887 446.182V446.161ZM175.24 454.911C175.083 454.914 174.927 454.881 174.785 454.813C175.128 455.702 175.625 456.143 176.283 456.143L183.689 455.107V453.707L175.24 454.911Z" fill="white"/>
</g>
<g opacity="0.5">
<path d="M131.896 450.046C137.013 431.965 151.762 416.341 170.074 411.399C176.138 409.772 182.454 409.297 188.694 409.999C182.633 410.67 176.665 412.013 170.9 414.003C153.687 420.205 140.457 434.17 131.896 450.046Z" fill="white"/>
</g>
<path d="M274.08 358.682C272.337 358.878 225.731 348.882 224.198 347.398C223.61 346.831 224.667 339.957 226.179 331.69C226.508 329.905 224.394 303.228 224.394 303.228L252.8 305.51L256.3 338.032C256.3 338.032 272.435 349.834 273.947 351.668C275.459 353.502 275.83 358.486 274.08 358.682Z" fill="#EB9481"/>
<path d="M274.08 358.682C272.337 358.878 225.738 348.882 224.198 347.398C223.68 346.894 224.443 341.497 225.661 334.553C227.95 336.366 257.091 348.413 265.204 347.783C268.529 347.524 261.354 341.826 261.053 341.588C265.953 345.221 272.904 350.485 273.87 351.661C275.389 353.495 275.83 358.486 274.08 358.682Z" fill="#263238"/>
<path d="M224.45 326.496L257.245 330.955C257.245 330.955 252.562 292.532 250.301 278.14C248.6 267.458 236.259 262.376 225.199 269.803C211.675 278.903 202.54 287.877 196.016 293.897L194.483 292.847L175.324 295.031C175.324 295.031 174.897 322.03 202.554 322.03C213.376 322.03 223.981 308.38 224.03 308.73C224.226 309.836 224.45 326.496 224.45 326.496Z" fill="#D91656"/>
<path opacity="0.1" d="M224.037 308.702C224.037 308.562 221.608 311.502 218.129 314.617L224.03 290.915L224.037 308.702Z" fill="black"/>
<path d="M181.855 295.899C182.996 302.675 186.461 310.004 193.307 312.454C198.487 314.463 202.981 312.195 206.866 308.723C212.893 303.326 217.303 296.417 221.867 289.781C222.701 288.481 223.637 287.249 224.667 286.099C224.867 285.873 225.139 285.725 225.437 285.679C225.955 285.742 225.962 286.316 226.095 286.666C227.726 296.69 227.936 306.868 228.517 316.99C227.593 307.491 227.117 296.123 225.493 286.813C225.451 286.619 225.386 286.43 225.297 286.253C225.317 286.27 225.34 286.284 225.365 286.292C225.391 286.301 225.417 286.304 225.444 286.302C224.17 287.282 223.344 288.85 222.413 290.138C220.152 293.491 217.926 296.893 215.462 300.134C211.115 305.636 204.017 314.785 196.149 313.644C187.56 312.566 182.793 303.774 181.869 295.892L181.855 295.899Z" fill="#263238"/>
<path d="M253.808 322.226C252.114 321.813 239.073 320.077 228.083 319.58C228.006 319.58 227.999 319.692 228.083 319.706C231.618 320.406 251.764 322.436 253.794 322.366C253.843 322.366 253.885 322.24 253.808 322.226Z" fill="#263238"/>
<g opacity="0.1">
<path d="M177.48 306.056L215.168 316.948C211.5 319.685 207.048 322.03 202.568 322.03C187 322.03 180.35 313.525 177.48 306.056Z" fill="black"/>
<path d="M257.245 330.961L224.45 326.488C224.45 326.488 224.408 323.289 224.345 319.607L257 329.057L257.245 330.961Z" fill="black"/>
</g>
<path d="M257.7 451.376C255.971 451.096 213.796 428.892 212.725 427.03C212.312 426.33 215.189 419.995 218.878 412.442C219.676 410.811 218.913 380.578 218.913 380.578L246.626 392.408L246.108 426.708C246.108 426.708 258.456 442.43 259.408 444.6C260.36 446.77 259.415 451.663 257.7 451.376Z" fill="#EB9481"/>
<path d="M257.7 451.376C255.971 451.096 213.796 428.892 212.725 427.03C212.361 426.407 214.559 421.43 217.625 415.06C219.34 417.426 244.134 436.9 252.121 438.489C255.39 439.14 250.021 431.72 249.797 431.405C253.514 436.228 258.799 443.179 259.415 444.565C260.339 446.735 259.415 451.663 257.7 451.376Z" fill="#263238"/>
<path d="M249.622 418.735L217.247 405.155C217.247 405.155 215.91 372.255 219.228 353.705C219.557 351.857 174.715 341.693 164.705 330.087C154.107 317.795 164.754 294.478 164.754 294.478L194.483 292.847C194.483 292.847 196.709 304.747 196.863 309.759C196.919 311.565 192.187 313.413 192.509 313.721C193.307 314.498 235.174 321.659 246.535 329.989C255.649 336.674 249.622 418.735 249.622 418.735Z" fill="#D91656"/>
<path d="M245.016 407.976C243.504 407.108 231.457 401.83 221.034 398.295C220.964 398.295 220.922 398.386 220.985 398.414C224.191 400.059 242.979 407.605 244.946 408.102C245.016 408.116 245.1 408.011 245.016 407.976Z" fill="#263238"/>
<path d="M197.115 310.207C193.957 312.042 190.966 314.15 188.176 316.507C188.161 316.514 188.149 316.524 188.138 316.537C188.128 316.549 188.121 316.564 188.116 316.579C188.112 316.595 188.112 316.611 188.114 316.627C188.117 316.643 188.124 316.658 188.133 316.671C188.142 316.685 188.154 316.696 188.168 316.704C188.182 316.712 188.197 316.717 188.213 316.719C188.229 316.721 188.246 316.719 188.261 316.714C188.276 316.709 188.29 316.7 188.302 316.689C191.333 314.687 194.441 312.734 197.367 310.564C197.414 310.531 197.446 310.48 197.456 310.423C197.466 310.366 197.453 310.307 197.419 310.259C197.386 310.212 197.335 310.18 197.278 310.17C197.221 310.16 197.162 310.174 197.115 310.207Z" fill="#263238"/>
<path d="M193.657 293.343C193.657 293.259 193.468 293.28 193.489 293.343C194.083 296.037 194.527 298.762 194.819 301.505C194.966 302.779 195.407 309.674 192.887 309.737C192.467 309.737 192.187 309.443 192.005 308.911C191.843 308.276 191.779 307.62 191.816 306.965C191.767 305.467 191.662 303.976 191.48 302.492C191.161 299.727 190.527 297.008 189.59 294.386C189.59 294.302 189.415 294.337 189.436 294.428C190.344 298.178 190.934 301.997 191.2 305.845C191.298 307.707 190.885 310.626 193.027 310.416C195.169 310.206 195.596 305.369 195.582 304.074C195.463 300.423 194.814 296.809 193.657 293.343Z" fill="#263238"/>
<path d="M192.803 310.018C192.657 310.711 192.554 311.412 192.495 312.118C192.394 312.659 192.394 313.214 192.495 313.756C192.503 313.777 192.517 313.796 192.536 313.809C192.555 313.822 192.577 313.829 192.6 313.829C192.623 313.829 192.645 313.822 192.664 313.809C192.683 313.796 192.697 313.777 192.705 313.756C192.922 313.221 193.059 312.657 193.111 312.083C193.223 311.446 193.349 310.802 193.447 310.165C193.45 310.086 193.426 310.009 193.378 309.947C193.331 309.885 193.263 309.841 193.186 309.824C193.11 309.806 193.03 309.816 192.96 309.852C192.89 309.887 192.834 309.946 192.803 310.018Z" fill="#263238"/>
<path d="M168.506 295.899C165.93 304.341 163.102 317.123 167.666 325.18C170.067 328.715 174.288 330.528 177.956 332.523C180.525 333.79 183.15 334.952 185.796 336.023C197.731 340.993 210.079 344.885 222.259 349.211C223.367 349.565 224.434 350.035 225.444 350.611C225.759 350.905 225.717 351.367 225.738 351.738C225.633 354.314 224.905 357.758 224.604 360.32C223.04 371.71 222.571 383.224 223.204 394.704C222.329 383.235 222.63 371.707 224.1 360.299C224.401 357.793 225.024 354.244 225.164 351.78C225.164 351.458 225.164 351.08 224.996 351.08C222.716 350.071 220.378 349.194 217.996 348.455C207.104 344.773 196.17 341.154 185.565 336.688C182.912 335.568 180.28 334.392 177.697 333.104C173.959 331.074 169.682 329.149 167.26 325.474C162.661 317.074 165.727 304.558 168.52 295.941L168.506 295.899Z" fill="#263238"/>
<path d="M186.146 224.499C186.146 224.499 179.846 220.845 173.021 226.599C164.929 233.48 169.178 257.644 168.625 259.807C168.072 261.97 167.12 262.46 166.749 264.392C166.378 266.324 167.96 267.64 168.149 268.34C168.338 269.04 166.294 272.54 166.294 272.54C166.294 272.54 176.913 275.627 183.654 274.486C190.395 273.345 198.053 268.935 198.053 268.935C198.053 268.935 196.583 266.744 196.611 265.722C196.639 264.7 197.864 263.377 197.815 261.522C197.766 259.667 195.015 257.322 194.763 256.342C194.511 255.362 194 237.246 192.6 230.799C191.2 224.352 186.146 224.499 186.146 224.499Z" fill="#263238"/>
<path d="M198.389 268.48C197.819 267.775 197.348 266.996 196.989 266.163C196.895 265.942 196.858 265.701 196.884 265.463C197.255 263.986 198.585 262.705 198.375 261.102C198.074 259.877 196.912 258.841 196.135 257.875C195.609 257.36 195.234 256.712 195.05 255.999C195.05 255.733 195.05 255.523 195.05 255.299C194.686 247.963 193.881 240.144 192.817 232.528C192.617 230.733 192.063 228.997 191.186 227.418C192.17 228.953 192.821 230.677 193.097 232.479C194.428 240.023 195.26 247.646 195.589 255.299C195.589 255.516 195.589 255.761 195.589 255.943C195.758 256.549 196.072 257.104 196.506 257.56C197.318 258.624 198.466 259.66 198.739 261.06C198.935 262.768 197.556 264.007 197.059 265.505C197.025 265.715 197.046 265.929 197.122 266.128C197.449 266.968 197.882 267.763 198.41 268.494L198.389 268.48Z" fill="#263238"/>
<path d="M165.776 271.63C166.238 270.699 166.889 269.53 167.274 268.592C167.204 268.446 167.117 268.31 167.015 268.186C166.092 267.15 165.616 265.791 165.692 264.406C165.839 262.768 167.001 261.41 167.575 259.975C167.91 258.989 168.039 257.946 167.953 256.909C167.953 247.949 165.797 232.962 172.853 226.592C173.66 225.879 174.583 225.311 175.583 224.912C174.618 225.365 173.731 225.97 172.958 226.704C166.315 233.291 168.597 247.97 168.471 256.916C168.554 258.014 168.396 259.118 168.009 260.15C167.358 261.599 166.231 262.782 166 264.399C165.894 265.434 166.141 266.475 166.7 267.353C166.903 267.703 167.141 268.053 167.344 268.368C167.384 268.425 167.404 268.494 167.4 268.564C166.902 269.612 166.343 270.632 165.727 271.616L165.776 271.63Z" fill="#263238"/>
<path d="M184.578 260.598C189.037 266.548 204.598 282.928 210.212 283.208C215.826 283.488 230.099 268.711 233.753 265.953C236.273 264.056 220.103 251.897 217.968 253.78C214.181 257.112 209.624 265.337 207.839 265.393C206.726 265.393 197.094 259.415 188.701 255.593C182.142 252.632 181.302 256.223 184.578 260.598Z" fill="#EB9481"/>
<path d="M236.749 262.852C234.572 266.128 227.502 271.084 225.339 271.623C223.176 272.162 214.349 260.423 214.951 258.211C215.553 255.999 223.743 245.541 227.551 244.323C231.359 243.105 239.01 259.457 236.749 262.852Z" fill="#EB9481"/>
<path d="M215.035 258.421C215.422 255.426 215.627 252.41 215.651 249.391C215.539 246.08 213.824 243.189 215.707 242.629C217.59 242.069 220.012 245.856 220.663 250.812C220.663 250.812 228.111 257.112 226.62 263.979C225.129 270.846 215.035 258.421 215.035 258.421Z" fill="#EB9481"/>
<path d="M215.189 241.04L209.764 243.336C209.764 243.336 207.664 243.126 206.208 240.417C205.788 239.701 205.52 238.907 205.42 238.083C205.32 237.259 205.391 236.424 205.627 235.629L210.492 232.598L210.625 232.836C210.361 234.39 210.63 235.989 211.388 237.372C212.145 238.937 213.457 240.165 215.07 240.816L215.189 241.04Z" fill="#FFC727"/>
<g opacity="0.5">
<path d="M215.189 241.04L209.764 243.336C209.764 243.336 207.664 243.126 206.208 240.417C205.788 239.701 205.52 238.907 205.42 238.083C205.32 237.259 205.391 236.424 205.627 235.629L210.492 232.598L210.625 232.836C210.361 234.39 210.63 235.989 211.388 237.372C212.145 238.937 213.457 240.165 215.07 240.816L215.189 241.04Z" fill="black"/>
</g>
<path opacity="0.1" d="M210.492 232.598C210.271 233.497 210.239 234.433 210.399 235.345C210.56 236.258 210.908 237.127 211.423 237.897C213.131 240.746 215.189 241.04 215.189 241.04L215.07 240.816C213.458 240.165 212.145 238.937 211.388 237.372C210.63 235.989 210.362 234.39 210.625 232.836L210.492 232.598Z" fill="black"/>
<path d="M231.527 257.399L232.626 255.908C232.626 255.908 228.356 250.308 227.369 248.789C226.382 247.27 222.791 237.162 222.791 237.162L221.566 237.463L222.868 248.663L231.527 257.399Z" fill="#FFC727"/>
<path opacity="0.1" d="M231.527 257.399L232.626 255.908C232.626 255.908 228.356 250.308 227.369 248.789C226.382 247.27 222.791 237.162 222.791 237.162L221.566 237.463L222.868 248.663L231.527 257.399Z" fill="black"/>
<path d="M215.084 239.773C215.084 239.773 217.527 250.273 218.696 253.192C219.952 255.912 221.388 258.545 222.994 261.074L231.527 257.399C231.527 257.399 227.404 251.743 226.438 250.175C224.338 246.801 221.538 237.463 221.538 237.463L215.084 239.773Z" fill="#FFC727"/>
<path d="M222.637 261.711L231.527 257.371L232.626 255.88L228.811 250.399L228.489 250.357L227.264 251.379L219.725 255.404L219.606 255.124L219.417 255.887L222.637 261.711Z" fill="#060212"/>
<path d="M219.417 255.887L227.495 251.582L228.811 250.399L228.489 250.357L227.264 251.379L219.725 255.404L219.606 255.124L219.417 255.887Z" fill="#640D5F"/>
<path d="M227.495 251.582L231.527 257.371L232.626 255.88L228.811 250.399L227.495 251.582Z" fill="#263238"/>
<path opacity="0.15" d="M223.687 239.605L222.238 239.955L215.868 243.021C215.504 241.299 215.084 239.766 215.084 239.766L221.566 237.435L222.791 237.134C222.791 237.134 223.218 238.191 223.687 239.605Z" fill="black"/>
<path d="M231.912 208.742C231.912 208.742 228.069 217.947 220.712 224.695C218.156 227.09 215.381 229.242 212.424 231.121C212.424 231.121 210.394 232.836 212.375 237.127C214.699 241.243 217.275 240.627 217.275 240.627C220.529 239.329 223.896 238.338 227.334 237.666C237.134 235.615 246.843 237.883 246.843 237.883V237.834C244.925 237.589 242.174 234.985 239.479 230.988C239.304 230.729 239.136 230.463 238.961 230.197C237.896 228.53 236.924 226.805 236.049 225.031C235.112 223.27 234.278 221.456 233.55 219.599L233.2 218.738C231.534 214.209 231.03 210.457 231.954 208.756L231.912 208.742Z" fill="#FFC727"/>
<path d="M231.912 208.742C231.912 208.742 228.069 217.947 220.712 224.695C218.155 227.09 215.381 229.242 212.424 231.121C212.424 231.121 210.828 232.472 211.843 235.769L211.885 235.888C212.023 236.31 212.187 236.724 212.375 237.127C214.699 241.243 217.275 240.627 217.275 240.627C220.529 239.33 223.896 238.339 227.334 237.666C237.134 235.615 246.843 237.876 246.843 237.876V237.834C244.925 237.589 242.174 234.985 239.479 230.988C239.304 230.729 239.136 230.463 238.961 230.197C237.895 228.53 236.923 226.805 236.049 225.031C235.664 224.331 235.293 223.561 234.95 222.84L234.663 222.238C234.432 221.727 234.208 221.216 233.998 220.712C233.844 220.362 233.704 220.012 233.571 219.669L233.2 218.738C233.081 218.402 232.962 218.073 232.85 217.744C232.738 217.415 232.668 217.198 232.584 216.932L232.458 216.512C231.408 213.012 231.184 210.17 231.954 208.756L231.912 208.742Z" fill="#FFC727"/>
<path opacity="0.3" d="M231.562 215.049L231.415 215.126L233.9 220.516L230.883 215.735L230.484 215.945L232.5 220.691L230.05 216.645L229.462 216.946L231.961 222.98L229.161 218.682L228.391 219.095L230.267 223.505L228.02 219.942L227.138 220.397L228.755 224.38L227.152 222.147L226.235 222.637L227.103 224.961L225.591 222.931L224.667 223.463L225.948 226.424L224.023 223.799L223.106 224.275L224.275 227.831L222.735 225.899L221.881 226.382L223.036 229.266L221.454 227.418L220.663 227.88L221.048 228.944L220.152 227.726L219.389 228.146L220.229 230.295L219.249 229.399L218.591 229.868L218.878 230.526L218.353 229.945L217.695 230.323L218.227 231.842L216.974 230.33L216.386 230.652L216.778 231.828L215.847 230.715L215.308 231.009L216.085 233.298L214.958 231.681L214.517 231.87L214.972 233.879L214.272 233.074L213.922 233.277L214.349 234.495L213.453 233.354L213.187 233.473L213.677 235.832L211.997 234.082L211.864 234.145L212.228 236.245L211.787 235.804L211.829 235.923L212.256 236.378L212.326 236.343L212.053 234.376L213.789 236.294L213.992 236.189L213.6 234.089L214.748 235.636L215.07 235.468L214.664 234.25L215.189 234.894L215.574 234.712L215.217 233.025L216.722 235.265L217.219 235.02L216.4 232.367L217.38 233.571L217.947 233.256L217.618 232.199L218.962 233.872L219.599 233.522L219.053 231.884L219.935 232.899L220.6 232.479L220.096 231.289L220.992 232.108L221.692 231.646L221.405 230.904L222.196 231.989L222.994 231.562L222.413 229.945L224.226 232.045L225.038 231.555L224.1 229.322L225.255 230.834L226.151 230.365L225.045 226.956L227.796 230.617L228.72 230.078L227.502 227.278L228.503 228.615L229.427 228.118L228.636 226.018L230.491 228.608L231.394 228.104L230.232 225.304L232.64 229.091L233.473 228.65L231.212 223.414L233.627 227.082L234.327 226.725L231.8 220.698L234.159 224.499L234.656 224.24L232.031 218.332L234.929 222.791L234.642 222.189C234.411 221.678 234.187 221.167 233.977 220.663C233.823 220.313 233.683 219.963 233.55 219.62L233.2 218.738C233.081 218.402 232.962 218.073 232.85 217.744L232.108 216.204L232.584 216.904L232.458 216.484L231.562 215.049Z" fill="white"/>
<path d="M218.269 240.599L211.801 243.343C211.801 243.343 209.302 243.091 207.559 239.843C207.056 238.991 206.733 238.045 206.613 237.063C206.493 236.081 206.576 235.085 206.859 234.138L212.655 230.519L212.809 230.799C212.5 232.654 212.823 234.559 213.726 236.21C214.624 238.08 216.19 239.546 218.115 240.319L218.269 240.599Z" fill="#FFC727"/>
<g opacity="0.2">
<path d="M218.269 240.599L211.801 243.343C211.801 243.343 209.302 243.091 207.559 239.843C207.055 238.991 206.733 238.045 206.612 237.063C206.492 236.081 206.576 235.085 206.859 234.138L212.655 230.519L212.809 230.799C212.5 232.654 212.823 234.559 213.726 236.21C214.623 238.08 216.189 239.546 218.115 240.319L218.269 240.599Z" fill="black"/>
</g>
<path opacity="0.1" d="M212.662 230.498C212.662 230.498 211.682 233.298 213.775 236.798C215.868 240.298 218.269 240.599 218.269 240.599L218.122 240.333C216.196 239.56 214.63 238.094 213.733 236.224C212.83 234.576 212.51 232.672 212.823 230.82L212.662 230.498Z" fill="black"/>
<g opacity="0.2">
<path d="M207.769 234.516C207.732 234.525 207.694 234.522 207.66 234.506C207.626 234.491 207.597 234.465 207.58 234.432C207.568 234.411 207.56 234.389 207.557 234.365C207.554 234.341 207.555 234.317 207.562 234.294C207.568 234.271 207.58 234.25 207.595 234.232C207.61 234.213 207.629 234.198 207.65 234.187L209.05 233.396C209.093 233.374 209.142 233.369 209.188 233.384C209.234 233.398 209.272 233.43 209.295 233.473C209.307 233.493 209.315 233.516 209.318 233.54C209.321 233.564 209.319 233.588 209.313 233.611C209.306 233.634 209.295 233.655 209.28 233.673C209.265 233.692 209.246 233.707 209.225 233.718L207.825 234.502L207.769 234.516Z" fill="black"/>
<path d="M207.832 235.412C207.794 235.422 207.755 235.419 207.72 235.403C207.684 235.388 207.655 235.362 207.636 235.328C207.613 235.286 207.608 235.237 207.621 235.191C207.634 235.145 207.664 235.107 207.706 235.083L209.106 234.299C209.126 234.287 209.149 234.279 209.173 234.276C209.196 234.273 209.22 234.275 209.243 234.281C209.266 234.288 209.288 234.299 209.306 234.314C209.325 234.329 209.34 234.348 209.351 234.369C209.374 234.411 209.379 234.46 209.366 234.506C209.353 234.552 209.322 234.591 209.281 234.614L207.881 235.398L207.832 235.412Z" fill="black"/>
</g>
<g opacity="0.2">
<path d="M211.668 241.999C211.628 242.003 211.589 241.995 211.554 241.976C211.519 241.958 211.49 241.929 211.472 241.894C211.452 241.851 211.45 241.802 211.466 241.758C211.482 241.713 211.514 241.677 211.556 241.656L213.019 240.956C213.04 240.944 213.063 240.937 213.087 240.935C213.11 240.933 213.134 240.936 213.157 240.944C213.179 240.952 213.2 240.964 213.217 240.981C213.234 240.997 213.248 241.017 213.257 241.04C213.267 241.061 213.274 241.084 213.275 241.107C213.277 241.131 213.273 241.154 213.266 241.176C213.258 241.199 213.245 241.219 213.23 241.236C213.214 241.254 213.194 241.268 213.173 241.278L211.717 241.978L211.668 241.999Z" fill="black"/>
<path d="M212.417 242.51C212.379 242.517 212.34 242.511 212.306 242.493C212.271 242.475 212.244 242.447 212.228 242.412C212.208 242.368 212.206 242.318 212.221 242.273C212.237 242.227 212.269 242.189 212.312 242.167L213.768 241.467C213.812 241.447 213.861 241.445 213.907 241.46C213.952 241.476 213.99 241.508 214.013 241.551C214.032 241.594 214.034 241.643 214.019 241.687C214.003 241.731 213.971 241.768 213.929 241.789L212.466 242.489L212.417 242.51Z" fill="black"/>
</g>
<path opacity="0.1" d="M246.829 237.799V237.841C246.829 237.841 237.12 235.58 227.32 237.631C224.171 238.267 221.077 239.149 218.066 240.27H218.136L218.283 240.536L211.815 243.28C211.815 243.28 209.316 243.028 207.573 239.78C207.069 238.928 206.747 237.982 206.627 237C206.506 236.019 206.59 235.022 206.873 234.075C206.985 235.356 209.113 237.764 211.234 237.176C212.83 236.735 212.886 233.774 212.886 233.774C212.886 233.774 219.151 237.659 229.56 233.55C233.011 232.15 236.476 229 236.952 226.725C237.603 227.936 238.275 229.07 238.954 230.127C239.129 230.393 239.297 230.659 239.472 230.918C242.16 234.957 244.911 237.561 246.829 237.799Z" fill="black"/>
<path d="M231.905 208.658C232.064 208.344 232.306 208.08 232.605 207.895C235.132 206.495 240.781 211.99 245.205 220.124C249.629 228.258 251.204 235.972 248.705 237.351L248.558 237.421H248.509C247.543 237.799 246.192 237.295 244.645 236.119C242.545 234.495 240.053 231.597 237.743 227.929C237.178 227.033 236.625 226.1 236.084 225.129C235.272 223.638 234.551 222.168 233.942 220.74C231.632 215.301 230.813 210.618 231.905 208.658Z" fill="#FFC727"/>
<path opacity="0.6" d="M231.905 208.658C232.064 208.344 232.306 208.08 232.605 207.895C235.132 206.495 240.781 211.99 245.205 220.124C249.629 228.258 251.204 235.972 248.705 237.351L248.558 237.421H248.509C247.543 237.799 246.192 237.295 244.645 236.119C242.545 234.495 240.053 231.597 237.743 227.929C237.178 227.033 236.625 226.1 236.084 225.129C235.272 223.638 234.551 222.168 233.942 220.74C231.632 215.301 230.813 210.618 231.905 208.658Z" fill="black"/>
<path opacity="0.2" d="M248.208 226.529L235.867 224.66C235.944 224.814 236.028 224.968 236.112 225.115C236.649 226.099 237.202 227.033 237.771 227.915C240.081 231.59 242.552 234.481 244.673 236.105C246.22 237.281 247.571 237.785 248.537 237.407H248.586L248.733 237.337C250.567 236.343 250.238 231.975 248.208 226.529Z" fill="black"/>
<g opacity="0.1">
<path d="M245.751 221.055L235.867 224.66L244.127 218.199C244.505 218.829 244.883 219.487 245.254 220.159L245.751 221.055Z" fill="white"/>
<path d="M243 216.358L235.867 224.66L242.167 215.182C242.454 215.56 242.72 215.959 243 216.358Z" fill="white"/>
</g>
<path d="M234.25 221.356C234.691 220.813 235.253 220.382 235.892 220.098C236.53 219.814 237.227 219.685 237.925 219.721C238.623 219.757 239.303 219.958 239.909 220.307C240.515 220.655 241.03 221.142 241.412 221.727C241.794 222.313 242.032 222.98 242.108 223.675C242.183 224.37 242.093 225.073 241.845 225.726C241.598 226.38 241.199 226.966 240.682 227.436C240.165 227.907 239.544 228.248 238.87 228.433C238.603 228.509 238.328 228.558 238.051 228.58C237.486 227.684 236.933 226.751 236.392 225.78C235.58 224.261 234.859 222.784 234.25 221.356Z" fill="#FFC727"/>
<path d="M232.829 207.09C234.32 206.684 236.329 207.657 238.695 209.953C241.54 212.873 243.949 216.188 245.849 219.795C247.861 223.342 249.351 227.162 250.273 231.135C250.973 234.754 250.588 237.113 249.062 237.946L248.88 238.037L248.754 238.086C247.571 238.527 246.059 238.086 244.26 236.686C242.02 234.999 239.5 231.989 237.197 228.307C236.63 227.411 236.063 226.445 235.517 225.444C234.691 223.932 233.956 222.434 233.34 220.992C230.862 215.231 230.099 210.492 231.31 208.322C231.538 207.891 231.885 207.536 232.311 207.3C232.474 207.208 232.648 207.138 232.829 207.09ZM248.327 236.784H248.411C249.3 236.294 249.503 234.25 248.936 231.436C248.042 227.599 246.6 223.912 244.652 220.488C242.821 216.999 240.497 213.793 237.75 210.968C235.692 208.973 233.858 208.035 232.962 208.532C232.763 208.646 232.603 208.817 232.5 209.022C231.702 210.457 232.038 214.559 234.6 220.488C235.202 221.888 235.916 223.351 236.7 224.828C237.239 225.801 237.785 226.739 238.338 227.628C240.543 231.128 243 234.047 245.079 235.643C246.437 236.672 247.599 237.113 248.285 236.847L248.327 236.784Z" fill="#FFC727"/>
<path opacity="0.2" d="M232.829 207.09C234.32 206.684 236.329 207.657 238.695 209.953C241.54 212.873 243.949 216.188 245.849 219.795C247.861 223.342 249.351 227.162 250.273 231.135C250.973 234.754 250.588 237.113 249.062 237.946L248.88 238.037L248.754 238.086C247.571 238.527 246.059 238.086 244.26 236.686C242.02 234.999 239.5 231.989 237.197 228.307C236.63 227.411 236.063 226.445 235.517 225.444C234.691 223.932 233.956 222.434 233.34 220.992C230.862 215.231 230.099 210.492 231.31 208.322C231.538 207.891 231.885 207.536 232.311 207.3C232.474 207.208 232.648 207.138 232.829 207.09ZM248.327 236.784H248.411C249.3 236.294 249.503 234.25 248.936 231.436C248.042 227.599 246.6 223.912 244.652 220.488C242.821 216.999 240.497 213.793 237.75 210.968C235.692 208.973 233.858 208.035 232.962 208.532C232.763 208.646 232.603 208.817 232.5 209.022C231.702 210.457 232.038 214.559 234.6 220.488C235.202 221.888 235.916 223.351 236.7 224.828C237.239 225.801 237.785 226.739 238.338 227.628C240.543 231.128 243 234.047 245.079 235.643C246.437 236.672 247.599 237.113 248.285 236.847L248.327 236.784Z" fill="black"/>
<path d="M222.063 247.382C221.972 249.482 224.478 248.376 224.478 248.376C224.478 248.376 221.251 250.805 221.986 252.989C222.721 255.173 225.682 253.689 225.899 253.57C225.731 253.703 222.819 256.013 223.799 258.127C224.779 260.241 227.551 258.393 227.726 258.267C227.607 258.435 226.032 260.752 227.138 262.194C229.028 264.672 233.2 258.855 235.706 258.554C235.706 258.554 236.707 262.754 236.756 262.852C236.756 262.852 240.844 257.399 240.256 254.046C240.176 253.557 239.931 253.11 239.562 252.779C239.192 252.448 238.721 252.253 238.226 252.226C238.226 252.226 239.738 250.609 239.031 248.922C238.667 248.054 236.931 247.872 236.931 247.872C237.252 247.489 237.462 247.026 237.539 246.532C237.615 246.039 237.555 245.534 237.365 245.072C236.791 243.903 235.16 243.896 235.16 243.896C235.16 243.896 235.671 242.097 234.698 241.096C232.745 239.052 222.259 242.923 222.063 247.382Z" fill="#EB9481"/>
<path d="M236.98 247.83C236.988 247.827 236.994 247.821 236.998 247.814C237.003 247.808 237.005 247.8 237.005 247.791C237.005 247.783 237.003 247.775 236.998 247.768C236.994 247.762 236.988 247.756 236.98 247.753C232.68 248.279 228.709 250.322 225.78 253.514C225.682 253.633 225.71 253.836 225.836 253.71C227.887 251.631 233.501 248.789 236.98 247.83Z" fill="#263238"/>
<path d="M227.6 258.568C230.491 255.467 234.082 253.612 238.051 252.268C238.107 252.268 238.051 252.177 238.051 252.184C235.951 252.324 233.494 253.472 231.674 254.522C229.963 255.459 228.529 256.831 227.516 258.498C227.446 258.533 227.537 258.631 227.6 258.568Z" fill="#263238"/>
<path d="M224.478 248.376C223.901 248.898 223.374 249.472 222.903 250.091C222.424 250.675 222.108 251.375 221.986 252.121C221.949 252.466 222.041 252.813 222.245 253.094C222.452 253.375 222.73 253.598 223.05 253.738C223.379 253.856 223.73 253.902 224.079 253.875C224.428 253.847 224.766 253.745 225.073 253.577L226.606 252.821L225.423 254.067C224.895 254.612 224.462 255.241 224.142 255.929C223.972 256.237 223.869 256.579 223.841 256.93C223.813 257.281 223.861 257.635 223.981 257.966C224.089 258.271 224.3 258.529 224.577 258.696C224.854 258.863 225.18 258.929 225.5 258.883C226.224 258.76 226.905 258.456 227.481 258.001L229.105 256.797L227.964 258.463C227.645 258.924 227.389 259.426 227.201 259.954C227.004 260.447 226.956 260.987 227.061 261.508C227.119 261.74 227.241 261.952 227.413 262.119C227.585 262.286 227.8 262.402 228.034 262.453C228.574 262.489 229.113 262.37 229.588 262.11C230.626 261.567 231.618 260.942 232.556 260.241C233.046 259.905 233.529 259.541 234.04 259.247C234.529 258.902 235.084 258.663 235.671 258.547C235.107 258.719 234.583 259.002 234.131 259.38C233.655 259.73 233.193 260.08 232.731 260.472C231.822 261.263 230.84 261.966 229.798 262.572C229.238 262.903 228.594 263.066 227.943 263.041C227.591 262.985 227.263 262.829 226.998 262.59C226.734 262.351 226.544 262.041 226.452 261.697C226.302 261.055 226.346 260.382 226.578 259.765C226.791 259.174 227.08 258.614 227.439 258.099L227.929 258.554C227.262 259.108 226.46 259.475 225.605 259.618C225.119 259.693 224.622 259.591 224.205 259.331C223.811 259.072 223.504 258.702 223.323 258.267C223.174 257.846 223.114 257.399 223.149 256.954C223.184 256.509 223.313 256.076 223.526 255.684C223.889 254.933 224.377 254.249 224.968 253.661L225.325 254.144C224.937 254.338 224.51 254.445 224.076 254.457C223.642 254.47 223.211 254.386 222.812 254.214C222.427 254.015 222.099 253.721 221.86 253.36C221.616 252.991 221.519 252.544 221.587 252.107C221.761 251.316 222.151 250.589 222.714 250.007C223.237 249.397 223.829 248.849 224.478 248.376Z" fill="#263238"/>
<path d="M213.719 257.098L228.139 273.898C228.139 273.898 214.384 285.098 209.47 284.398C204.556 283.698 190.878 269.558 184.41 261.508C178.215 253.808 183.325 252.674 188.981 255.264C195.057 258.064 206.635 264.308 207.181 264.364C207.727 264.42 213.719 257.098 213.719 257.098Z" fill="#FFC727"/>
<path d="M216.701 269.711C217.527 270.789 218.381 271.811 219.242 272.903C219.648 273.414 220.054 273.925 220.481 274.415C220.908 274.905 221.37 275.535 221.881 276.032C221.881 276.032 221.965 276.032 221.937 275.983C221.58 275.381 221.125 274.821 220.726 274.24C220.327 273.659 219.963 273.183 219.571 272.658C218.766 271.566 217.954 270.474 217.121 269.403C215.455 267.247 213.726 265.154 211.969 263.068C211.96 263.062 211.948 263.059 211.937 263.06C211.925 263.06 211.914 263.064 211.905 263.071C211.896 263.078 211.889 263.087 211.886 263.098C211.882 263.109 211.882 263.121 211.885 263.131C213.446 265.357 215.042 267.555 216.701 269.711Z" fill="#263238"/>
<path opacity="0.1" d="M212.9 283.747C211.822 284.254 210.639 284.494 209.449 284.447C204.549 283.747 190.864 269.607 184.396 261.557C179.881 255.957 181.372 253.808 184.697 254.074L212.9 283.747Z" fill="black"/>
<path d="M199.334 294.604L160.547 299.903C160.547 299.903 167.008 265.687 175.457 255.803C179.3 251.33 182.94 251.96 186.405 254.599C187.266 255.257 198.305 270.3 199.425 274.815C199.908 276.712 197.465 280.954 197.465 280.954L199.334 294.604Z" fill="#EBEBEB"/>
<path d="M184.011 263.272L185.523 260.192L188.008 262.747L187.868 264.903L185.39 265.281L184.011 263.272Z" fill="#263238"/>
<path d="M185.39 265.281L187.07 289.151L192.915 299.483L195.967 288.766L187.868 264.903L185.39 265.281Z" fill="#263238"/>
<path d="M186.391 254.039C186.391 254.039 191.347 265.757 191.753 268.802C192.159 271.847 191.284 283.397 191.284 283.397C191.284 283.397 184.018 271.567 182.184 267.717C179.384 261.739 178.439 253.283 178.439 253.283C178.439 253.283 175.961 254.543 172.839 259.24C168.639 265.54 161.639 288.731 159.602 301.583L190.087 304.593L192.887 299.483L195.211 302.395L201.308 296.55L197.5 280.94C197.5 280.94 199.88 276.74 199.46 274.801C198.081 268.69 186.391 254.039 186.391 254.039Z" fill="#FFC727"/>
<path opacity="0.2" d="M191.291 283.369L195.106 269.411L191.914 265.911L194.525 265.281C194.525 265.281 187.161 254.886 186.405 254.081C186.594 254.522 191.354 265.841 191.753 268.83C192.152 271.819 191.34 282.746 191.291 283.369Z" fill="black"/>
<path opacity="0.2" d="M180.952 267.29L179.853 271.966L191.284 283.39C191.067 283.026 183.983 271.49 182.184 267.717C179.384 261.739 178.446 253.283 178.446 253.283L177.851 266.583L180.952 267.29Z" fill="black"/>
<path d="M191.284 283.396C192.188 288.721 192.733 294.099 192.915 299.496C192.015 294.172 191.47 288.793 191.284 283.396Z" fill="#263238"/>
<path d="M188.75 287.009C188.8 287.15 188.894 287.271 189.018 287.355C189.142 287.439 189.29 287.481 189.439 287.475C189.589 287.468 189.732 287.414 189.849 287.32C189.966 287.226 190.049 287.098 190.087 286.953C190.037 286.812 189.943 286.69 189.819 286.606C189.695 286.522 189.547 286.481 189.398 286.487C189.248 286.493 189.105 286.547 188.988 286.641C188.871 286.735 188.788 286.864 188.75 287.009ZM188.75 287.009C188.757 286.774 188.852 286.55 189.017 286.383C189.182 286.215 189.404 286.116 189.639 286.105C189.873 286.095 190.103 286.173 190.283 286.325C190.462 286.477 190.577 286.691 190.605 286.925C190.598 287.16 190.503 287.383 190.338 287.551C190.173 287.718 189.951 287.817 189.717 287.828C189.482 287.839 189.252 287.76 189.072 287.608C188.893 287.456 188.778 287.242 188.75 287.009Z" fill="#263238"/>
<path d="M189.219 291.986C189.269 292.127 189.363 292.248 189.487 292.332C189.611 292.416 189.758 292.458 189.908 292.452C190.058 292.445 190.201 292.391 190.318 292.297C190.434 292.203 190.518 292.074 190.556 291.93C190.506 291.789 190.412 291.667 190.288 291.583C190.164 291.499 190.016 291.458 189.867 291.464C189.717 291.47 189.573 291.524 189.457 291.618C189.34 291.712 189.257 291.841 189.219 291.986ZM189.219 291.986C189.208 291.739 189.295 291.498 189.462 291.315C189.628 291.133 189.861 291.024 190.108 291.013C190.355 291.002 190.596 291.089 190.778 291.256C190.961 291.422 191.07 291.655 191.081 291.902C191.086 292.024 191.068 292.146 191.026 292.261C190.984 292.376 190.92 292.482 190.838 292.572C190.755 292.663 190.656 292.736 190.545 292.788C190.434 292.84 190.314 292.869 190.192 292.875C190.069 292.88 189.947 292.862 189.832 292.82C189.717 292.778 189.611 292.714 189.521 292.632C189.431 292.549 189.358 292.45 189.306 292.339C189.254 292.228 189.224 292.108 189.219 291.986Z" fill="#263238"/>
<path d="M189.688 296.963C189.738 297.104 189.832 297.225 189.956 297.309C190.08 297.393 190.228 297.435 190.377 297.429C190.527 297.422 190.67 297.368 190.787 297.274C190.904 297.18 190.987 297.052 191.025 296.907C190.975 296.766 190.881 296.644 190.757 296.56C190.633 296.476 190.485 296.435 190.336 296.441C190.186 296.447 190.043 296.501 189.926 296.595C189.809 296.689 189.726 296.818 189.688 296.963ZM189.688 296.963C189.677 296.716 189.764 296.475 189.931 296.292C190.098 296.11 190.33 296.001 190.577 295.99C190.824 295.979 191.065 296.066 191.248 296.233C191.43 296.399 191.539 296.632 191.55 296.879C191.555 297.001 191.537 297.123 191.495 297.238C191.453 297.353 191.39 297.459 191.307 297.549C191.224 297.64 191.125 297.713 191.014 297.765C190.903 297.817 190.783 297.846 190.661 297.852C190.539 297.857 190.417 297.839 190.301 297.797C190.186 297.755 190.081 297.691 189.99 297.609C189.9 297.526 189.827 297.427 189.775 297.316C189.723 297.205 189.693 297.085 189.688 296.963Z" fill="#263238"/>
<path d="M179.104 288.506L168.345 287.043L168.072 288.436L178.915 289.906L179.104 288.506Z" fill="#263238"/>
<path d="M187.315 282.382C188.869 281.979 190.454 281.705 192.054 281.563C192.845 281.5 193.643 281.479 194.448 281.479C194.847 281.479 195.246 281.479 195.645 281.444C196.062 281.436 196.476 281.375 196.877 281.262C196.877 281.262 196.926 281.311 196.877 281.325C196.516 281.478 196.144 281.604 195.764 281.703C195.393 281.784 195.016 281.838 194.637 281.864C193.825 281.934 193.013 281.969 192.201 282.025C190.57 282.151 188.939 282.27 187.301 282.522C187.273 282.536 187.245 282.396 187.315 282.382Z" fill="#263238"/>
<path d="M184.151 285.182C185.332 284.593 186.548 284.077 187.791 283.635C188.414 283.419 189.047 283.234 189.688 283.082L190.612 282.865C190.948 282.795 191.312 282.767 191.641 282.69C191.676 282.69 191.697 282.739 191.641 282.753C191.326 282.837 191.025 282.977 190.71 283.082L189.779 283.39C189.156 283.6 188.533 283.817 187.903 284.02C186.65 284.426 185.411 284.839 184.172 285.294C184.13 285.322 184.095 285.21 184.151 285.182Z" fill="#263238"/>
<path d="M172.664 260.031C163.018 276.229 147.541 307.631 144.923 312.972C143.145 316.584 162.647 326.083 163.487 323.472C164.565 320.098 177.053 282.172 178.145 262.761C178.656 253.731 175.751 254.851 172.664 260.031Z" fill="#EB9481"/>
<path d="M164.026 321.631C163.543 324.921 161.226 331.529 159.546 332.516C157.866 333.503 149.13 333.216 144.72 333.139C140.31 333.062 139.463 331.844 139.554 330.339C139.645 328.834 148.892 328.645 148.892 328.645C148.892 328.645 136.502 332.04 133.387 332.579C130.272 333.118 123.097 334.84 122.089 332.25C121.641 331.081 123.615 329.933 123.615 329.933C123.615 329.933 120.598 330.773 120.115 329.275C119.597 327.567 121.991 326.664 121.991 326.664C121.991 326.664 120.115 327.021 120.087 325.635C120.024 322.534 131.791 321.155 131.791 321.155C131.791 321.155 122.747 325.425 122.488 322.898C122.131 319.398 140.604 315.786 142.543 314.288C143.952 313.139 145.272 311.885 146.491 310.536L164.026 321.631Z" fill="#EB9481"/>
<path d="M139.61 331.095C139.582 330.879 139.607 330.66 139.682 330.456C139.758 330.253 139.882 330.071 140.044 329.926C140.359 329.631 140.724 329.394 141.122 329.226C141.941 328.886 142.789 328.621 143.656 328.435C145.399 328.015 147.156 327.735 148.962 327.287C147.131 327.237 145.301 327.421 143.516 327.833C142.605 328.031 141.726 328.356 140.905 328.799C140.481 329.024 140.109 329.337 139.813 329.716C139.662 329.908 139.563 330.136 139.528 330.378C139.492 330.62 139.52 330.867 139.61 331.095Z" fill="#263238"/>
<path d="M123.615 329.919C124.889 329.625 126.142 329.282 127.395 328.932C128.648 328.582 129.901 328.232 131.147 327.861L134.885 326.741C136.131 326.363 137.37 325.992 138.63 325.635C137.329 325.761 136.038 325.976 134.766 326.279C133.485 326.552 132.225 326.902 130.972 327.266C129.719 327.63 128.48 328.036 127.255 328.484C126.03 328.932 124.805 329.38 123.615 329.919Z" fill="#263238"/>
<path d="M135.683 322.499C134.483 322.564 133.29 322.716 132.113 322.954C130.931 323.172 129.762 323.457 128.613 323.808C127.461 324.147 126.329 324.554 125.225 325.026C124.115 325.486 123.039 326.024 122.005 326.636C123.146 326.258 124.259 325.831 125.393 325.467C126.527 325.103 127.654 324.767 128.788 324.396C129.922 324.025 131.07 323.731 132.218 323.409C133.366 323.087 134.5 322.814 135.683 322.499Z" fill="#263238"/>
<path d="M133.905 319.545C130.022 319.834 126.269 321.066 122.971 323.136C124.805 322.513 126.59 321.841 128.41 321.26C130.23 320.679 132.057 320.119 133.905 319.545Z" fill="#263238"/>
<path d="M172.874 259.023C162.255 274.605 147.737 303.865 145.119 309.185L165.601 319.608C166.679 316.234 177.053 282.179 178.145 262.74C178.656 253.731 176.738 253.36 172.874 259.023Z" fill="#FFC727"/>
<path d="M169.843 305.958C172.496 293.848 175.037 280.45 177.697 268.333C175.653 280.982 173.273 293.61 169.843 305.958Z" fill="#263238"/>
<path d="M177.9 269.887C177.709 270.734 177.403 271.551 176.99 272.316C177.18 271.468 177.486 270.651 177.9 269.887Z" fill="#263238"/>
<path d="M178.677 255.089C178.95 255.789 183.115 260.164 186.482 259.569C187.581 259.373 186.776 253.332 186.776 253.332L186.818 252.877L187.406 246.444L179.454 242.699L178.313 242.216C178.313 242.216 178.264 243.987 178.229 246.185V246.5C178.229 246.626 178.229 246.745 178.229 246.864V247.858C178.229 248.117 178.229 248.362 178.229 248.635C178.229 248.908 178.229 249.16 178.229 249.433C178.249 251.326 178.399 253.216 178.677 255.089Z" fill="#EB9481"/>
<path d="M178.229 246.199C179.088 247.873 180.301 249.341 181.784 250.499C183.268 251.657 184.985 252.478 186.818 252.905L187.406 246.472L179.454 242.699L178.313 242.216C178.313 242.216 178.264 243.973 178.229 246.199Z" fill="#263238"/>
<path d="M194.952 235.272C198.046 246.171 191.865 249.272 189.513 249.923C187.378 250.525 180.035 252.31 175.828 241.789C171.621 231.268 175.716 226.389 180.525 224.737C185.334 223.085 191.851 224.366 194.952 235.272Z" fill="#EB9481"/>
<path d="M191.249 232.976C190.986 232.99 190.722 232.99 190.458 232.976C190.179 233.02 189.892 232.968 189.646 232.829C189.578 232.771 189.531 232.692 189.512 232.605C189.493 232.518 189.503 232.426 189.541 232.346C189.641 232.195 189.779 232.074 189.942 231.995C190.104 231.916 190.285 231.883 190.465 231.898C190.833 231.872 191.198 231.984 191.487 232.213C191.552 232.268 191.6 232.341 191.623 232.423C191.647 232.505 191.646 232.592 191.621 232.673C191.596 232.754 191.547 232.826 191.481 232.88C191.415 232.934 191.334 232.967 191.249 232.976Z" fill="#263238"/>
<path d="M183.577 236.231C183.794 236.08 184.002 235.916 184.2 235.741C184.44 235.598 184.629 235.382 184.739 235.125C184.757 235.036 184.745 234.943 184.704 234.862C184.664 234.781 184.597 234.716 184.515 234.677C184.343 234.622 184.159 234.615 183.983 234.655C183.807 234.696 183.645 234.783 183.514 234.908C183.21 235.116 182.995 235.431 182.912 235.79C182.897 235.873 182.906 235.96 182.939 236.038C182.973 236.116 183.028 236.183 183.099 236.23C183.17 236.277 183.253 236.302 183.338 236.302C183.423 236.302 183.506 236.277 183.577 236.231Z" fill="#263238"/>
<path d="M185.796 237.582C185.796 237.582 185.747 237.631 185.754 237.666C185.964 238.415 186.083 239.318 185.453 239.766C185.453 239.766 185.453 239.815 185.453 239.808C186.3 239.451 186.118 238.261 185.796 237.582Z" fill="#263238"/>
<path d="M184.9 236.959C183.654 237.162 184.158 239.633 185.313 239.444C186.468 239.255 185.971 236.784 184.9 236.959Z" fill="#263238"/>
<path d="M184.466 237.183C184.284 237.372 184.123 237.659 183.864 237.736C183.605 237.813 183.29 237.617 183.045 237.407C183.045 237.407 182.996 237.407 183.003 237.442C183.094 237.918 183.374 238.366 183.899 238.338C184.424 238.31 184.599 237.82 184.641 237.316C184.648 237.225 184.543 237.099 184.466 237.183Z" fill="#263238"/>
<path d="M190.164 236.273C190.164 236.273 190.227 236.273 190.234 236.329C190.36 237.106 190.633 237.967 191.375 238.086V238.128C190.5 238.177 190.157 237.029 190.164 236.273Z" fill="#263238"/>
<path d="M190.689 235.342C191.907 235.006 192.488 237.442 191.389 237.771C190.29 238.1 189.674 235.622 190.689 235.342Z" fill="#263238"/>
<path d="M191.242 235.377C191.466 235.461 191.711 235.657 191.942 235.615C192.173 235.573 192.348 235.258 192.46 234.964C192.46 234.929 192.495 234.964 192.509 234.964C192.628 235.433 192.593 235.958 192.159 236.154C191.725 236.35 191.375 236 191.151 235.559C191.116 235.496 191.151 235.349 191.242 235.377Z" fill="#263238"/>
<path d="M189.989 240.158C189.989 240.158 190.388 241.264 190.507 241.803C190.507 241.852 190.395 241.908 190.213 241.957C189.769 242.142 189.283 242.202 188.808 242.129C188.332 242.056 187.886 241.854 187.518 241.544C187.511 241.534 187.507 241.522 187.507 241.509C187.507 241.497 187.51 241.484 187.517 241.474C187.524 241.463 187.533 241.455 187.545 241.45C187.556 241.445 187.569 241.444 187.581 241.446C188.369 241.77 189.241 241.828 190.066 241.614C190.066 241.46 189.31 239.738 189.366 239.717C189.791 239.658 190.222 239.658 190.647 239.717C189.87 237.386 188.729 235.195 187.994 232.864C187.992 232.848 187.995 232.831 188.003 232.816C188.01 232.802 188.023 232.79 188.037 232.783C188.052 232.776 188.069 232.774 188.085 232.777C188.101 232.78 188.116 232.789 188.127 232.801C189.422 235.107 190.485 237.536 191.298 240.053C191.417 240.368 190.22 240.2 189.989 240.158Z" fill="#263238"/>
<path d="M190.08 241.712C189.873 242.227 189.535 242.678 189.1 243.021C188.864 243.202 188.578 243.304 188.281 243.315C187.63 243.315 187.455 242.783 187.427 242.279C187.412 242.01 187.431 241.739 187.483 241.474C188.3 241.832 189.211 241.915 190.08 241.712Z" fill="#263238"/>
<path d="M189.1 243.021C188.864 243.201 188.578 243.304 188.281 243.315C187.63 243.315 187.455 242.783 187.427 242.279C187.748 242.195 188.089 242.223 188.393 242.358C188.697 242.492 188.946 242.726 189.1 243.021Z" fill="#D91656"/>
<path d="M176.5 243.28C178.369 242.762 177.403 238.8 177.403 238.8C177.403 238.8 181.092 237.477 180.385 231.73C180.858 233.357 180.844 235.088 180.343 236.707C180.343 236.707 186.601 233.655 187.343 227.222C187.343 227.222 187.259 230.386 186.594 231.744C188.06 230.642 189.109 229.075 189.569 227.299C189.569 227.299 191.963 230.099 193.153 230.638C193.153 230.638 192.572 225.493 187.889 223.435C185.467 222.378 179.818 221.965 175.947 227.432C175.947 227.432 172.447 230.113 172.447 233.914C172.428 235.672 172.78 237.414 173.478 239.028C174.176 240.641 175.206 242.09 176.5 243.28Z" fill="#263238"/>
<path d="M177.795 242.131C177.795 242.131 174.701 239.121 173.294 240.297C171.887 241.473 174.694 246.149 176.661 246.478C176.913 246.539 177.174 246.548 177.428 246.505C177.683 246.461 177.927 246.367 178.144 246.227C178.361 246.087 178.548 245.904 178.692 245.69C178.837 245.476 178.937 245.234 178.985 244.98L177.795 242.131Z" fill="#EB9481"/>
<path d="M174.127 241.614V241.67C175.527 241.943 176.437 243.014 177.158 244.169C177.059 244.052 176.935 243.959 176.796 243.894C176.657 243.83 176.506 243.797 176.353 243.797C176.2 243.797 176.049 243.83 175.91 243.894C175.771 243.959 175.647 244.052 175.548 244.169C175.548 244.169 175.548 244.246 175.597 244.225C175.812 244.11 176.056 244.064 176.298 244.093C176.539 244.122 176.766 244.224 176.948 244.386C177.251 244.661 177.523 244.969 177.76 245.303C177.837 245.408 178.04 245.303 177.97 245.177C177.669 243.511 175.933 241.439 174.127 241.614Z" fill="#263238"/>
</g>
<defs>
<clipPath id="clip0_486_9246">
<rect width="375" height="600" fill="white"/>
</clipPath>
</defs>
</svg>
