<svg width="1920" height="600" viewBox="0 0 1920 600" fill="none" xmlns="http://www.w3.org/2000/svg">
<g clip-path="url(#clip0_476_17396)">
<rect width="1920" height="600" fill="#060212"/>
<path d="M340 945.5C288.667 945.5 242.467 934.5 201.4 912.5C161.067 889.767 129.167 858.967 105.7 820.1C82.2333 781.233 70.5 737.233 70.5 688.1C70.5 675.633 74.1667 665 81.5 656.2C88.8333 647.4 98.7333 643 111.2 643C123.667 643 133.567 647.4 140.9 656.2C148.233 665 151.9 675.633 151.9 688.1C151.9 721.833 159.967 752.267 176.1 779.4C192.233 805.8 214.233 827.067 242.1 843.2C270.7 858.6 302.233 866.3 336.7 866.3C393.9 866.3 438.633 850.533 470.9 819C503.167 786.733 519.3 745.3 519.3 694.7C519.3 658.767 511.6 627.6 496.2 601.2C480.8 574.067 459.9 553.167 433.5 538.5C407.1 523.1 377.4 515.4 344.4 515.4C332.667 515.4 322.767 511.367 314.7 503.3C306.633 495.233 302.6 484.967 302.6 472.5C302.6 460.767 306.633 450.867 314.7 442.8C322.767 434.733 332.667 430.7 344.4 430.7C370.067 430.7 393.533 424.467 414.8 412C436.8 398.8 454.4 381.567 467.6 360.3C480.8 339.033 487.4 315.567 487.4 289.9C487.4 251.033 474.2 218.767 447.8 193.1C421.4 166.7 386.2 153.5 342.2 153.5C311.4 153.5 283.9 159.733 259.7 172.2C235.5 183.933 216.433 200.067 202.5 220.6C189.3 240.4 182.7 263.133 182.7 288.8C182.7 301.267 178.667 311.9 170.6 320.7C163.267 328.767 153.733 332.8 142 332.8C129.533 332.8 119.633 328.767 112.3 320.7C104.967 311.9 101.3 301.633 101.3 289.9C101.3 249.567 111.567 213.267 132.1 181C153.367 148 181.967 122.333 217.9 104C253.833 84.9333 295.267 75.4 342.2 75.4C384.733 75.4 422.867 84.9333 456.6 104C491.067 122.333 518.2 148 538 181C558.533 213.267 568.8 249.567 568.8 289.9C568.8 314.833 562.567 339.033 550.1 362.5C538.367 385.967 522.6 407.233 502.8 426.3C483 444.633 461.367 458.933 437.9 469.2C475.3 480.2 506.467 497.067 531.4 519.8C556.333 542.533 574.667 569.3 586.4 600.1C598.133 630.167 604 661.7 604 694.7C604 743.1 592.267 786.367 568.8 824.5C546.067 861.9 514.533 891.6 474.2 913.6C433.867 934.867 389.133 945.5 340 945.5Z" fill="#FFB200" fill-opacity="0.5"/>
<path d="M1594 319C1547.33 319 1505.33 309 1468 289C1431.33 268.333 1402.33 240.333 1381 205C1359.67 169.667 1349 129.667 1349 85C1349 73.6667 1352.33 64 1359 56C1365.67 48 1374.67 44 1386 44C1397.33 44 1406.33 48 1413 56C1419.67 64 1423 73.6667 1423 85C1423 115.667 1430.33 143.333 1445 168C1459.67 192 1479.67 211.333 1505 226C1531 240 1559.67 247 1591 247C1643 247 1683.67 232.667 1713 204C1742.33 174.667 1757 137 1757 91C1757 58.3333 1750 30 1736 5.99997C1722 -18.6667 1703 -37.6667 1679 -51C1655 -65 1628 -72 1598 -72C1587.33 -72 1578.33 -75.6667 1571 -83C1563.67 -90.3334 1560 -99.6667 1560 -111C1560 -121.667 1563.67 -130.667 1571 -138C1578.33 -145.333 1587.33 -149 1598 -149C1621.33 -149 1642.67 -154.667 1662 -166C1682 -178 1698 -193.667 1710 -213C1722 -232.333 1728 -253.667 1728 -277C1728 -312.333 1716 -341.667 1692 -365C1668 -389 1636 -401 1596 -401C1568 -401 1543 -395.333 1521 -384C1499 -373.333 1481.67 -358.667 1469 -340C1457 -322 1451 -301.333 1451 -278C1451 -266.667 1447.33 -257 1440 -249C1433.33 -241.667 1424.67 -238 1414 -238C1402.67 -238 1393.67 -241.667 1387 -249C1380.33 -257 1377 -266.333 1377 -277C1377 -313.667 1386.33 -346.667 1405 -376C1424.33 -406 1450.33 -429.333 1483 -446C1515.67 -463.333 1553.33 -472 1596 -472C1634.67 -472 1669.33 -463.333 1700 -446C1731.33 -429.333 1756 -406 1774 -376C1792.67 -346.667 1802 -313.667 1802 -277C1802 -254.333 1796.33 -232.333 1785 -211C1774.33 -189.667 1760 -170.333 1742 -153C1724 -136.333 1704.33 -123.333 1683 -114C1717 -104 1745.33 -88.6667 1768 -68C1790.67 -47.3334 1807.33 -23 1818 4.99998C1828.67 32.3333 1834 61 1834 91C1834 135 1823.33 174.333 1802 209C1781.33 243 1752.67 270 1716 290C1679.33 309.333 1638.67 319 1594 319Z" fill="#FFB200" fill-opacity="0.5"/>
<path d="M571.296 440C570.592 440 570 439.76 569.52 439.28C569.04 438.8 568.8 438.208 568.8 437.504V405.008C568.8 404.272 569.04 403.68 569.52 403.232C570 402.752 570.592 402.512 571.296 402.512H592.992C593.728 402.512 594.32 402.736 594.768 403.184C595.216 403.6 595.44 404.16 595.44 404.864C595.44 405.536 595.216 406.08 594.768 406.496C594.32 406.912 593.728 407.12 592.992 407.12H573.792V418.784H587.568C588.304 418.784 588.896 419.008 589.344 419.456C589.792 419.872 590.016 420.416 590.016 421.088C590.016 421.76 589.792 422.32 589.344 422.768C588.896 423.184 588.304 423.392 587.568 423.392H573.792V435.392H592.992C593.728 435.392 594.32 435.6 594.768 436.016C595.216 436.432 595.44 436.976 595.44 437.648C595.44 438.352 595.216 438.928 594.768 439.376C594.32 439.792 593.728 440 592.992 440H571.296ZM618.908 440C618.588 440 618.284 439.952 617.996 439.856C617.708 439.76 617.436 439.552 617.18 439.232L608.78 429.152L607.052 427.424L598.7 417.536C598.284 417.024 598.06 416.48 598.028 415.904C597.996 415.296 598.156 414.784 598.508 414.368C598.86 413.952 599.388 413.744 600.092 413.744C600.86 413.744 601.468 414.016 601.916 414.56L610.124 424.352L611.372 425.504L620.396 436.304C620.876 436.88 621.1 437.456 621.068 438.032C621.068 438.576 620.86 439.04 620.444 439.424C620.06 439.808 619.548 440 618.908 440ZM600.572 440C599.932 440 599.42 439.808 599.036 439.424C598.684 439.008 598.508 438.512 598.508 437.936C598.508 437.36 598.732 436.784 599.18 436.208L607.34 425.984L609.932 429.632L602.3 439.232C601.82 439.744 601.244 440 600.572 440ZM612.428 427.664L609.116 424.832L616.844 414.56C617.1 414.24 617.372 414.032 617.66 413.936C617.948 413.808 618.268 413.744 618.62 413.744C619.324 413.744 619.852 413.968 620.204 414.416C620.556 414.832 620.716 415.344 620.684 415.952C620.684 416.56 620.46 417.152 620.012 417.728L612.428 427.664ZM636.708 440.192C634.148 440.192 631.86 439.616 629.844 438.464C627.86 437.28 626.292 435.696 625.14 433.712C624.02 431.696 623.46 429.424 623.46 426.896C623.46 424.304 624.02 422 625.14 419.984C626.26 417.968 627.796 416.4 629.748 415.28C631.7 414.128 633.94 413.552 636.468 413.552C638.356 413.552 640.084 413.92 641.652 414.656C643.22 415.36 644.628 416.432 645.876 417.872C646.324 418.384 646.484 418.912 646.356 419.456C646.228 420 645.876 420.48 645.3 420.896C644.852 421.216 644.356 421.328 643.812 421.232C643.268 421.104 642.772 420.816 642.324 420.368C640.756 418.704 638.804 417.872 636.468 417.872C634.836 417.872 633.396 418.256 632.148 419.024C630.9 419.76 629.924 420.8 629.22 422.144C628.516 423.488 628.164 425.072 628.164 426.896C628.164 428.624 628.516 430.16 629.22 431.504C629.956 432.848 630.964 433.92 632.244 434.72C633.524 435.488 635.012 435.872 636.708 435.872C637.828 435.872 638.804 435.744 639.636 435.488C640.5 435.2 641.284 434.768 641.988 434.192C642.5 433.776 643.028 433.552 643.572 433.52C644.116 433.456 644.596 433.6 645.012 433.952C645.556 434.4 645.86 434.912 645.924 435.488C645.988 436.032 645.796 436.528 645.348 436.976C643.044 439.12 640.164 440.192 636.708 440.192ZM665.969 440.192C663.312 440.192 660.945 439.632 658.865 438.512C656.817 437.36 655.201 435.792 654.017 433.808C652.865 431.792 652.289 429.488 652.289 426.896C652.289 424.272 652.833 421.968 653.921 419.984C655.041 417.968 656.577 416.4 658.529 415.28C660.481 414.128 662.721 413.552 665.249 413.552C667.745 413.552 669.889 414.112 671.681 415.232C673.473 416.32 674.833 417.84 675.76 419.792C676.721 421.712 677.201 423.936 677.201 426.464C677.201 427.072 676.993 427.584 676.577 428C676.161 428.384 675.633 428.576 674.993 428.576H655.648V424.736H674.849L672.881 426.08C672.849 424.48 672.529 423.056 671.921 421.808C671.313 420.528 670.449 419.52 669.329 418.784C668.209 418.048 666.849 417.68 665.249 417.68C663.425 417.68 661.857 418.08 660.545 418.88C659.265 419.68 658.289 420.784 657.617 422.192C656.945 423.568 656.609 425.136 656.609 426.896C656.609 428.656 657.009 430.224 657.809 431.6C658.609 432.976 659.713 434.064 661.121 434.864C662.529 435.664 664.145 436.064 665.969 436.064C666.961 436.064 667.969 435.888 668.993 435.536C670.049 435.152 670.897 434.72 671.537 434.24C672.017 433.888 672.529 433.712 673.073 433.712C673.649 433.68 674.145 433.84 674.561 434.192C675.105 434.672 675.393 435.2 675.425 435.776C675.457 436.352 675.201 436.848 674.656 437.264C673.569 438.128 672.209 438.832 670.577 439.376C668.977 439.92 667.441 440.192 665.969 440.192ZM689.685 440C688.277 440 687.029 439.616 685.941 438.848C684.853 438.08 684.005 437.04 683.397 435.728C682.789 434.384 682.485 432.848 682.485 431.12V404.912C682.485 404.208 682.709 403.632 683.157 403.184C683.605 402.736 684.181 402.512 684.885 402.512C685.589 402.512 686.165 402.736 686.613 403.184C687.061 403.632 687.285 404.208 687.285 404.912V431.12C687.285 432.304 687.509 433.28 687.957 434.048C688.405 434.816 688.981 435.2 689.685 435.2H690.885C691.525 435.2 692.037 435.424 692.421 435.872C692.837 436.32 693.045 436.896 693.045 437.6C693.045 438.304 692.741 438.88 692.133 439.328C691.525 439.776 690.741 440 689.781 440H689.685ZM708.719 440.192C706.062 440.192 703.695 439.632 701.615 438.512C699.567 437.36 697.951 435.792 696.767 433.808C695.615 431.792 695.039 429.488 695.039 426.896C695.039 424.272 695.583 421.968 696.671 419.984C697.791 417.968 699.327 416.4 701.279 415.28C703.231 414.128 705.471 413.552 707.999 413.552C710.495 413.552 712.639 414.112 714.431 415.232C716.223 416.32 717.583 417.84 718.51 419.792C719.471 421.712 719.951 423.936 719.951 426.464C719.951 427.072 719.743 427.584 719.327 428C718.911 428.384 718.383 428.576 717.743 428.576H698.398V424.736H717.599L715.631 426.08C715.599 424.48 715.279 423.056 714.671 421.808C714.063 420.528 713.199 419.52 712.079 418.784C710.959 418.048 709.599 417.68 707.999 417.68C706.175 417.68 704.607 418.08 703.295 418.88C702.015 419.68 701.039 420.784 700.367 422.192C699.695 423.568 699.359 425.136 699.359 426.896C699.359 428.656 699.759 430.224 700.559 431.6C701.359 432.976 702.463 434.064 703.871 434.864C705.279 435.664 706.895 436.064 708.719 436.064C709.711 436.064 710.719 435.888 711.743 435.536C712.799 435.152 713.647 434.72 714.287 434.24C714.767 433.888 715.279 433.712 715.823 433.712C716.399 433.68 716.895 433.84 717.311 434.192C717.855 434.672 718.143 435.2 718.175 435.776C718.207 436.352 717.951 436.848 717.406 437.264C716.319 438.128 714.959 438.832 713.327 439.376C711.727 439.92 710.191 440.192 708.719 440.192ZM702.191 410.48C701.487 410.48 700.895 410.304 700.415 409.952C699.967 409.568 699.743 409.088 699.743 408.512C699.743 407.68 700.127 406.976 700.895 406.4L706.271 402.896C706.687 402.64 707.103 402.512 707.519 402.512C707.775 402.512 707.999 402.544 708.191 402.608C708.383 402.64 708.591 402.736 708.815 402.896L714.143 406.4C714.911 406.976 715.295 407.68 715.295 408.512C715.295 409.088 715.071 409.568 714.623 409.952C714.175 410.304 713.599 410.48 712.895 410.48C712.575 410.48 712.287 410.448 712.031 410.384C711.807 410.288 711.567 410.144 711.311 409.952L707.519 407.264L703.727 409.952C703.279 410.304 702.767 410.48 702.191 410.48ZM748.371 440.048C747.667 440.048 747.075 439.824 746.595 439.376C746.147 438.896 745.923 438.304 745.923 437.6V425.792C745.923 423.968 745.587 422.48 744.915 421.328C744.243 420.176 743.331 419.328 742.179 418.784C741.059 418.208 739.763 417.92 738.291 417.92C736.947 417.92 735.731 418.192 734.643 418.736C733.555 419.28 732.691 420.016 732.051 420.944C731.411 421.84 731.091 422.88 731.091 424.064H728.067C728.067 422.048 728.547 420.256 729.507 418.688C730.499 417.088 731.843 415.824 733.539 414.896C735.235 413.968 737.139 413.504 739.251 413.504C741.459 413.504 743.427 413.984 745.155 414.944C746.915 415.872 748.291 417.248 749.283 419.072C750.307 420.896 750.819 423.136 750.819 425.792V437.6C750.819 438.304 750.579 438.896 750.099 439.376C749.651 439.824 749.075 440.048 748.371 440.048ZM728.643 440.048C727.939 440.048 727.347 439.824 726.867 439.376C726.419 438.896 726.195 438.304 726.195 437.6V416.192C726.195 415.456 726.419 414.864 726.867 414.416C727.347 413.968 727.939 413.744 728.643 413.744C729.379 413.744 729.971 413.968 730.419 414.416C730.867 414.864 731.091 415.456 731.091 416.192V437.6C731.091 438.304 730.867 438.896 730.419 439.376C729.971 439.824 729.379 440.048 728.643 440.048ZM770.818 440.192C768.258 440.192 765.97 439.616 763.954 438.464C761.97 437.28 760.402 435.696 759.25 433.712C758.13 431.696 757.57 429.424 757.57 426.896C757.57 424.304 758.13 422 759.25 419.984C760.37 417.968 761.906 416.4 763.858 415.28C765.81 414.128 768.05 413.552 770.578 413.552C772.466 413.552 774.194 413.92 775.762 414.656C777.33 415.36 778.738 416.432 779.986 417.872C780.434 418.384 780.594 418.912 780.466 419.456C780.338 420 779.986 420.48 779.41 420.896C778.962 421.216 778.466 421.328 777.922 421.232C777.378 421.104 776.882 420.816 776.434 420.368C774.866 418.704 772.914 417.872 770.578 417.872C768.946 417.872 767.506 418.256 766.258 419.024C765.01 419.76 764.034 420.8 763.33 422.144C762.626 423.488 762.274 425.072 762.274 426.896C762.274 428.624 762.626 430.16 763.33 431.504C764.066 432.848 765.074 433.92 766.354 434.72C767.634 435.488 769.122 435.872 770.818 435.872C771.938 435.872 772.914 435.744 773.746 435.488C774.61 435.2 775.394 434.768 776.098 434.192C776.61 433.776 777.138 433.552 777.682 433.52C778.226 433.456 778.706 433.6 779.122 433.952C779.666 434.4 779.97 434.912 780.034 435.488C780.098 436.032 779.906 436.528 779.458 436.976C777.154 439.12 774.274 440.192 770.818 440.192ZM790.67 440C789.966 440 789.374 439.776 788.894 439.328C788.446 438.848 788.222 438.256 788.222 437.552V416.192C788.222 415.456 788.446 414.864 788.894 414.416C789.374 413.968 789.966 413.744 790.67 413.744C791.406 413.744 791.998 413.968 792.446 414.416C792.894 414.864 793.118 415.456 793.118 416.192V437.552C793.118 438.256 792.894 438.848 792.446 439.328C791.998 439.776 791.406 440 790.67 440ZM790.67 409.472C789.806 409.472 789.054 409.168 788.414 408.56C787.806 407.92 787.502 407.168 787.502 406.304C787.502 405.44 787.806 404.704 788.414 404.096C789.054 403.456 789.806 403.136 790.67 403.136C791.534 403.136 792.27 403.456 792.878 404.096C793.518 404.704 793.838 405.44 793.838 406.304C793.838 407.168 793.518 407.92 792.878 408.56C792.27 409.168 791.534 409.472 790.67 409.472ZM813.17 440.192C810.834 440.192 808.738 439.616 806.882 438.464C805.026 437.28 803.554 435.696 802.466 433.712C801.41 431.696 800.882 429.424 800.882 426.896C800.882 424.368 801.458 422.096 802.61 420.08C803.794 418.064 805.378 416.48 807.362 415.328C809.378 414.144 811.634 413.552 814.13 413.552C816.626 413.552 818.866 414.144 820.85 415.328C822.834 416.48 824.402 418.064 825.554 420.08C826.738 422.096 827.33 424.368 827.33 426.896H825.458C825.458 429.424 824.914 431.696 823.826 433.712C822.77 435.696 821.314 437.28 819.458 438.464C817.602 439.616 815.506 440.192 813.17 440.192ZM814.13 435.872C815.762 435.872 817.218 435.488 818.498 434.72C819.778 433.92 820.786 432.848 821.522 431.504C822.258 430.128 822.626 428.592 822.626 426.896C822.626 425.168 822.258 423.632 821.522 422.288C820.786 420.912 819.778 419.84 818.498 419.072C817.218 418.272 815.762 417.872 814.13 417.872C812.53 417.872 811.074 418.272 809.762 419.072C808.482 419.84 807.458 420.912 806.69 422.288C805.954 423.632 805.586 425.168 805.586 426.896C805.586 428.592 805.954 430.128 806.69 431.504C807.458 432.848 808.482 433.92 809.762 434.72C811.074 435.488 812.53 435.872 814.13 435.872ZM824.882 440.048C824.178 440.048 823.586 439.824 823.106 439.376C822.658 438.896 822.434 438.304 822.434 437.6V430.256L823.346 425.168L827.33 426.896V437.6C827.33 438.304 827.09 438.896 826.61 439.376C826.162 439.824 825.586 440.048 824.882 440.048Z" fill="#FFB200"/>
<path d="M887.97 326.299V321.729" stroke="#EBEBEB" stroke-miterlimit="10"/>
<path d="M883.61 328.068L880.38 324.838" stroke="#EBEBEB" stroke-miterlimit="10"/>
<path d="M881.77 332.398H877.2" stroke="#EBEBEB" stroke-miterlimit="10"/>
<path d="M883.54 336.758L880.31 339.988" stroke="#EBEBEB" stroke-miterlimit="10"/>
<path d="M887.87 338.599V343.169" stroke="#EBEBEB" stroke-miterlimit="10"/>
<path d="M892.23 336.829L895.46 340.059" stroke="#EBEBEB" stroke-miterlimit="10"/>
<path d="M894.07 332.499H898.64" stroke="#EBEBEB" stroke-miterlimit="10"/>
<path d="M892.3 328.139L895.53 324.909" stroke="#EBEBEB" stroke-miterlimit="10"/>
<path d="M1248.63 258.408V253.838" stroke="#EBEBEB" stroke-miterlimit="10"/>
<path d="M1244.27 260.179L1241.04 256.949" stroke="#EBEBEB" stroke-miterlimit="10"/>
<path d="M1242.44 264.508H1237.87" stroke="#EBEBEB" stroke-miterlimit="10"/>
<path d="M1244.2 268.869L1240.97 272.099" stroke="#EBEBEB" stroke-miterlimit="10"/>
<path d="M1248.54 270.699V275.269" stroke="#EBEBEB" stroke-miterlimit="10"/>
<path d="M1252.9 268.938L1256.13 272.168" stroke="#EBEBEB" stroke-miterlimit="10"/>
<path d="M1254.73 264.608H1259.3" stroke="#EBEBEB" stroke-miterlimit="10"/>
<path d="M1252.96 260.248L1256.19 257.008" stroke="#EBEBEB" stroke-miterlimit="10"/>
<path d="M1151.01 140.299V135.729" stroke="#EBEBEB" stroke-miterlimit="10"/>
<path d="M1146.65 142.068L1143.42 138.838" stroke="#EBEBEB" stroke-miterlimit="10"/>
<path d="M1144.81 146.398H1140.24" stroke="#EBEBEB" stroke-miterlimit="10"/>
<path d="M1146.58 150.758L1143.35 153.988" stroke="#EBEBEB" stroke-miterlimit="10"/>
<path d="M1150.91 152.588V157.158" stroke="#EBEBEB" stroke-miterlimit="10"/>
<path d="M1155.27 150.829L1158.5 154.059" stroke="#EBEBEB" stroke-miterlimit="10"/>
<path d="M1157.11 146.488H1161.68" stroke="#EBEBEB" stroke-miterlimit="10"/>
<path d="M1155.34 142.128L1158.57 138.898" stroke="#EBEBEB" stroke-miterlimit="10"/>
<path d="M1078.45 134.559V132.039" stroke="#EBEBEB" stroke-miterlimit="10"/>
<path d="M1076.05 135.539L1074.26 133.749" stroke="#EBEBEB" stroke-miterlimit="10"/>
<path d="M1075.03 137.929H1072.51" stroke="#EBEBEB" stroke-miterlimit="10"/>
<path d="M1076.01 140.338L1074.23 142.118" stroke="#EBEBEB" stroke-miterlimit="10"/>
<path d="M1078.4 141.349V143.869" stroke="#EBEBEB" stroke-miterlimit="10"/>
<path d="M1080.81 140.369L1082.59 142.159" stroke="#EBEBEB" stroke-miterlimit="10"/>
<path d="M1081.82 137.979H1084.34" stroke="#EBEBEB" stroke-miterlimit="10"/>
<path d="M1080.84 135.569L1082.63 133.789" stroke="#EBEBEB" stroke-miterlimit="10"/>
<path d="M1026.02 217.638V215.108" stroke="#EBEBEB" stroke-miterlimit="10"/>
<path d="M1023.61 218.609L1021.83 216.829" stroke="#EBEBEB" stroke-miterlimit="10"/>
<path d="M1022.6 220.999H1020.08" stroke="#EBEBEB" stroke-miterlimit="10"/>
<path d="M1023.58 223.409L1021.79 225.189" stroke="#EBEBEB" stroke-miterlimit="10"/>
<path d="M1025.97 224.418V226.938" stroke="#EBEBEB" stroke-miterlimit="10"/>
<path d="M1028.37 223.449L1030.16 225.229" stroke="#EBEBEB" stroke-miterlimit="10"/>
<path d="M1029.39 221.048H1031.91" stroke="#EBEBEB" stroke-miterlimit="10"/>
<path d="M1028.41 218.648L1030.19 216.858" stroke="#EBEBEB" stroke-miterlimit="10"/>
<path d="M1217.92 197.639V195.119" stroke="#EBEBEB" stroke-miterlimit="10"/>
<path d="M1215.51 198.619L1213.73 196.829" stroke="#EBEBEB" stroke-miterlimit="10"/>
<path d="M1214.5 201.008H1211.98" stroke="#EBEBEB" stroke-miterlimit="10"/>
<path d="M1215.47 203.409L1213.69 205.199" stroke="#EBEBEB" stroke-miterlimit="10"/>
<path d="M1217.87 204.429V206.949" stroke="#EBEBEB" stroke-miterlimit="10"/>
<path d="M1220.27 203.449L1222.06 205.229" stroke="#EBEBEB" stroke-miterlimit="10"/>
<path d="M1221.28 201.059H1223.81" stroke="#EBEBEB" stroke-miterlimit="10"/>
<path d="M1220.31 198.649L1222.09 196.869" stroke="#EBEBEB" stroke-miterlimit="10"/>
<path d="M938.8 189.738V187.208" stroke="#EBEBEB" stroke-miterlimit="10"/>
<path d="M936.39 190.709L934.6 188.929" stroke="#EBEBEB" stroke-miterlimit="10"/>
<path d="M935.38 193.099H932.85" stroke="#EBEBEB" stroke-miterlimit="10"/>
<path d="M936.35 195.508L934.57 197.288" stroke="#EBEBEB" stroke-miterlimit="10"/>
<path d="M938.74 196.519V199.039" stroke="#EBEBEB" stroke-miterlimit="10"/>
<path d="M941.15 195.548L942.93 197.328" stroke="#EBEBEB" stroke-miterlimit="10"/>
<path d="M942.16 193.148H944.69" stroke="#EBEBEB" stroke-miterlimit="10"/>
<path d="M941.19 190.748L942.97 188.958" stroke="#EBEBEB" stroke-miterlimit="10"/>
<path d="M1068.25 415.049C1046.93 415.049 1026.08 408.725 1008.35 396.878C990.618 385.03 976.798 368.191 968.638 348.49C960.477 328.788 958.342 307.109 962.502 286.194C966.662 265.279 976.931 246.067 992.01 230.988C1007.09 215.91 1026.3 205.641 1047.22 201.48C1068.13 197.32 1089.81 199.455 1109.51 207.616C1129.21 215.777 1146.05 229.596 1157.9 247.327C1169.75 265.058 1176.07 285.904 1176.07 307.229C1176.04 335.815 1164.67 363.221 1144.46 383.434C1124.24 403.647 1096.84 415.017 1068.25 415.049ZM1068.25 200.379C1047.12 200.379 1026.46 206.645 1008.89 218.386C991.316 230.127 977.621 246.815 969.534 266.339C961.446 285.863 959.33 307.347 963.453 328.074C967.576 348.801 977.753 367.84 992.696 382.783C1007.64 397.726 1026.68 407.903 1047.4 412.026C1068.13 416.148 1089.62 414.033 1109.14 405.945C1128.66 397.858 1145.35 384.163 1157.09 366.591C1168.83 349.02 1175.1 328.362 1175.1 307.229C1175.06 278.903 1163.79 251.748 1143.76 231.718C1123.73 211.689 1096.58 200.418 1068.25 200.379Z" fill="#EBEBEB"/>
<path d="M1068.25 403.359C1049.24 403.359 1030.65 397.721 1014.84 387.158C999.035 376.595 986.713 361.581 979.438 344.016C972.162 326.451 970.258 307.122 973.967 288.475C977.676 269.827 986.832 252.699 1000.28 239.255C1013.72 225.81 1030.85 216.655 1049.5 212.946C1068.14 209.237 1087.47 211.14 1105.04 218.416C1122.6 225.692 1137.62 238.013 1148.18 253.822C1158.74 269.63 1164.38 288.216 1164.38 307.229C1164.35 332.716 1154.22 357.151 1136.2 375.174C1118.17 393.196 1093.74 403.332 1068.25 403.359ZM1068.25 212.069C1049.43 212.067 1031.02 217.647 1015.37 228.104C999.721 238.56 987.521 253.424 980.316 270.814C973.112 288.205 971.227 307.341 974.898 325.803C978.57 344.265 987.634 361.224 1000.94 374.534C1014.26 387.844 1031.21 396.909 1049.68 400.58C1068.14 404.252 1087.27 402.367 1104.66 395.162C1122.06 387.958 1136.92 375.758 1147.38 360.106C1157.83 344.454 1163.41 326.052 1163.41 307.229C1163.38 282 1153.35 257.812 1135.51 239.973C1117.67 222.133 1093.48 212.098 1068.25 212.069Z" fill="#EBEBEB"/>
<path d="M1002.22 142.516L1001.32 142.879L1007.99 159.364L1008.88 159.001L1002.22 142.516Z" fill="#EBEBEB"/>
<path d="M1011.84 166.31L1010.95 166.674L1021.93 193.868L1022.83 193.505L1011.84 166.31Z" fill="#EBEBEB"/>
<path d="M905.09 237.448L904.711 238.341L921.078 245.288L921.457 244.395L905.09 237.448Z" fill="#EBEBEB"/>
<path d="M928.72 247.482L928.341 248.375L955.34 259.835L955.719 258.942L928.72 247.482Z" fill="#EBEBEB"/>
<path d="M920.025 366.589L903.54 373.25L903.903 374.149L920.388 367.489L920.025 366.589Z" fill="#EBEBEB"/>
<path d="M954.523 352.665L927.329 363.652L927.692 364.552L954.886 353.565L954.523 352.665Z" fill="#EBEBEB"/>
<path d="M1005.41 454.021L998.463 470.388L999.356 470.767L1006.3 454.4L1005.41 454.021Z" fill="#EBEBEB"/>
<path d="M1019.96 419.769L1008.5 446.767L1009.39 447.146L1020.85 420.148L1019.96 419.769Z" fill="#EBEBEB"/>
<path d="M1128.51 455.096L1127.61 455.459L1134.27 471.944L1135.17 471.581L1128.51 455.096Z" fill="#EBEBEB"/>
<path d="M1114.58 420.598L1113.68 420.961L1124.67 448.155L1125.57 447.792L1114.58 420.598Z" fill="#EBEBEB"/>
<path d="M1215.41 369.175L1215.04 370.068L1231.4 377.015L1231.78 376.122L1215.41 369.175Z" fill="#EBEBEB"/>
<path d="M1181.17 354.632L1180.79 355.524L1207.79 366.985L1208.17 366.092L1181.17 354.632Z" fill="#EBEBEB"/>
<path d="M1232.6 240.301L1216.12 246.961L1216.48 247.861L1232.97 241.2L1232.6 240.301Z" fill="#EBEBEB"/>
<path d="M1208.81 249.918L1181.62 260.905L1181.98 261.804L1209.17 250.817L1208.81 249.918Z" fill="#EBEBEB"/>
<path d="M1137.14 143.696L1130.19 160.063L1131.08 160.442L1138.03 144.075L1137.14 143.696Z" fill="#EBEBEB"/>
<path d="M1127.11 167.327L1115.65 194.325L1116.55 194.704L1128.01 167.706L1127.11 167.327Z" fill="#EBEBEB"/>
<path d="M1068.74 115.979H1067.77V159.719H1068.74V115.979Z" fill="#EBEBEB"/>
<path d="M1068.74 169.579H1067.77V184.769H1068.74V169.579Z" fill="#EBEBEB"/>
<path d="M933.367 171.645L932.681 172.331L963.61 203.259L964.296 202.574L933.367 171.645Z" fill="#EBEBEB"/>
<path d="M971.274 209.542L970.588 210.228L981.329 220.969L982.015 220.283L971.274 209.542Z" fill="#EBEBEB"/>
<path d="M920.74 306.749H877V307.719H920.74V306.749Z" fill="#EBEBEB"/>
<path d="M945.79 306.749H930.6V307.719H945.79V306.749Z" fill="#EBEBEB"/>
<path d="M963.59 411.222L932.662 442.151L933.348 442.837L964.276 411.908L963.59 411.222Z" fill="#EBEBEB"/>
<path d="M981.303 393.5L970.562 404.241L971.248 404.927L981.989 394.186L981.303 393.5Z" fill="#EBEBEB"/>
<path d="M1068.74 454.738H1067.77V498.478H1068.74V454.738Z" fill="#EBEBEB"/>
<path d="M1068.74 429.688H1067.77V444.878H1068.74V429.688Z" fill="#EBEBEB"/>
<path d="M1172.9 411.155L1172.21 411.841L1203.14 442.77L1203.83 442.084L1172.9 411.155Z" fill="#EBEBEB"/>
<path d="M1155.19 393.443L1154.5 394.128L1165.24 404.869L1165.93 404.183L1155.19 393.443Z" fill="#EBEBEB"/>
<path d="M1259.5 306.749H1215.76V307.719H1259.5V306.749Z" fill="#EBEBEB"/>
<path d="M1205.9 306.749H1190.71V307.719H1205.9V306.749Z" fill="#EBEBEB"/>
<path d="M1203.15 171.681L1172.22 202.61L1172.91 203.296L1203.84 172.367L1203.15 171.681Z" fill="#EBEBEB"/>
<path d="M1165.25 209.581L1154.51 220.322L1155.2 221.008L1165.94 210.267L1165.25 209.581Z" fill="#EBEBEB"/>
<path d="M1070.46 307.228C1070.46 307.666 1070.33 308.094 1070.09 308.459C1069.85 308.824 1069.51 309.108 1069.1 309.277C1068.7 309.446 1068.25 309.491 1067.83 309.407C1067.4 309.323 1067 309.113 1066.69 308.805C1066.38 308.496 1066.17 308.102 1066.08 307.673C1066 307.244 1066.04 306.799 1066.21 306.395C1066.37 305.991 1066.66 305.645 1067.02 305.401C1067.38 305.158 1067.81 305.028 1068.25 305.028C1068.83 305.028 1069.4 305.26 1069.81 305.672C1070.22 306.084 1070.46 306.644 1070.46 307.228Z" fill="#EBEBEB"/>
<path d="M1172.14 503.188C1167.62 497.358 1162.48 490.928 1162.79 483.188C1163.08 476.038 1165.48 468.108 1172.05 464.298C1173.92 463.218 1175.29 462.848 1175.89 465.298C1176.81 468.968 1175.24 473.438 1174.46 476.998C1173.38 481.594 1172.75 486.282 1172.56 490.998C1172.45 494.298 1172.69 497.608 1172.68 500.918C1172.68 501.338 1172.68 501.748 1172.68 502.168C1172.68 502.328 1172.68 502.488 1172.68 502.648C1172.71 502.709 1172.75 502.766 1172.8 502.818C1172.83 502.871 1172.84 502.929 1172.84 502.988C1172.84 503.047 1172.83 503.106 1172.8 503.158C1172.79 503.204 1172.76 503.246 1172.73 503.278C1172.69 503.318 1172.64 503.347 1172.58 503.364C1172.53 503.381 1172.47 503.385 1172.41 503.376C1172.36 503.368 1172.3 503.346 1172.26 503.314C1172.21 503.281 1172.17 503.238 1172.14 503.188Z" fill="#795C06"/>
<path d="M1172.74 503.199C1169.05 497.879 1164.74 492.369 1165.27 485.589C1165.59 482.427 1166.41 479.335 1167.69 476.429C1168.24 475.109 1169.88 471.169 1171.6 471.079C1174.71 470.919 1170.6 483.419 1170.35 484.879C1169.72 490.324 1170.53 495.838 1172.68 500.879C1172.68 501.299 1172.68 501.709 1172.68 502.129C1171.09 498.605 1170.1 494.845 1169.73 490.999C1169.27 485.659 1171.07 481.209 1172.04 476.079C1172.26 474.969 1173.12 471.459 1171.21 471.739C1169.96 471.929 1168.33 475.739 1167.99 476.589C1166.78 479.346 1165.99 482.274 1165.67 485.269C1165.02 492.099 1169.22 497.659 1172.81 503.119C1172.79 503.15 1172.77 503.177 1172.74 503.199Z" fill="white"/>
<path d="M1170.86 509.119L1170.06 509.469C1170.03 509.486 1170 509.495 1169.96 509.495C1169.93 509.495 1169.89 509.486 1169.86 509.469C1169.8 509.427 1169.75 509.364 1169.73 509.29C1169.71 509.216 1169.72 509.137 1169.75 509.069C1169.76 509.042 1169.79 509.018 1169.81 509C1169.83 508.981 1169.86 508.967 1169.89 508.959H1170.01L1170.26 508.879L1170.31 508.809C1173.51 504.899 1177.31 501.529 1180.49 497.559C1183.49 493.769 1186.26 489.779 1189.57 486.229C1191.65 483.999 1202.65 473.519 1205 479.989C1206 482.859 1203.76 486.989 1202.35 489.369C1200.41 492.55 1197.92 495.361 1195 497.669C1187.82 503.339 1179.09 505.489 1170.86 509.119Z" fill="#795C06"/>
<path d="M1187.31 499.898C1190.17 497.999 1192.75 495.703 1194.97 493.078C1195.73 492.158 1199.38 487.759 1198.18 486.319C1197.4 485.379 1195.34 486.608 1194.65 486.988C1191.65 488.598 1189.54 491.479 1187.28 493.909C1182.66 498.834 1177.68 503.416 1172.39 507.618C1172.01 507.818 1171.62 508.019 1171.25 508.229C1170.88 508.439 1170.62 508.568 1170.31 508.738L1169.98 508.909L1169.73 509.048C1169.7 509.118 1169.69 509.199 1169.71 509.274C1169.73 509.35 1169.77 509.415 1169.84 509.458C1170.08 509.318 1170.33 509.199 1170.57 509.069L1170.04 509.479L1170.69 509.178L1170.84 509.118C1171.15 508.898 1171.44 508.669 1171.73 508.439C1177 505.699 1182.41 503.238 1187.31 499.898ZM1173.67 506.999C1176.76 504.549 1179.73 501.939 1182.57 499.199C1184.87 496.999 1187.06 494.688 1189.19 492.338C1190.36 490.969 1191.64 489.698 1193.02 488.539C1194.1 487.699 1198.34 484.889 1197.31 488.849C1196.56 491.719 1192.88 494.918 1190.74 496.738C1188.35 498.738 1185.78 500.515 1183.06 502.048C1180 503.768 1176.81 505.339 1173.67 506.999Z" fill="white"/>
<path d="M1156.76 524.159C1156.69 524.099 1156.63 524.032 1156.58 523.959C1152.92 518.289 1147.16 511.369 1147.5 504.209C1147.76 498.929 1150.67 491.819 1155.92 489.659C1161.84 487.229 1160.69 498.419 1160.52 501.279C1159.81 508.935 1158.68 516.547 1157.13 524.079C1157.13 524.079 1157.13 524.169 1157.08 524.219C1157.08 524.219 1156.87 524.259 1156.76 524.159Z" fill="#795C06"/>
<path d="M1157.05 524.229L1156.96 522.859C1156.64 517.629 1156.54 512.379 1156.7 507.149C1156.7 505.829 1157.79 495.719 1155.16 496.199C1153.57 496.499 1152.62 500.269 1152.28 501.509C1151.66 503.725 1151.41 506.031 1151.55 508.329C1151.91 513.609 1154.6 518.389 1156.47 523.329C1156.58 523.549 1156.66 523.789 1156.75 524.019C1156.75 524.069 1156.75 524.119 1156.75 524.169C1156.88 524.259 1157 524.339 1157.05 524.229ZM1152.38 511.159C1151.92 508.854 1151.85 506.487 1152.17 504.159C1152.38 502.619 1153.33 497.019 1155.3 496.919C1156.3 496.859 1156.23 497.509 1156.43 498.689C1156.52 499.232 1156.57 499.779 1156.6 500.329C1156.66 501.679 1156.6 503.039 1156.49 504.379C1156.37 506.749 1156.3 509.099 1156.29 511.479C1156.29 515.349 1156.41 519.219 1156.67 523.089C1155.32 519.059 1153.22 515.299 1152.38 511.159Z" fill="white"/>
<path d="M1175.22 525.999C1167.92 529.08 1159.87 529.919 1152.09 528.409C1152.04 528.401 1152 528.38 1151.96 528.349C1151.91 528.307 1151.87 528.249 1151.85 528.185C1151.83 528.12 1151.84 528.051 1151.86 527.989C1151.88 527.92 1151.93 527.862 1151.99 527.825C1152.06 527.788 1152.13 527.775 1152.2 527.789L1152.68 527.869C1160.77 523.429 1168.88 519.099 1176.9 514.499C1178.78 513.419 1190.96 506.739 1191.61 511.499C1192.02 514.429 1187.53 517.869 1185.61 519.499C1182.5 522.186 1179 524.378 1175.22 525.999Z" fill="#795C06"/>
<path d="M1183.77 516.879C1184.25 516.249 1184.66 515.459 1183.77 515.079C1181.98 514.339 1176.34 517.599 1174.72 518.429C1168.06 521.829 1161.27 524.559 1154.35 527.339L1152.6 528.049H1151.91C1151.89 528.11 1151.89 528.177 1151.9 528.24C1151.92 528.303 1151.96 528.358 1152.01 528.399L1152.19 528.339C1152.49 528.339 1152.81 528.339 1153.12 528.339C1158.02 528.376 1162.9 527.64 1167.58 526.159C1170.54 525.226 1173.39 523.989 1176.09 522.469C1178.52 521.059 1182 519.199 1183.77 516.879ZM1153.46 527.999H1153L1153.73 527.749C1159.22 525.941 1164.59 523.776 1169.8 521.269C1172.43 519.979 1174.98 518.529 1177.66 517.339C1178.79 516.829 1181.94 515.289 1182.99 515.779C1184.04 516.269 1182.92 517.039 1182.35 517.579C1181.93 517.959 1181.11 518.579 1180.69 518.869C1172.81 524.712 1163.27 527.908 1153.46 527.999Z" fill="white"/>
<path d="M1136.7 540.898L1135.92 539.808C1136.87 539.088 1137.82 538.378 1138.75 537.658C1142.55 534.738 1146.31 531.768 1150.04 528.748C1152.17 527.028 1154.25 525.288 1156.26 523.488C1156.33 523.428 1156.4 523.358 1156.47 523.308C1156.54 523.258 1156.79 523.008 1156.96 522.858C1157.13 522.708 1157.31 522.538 1157.49 522.368C1162.06 518.34 1165.97 513.616 1169.07 508.368C1170.07 506.588 1171.01 504.768 1171.9 502.908C1171.99 502.738 1172.07 502.558 1172.15 502.378C1172.18 502.335 1172.2 502.288 1172.22 502.238C1172.31 502.058 1172.39 501.868 1172.48 501.678C1172.57 501.488 1172.61 501.408 1172.67 501.258C1175.3 495.528 1177.48 489.568 1179.79 483.738C1180.44 482.068 1181.11 480.388 1181.79 478.738C1181.83 478.625 1181.87 478.525 1181.91 478.438C1181.95 478.312 1182 478.189 1182.06 478.068C1185.06 470.698 1188.06 463.358 1190.83 455.928C1190.93 455.648 1191.34 455.848 1191.24 456.118C1189.44 461.118 1187.75 466.118 1186.03 471.118C1185.81 471.788 1185.57 472.458 1185.35 473.118L1184 476.998C1183.08 479.628 1182.14 482.248 1181.16 484.858C1178.42 492.178 1175.75 499.688 1172.11 506.658C1171.84 507.178 1171.56 507.658 1171.27 508.208C1171.09 508.528 1170.92 508.858 1170.73 509.158C1170.54 509.458 1170.31 509.898 1170.1 510.258C1166.27 516.698 1161.15 521.698 1155.51 526.348C1155.12 526.668 1154.73 526.998 1154.32 527.348L1153.77 527.798C1153.67 527.872 1153.57 527.952 1153.48 528.038L1153.09 528.338C1152.99 528.398 1152.9 528.488 1152.8 528.558L1151.8 529.378C1148.03 532.328 1144.21 535.228 1140.4 538.098C1139.12 538.998 1137.91 539.998 1136.7 540.898Z" fill="#795C06"/>
<path d="M1183.62 457.568C1185.49 451.668 1191.04 441.848 1198.54 443.158C1199.96 443.353 1201.25 444.066 1202.18 445.159C1203.1 446.252 1203.59 447.648 1203.54 449.078C1203.54 452.628 1201.09 455.968 1199 458.628C1193.4 465.718 1187.19 472.228 1182.1 479.728C1182.1 479.798 1181.66 480.368 1181.55 480.538C1181.44 480.708 1181.22 480.538 1181.32 480.348L1181.82 479.618C1181.82 472.348 1181.4 464.558 1183.62 457.568Z" fill="#795C06"/>
<path d="M1182.08 479.779L1182.15 479.619C1183.08 477.373 1184.15 475.185 1185.35 473.069C1187.89 468.691 1190.71 464.48 1193.79 460.459C1194.95 458.889 1200.79 451.459 1195.96 450.889C1193.96 450.669 1191.83 452.409 1190.43 453.679C1188.21 455.739 1186.42 458.216 1185.15 460.969C1182.58 466.419 1182 472.449 1181.91 478.389C1181.91 478.669 1181.91 478.939 1181.91 479.209L1181.8 479.449L1181.73 479.609C1181.72 479.645 1181.72 479.683 1181.73 479.719C1181.73 479.749 1181.74 479.777 1181.76 479.802C1181.78 479.828 1181.8 479.849 1181.83 479.864C1181.85 479.879 1181.88 479.889 1181.91 479.891C1181.94 479.894 1181.97 479.889 1182 479.879C1182.04 479.857 1182.07 479.821 1182.08 479.779ZM1182.08 478.019C1182.13 473.085 1182.94 468.189 1184.47 463.499C1185.33 461.069 1186.56 458.783 1188.1 456.719C1188.79 455.808 1189.56 454.955 1190.39 454.169C1191.01 453.572 1191.68 453.033 1192.39 452.559C1193.94 451.509 1196.06 450.949 1196.86 451.729C1197.86 452.729 1197.49 453.539 1196.73 455.189C1196.48 455.749 1196.2 456.29 1195.87 456.809C1195.08 458.119 1194.17 459.359 1193.26 460.579C1191.75 462.579 1190.26 464.639 1188.83 466.729C1187.83 468.149 1186.93 469.589 1186.06 471.059C1184.55 473.59 1183.21 476.223 1182.06 478.939C1182 478.639 1182 478.329 1182.06 477.999L1182.08 478.019Z" fill="white"/>
<path d="M949 493.778C952.65 497.138 956.06 500.778 959.43 504.368C961.35 506.418 963.24 508.498 965.16 510.558C967.27 512.828 969.26 515.358 972.23 516.468C972.358 516.532 972.479 516.609 972.59 516.698V516.748C972.608 516.813 972.608 516.88 972.59 516.945C972.572 517.009 972.537 517.067 972.489 517.113C972.441 517.159 972.381 517.192 972.316 517.207C972.251 517.221 972.184 517.219 972.12 517.198L971.93 517.128H971.85C970.929 517.03 970.022 516.822 969.15 516.508C966.709 515.936 964.305 515.218 961.95 514.358C957.1 512.65 952.484 510.338 948.21 507.478C944.419 504.902 940.986 501.836 938 498.358C935.6 495.568 932 491.458 931.32 487.698C930.72 484.298 935.1 484.968 937.14 485.568C941.74 486.938 945.57 490.598 949 493.778Z" fill="#795C06"/>
<path d="M938 491.288C937 492.748 940.91 497.178 942.57 499.158C945.2 502.265 948.198 505.039 951.5 507.418C957.452 511.654 964.08 514.849 971.1 516.868C971.38 516.948 971.67 517.048 971.95 517.118H972L972.19 517.188C972.254 517.209 972.321 517.212 972.386 517.197C972.451 517.182 972.511 517.149 972.559 517.103C972.607 517.057 972.642 516.999 972.66 516.935C972.678 516.87 972.678 516.803 972.66 516.738C972.1 516.478 971.56 516.208 971.03 515.908C970.5 515.608 970.03 515.378 969.61 515.098C964.54 512.098 960.13 507.878 955.81 503.878C950.74 499.188 939.36 489.358 938 491.288ZM970.36 515.998C971.07 516.388 971.78 516.738 972.5 517.078L970.79 516.518C964.663 514.558 958.828 511.783 953.44 508.268C950.423 506.26 947.627 503.937 945.1 501.338C943.751 499.969 942.486 498.519 941.31 496.998C940.82 496.348 937.64 492.468 938.48 491.708C939.07 491.168 942.73 493.558 942.81 493.608C943.54 494.068 944.26 494.608 944.97 495.108C946.42 496.178 947.82 497.328 949.19 498.488C952.19 501.038 955 503.748 957.89 506.398C961.73 509.868 965.77 513.498 970.36 515.998Z" fill="white"/>
<path d="M976.5 478.698C979.82 485.108 980.59 492.488 980.69 499.598C980.69 503.408 980.61 507.228 980.57 511.028C980.57 514.218 980.28 517.918 980.93 521.238C980.93 521.378 980.99 521.528 981.03 521.678C981.23 522.612 981.532 523.521 981.93 524.388C981.947 524.415 981.956 524.446 981.956 524.478C981.956 524.51 981.947 524.541 981.93 524.568C981.993 524.651 982.05 524.738 982.1 524.828C982.1 524.888 982.1 524.968 982.01 524.908L981.77 524.698C981.726 524.705 981.68 524.696 981.641 524.672C981.603 524.648 981.574 524.611 981.56 524.568C981.555 524.532 981.555 524.495 981.56 524.458L981.33 524.248C975.76 519.118 972.64 510.428 970.52 503.448C968.4 496.468 967.43 489.048 969.27 481.928C969.73 480.138 970.52 475.928 972.68 475.278C974.58 474.698 975.81 477.338 976.5 478.698Z" fill="#795C06"/>
<path d="M973.57 482.859C971.39 483.219 971.85 489.209 971.91 490.679C972.195 495.108 972.864 499.505 973.91 503.819C975.48 510.929 977.52 517.729 981.16 523.969C981.16 524.059 981.16 524.139 981.23 524.219C981.305 524.3 981.385 524.377 981.47 524.449C981.488 524.507 981.521 524.56 981.567 524.601C981.613 524.641 981.67 524.668 981.73 524.679C981.73 524.559 981.67 524.449 981.65 524.339C981.41 523.459 981.2 522.569 981.01 521.679L980.92 521.239C979.66 515.049 979.44 508.649 978.98 502.319C978.72 497.906 978.051 493.527 976.98 489.239C976.71 488.149 975.4 482.549 973.57 482.859ZM975.57 486.029C978.57 492.939 978.47 501.149 978.97 508.529C979.167 513.523 979.847 518.486 981 523.349C978.075 517.543 975.942 511.372 974.66 504.999C973.785 501.396 973.117 497.747 972.66 494.069C972.401 492.08 972.29 490.074 972.33 488.069C972.346 486.862 972.497 485.661 972.78 484.489C973.55 482.309 975 484.839 975.53 485.999L975.57 486.029Z" fill="white"/>
<path d="M993.77 534.138C993.804 534.196 993.821 534.262 993.821 534.328C993.821 534.395 993.804 534.461 993.77 534.518H993.91C993.926 534.517 993.941 534.519 993.955 534.524C993.97 534.529 993.983 534.536 993.995 534.547C994.006 534.557 994.015 534.57 994.021 534.584C994.027 534.598 994.03 534.613 994.03 534.628C994.033 534.643 994.033 534.658 994.03 534.672C994.027 534.687 994.021 534.7 994.013 534.712C994.004 534.725 993.994 534.735 993.981 534.743C993.969 534.751 993.955 534.756 993.94 534.758C985.36 536.108 975.82 536.498 967.38 534.198C963.825 533.242 960.448 531.715 957.38 529.678C955.28 528.268 951.07 525.418 950.82 522.588C950.35 516.888 965.43 522.798 967.7 523.698C971.84 525.328 975.83 527.308 979.93 529.028C984.43 530.898 989.05 532.438 993.66 534.028C993.706 534.055 993.744 534.093 993.77 534.138Z" fill="#795C06"/>
<path d="M993.77 534.139C993.3 534.139 992.85 534.049 992.39 533.989C984.887 533.156 977.557 531.169 970.66 528.099C967.241 526.464 963.688 525.125 960.04 524.099C959.13 523.879 955.78 522.819 956.31 524.969C956.6 526.089 962.12 529.279 963.62 529.969C967.079 531.537 970.715 532.679 974.45 533.369C980.704 534.596 987.087 535.036 993.45 534.679H994C994 534.663 993.997 534.648 993.991 534.634C993.985 534.62 993.976 534.608 993.964 534.597C993.953 534.587 993.94 534.579 993.925 534.574C993.911 534.569 993.895 534.567 993.88 534.569H993.74C993.788 534.509 993.816 534.435 993.822 534.358C993.827 534.282 993.809 534.205 993.77 534.139ZM977.65 533.469C973.899 532.965 970.212 532.067 966.65 530.789C965.263 530.27 963.908 529.673 962.59 528.999C961.548 528.472 960.545 527.87 959.59 527.199C957.27 525.509 956.8 524.899 957 524.449C957.12 524.169 957.61 524.019 959.5 524.329C960.714 524.541 961.903 524.876 963.05 525.329C964.68 525.949 966.29 526.619 967.9 527.329C971.11 528.719 974.32 530.149 977.62 531.329C982.356 532.995 987.293 534.024 992.3 534.389C987.399 534.493 982.499 534.185 977.65 533.469Z" fill="white"/>
<path d="M992.88 509.488C994.919 511.833 996.429 514.589 997.31 517.568C999.31 523.408 999.96 529.568 1001.5 535.568C1001.73 536.458 1001.98 537.338 1002.25 538.228C1002.25 538.318 1002.87 539.298 1002.8 539.228C1002.73 539.158 1002.5 538.928 1002.04 538.438C999.72 535.998 992.81 528.508 990.16 523.438C988.431 520.298 987.088 516.961 986.16 513.498C985.78 511.858 985.08 508.128 986.72 506.858C988.36 505.588 991.77 508.318 992.88 509.488Z" fill="#795C06"/>
<path d="M989.36 510.938C987.07 511.888 991.82 521.988 992.36 523.318C994.594 528.229 997.459 532.827 1000.88 536.998C1001.25 537.478 1001.64 537.938 1002.03 538.398C1002.42 538.858 1002.78 539.188 1002.8 539.198C1002.82 539.208 1002.29 538.278 1002.25 538.198C1002.21 538.118 1002.16 537.898 1002.11 537.748C1001.89 537.008 1001.69 536.278 1001.5 535.558C999.99 531.558 998.56 527.558 996.96 523.558C995.854 520.691 994.517 517.918 992.96 515.268C992.58 514.698 990.37 510.518 989.36 510.938ZM991.24 513.018C996.38 520.398 998.24 529.268 1001.64 537.458L1001.8 537.848C1001.67 537.668 1001.51 537.488 1001.38 537.308C998.638 533.798 996.237 530.035 994.21 526.068C992.978 523.654 991.896 521.166 990.97 518.618C990.4 517.242 989.922 515.829 989.54 514.388C989.4 513.758 989.09 512.008 989.54 511.788C990.11 511.468 990.9 512.538 991.24 512.998V513.018Z" fill="white"/>
<path d="M948.36 451.568C956.45 465.068 952.36 482.398 959.49 496.298V496.368C959.71 496.795 959.94 497.215 960.18 497.628C960.203 497.67 960.216 497.717 960.217 497.765C960.218 497.812 960.207 497.86 960.185 497.902C960.164 497.945 960.132 497.981 960.092 498.009C960.053 498.036 960.008 498.053 959.96 498.058C959.918 498.063 959.876 498.055 959.838 498.036C959.801 498.016 959.77 497.986 959.75 497.948C959.688 497.848 959.631 497.745 959.58 497.638C953.17 491.688 947.97 483.638 944.16 475.768C940.85 468.968 938.66 461.328 939.79 453.768C940.06 451.888 940.49 448.148 942.79 447.448C945.09 446.748 947.36 449.908 948.36 451.568Z" fill="#795C06"/>
<path d="M945.58 456.529C944.58 456.839 944.51 458.239 944.4 459.009C944.13 460.92 944.09 462.857 944.28 464.779C944.679 468.717 945.667 472.573 947.21 476.219C949.648 482.54 952.859 488.536 956.77 494.069C957.67 495.299 958.62 496.499 959.63 497.639C959.75 497.789 959.88 497.919 960 498.059C960.048 498.053 960.093 498.036 960.133 498.009C960.172 497.982 960.204 497.945 960.226 497.903C960.247 497.86 960.258 497.813 960.257 497.765C960.256 497.717 960.244 497.67 960.22 497.629C959.98 497.229 959.77 496.829 959.55 496.419L959.49 496.309C957.857 493.638 956.487 490.815 955.4 487.879C953.899 483.247 952.693 478.524 951.79 473.739C951.39 471.869 948.83 455.459 945.58 456.529ZM947.71 459.289C949.36 462.819 949.89 466.839 950.71 470.609C951.53 474.379 952.37 478.249 953.28 482.049C953.998 485.072 954.971 488.03 956.19 490.889C957.199 493.274 958.421 495.563 959.84 497.729C958.228 495.758 956.741 493.687 955.39 491.529C955.382 491.499 955.382 491.468 955.39 491.439C953.028 487.577 950.914 483.569 949.06 479.439L948.98 479.289C947.245 475.694 945.949 471.903 945.12 467.999C944.696 465.869 944.515 463.699 944.58 461.529C944.69 459.069 945.03 457.089 945.87 457.059C946.44 456.999 947.23 458.249 947.71 459.289Z" fill="white"/>
<path d="M949.36 479.259C951.57 483.159 953.88 487.029 956.21 490.889C957.303 492.702 958.397 494.509 959.49 496.309L959.55 496.419L960.73 498.419C964.3 504.309 967.83 510.519 972.33 515.769C974.738 518.519 977.396 521.04 980.27 523.299L981.16 524.009L981.65 524.379C981.739 524.454 981.833 524.524 981.93 524.589C984.43 526.519 987.05 528.339 989.59 530.079C993.14 532.519 996.83 534.709 1000.59 536.859C1000.7 536.93 1000.81 536.994 1000.92 537.049L1001.42 537.349L1001.68 537.499L1002.15 537.779C1003.35 538.459 1004.53 539.159 1005.73 539.869L1004.96 540.939C1001.06 539.187 997.297 537.148 993.7 534.839C993.623 534.798 993.55 534.751 993.48 534.699C993.12 534.489 992.77 534.259 992.48 534.029C992.19 533.799 991.61 533.479 991.19 533.189C990.19 532.509 989.19 531.829 988.19 531.189C982.39 527.189 976.47 522.869 971.76 517.589L971.38 517.149L971.21 516.959C971.11 516.859 971.02 516.749 970.93 516.649L970.5 516.129C970.24 515.819 970 515.499 969.75 515.189L969.54 514.899C965.69 509.899 962.6 504.209 959.54 498.809L957.87 495.809L956.95 494.139C956.5 493.299 956.05 492.439 955.59 491.599C955.581 491.569 955.581 491.538 955.59 491.509C953.46 487.509 951.41 483.509 949.26 479.509C949 479.249 949.26 479.069 949.36 479.259Z" fill="#795C06"/>
<path d="M879 540.478C1000.26 539.868 1136.3 539.868 1257.57 540.478C1136.3 541.098 1000.26 541.098 879 540.478Z" fill="#263238"/>
<path d="M1143.91 330.168L1068.25 362.668L992.6 330.168V259.698H1143.91V330.168Z" fill="white"/>
<path d="M1022.86 259.698V343.168L992.59 330.158V259.698H1022.86Z" fill="#640D5F"/>
<path d="M1083.39 259.698V356.168L1068.26 362.668L1053.12 356.168V259.698H1083.39Z" fill="#640D5F"/>
<path d="M1143.91 259.698V330.158L1113.64 343.168V259.698H1143.91Z" fill="#640D5F"/>
<path opacity="0.1" d="M992.59 316.548V259.698H1143.91V268.128C1143.91 268.128 1022.86 255.308 992.59 316.548Z" fill="black"/>
<path d="M1149.5 248.918H987C984.249 248.918 982.02 251.148 982.02 253.898V254.718C982.02 257.469 984.249 259.698 987 259.698H1149.5C1152.25 259.698 1154.48 257.469 1154.48 254.718V253.898C1154.48 251.148 1152.25 248.918 1149.5 248.918Z" fill="#FFC727"/>
<path d="M1068.25 345.999C1065.52 345.993 1062.86 346.796 1060.59 348.306C1058.32 349.817 1056.55 351.967 1055.5 354.484C1054.45 357.002 1054.17 359.773 1054.7 362.448C1055.23 365.124 1056.54 367.582 1058.47 369.512C1060.39 371.442 1062.85 372.757 1065.52 373.292C1068.19 373.826 1070.97 373.555 1073.49 372.512C1076.01 371.47 1078.16 369.704 1079.68 367.437C1081.19 365.171 1082 362.505 1082 359.779C1082 356.129 1080.55 352.629 1077.97 350.045C1075.4 347.462 1071.9 346.007 1068.25 345.999ZM1068.25 364.999C1067.22 364.999 1066.22 364.694 1065.37 364.124C1064.51 363.554 1063.85 362.743 1063.46 361.795C1063.06 360.846 1062.96 359.803 1063.16 358.796C1063.36 357.789 1063.85 356.865 1064.58 356.139C1065.31 355.413 1066.23 354.919 1067.24 354.718C1068.24 354.518 1069.29 354.621 1070.24 355.014C1071.18 355.406 1071.99 356.072 1072.57 356.925C1073.14 357.779 1073.44 358.782 1073.44 359.809C1073.44 361.185 1072.89 362.505 1071.92 363.478C1070.95 364.452 1069.63 364.999 1068.25 364.999Z" fill="#FFC727"/>
<path opacity="0.1" d="M1082 359.779C1081.9 363.368 1080.41 366.777 1077.84 369.282C1075.26 371.786 1071.82 373.187 1068.22 373.187C1064.63 373.187 1061.19 371.786 1058.61 369.282C1056.04 366.777 1054.55 363.368 1054.45 359.779C1054.45 359.418 1054.46 359.057 1054.5 358.699C1057.57 357.765 1060.72 357.158 1063.92 356.889C1063.46 357.562 1063.17 358.332 1063.07 359.138C1062.97 359.943 1063.06 360.762 1063.33 361.528C1063.6 362.293 1064.05 362.985 1064.63 363.546C1065.22 364.107 1065.93 364.523 1066.71 364.76C1067.48 364.996 1068.31 365.047 1069.11 364.908C1069.91 364.77 1070.66 364.445 1071.32 363.96C1071.97 363.476 1072.5 362.845 1072.86 362.119C1073.22 361.392 1073.41 360.591 1073.41 359.779C1073.41 358.748 1073.1 357.74 1072.52 356.889C1075.73 357.154 1078.91 357.761 1082 358.699C1082.02 359.058 1082.02 359.419 1082 359.779Z" fill="black"/>
<path d="M1131.63 513.826C1166.63 478.823 1166.63 422.072 1131.63 387.07C1096.62 352.067 1039.87 352.067 1004.87 387.07C969.866 422.072 969.867 478.823 1004.87 513.826C1039.87 548.828 1096.62 548.828 1131.63 513.826Z" fill="#FFC727"/>
<path d="M1157.88 450.448C1157.63 474.054 1148.08 496.609 1131.3 513.213C1114.52 529.818 1091.86 539.132 1068.25 539.132C1044.65 539.132 1021.99 529.818 1005.21 513.213C988.432 496.609 978.879 474.054 978.63 450.448C978.63 449.618 978.63 448.788 978.63 447.958C979.249 424.599 988.966 402.406 1005.71 386.108C1022.46 369.81 1044.91 360.697 1068.27 360.711C1091.64 360.726 1114.08 369.866 1130.8 386.185C1147.53 402.503 1157.22 424.709 1157.81 448.068C1157.87 448.858 1157.88 449.648 1157.88 450.448Z" fill="#FFC727"/>
<path d="M1117.21 499.408C1144.25 472.368 1144.25 428.528 1117.21 401.488C1090.17 374.448 1046.33 374.448 1019.29 401.488C992.247 428.528 992.247 472.368 1019.29 499.408C1046.33 526.448 1090.17 526.448 1117.21 499.408Z" fill="#FFC727"/>
<path opacity="0.1" d="M1137.48 450.449C1137.48 451.279 1137.48 452.109 1137.48 452.939C1136.83 435.019 1129.26 418.049 1116.35 405.6C1103.45 393.151 1086.22 386.194 1068.28 386.194C1050.35 386.194 1033.12 393.151 1020.22 405.6C1007.31 418.049 999.736 435.019 999.09 452.939C999.09 452.109 999.09 451.279 999.09 450.449C998.98 441.286 1000.69 432.194 1004.12 423.697C1007.55 415.201 1012.63 407.469 1019.07 400.951C1025.51 394.434 1033.18 389.259 1041.64 385.727C1050.09 382.195 1059.16 380.376 1068.32 380.376C1077.49 380.376 1086.56 382.195 1095.01 385.727C1103.47 389.259 1111.14 394.434 1117.58 400.951C1124.02 407.469 1129.1 415.201 1132.53 423.697C1135.96 432.194 1137.67 441.286 1137.56 450.449H1137.48Z" fill="black"/>
<path opacity="0.05" d="M1157.88 450.449C1157.63 474.055 1148.08 496.609 1131.3 513.214C1114.52 529.818 1091.86 539.132 1068.25 539.132C1044.65 539.132 1021.99 529.818 1005.21 513.214C988.432 496.609 978.879 474.055 978.63 450.449C978.63 449.619 978.63 448.789 978.63 447.959C985.48 448.19 992.296 449.023 999 450.449C1007.11 452.059 1047.6 430.809 1083.64 435.259C1117.64 439.459 1137.47 450.449 1137.47 450.449C1137.47 450.449 1148.73 448.539 1157.84 448.069C1157.87 448.859 1157.88 449.649 1157.88 450.449Z" fill="black"/>
<path d="M999 450.448C999 449.618 999 448.788 999 447.968C999.646 465.888 1007.22 482.858 1020.13 495.307C1033.03 507.756 1050.26 514.712 1068.19 514.712C1086.13 514.712 1103.36 507.756 1116.26 495.307C1129.17 482.858 1136.74 465.888 1137.39 447.968C1137.39 448.788 1137.39 449.618 1137.39 450.448C1137.5 459.61 1135.79 468.703 1132.36 477.2C1128.93 485.696 1123.85 493.427 1117.41 499.945C1110.97 506.463 1103.3 511.638 1094.84 515.17C1086.39 518.702 1077.32 520.52 1068.15 520.52C1058.99 520.52 1049.92 518.702 1041.47 515.17C1033.01 511.638 1025.34 506.463 1018.9 499.945C1012.46 493.427 1007.38 485.696 1003.95 477.2C1000.52 468.703 998.809 459.61 998.92 450.448H999Z" fill="#FFC727"/>
<g opacity="0.2">
<path d="M1049.53 483.768C1048.99 482.606 1048.75 481.327 1048.84 480.048V478.379C1048.75 477.1 1048.99 475.821 1049.53 474.659C1049.76 474.271 1050.09 473.955 1050.49 473.746C1050.88 473.538 1051.33 473.445 1051.78 473.479H1062.27V429.479L1051.69 430.949C1050.57 430.949 1049.77 430.059 1049.28 428.259C1048.79 426.453 1048.55 424.589 1048.55 422.719C1048.55 421.219 1049.4 420.299 1051.1 419.979L1072.76 415.979C1073.69 415.997 1074.59 416.248 1075.4 416.708C1076.32 417.202 1076.78 417.742 1076.78 418.328V473.509H1085C1085.45 473.475 1085.9 473.568 1086.29 473.776C1086.69 473.985 1087.02 474.301 1087.25 474.689C1087.79 475.851 1088.03 477.13 1087.94 478.409V480.078C1088.03 481.357 1087.79 482.636 1087.25 483.798C1087.03 484.19 1086.7 484.51 1086.3 484.722C1085.9 484.934 1085.45 485.03 1085 484.999H1051.78C1051.33 485.027 1050.88 484.927 1050.48 484.709C1050.08 484.491 1049.75 484.165 1049.53 483.768Z" fill="black"/>
</g>
<path d="M1087.26 474.658C1087.03 474.271 1086.7 473.955 1086.3 473.746C1085.91 473.538 1085.46 473.445 1085.01 473.478H1083.61C1083.8 474.311 1083.89 475.164 1083.88 476.018V477.578C1083.96 478.767 1083.74 479.957 1083.24 481.038C1083.03 481.396 1082.72 481.687 1082.35 481.879C1081.98 482.071 1081.56 482.158 1081.15 482.128H1050.28C1049.82 482.146 1049.36 482.036 1048.95 481.808C1049.01 482.507 1049.21 483.187 1049.53 483.808C1049.76 484.193 1050.09 484.507 1050.49 484.713C1050.89 484.92 1051.33 485.012 1051.78 484.978H1085C1085.45 485.012 1085.89 484.92 1086.29 484.713C1086.69 484.507 1087.02 484.193 1087.25 483.808C1087.79 482.642 1088.02 481.36 1087.94 480.078V478.408C1088.03 477.121 1087.8 475.831 1087.26 474.658ZM1075.41 416.658C1074.6 416.197 1073.69 415.943 1072.76 415.918L1072.37 415.988C1073.12 416.418 1073.5 416.898 1073.5 417.408V473.408H1076.77V418.298C1076.77 417.718 1076.31 417.178 1075.41 416.688V416.658ZM1050.2 429.158C1049.98 429.163 1049.75 429.115 1049.55 429.018C1050.04 430.288 1050.75 430.918 1051.69 430.918L1062.27 429.438V427.438L1050.2 429.158Z" fill="#FFC727"/>
<g opacity="0.4">
<path d="M1087.26 474.658C1087.03 474.271 1086.7 473.955 1086.3 473.746C1085.91 473.538 1085.46 473.445 1085.01 473.478H1083.61C1083.8 474.311 1083.89 475.164 1083.88 476.018V477.578C1083.96 478.767 1083.74 479.957 1083.24 481.038C1083.03 481.396 1082.72 481.687 1082.35 481.879C1081.98 482.071 1081.56 482.158 1081.15 482.128H1050.28C1049.82 482.146 1049.36 482.036 1048.95 481.808C1049.01 482.507 1049.21 483.187 1049.53 483.808C1049.76 484.193 1050.09 484.507 1050.49 484.713C1050.89 484.92 1051.33 485.012 1051.78 484.978H1085C1085.45 485.012 1085.89 484.92 1086.29 484.713C1086.69 484.507 1087.02 484.193 1087.25 483.808C1087.79 482.642 1088.02 481.36 1087.94 480.078V478.408C1088.03 477.121 1087.8 475.831 1087.26 474.658ZM1075.41 416.658C1074.6 416.197 1073.69 415.943 1072.76 415.918L1072.37 415.988C1073.12 416.418 1073.5 416.898 1073.5 417.408V473.408H1076.77V418.298C1076.77 417.718 1076.31 417.178 1075.41 416.688V416.658ZM1050.2 429.158C1049.98 429.163 1049.75 429.115 1049.55 429.018C1050.04 430.288 1050.75 430.918 1051.69 430.918L1062.27 429.438V427.438L1050.2 429.158Z" fill="white"/>
</g>
<g opacity="0.5">
<path d="M988.28 422.208C995.59 396.378 1016.66 374.058 1042.82 366.998C1051.48 364.674 1060.51 363.996 1069.42 364.998C1060.76 365.957 1052.23 367.876 1044 370.718C1019.41 379.578 1000.51 399.528 988.28 422.208Z" fill="white"/>
</g>
<path d="M1191.4 291.688C1188.91 291.968 1122.33 277.688 1120.14 275.568C1119.3 274.758 1120.81 264.938 1122.97 253.128C1123.44 250.578 1120.42 212.468 1120.42 212.468L1161 215.728L1166 262.188C1166 262.188 1189.05 279.048 1191.21 281.668C1193.37 284.288 1193.9 291.408 1191.4 291.688Z" fill="#EB9481"/>
<path d="M1191.4 291.688C1188.91 291.968 1122.34 277.688 1120.14 275.568C1119.4 274.848 1120.49 267.138 1122.23 257.218C1125.5 259.808 1167.13 277.018 1178.72 276.118C1183.47 275.748 1173.22 267.608 1172.79 267.268C1179.79 272.458 1189.72 279.978 1191.1 281.658C1193.27 284.278 1193.9 291.408 1191.4 291.688Z" fill="#263238"/>
<path d="M1120.5 245.708L1167.35 252.078C1167.35 252.078 1160.66 197.188 1157.43 176.628C1155 161.368 1137.37 154.108 1121.57 164.718C1102.25 177.718 1089.2 190.538 1079.88 199.138L1077.69 197.638L1050.32 200.758C1050.32 200.758 1049.71 239.328 1089.22 239.328C1104.68 239.328 1119.83 219.828 1119.9 220.328C1120.18 221.908 1120.5 245.708 1120.5 245.708Z" fill="#D91656"/>
<path opacity="0.1" d="M1119.91 220.288C1119.91 220.088 1116.44 224.288 1111.47 228.738L1119.9 194.878L1119.91 220.288Z" fill="black"/>
<path d="M1059.65 201.998C1061.28 211.678 1066.23 222.148 1076.01 225.648C1083.41 228.518 1089.83 225.278 1095.38 220.318C1103.99 212.608 1110.29 202.738 1116.81 193.258C1118 191.401 1119.34 189.642 1120.81 187.998C1121.1 187.677 1121.48 187.464 1121.91 187.398C1122.65 187.488 1122.66 188.308 1122.85 188.808C1125.18 203.128 1125.48 217.668 1126.31 232.128C1124.99 218.558 1124.31 202.318 1121.99 189.018C1121.93 188.741 1121.84 188.472 1121.71 188.218C1121.74 188.244 1121.77 188.263 1121.81 188.275C1121.84 188.287 1121.88 188.292 1121.92 188.288C1120.1 189.688 1118.92 191.928 1117.59 193.768C1114.36 198.558 1111.18 203.418 1107.66 208.048C1101.45 215.908 1091.31 228.978 1080.07 227.348C1067.8 225.808 1060.99 213.248 1059.67 201.988L1059.65 201.998Z" fill="#263238"/>
<path d="M1162.44 239.608C1160.02 239.018 1141.39 236.538 1125.69 235.828C1125.58 235.828 1125.57 235.988 1125.69 236.008C1130.74 237.008 1159.52 239.908 1162.42 239.808C1162.49 239.808 1162.55 239.628 1162.44 239.608Z" fill="#263238"/>
<g opacity="0.1">
<path d="M1053.4 216.508L1107.24 232.068C1102 235.978 1095.64 239.328 1089.24 239.328C1067 239.328 1057.5 227.178 1053.4 216.508Z" fill="black"/>
<path d="M1167.35 252.088L1120.5 245.698C1120.5 245.698 1120.44 241.128 1120.35 235.868L1167 249.368L1167.35 252.088Z" fill="black"/>
</g>
<path d="M1168 424.108C1165.53 423.708 1105.28 391.988 1103.75 389.328C1103.16 388.328 1107.27 379.278 1112.54 368.488C1113.68 366.158 1112.59 322.968 1112.59 322.968L1152.18 339.868L1151.44 388.868C1151.44 388.868 1169.08 411.328 1170.44 414.428C1171.8 417.528 1170.45 424.518 1168 424.108Z" fill="#EB9481"/>
<path d="M1168 424.108C1165.53 423.708 1105.28 391.988 1103.75 389.328C1103.23 388.438 1106.37 381.329 1110.75 372.229C1113.2 375.609 1148.62 403.429 1160.03 405.699C1164.7 406.629 1157.03 396.028 1156.71 395.578C1162.02 402.468 1169.57 412.399 1170.45 414.379C1171.77 417.479 1170.45 424.518 1168 424.108Z" fill="#263238"/>
<path d="M1156.46 377.478L1110.21 358.078C1110.21 358.078 1108.3 311.078 1113.04 284.578C1113.51 281.938 1049.45 267.418 1035.15 250.838C1020.01 233.278 1035.22 199.968 1035.22 199.968L1077.69 197.638C1077.69 197.638 1080.87 214.638 1081.09 221.798C1081.17 224.378 1074.41 227.018 1074.87 227.458C1076.01 228.568 1135.82 238.798 1152.05 250.698C1165.07 260.248 1156.46 377.478 1156.46 377.478Z" fill="#D91656"/>
<path d="M1149.88 362.108C1147.72 360.868 1130.51 353.328 1115.62 348.278C1115.52 348.278 1115.46 348.408 1115.55 348.448C1120.13 350.798 1146.97 361.578 1149.78 362.288C1149.88 362.308 1150 362.158 1149.88 362.108Z" fill="#263238"/>
<path d="M1081.45 222.438C1076.94 225.06 1072.67 228.071 1068.68 231.438C1068.66 231.449 1068.64 231.463 1068.63 231.481C1068.61 231.499 1068.6 231.519 1068.6 231.542C1068.59 231.564 1068.59 231.587 1068.59 231.61C1068.6 231.633 1068.61 231.655 1068.62 231.673C1068.63 231.692 1068.65 231.708 1068.67 231.72C1068.69 231.732 1068.71 231.739 1068.73 231.742C1068.76 231.744 1068.78 231.741 1068.8 231.734C1068.82 231.726 1068.84 231.714 1068.86 231.698C1073.19 228.838 1077.63 226.048 1081.81 222.948C1081.88 222.901 1081.92 222.828 1081.94 222.747C1081.95 222.665 1081.93 222.581 1081.88 222.513C1081.84 222.446 1081.76 222.4 1081.68 222.386C1081.6 222.372 1081.52 222.391 1081.45 222.438Z" fill="#263238"/>
<path d="M1076.51 198.348C1076.51 198.228 1076.24 198.258 1076.27 198.348C1077.12 202.197 1077.75 206.089 1078.17 210.008C1078.38 211.828 1079.01 221.678 1075.41 221.768C1074.81 221.768 1074.41 221.348 1074.15 220.588C1073.92 219.681 1073.83 218.743 1073.88 217.808C1073.81 215.668 1073.66 213.538 1073.4 211.418C1072.94 207.468 1072.04 203.583 1070.7 199.838C1070.7 199.718 1070.45 199.768 1070.48 199.898C1071.78 205.254 1072.62 210.71 1073 216.208C1073.14 218.868 1072.55 223.038 1075.61 222.738C1078.67 222.438 1079.28 215.528 1079.26 213.678C1079.09 208.462 1078.16 203.298 1076.51 198.348Z" fill="#263238"/>
<path d="M1075.29 222.168C1075.08 223.158 1074.93 224.16 1074.85 225.168C1074.7 225.942 1074.7 226.735 1074.85 227.508C1074.86 227.539 1074.88 227.565 1074.91 227.584C1074.94 227.603 1074.97 227.613 1075 227.613C1075.03 227.613 1075.06 227.603 1075.09 227.584C1075.12 227.565 1075.14 227.539 1075.15 227.508C1075.46 226.745 1075.66 225.939 1075.73 225.118C1075.89 224.208 1076.07 223.288 1076.21 222.378C1076.21 222.267 1076.18 222.157 1076.11 222.068C1076.04 221.979 1075.95 221.916 1075.84 221.891C1075.73 221.867 1075.61 221.881 1075.51 221.931C1075.41 221.982 1075.33 222.066 1075.29 222.168Z" fill="#263238"/>
<path d="M1040.58 201.999C1036.9 214.059 1032.86 232.319 1039.38 243.829C1042.81 248.879 1048.84 251.469 1054.08 254.319C1057.75 256.129 1061.5 257.789 1065.28 259.319C1082.33 266.419 1099.97 271.979 1117.37 278.159C1118.95 278.665 1120.48 279.335 1121.92 280.159C1122.37 280.579 1122.31 281.239 1122.34 281.769C1122.19 285.449 1121.15 290.369 1120.72 294.029C1118.48 310.3 1117.82 326.749 1118.72 343.149C1117.47 326.764 1117.9 310.295 1120 293.999C1120.43 290.419 1121.32 285.349 1121.52 281.829C1121.52 281.369 1121.52 280.829 1121.28 280.829C1118.02 279.387 1114.68 278.135 1111.28 277.079C1095.72 271.819 1080.1 266.649 1064.95 260.269C1061.16 258.669 1057.4 256.989 1053.71 255.149C1048.37 252.249 1042.26 249.499 1038.8 244.249C1032.23 232.249 1036.61 214.369 1040.6 202.059L1040.58 201.999Z" fill="#263238"/>
<path d="M1065.78 99.9982C1065.78 99.9982 1056.78 94.7782 1047.03 102.998C1035.47 112.828 1041.54 147.348 1040.75 150.438C1039.96 153.528 1038.6 154.228 1038.07 156.988C1037.54 159.748 1039.8 161.628 1040.07 162.628C1040.34 163.628 1037.42 168.628 1037.42 168.628C1037.42 168.628 1052.59 173.038 1062.22 171.408C1071.85 169.778 1082.79 163.478 1082.79 163.478C1082.79 163.478 1080.69 160.348 1080.73 158.888C1080.77 157.428 1082.52 155.538 1082.45 152.888C1082.38 150.238 1078.45 146.888 1078.09 145.488C1077.73 144.088 1077 118.208 1075 108.998C1073 99.7882 1065.78 99.9982 1065.78 99.9982Z" fill="#263238"/>
<path d="M1083.27 162.828C1082.46 161.822 1081.78 160.708 1081.27 159.518C1081.14 159.203 1081.08 158.859 1081.12 158.518C1081.65 156.408 1083.55 154.578 1083.25 152.288C1082.82 150.538 1081.16 149.058 1080.05 147.678C1079.3 146.943 1078.76 146.017 1078.5 144.998C1078.5 144.618 1078.5 144.318 1078.5 143.998C1077.98 133.518 1076.83 122.348 1075.31 111.468C1075.02 108.905 1074.23 106.424 1072.98 104.168C1074.39 106.361 1075.32 108.824 1075.71 111.398C1077.61 122.175 1078.8 133.065 1079.27 143.998C1079.27 144.308 1079.27 144.658 1079.27 144.918C1079.51 145.784 1079.96 146.578 1080.58 147.228C1081.74 148.748 1083.38 150.228 1083.77 152.228C1084.05 154.668 1082.08 156.438 1081.37 158.578C1081.32 158.878 1081.35 159.185 1081.46 159.468C1081.93 160.669 1082.55 161.804 1083.3 162.848L1083.27 162.828Z" fill="#263238"/>
<path d="M1036.68 167.328C1037.34 165.998 1038.27 164.328 1038.82 162.988C1038.72 162.781 1038.6 162.586 1038.45 162.408C1037.13 160.929 1036.45 158.987 1036.56 157.008C1036.77 154.668 1038.43 152.728 1039.25 150.678C1039.73 149.271 1039.91 147.78 1039.79 146.298C1039.79 133.498 1036.71 112.088 1046.79 102.988C1047.94 101.971 1049.26 101.159 1050.69 100.588C1049.31 101.236 1048.05 102.1 1046.94 103.148C1037.45 112.558 1040.71 133.528 1040.53 146.308C1040.65 147.878 1040.42 149.455 1039.87 150.928C1038.94 152.998 1037.33 154.688 1037 156.998C1036.85 158.478 1037.2 159.965 1038 161.218C1038.29 161.718 1038.63 162.218 1038.92 162.668C1038.98 162.75 1039.01 162.849 1039 162.948C1038.29 164.447 1037.49 165.902 1036.61 167.308L1036.68 167.328Z" fill="#263238"/>
<path d="M1063.54 151.568C1069.91 160.068 1092.14 183.468 1100.16 183.868C1108.18 184.268 1128.57 163.158 1133.79 159.218C1137.39 156.508 1114.29 139.138 1111.24 141.828C1105.83 146.588 1099.32 158.338 1096.77 158.418C1095.18 158.418 1081.42 149.878 1069.43 144.418C1060.06 140.188 1058.86 145.318 1063.54 151.568Z" fill="#EB9481"/>
<path d="M1138.07 154.788C1134.96 159.468 1124.86 166.548 1121.77 167.318C1118.68 168.088 1106.07 151.318 1106.93 148.158C1107.79 144.998 1119.49 130.058 1124.93 128.318C1130.37 126.578 1141.3 149.938 1138.07 154.788Z" fill="#EB9481"/>
<path d="M1107.05 148.458C1107.6 144.18 1107.9 139.872 1107.93 135.558C1107.77 130.828 1105.32 126.698 1108.01 125.898C1110.7 125.098 1114.16 130.508 1115.09 137.588C1115.09 137.588 1125.73 146.588 1123.6 156.398C1121.47 166.208 1107.05 148.458 1107.05 148.458Z" fill="#EB9481"/>
<path d="M1107.27 123.628L1099.52 126.908C1099.52 126.908 1096.52 126.608 1094.44 122.738C1093.84 121.716 1093.46 120.581 1093.31 119.405C1093.17 118.228 1093.27 117.035 1093.61 115.898L1100.56 111.568L1100.75 111.908C1100.37 114.129 1100.76 116.413 1101.84 118.388C1102.92 120.625 1104.8 122.379 1107.1 123.308L1107.27 123.628Z" fill="#FFC727"/>
<g opacity="0.5">
<path d="M1107.27 123.628L1099.52 126.908C1099.52 126.908 1096.52 126.608 1094.44 122.738C1093.84 121.716 1093.46 120.581 1093.31 119.405C1093.17 118.228 1093.27 117.035 1093.61 115.898L1100.56 111.568L1100.75 111.908C1100.37 114.129 1100.76 116.413 1101.84 118.388C1102.92 120.625 1104.8 122.379 1107.1 123.308L1107.27 123.628Z" fill="black"/>
</g>
<path opacity="0.1" d="M1100.56 111.568C1100.24 112.853 1100.2 114.19 1100.43 115.494C1100.66 116.797 1101.15 118.038 1101.89 119.138C1104.33 123.208 1107.27 123.628 1107.27 123.628L1107.1 123.308C1104.8 122.379 1102.92 120.625 1101.84 118.388C1100.76 116.413 1100.37 114.129 1100.75 111.908L1100.56 111.568Z" fill="black"/>
<path d="M1130.61 146.998L1132.18 144.868C1132.18 144.868 1126.08 136.868 1124.67 134.698C1123.26 132.528 1118.13 118.088 1118.13 118.088L1116.38 118.518L1118.24 134.518L1130.61 146.998Z" fill="#FFC727"/>
<path opacity="0.1" d="M1130.61 146.998L1132.18 144.868C1132.18 144.868 1126.08 136.868 1124.67 134.698C1123.26 132.528 1118.13 118.088 1118.13 118.088L1116.38 118.518L1118.24 134.518L1130.61 146.998Z" fill="black"/>
<path d="M1107.12 121.819C1107.12 121.819 1110.61 136.819 1112.28 140.989C1114.07 144.874 1116.13 148.636 1118.42 152.249L1130.61 146.999C1130.61 146.999 1124.72 138.919 1123.34 136.679C1120.34 131.859 1116.34 118.519 1116.34 118.519L1107.12 121.819Z" fill="#FFC727"/>
<path d="M1117.91 153.158L1130.61 146.958L1132.18 144.828L1126.73 136.998L1126.27 136.938L1124.52 138.398L1113.75 144.148L1113.58 143.748L1113.31 144.838L1117.91 153.158Z" fill="#060212"/>
<path d="M1113.31 144.838L1124.85 138.688L1126.73 136.998L1126.27 136.938L1124.52 138.398L1113.75 144.148L1113.58 143.748L1113.31 144.838Z" fill="#640D5F"/>
<path d="M1124.85 138.689L1130.61 146.959L1132.18 144.829L1126.73 136.999L1124.85 138.689Z" fill="#263238"/>
<path opacity="0.15" d="M1119.41 121.578L1117.34 122.078L1108.24 126.458C1107.72 123.998 1107.12 121.808 1107.12 121.808L1116.38 118.478L1118.13 118.048C1118.13 118.048 1118.74 119.558 1119.41 121.578Z" fill="black"/>
<path d="M1131.16 77.4883C1131.16 77.4883 1125.67 90.6383 1115.16 100.278C1111.51 103.701 1107.54 106.774 1103.32 109.458C1103.32 109.458 1100.42 111.908 1103.25 118.038C1106.57 123.918 1110.25 123.038 1110.25 123.038C1114.9 121.184 1119.71 119.768 1124.62 118.808C1138.62 115.878 1152.49 119.118 1152.49 119.118V119.048C1149.75 118.698 1145.82 114.978 1141.97 109.268C1141.72 108.898 1141.48 108.518 1141.23 108.138C1139.71 105.757 1138.32 103.293 1137.07 100.758C1135.73 98.2427 1134.54 95.6517 1133.5 92.9983L1133 91.7683C1130.62 85.2983 1129.9 79.9383 1131.22 77.5083L1131.16 77.4883Z" fill="#FFC727"/>
<path d="M1131.16 77.4883C1131.16 77.4883 1125.67 90.6383 1115.16 100.278C1111.51 103.701 1107.54 106.774 1103.32 109.458C1103.32 109.458 1101.04 111.388 1102.49 116.098L1102.55 116.268C1102.75 116.872 1102.98 117.463 1103.25 118.038C1106.57 123.918 1110.25 123.038 1110.25 123.038C1114.9 121.186 1119.71 119.77 1124.62 118.808C1138.62 115.878 1152.49 119.108 1152.49 119.108V119.048C1149.75 118.698 1145.82 114.978 1141.97 109.268C1141.72 108.898 1141.48 108.518 1141.23 108.138C1139.71 105.757 1138.32 103.293 1137.07 100.758C1136.52 99.7583 1135.99 98.6583 1135.5 97.6283L1135.09 96.7683C1134.76 96.0383 1134.44 95.3083 1134.14 94.5883C1133.92 94.0883 1133.72 93.5883 1133.53 93.0983L1133 91.7683C1132.83 91.2883 1132.66 90.8183 1132.5 90.3483C1132.34 89.8783 1132.24 89.5683 1132.12 89.1883L1131.94 88.5883C1130.44 83.5883 1130.12 79.5283 1131.22 77.5083L1131.16 77.4883Z" fill="#FFC727"/>
<path opacity="0.3" d="M1130.66 86.4985L1130.45 86.6085L1134 94.3085L1129.69 87.4785L1129.12 87.7785L1132 94.5585L1128.5 88.7785L1127.66 89.2085L1131.23 97.8285L1127.23 91.6885L1126.13 92.2785L1128.81 98.5785L1125.6 93.4885L1124.34 94.1385L1126.65 99.8285L1124.36 96.6385L1123.05 97.3385L1124.29 100.659L1122.13 97.7585L1120.81 98.5185L1122.64 102.749L1119.89 98.9985L1118.58 99.6785L1120.25 104.759L1118.05 101.999L1116.83 102.689L1118.48 106.809L1116.22 104.169L1115.09 104.829L1115.64 106.349L1114.36 104.609L1113.27 105.209L1114.47 108.279L1113.07 106.999L1112.13 107.669L1112.54 108.609L1111.79 107.779L1110.85 108.319L1111.61 110.489L1109.82 108.329L1108.98 108.789L1109.54 110.469L1108.21 108.879L1107.44 109.299L1108.55 112.569L1106.94 110.259L1106.31 110.529L1106.96 113.399L1105.96 112.249L1105.46 112.539L1106.07 114.279L1104.79 112.649L1104.41 112.819L1105.11 116.189L1102.71 113.689L1102.52 113.779L1103.04 116.779L1102.41 116.149L1102.47 116.319L1103.08 116.969L1103.18 116.919L1102.79 114.109L1105.27 116.849L1105.56 116.699L1105 113.699L1106.64 115.909L1107.1 115.669L1106.52 113.929L1107.27 114.849L1107.82 114.589L1107.31 112.179L1109.46 115.379L1110.17 115.029L1109 111.239L1110.4 112.959L1111.21 112.509L1110.74 110.999L1112.66 113.389L1113.57 112.889L1112.79 110.549L1114.05 111.999L1115 111.399L1114.28 109.699L1115.56 110.869L1116.56 110.209L1116.15 109.149L1117.28 110.699L1118.42 110.089L1117.59 107.779L1120.18 110.779L1121.34 110.079L1120 106.889L1121.65 109.049L1122.93 108.379L1121.35 103.509L1125.28 108.739L1126.6 107.969L1124.86 103.969L1126.29 105.879L1127.61 105.169L1126.48 102.169L1129.13 105.869L1130.42 105.149L1128.76 101.149L1132.2 106.559L1133.39 105.929L1130.16 98.4485L1133.61 103.689L1134.61 103.179L1131 94.5685L1134.37 99.9985L1135.08 99.6285L1131.33 91.1885L1135.47 97.5585L1135.06 96.6985C1134.73 95.9685 1134.41 95.2385 1134.11 94.5185C1133.89 94.0185 1133.69 93.5185 1133.5 93.0285L1133 91.7685C1132.83 91.2885 1132.66 90.8185 1132.5 90.3485L1131.44 88.1485L1132.12 89.1485L1131.94 88.5485L1130.66 86.4985Z" fill="white"/>
<path d="M1111.67 122.998L1102.43 126.918C1102.43 126.918 1098.86 126.558 1096.37 121.918C1095.65 120.702 1095.19 119.35 1095.02 117.948C1094.85 116.545 1094.97 115.122 1095.37 113.768L1103.65 108.598L1103.87 108.998C1103.43 111.649 1103.89 114.371 1105.18 116.728C1106.46 119.4 1108.7 121.494 1111.45 122.598L1111.67 122.998Z" fill="#FFC727"/>
<g opacity="0.2">
<path d="M1111.67 122.998L1102.43 126.918C1102.43 126.918 1098.86 126.558 1096.37 121.918C1095.65 120.702 1095.19 119.35 1095.02 117.948C1094.85 116.545 1094.97 115.122 1095.37 113.768L1103.65 108.598L1103.87 108.998C1103.43 111.649 1103.89 114.371 1105.18 116.728C1106.46 119.4 1108.7 121.494 1111.45 122.598L1111.67 122.998Z" fill="black"/>
</g>
<path opacity="0.1" d="M1103.66 108.568C1103.66 108.568 1102.26 112.568 1105.25 117.568C1108.24 122.568 1111.67 122.998 1111.67 122.998L1111.46 122.618C1108.71 121.515 1106.47 119.42 1105.19 116.748C1103.9 114.395 1103.44 111.675 1103.89 109.028L1103.66 108.568Z" fill="black"/>
<g opacity="0.2">
<path d="M1096.67 114.308C1096.62 114.321 1096.56 114.317 1096.51 114.295C1096.47 114.273 1096.43 114.236 1096.4 114.188C1096.38 114.159 1096.37 114.127 1096.37 114.093C1096.36 114.059 1096.37 114.025 1096.37 113.992C1096.38 113.959 1096.4 113.929 1096.42 113.902C1096.44 113.876 1096.47 113.854 1096.5 113.838L1098.5 112.708C1098.56 112.677 1098.63 112.671 1098.7 112.691C1098.76 112.712 1098.82 112.758 1098.85 112.818C1098.87 112.848 1098.88 112.88 1098.88 112.914C1098.89 112.948 1098.88 112.982 1098.88 113.015C1098.87 113.048 1098.85 113.078 1098.83 113.105C1098.81 113.131 1098.78 113.153 1098.75 113.168L1096.75 114.288L1096.67 114.308Z" fill="black"/>
<path d="M1096.76 115.589C1096.71 115.602 1096.65 115.598 1096.6 115.576C1096.55 115.554 1096.51 115.517 1096.48 115.469C1096.45 115.409 1096.44 115.339 1096.46 115.273C1096.48 115.208 1096.52 115.152 1096.58 115.119L1098.58 113.999C1098.61 113.981 1098.64 113.97 1098.68 113.965C1098.71 113.961 1098.74 113.964 1098.78 113.973C1098.81 113.982 1098.84 113.998 1098.87 114.02C1098.89 114.042 1098.91 114.068 1098.93 114.099C1098.96 114.158 1098.97 114.229 1098.95 114.294C1098.93 114.359 1098.89 114.415 1098.83 114.449L1096.83 115.569L1096.76 115.589Z" fill="black"/>
</g>
<g opacity="0.2">
<path d="M1102.24 124.998C1102.18 125.004 1102.13 124.993 1102.08 124.967C1102.03 124.94 1101.99 124.899 1101.96 124.848C1101.93 124.787 1101.93 124.717 1101.95 124.654C1101.97 124.591 1102.02 124.538 1102.08 124.508L1104.17 123.508C1104.2 123.491 1104.23 123.481 1104.27 123.478C1104.3 123.476 1104.33 123.48 1104.37 123.491C1104.4 123.503 1104.43 123.521 1104.45 123.544C1104.48 123.568 1104.5 123.596 1104.51 123.628C1104.52 123.658 1104.53 123.691 1104.54 123.725C1104.54 123.758 1104.53 123.792 1104.52 123.824C1104.51 123.855 1104.49 123.885 1104.47 123.909C1104.45 123.934 1104.42 123.954 1104.39 123.968L1102.31 124.968L1102.24 124.998Z" fill="black"/>
<path d="M1103.31 125.728C1103.26 125.738 1103.2 125.729 1103.15 125.704C1103.1 125.679 1103.06 125.638 1103.04 125.588C1103.01 125.526 1103.01 125.455 1103.03 125.39C1103.05 125.324 1103.1 125.27 1103.16 125.238L1105.24 124.238C1105.3 124.21 1105.37 124.207 1105.44 124.229C1105.5 124.251 1105.56 124.298 1105.59 124.358C1105.62 124.42 1105.62 124.489 1105.6 124.553C1105.58 124.616 1105.53 124.668 1105.47 124.698L1103.38 125.698L1103.31 125.728Z" fill="black"/>
</g>
<path opacity="0.1" d="M1152.47 118.998V119.058C1152.47 119.058 1138.6 115.828 1124.6 118.758C1120.1 119.667 1115.68 120.927 1111.38 122.528H1111.48L1111.69 122.908L1102.45 126.828C1102.45 126.828 1098.88 126.468 1096.39 121.828C1095.67 120.612 1095.21 119.26 1095.04 117.858C1094.87 116.455 1094.99 115.032 1095.39 113.678C1095.55 115.508 1098.59 118.948 1101.62 118.108C1103.9 117.478 1103.98 113.248 1103.98 113.248C1103.98 113.248 1112.93 118.798 1127.8 112.928C1132.73 110.928 1137.68 106.428 1138.36 103.178C1139.29 104.908 1140.25 106.528 1141.22 108.038C1141.47 108.418 1141.71 108.798 1141.96 109.168C1145.8 114.938 1149.73 118.658 1152.47 118.998Z" fill="black"/>
<path d="M1131.15 77.3685C1131.38 76.9204 1131.72 76.5433 1132.15 76.2785C1135.76 74.2785 1143.83 82.1285 1150.15 93.7485C1156.47 105.369 1158.72 116.389 1155.15 118.359L1154.94 118.459H1154.87C1153.49 118.999 1151.56 118.279 1149.35 116.599C1146.35 114.279 1142.79 110.139 1139.49 104.899C1138.68 103.619 1137.89 102.285 1137.12 100.899C1135.96 98.7685 1134.93 96.6685 1134.06 94.6285C1130.76 86.8585 1129.59 80.1685 1131.15 77.3685Z" fill="#FFC727"/>
<path opacity="0.6" d="M1131.15 77.3685C1131.38 76.9204 1131.72 76.5433 1132.15 76.2785C1135.76 74.2785 1143.83 82.1285 1150.15 93.7485C1156.47 105.369 1158.72 116.389 1155.15 118.359L1154.94 118.459H1154.87C1153.49 118.999 1151.56 118.279 1149.35 116.599C1146.35 114.279 1142.79 110.139 1139.49 104.899C1138.68 103.619 1137.89 102.285 1137.12 100.899C1135.96 98.7685 1134.93 96.6685 1134.06 94.6285C1130.76 86.8585 1129.59 80.1685 1131.15 77.3685Z" fill="black"/>
<path opacity="0.2" d="M1154.44 102.899L1136.81 100.229C1136.92 100.449 1137.04 100.669 1137.16 100.879C1137.93 102.285 1138.72 103.619 1139.53 104.879C1142.83 110.129 1146.36 114.259 1149.39 116.579C1151.6 118.259 1153.53 118.979 1154.91 118.439H1154.98L1155.19 118.339C1157.81 116.919 1157.34 110.679 1154.44 102.899Z" fill="black"/>
<g opacity="0.1">
<path d="M1150.93 95.0785L1136.81 100.229L1148.61 90.9985C1149.15 91.8985 1149.69 92.8385 1150.22 93.7985L1150.93 95.0785Z" fill="white"/>
<path d="M1147 88.3685L1136.81 100.228L1145.81 86.6885C1146.22 87.2285 1146.6 87.7985 1147 88.3685Z" fill="white"/>
</g>
<path d="M1134.5 95.5085C1135.13 94.7332 1135.93 94.1176 1136.85 93.7118C1137.76 93.306 1138.75 93.1214 1139.75 93.1731C1140.75 93.2247 1141.72 93.5113 1142.58 94.0093C1143.45 94.5073 1144.19 95.2027 1144.73 96.0388C1145.28 96.875 1145.62 97.8282 1145.73 98.821C1145.83 99.8137 1145.7 100.818 1145.35 101.752C1145 102.685 1144.43 103.522 1143.69 104.194C1142.95 104.866 1142.06 105.354 1141.1 105.618C1140.72 105.727 1140.33 105.797 1139.93 105.828C1139.12 104.548 1138.33 103.215 1137.56 101.828C1136.4 99.6585 1135.37 97.5485 1134.5 95.5085Z" fill="#FFC727"/>
<path d="M1132.47 75.1283C1134.6 74.5483 1137.47 75.9383 1140.85 79.2183C1144.91 83.3898 1148.36 88.1251 1151.07 93.2783C1153.94 98.3464 1156.07 103.803 1157.39 109.478C1158.39 114.648 1157.84 118.018 1155.66 119.208L1155.4 119.338L1155.22 119.408C1153.53 120.038 1151.37 119.408 1148.8 117.408C1145.6 114.998 1142 110.698 1138.71 105.438C1137.9 104.158 1137.09 102.778 1136.31 101.348C1135.13 99.1883 1134.08 97.0483 1133.2 94.9883C1129.66 86.7583 1128.57 79.9883 1130.3 76.8883C1130.63 76.2734 1131.12 75.7662 1131.73 75.4283C1131.96 75.2977 1132.21 75.1969 1132.47 75.1283ZM1154.61 117.548H1154.73C1156 116.848 1156.29 113.928 1155.48 109.908C1154.2 104.428 1152.14 99.1599 1149.36 94.2683C1146.74 89.2843 1143.42 84.7038 1139.5 80.6683C1136.56 77.8183 1133.94 76.4783 1132.66 77.1883C1132.38 77.3519 1132.15 77.5953 1132 77.8883C1130.86 79.9383 1131.34 85.7983 1135 94.2683C1135.86 96.2683 1136.88 98.3583 1138 100.468C1138.77 101.858 1139.55 103.198 1140.34 104.468C1143.49 109.468 1147 113.638 1149.97 115.918C1151.91 117.388 1153.57 118.018 1154.55 117.638L1154.61 117.548Z" fill="#FFC727"/>
<path opacity="0.2" d="M1132.47 75.1283C1134.6 74.5483 1137.47 75.9383 1140.85 79.2183C1144.91 83.3898 1148.36 88.1251 1151.07 93.2783C1153.94 98.3464 1156.07 103.803 1157.39 109.478C1158.39 114.648 1157.84 118.018 1155.66 119.208L1155.4 119.338L1155.22 119.408C1153.53 120.038 1151.37 119.408 1148.8 117.408C1145.6 114.998 1142 110.698 1138.71 105.438C1137.9 104.158 1137.09 102.778 1136.31 101.348C1135.13 99.1883 1134.08 97.0483 1133.2 94.9883C1129.66 86.7583 1128.57 79.9883 1130.3 76.8883C1130.63 76.2734 1131.12 75.7662 1131.73 75.4283C1131.96 75.2977 1132.21 75.1969 1132.47 75.1283ZM1154.61 117.548H1154.73C1156 116.848 1156.29 113.928 1155.48 109.908C1154.2 104.428 1152.14 99.1599 1149.36 94.2683C1146.74 89.2843 1143.42 84.7038 1139.5 80.6683C1136.56 77.8183 1133.94 76.4783 1132.66 77.1883C1132.38 77.3519 1132.15 77.5953 1132 77.8883C1130.86 79.9383 1131.34 85.7983 1135 94.2683C1135.86 96.2683 1136.88 98.3583 1138 100.468C1138.77 101.858 1139.55 103.198 1140.34 104.468C1143.49 109.468 1147 113.638 1149.97 115.918C1151.91 117.388 1153.57 118.018 1154.55 117.638L1154.61 117.548Z" fill="black"/>
<path d="M1117.09 132.688C1116.96 135.688 1120.54 134.108 1120.54 134.108C1120.54 134.108 1115.93 137.578 1116.98 140.698C1118.03 143.818 1122.26 141.698 1122.57 141.528C1122.33 141.718 1118.17 145.018 1119.57 148.038C1120.97 151.058 1124.93 148.418 1125.18 148.238C1125.01 148.478 1122.76 151.788 1124.34 153.848C1127.04 157.388 1133 149.078 1136.58 148.648C1136.58 148.648 1138.01 154.648 1138.08 154.788C1138.08 154.788 1143.92 146.998 1143.08 142.208C1142.97 141.509 1142.61 140.871 1142.09 140.398C1141.56 139.925 1140.89 139.647 1140.18 139.608C1140.18 139.608 1142.34 137.298 1141.33 134.888C1140.81 133.648 1138.33 133.388 1138.33 133.388C1138.79 132.842 1139.09 132.18 1139.2 131.475C1139.31 130.77 1139.22 130.048 1138.95 129.388C1138.13 127.718 1135.8 127.708 1135.8 127.708C1135.8 127.708 1136.53 125.138 1135.14 123.708C1132.35 120.788 1117.37 126.318 1117.09 132.688Z" fill="#EB9481"/>
<path d="M1138.4 133.328C1138.41 133.324 1138.42 133.316 1138.43 133.306C1138.43 133.296 1138.44 133.285 1138.44 133.273C1138.44 133.262 1138.43 133.25 1138.43 133.24C1138.42 133.231 1138.41 133.223 1138.4 133.218C1132.26 133.97 1126.58 136.888 1122.4 141.448C1122.26 141.618 1122.3 141.908 1122.48 141.728C1125.41 138.758 1133.43 134.698 1138.4 133.328Z" fill="#263238"/>
<path d="M1125 148.668C1129.13 144.238 1134.26 141.588 1139.93 139.668C1140.01 139.668 1139.93 139.538 1139.93 139.548C1136.93 139.748 1133.42 141.388 1130.82 142.888C1128.38 144.228 1126.33 146.187 1124.88 148.568C1124.78 148.618 1124.91 148.758 1125 148.668Z" fill="#263238"/>
<path d="M1120.54 134.108C1119.72 134.854 1118.96 135.674 1118.29 136.558C1117.61 137.393 1117.15 138.393 1116.98 139.458C1116.93 139.952 1117.06 140.447 1117.35 140.848C1117.65 141.251 1118.04 141.568 1118.5 141.768C1118.97 141.937 1119.47 142.003 1119.97 141.964C1120.47 141.924 1120.95 141.779 1121.39 141.538L1123.58 140.458L1121.89 142.238C1121.14 143.017 1120.52 143.916 1120.06 144.898C1119.82 145.339 1119.67 145.827 1119.63 146.329C1119.59 146.83 1119.66 147.335 1119.83 147.808C1119.98 148.244 1120.29 148.612 1120.68 148.851C1121.08 149.09 1121.54 149.184 1122 149.118C1123.03 148.942 1124.01 148.509 1124.83 147.858L1127.15 146.138L1125.52 148.518C1125.06 149.177 1124.7 149.894 1124.43 150.648C1124.15 151.353 1124.08 152.125 1124.23 152.868C1124.31 153.2 1124.49 153.503 1124.73 153.741C1124.98 153.98 1125.29 154.145 1125.62 154.218C1126.39 154.269 1127.16 154.099 1127.84 153.728C1129.32 152.953 1130.74 152.06 1132.08 151.058C1132.78 150.578 1133.47 150.058 1134.2 149.638C1134.9 149.145 1135.69 148.805 1136.53 148.638C1135.72 148.884 1134.98 149.288 1134.33 149.828C1133.65 150.328 1132.99 150.828 1132.33 151.388C1131.03 152.519 1129.63 153.523 1128.14 154.388C1127.34 154.862 1126.42 155.094 1125.49 155.058C1124.99 154.979 1124.52 154.755 1124.14 154.414C1123.76 154.073 1123.49 153.63 1123.36 153.138C1123.15 152.221 1123.21 151.26 1123.54 150.378C1123.84 149.535 1124.26 148.734 1124.77 147.998L1125.47 148.648C1124.52 149.44 1123.37 149.964 1122.15 150.168C1121.46 150.276 1120.75 150.13 1120.15 149.758C1119.59 149.389 1119.15 148.859 1118.89 148.238C1118.68 147.637 1118.59 146.998 1118.64 146.363C1118.69 145.727 1118.88 145.109 1119.18 144.548C1119.7 143.476 1120.4 142.499 1121.24 141.658L1121.75 142.348C1121.2 142.626 1120.59 142.779 1119.97 142.796C1119.35 142.814 1118.73 142.695 1118.16 142.448C1117.61 142.164 1117.14 141.744 1116.8 141.228C1116.45 140.701 1116.31 140.063 1116.41 139.438C1116.66 138.309 1117.22 137.27 1118.02 136.438C1118.77 135.567 1119.61 134.785 1120.54 134.108Z" fill="#263238"/>
<path d="M1105.17 146.568L1125.77 170.568C1125.77 170.568 1106.12 186.568 1099.1 185.568C1092.08 184.568 1072.54 164.368 1063.3 152.868C1054.45 141.868 1061.75 140.248 1069.83 143.948C1078.51 147.948 1095.05 156.868 1095.83 156.948C1096.61 157.028 1105.17 146.568 1105.17 146.568Z" fill="#FFC727"/>
<path d="M1109.43 164.588C1110.61 166.128 1111.83 167.588 1113.06 169.148C1113.64 169.878 1114.22 170.608 1114.83 171.308C1115.44 172.008 1116.1 172.908 1116.83 173.618C1116.83 173.618 1116.95 173.618 1116.91 173.548C1116.4 172.688 1115.75 171.888 1115.18 171.058C1114.61 170.228 1114.09 169.548 1113.53 168.798C1112.38 167.238 1111.22 165.678 1110.03 164.148C1107.65 161.068 1105.18 158.078 1102.67 155.098C1102.66 155.089 1102.64 155.085 1102.62 155.086C1102.61 155.086 1102.59 155.092 1102.58 155.101C1102.57 155.111 1102.56 155.125 1102.55 155.14C1102.55 155.156 1102.55 155.173 1102.55 155.188C1104.78 158.368 1107.06 161.508 1109.43 164.588Z" fill="#263238"/>
<path opacity="0.1" d="M1104 184.638C1102.46 185.362 1100.77 185.705 1099.07 185.638C1092.07 184.638 1072.52 164.438 1063.28 152.938C1056.83 144.938 1058.96 141.868 1063.71 142.248L1104 184.638Z" fill="black"/>
<path d="M1084.62 200.148L1029.21 207.718C1029.21 207.718 1038.44 158.838 1050.51 144.718C1056 138.328 1061.2 139.228 1066.15 142.998C1067.38 143.938 1083.15 165.428 1084.75 171.878C1085.44 174.588 1081.95 180.648 1081.95 180.648L1084.62 200.148Z" fill="#EBEBEB"/>
<path d="M1062.73 155.388L1064.89 150.988L1068.44 154.638L1068.24 157.718L1064.7 158.258L1062.73 155.388Z" fill="#263238"/>
<path d="M1064.7 158.258L1067.1 192.358L1075.45 207.118L1079.81 191.808L1068.24 157.718L1064.7 158.258Z" fill="#263238"/>
<path d="M1066.13 142.198C1066.13 142.198 1073.21 158.938 1073.79 163.288C1074.37 167.638 1073.12 184.138 1073.12 184.138C1073.12 184.138 1062.74 167.238 1060.12 161.738C1056.12 153.198 1054.77 141.118 1054.77 141.118C1054.77 141.118 1051.23 142.918 1046.77 149.628C1040.77 158.628 1030.77 191.758 1027.86 210.118L1071.41 214.418L1075.41 207.118L1078.73 211.278L1087.44 202.928L1082 180.628C1082 180.628 1085.4 174.628 1084.8 171.858C1082.83 163.128 1066.13 142.198 1066.13 142.198Z" fill="#FFC727"/>
<path opacity="0.2" d="M1073.13 184.098L1078.58 164.158L1074.02 159.158L1077.75 158.258C1077.75 158.258 1067.23 143.408 1066.15 142.258C1066.42 142.888 1073.22 159.058 1073.79 163.328C1074.36 167.598 1073.2 183.208 1073.13 184.098Z" fill="black"/>
<path opacity="0.2" d="M1058.36 161.128L1056.79 167.808L1073.12 184.128C1072.81 183.608 1062.69 167.128 1060.12 161.738C1056.12 153.198 1054.78 141.118 1054.78 141.118L1053.93 160.118L1058.36 161.128Z" fill="black"/>
<path d="M1073.12 184.138C1074.41 191.744 1075.19 199.428 1075.45 207.138C1074.16 199.532 1073.39 191.848 1073.12 184.138Z" fill="#263238"/>
<path d="M1069.5 189.298C1069.57 189.5 1069.71 189.673 1069.88 189.793C1070.06 189.913 1070.27 189.973 1070.48 189.964C1070.7 189.955 1070.9 189.877 1071.07 189.743C1071.24 189.609 1071.36 189.425 1071.41 189.218C1071.34 189.016 1071.2 188.843 1071.03 188.723C1070.85 188.603 1070.64 188.544 1070.43 188.553C1070.21 188.562 1070.01 188.639 1069.84 188.773C1069.67 188.907 1069.55 189.091 1069.5 189.298ZM1069.5 189.298C1069.51 188.963 1069.65 188.643 1069.88 188.404C1070.12 188.164 1070.43 188.023 1070.77 188.008C1071.1 187.993 1071.43 188.105 1071.69 188.322C1071.95 188.539 1072.11 188.845 1072.15 189.178C1072.14 189.514 1072 189.833 1071.77 190.072C1071.53 190.312 1071.22 190.453 1070.88 190.468C1070.55 190.484 1070.22 190.371 1069.96 190.154C1069.7 189.937 1069.54 189.631 1069.5 189.298Z" fill="#263238"/>
<path d="M1070.17 196.408C1070.24 196.61 1070.38 196.784 1070.55 196.903C1070.73 197.023 1070.94 197.083 1071.15 197.074C1071.37 197.065 1071.57 196.988 1071.74 196.854C1071.91 196.719 1072.03 196.535 1072.08 196.328C1072.01 196.127 1071.87 195.953 1071.7 195.834C1071.52 195.714 1071.31 195.654 1071.1 195.663C1070.88 195.672 1070.68 195.749 1070.51 195.883C1070.34 196.018 1070.22 196.202 1070.17 196.408ZM1070.17 196.408C1070.15 196.056 1070.28 195.711 1070.52 195.45C1070.76 195.19 1071.09 195.034 1071.44 195.018C1071.79 195.003 1072.14 195.127 1072.4 195.366C1072.66 195.604 1072.81 195.936 1072.83 196.288C1072.84 196.463 1072.81 196.638 1072.75 196.802C1072.69 196.966 1072.6 197.117 1072.48 197.246C1072.36 197.376 1072.22 197.48 1072.06 197.554C1071.91 197.628 1071.73 197.671 1071.56 197.678C1071.39 197.686 1071.21 197.66 1071.05 197.6C1070.88 197.541 1070.73 197.449 1070.6 197.331C1070.47 197.213 1070.37 197.071 1070.29 196.913C1070.22 196.754 1070.18 196.583 1070.17 196.408Z" fill="#263238"/>
<path d="M1070.84 203.518C1070.91 203.72 1071.05 203.893 1071.22 204.013C1071.4 204.133 1071.61 204.193 1071.82 204.184C1072.04 204.175 1072.24 204.098 1072.41 203.963C1072.58 203.829 1072.7 203.645 1072.75 203.438C1072.68 203.237 1072.54 203.063 1072.37 202.943C1072.19 202.824 1071.98 202.764 1071.77 202.773C1071.55 202.782 1071.35 202.859 1071.18 202.993C1071.01 203.127 1070.89 203.311 1070.84 203.518ZM1070.84 203.518C1070.82 203.166 1070.95 202.821 1071.19 202.56C1071.43 202.3 1071.76 202.144 1072.11 202.128C1072.46 202.112 1072.81 202.237 1073.07 202.475C1073.33 202.714 1073.48 203.046 1073.5 203.398C1073.51 203.573 1073.48 203.747 1073.42 203.912C1073.36 204.076 1073.27 204.227 1073.15 204.356C1073.04 204.485 1072.89 204.59 1072.73 204.664C1072.58 204.738 1072.4 204.78 1072.23 204.788C1072.06 204.796 1071.88 204.77 1071.72 204.71C1071.55 204.65 1071.4 204.559 1071.27 204.441C1071.14 204.323 1071.04 204.181 1070.96 204.023C1070.89 203.864 1070.85 203.693 1070.84 203.518Z" fill="#263238"/>
<path d="M1055.72 191.438L1040.35 189.348L1039.96 191.338L1055.45 193.438L1055.72 191.438Z" fill="#263238"/>
<path d="M1067.45 182.688C1069.67 182.114 1071.94 181.722 1074.22 181.518C1075.35 181.428 1076.49 181.398 1077.64 181.398C1078.21 181.398 1078.78 181.398 1079.35 181.348C1079.95 181.337 1080.54 181.25 1081.11 181.088C1081.11 181.088 1081.18 181.158 1081.11 181.178C1080.59 181.397 1080.06 181.578 1079.52 181.718C1078.99 181.835 1078.45 181.912 1077.91 181.948C1076.75 182.048 1075.59 182.098 1074.43 182.178C1072.1 182.358 1069.77 182.528 1067.43 182.888C1067.39 182.908 1067.35 182.708 1067.45 182.688Z" fill="#263238"/>
<path d="M1062.93 186.688C1064.62 185.847 1066.35 185.109 1068.13 184.478C1069.02 184.17 1069.92 183.906 1070.84 183.688L1072.16 183.378C1072.64 183.278 1073.16 183.238 1073.63 183.128C1073.68 183.128 1073.71 183.198 1073.63 183.218C1073.18 183.338 1072.75 183.538 1072.3 183.688L1070.97 184.128C1070.08 184.428 1069.19 184.738 1068.29 185.028C1066.5 185.608 1064.73 186.198 1062.96 186.848C1062.9 186.888 1062.85 186.728 1062.93 186.688Z" fill="#263238"/>
<path d="M1046.52 150.758C1032.74 173.898 1010.63 218.758 1006.89 226.388C1004.35 231.548 1032.21 245.118 1033.41 241.388C1034.95 236.568 1052.79 182.388 1054.35 154.658C1055.08 141.758 1050.93 143.358 1046.52 150.758Z" fill="#EB9481"/>
<path d="M1034.18 238.758C1033.49 243.458 1030.18 252.898 1027.78 254.308C1025.38 255.718 1012.9 255.308 1006.6 255.198C1000.3 255.088 999.09 253.348 999.22 251.198C999.35 249.048 1012.56 248.778 1012.56 248.778C1012.56 248.778 994.86 253.628 990.41 254.398C985.96 255.168 975.71 257.628 974.27 253.928C973.63 252.258 976.45 250.618 976.45 250.618C976.45 250.618 972.14 251.818 971.45 249.678C970.71 247.238 974.13 245.948 974.13 245.948C974.13 245.948 971.45 246.458 971.41 244.478C971.32 240.048 988.13 238.078 988.13 238.078C988.13 238.078 975.21 244.178 974.84 240.568C974.33 235.568 1000.72 230.408 1003.49 228.268C1005.5 226.627 1007.39 224.835 1009.13 222.908L1034.18 238.758Z" fill="#EB9481"/>
<path d="M999.3 252.278C999.26 251.971 999.295 251.658 999.403 251.367C999.511 251.076 999.689 250.815 999.92 250.608C1000.37 250.187 1000.89 249.849 1001.46 249.608C1002.63 249.123 1003.84 248.744 1005.08 248.478C1007.57 247.878 1010.08 247.478 1012.66 246.838C1010.04 246.768 1007.43 247.03 1004.88 247.618C1003.58 247.901 1002.32 248.366 1001.15 248.998C1000.54 249.321 1000.01 249.767 999.59 250.308C999.374 250.583 999.233 250.909 999.182 251.255C999.132 251.6 999.172 251.953 999.3 252.278Z" fill="#263238"/>
<path d="M976.45 250.599C978.27 250.179 980.06 249.689 981.85 249.189C983.64 248.689 985.43 248.189 987.21 247.659L992.55 246.059C994.33 245.519 996.1 244.989 997.9 244.479C996.041 244.659 994.197 244.966 992.38 245.399C990.55 245.789 988.75 246.289 986.96 246.809C985.17 247.329 983.4 247.909 981.65 248.549C979.9 249.189 978.15 249.829 976.45 250.599Z" fill="#263238"/>
<path d="M993.69 239.999C991.976 240.091 990.272 240.308 988.59 240.649C986.901 240.96 985.232 241.368 983.59 241.869C981.944 242.353 980.328 242.934 978.75 243.609C977.164 244.266 975.627 245.035 974.15 245.909C975.78 245.369 977.37 244.759 978.99 244.239C980.61 243.719 982.22 243.239 983.84 242.709C985.46 242.179 987.1 241.759 988.74 241.299C990.38 240.839 992 240.449 993.69 239.999Z" fill="#263238"/>
<path d="M991.15 235.778C985.604 236.191 980.241 237.952 975.53 240.908C978.15 240.018 980.7 239.058 983.3 238.228C985.9 237.398 988.51 236.598 991.15 235.778Z" fill="#263238"/>
<path d="M1046.82 149.318C1031.65 171.578 1010.91 213.378 1007.17 220.978L1036.43 235.868C1037.97 231.048 1052.79 182.398 1054.35 154.628C1055.08 141.758 1052.34 141.228 1046.82 149.318Z" fill="#FFC727"/>
<path d="M1042.49 216.368C1046.28 199.068 1049.91 179.928 1053.71 162.618C1050.79 180.688 1047.39 198.728 1042.49 216.368Z" fill="#263238"/>
<path d="M1054 164.838C1053.73 166.049 1053.29 167.216 1052.7 168.308C1052.97 167.097 1053.41 165.93 1054 164.838Z" fill="#263238"/>
<path d="M1055.11 143.698C1055.5 144.698 1061.45 150.948 1066.26 150.098C1067.83 149.818 1066.68 141.188 1066.68 141.188L1066.74 140.538L1067.58 131.348L1056.22 125.998L1054.59 125.308C1054.59 125.308 1054.52 127.838 1054.47 130.978V131.428C1054.47 131.608 1054.47 131.778 1054.47 131.948V133.368C1054.47 133.738 1054.47 134.088 1054.47 134.478C1054.47 134.868 1054.47 135.228 1054.47 135.618C1054.5 138.323 1054.71 141.022 1055.11 143.698Z" fill="#EB9481"/>
<path d="M1054.47 130.998C1055.7 133.39 1057.43 135.486 1059.55 137.141C1061.67 138.795 1064.12 139.968 1066.74 140.578L1067.58 131.388L1056.22 125.998L1054.59 125.308C1054.59 125.308 1054.52 127.818 1054.47 130.998Z" fill="#263238"/>
<path d="M1078.36 115.388C1082.78 130.958 1073.95 135.388 1070.59 136.318C1067.54 137.178 1057.05 139.728 1051.04 124.698C1045.03 109.668 1050.88 102.698 1057.75 100.338C1064.62 97.9785 1073.93 99.8085 1078.36 115.388Z" fill="#EB9481"/>
<path d="M1073.07 112.108C1072.69 112.128 1072.32 112.128 1071.94 112.108C1071.54 112.171 1071.13 112.097 1070.78 111.898C1070.68 111.816 1070.62 111.703 1070.59 111.579C1070.56 111.454 1070.58 111.324 1070.63 111.208C1070.77 110.993 1070.97 110.82 1071.2 110.707C1071.43 110.595 1071.69 110.547 1071.95 110.568C1072.48 110.531 1073 110.692 1073.41 111.018C1073.5 111.097 1073.57 111.201 1073.6 111.318C1073.64 111.435 1073.64 111.559 1073.6 111.676C1073.56 111.792 1073.5 111.895 1073.4 111.972C1073.31 112.049 1073.19 112.096 1073.07 112.108Z" fill="#263238"/>
<path d="M1062.11 116.758C1062.42 116.543 1062.72 116.309 1063 116.058C1063.34 115.854 1063.61 115.546 1063.77 115.178C1063.8 115.051 1063.78 114.919 1063.72 114.803C1063.66 114.687 1063.57 114.594 1063.45 114.538C1063.2 114.46 1062.94 114.45 1062.69 114.508C1062.44 114.566 1062.21 114.69 1062.02 114.868C1061.59 115.166 1061.28 115.615 1061.16 116.128C1061.14 116.248 1061.15 116.371 1061.2 116.483C1061.25 116.594 1061.33 116.69 1061.43 116.757C1061.53 116.824 1061.65 116.86 1061.77 116.86C1061.89 116.86 1062.01 116.825 1062.11 116.758Z" fill="#263238"/>
<path d="M1065.28 118.688C1065.28 118.688 1065.21 118.758 1065.22 118.808C1065.52 119.878 1065.69 121.168 1064.79 121.808C1064.79 121.808 1064.79 121.878 1064.79 121.868C1066 121.358 1065.74 119.658 1065.28 118.688Z" fill="#263238"/>
<path d="M1064 117.798C1062.22 118.088 1062.94 121.618 1064.59 121.348C1066.24 121.078 1065.53 117.548 1064 117.798Z" fill="#263238"/>
<path d="M1063.38 118.119C1063.12 118.389 1062.89 118.799 1062.52 118.909C1062.15 119.019 1061.7 118.739 1061.35 118.439C1061.35 118.439 1061.28 118.439 1061.29 118.489C1061.42 119.169 1061.82 119.809 1062.57 119.769C1063.32 119.729 1063.57 119.029 1063.63 118.309C1063.64 118.179 1063.49 117.999 1063.38 118.119Z" fill="#263238"/>
<path d="M1071.52 116.818C1071.52 116.818 1071.61 116.818 1071.62 116.898C1071.8 118.008 1072.19 119.238 1073.25 119.408V119.468C1072 119.538 1071.51 117.898 1071.52 116.818Z" fill="#263238"/>
<path d="M1072.27 115.488C1074.01 115.008 1074.84 118.488 1073.27 118.958C1071.7 119.428 1070.82 115.888 1072.27 115.488Z" fill="#263238"/>
<path d="M1073.06 115.538C1073.38 115.658 1073.73 115.938 1074.06 115.878C1074.39 115.818 1074.64 115.368 1074.8 114.948C1074.8 114.898 1074.85 114.948 1074.87 114.948C1075.04 115.618 1074.99 116.368 1074.37 116.648C1073.75 116.928 1073.25 116.428 1072.93 115.798C1072.88 115.708 1072.93 115.498 1073.06 115.538Z" fill="#263238"/>
<path d="M1071.27 122.368C1071.27 122.368 1071.84 123.948 1072.01 124.718C1072.01 124.788 1071.85 124.868 1071.59 124.938C1070.96 125.203 1070.26 125.288 1069.58 125.184C1068.9 125.08 1068.27 124.791 1067.74 124.348C1067.73 124.334 1067.72 124.317 1067.72 124.299C1067.72 124.281 1067.73 124.263 1067.74 124.248C1067.75 124.233 1067.76 124.222 1067.78 124.214C1067.79 124.207 1067.81 124.205 1067.83 124.208C1068.96 124.671 1070.2 124.755 1071.38 124.448C1071.38 124.228 1070.3 121.768 1070.38 121.738C1070.99 121.654 1071.6 121.654 1072.21 121.738C1071.1 118.408 1069.47 115.278 1068.42 111.948C1068.42 111.925 1068.42 111.901 1068.43 111.881C1068.44 111.86 1068.46 111.843 1068.48 111.833C1068.5 111.823 1068.53 111.82 1068.55 111.825C1068.57 111.829 1068.59 111.841 1068.61 111.858C1070.46 115.153 1071.98 118.623 1073.14 122.218C1073.31 122.668 1071.6 122.428 1071.27 122.368Z" fill="#263238"/>
<path d="M1071.4 124.589C1071.1 125.324 1070.62 125.968 1070 126.459C1069.66 126.716 1069.25 126.863 1068.83 126.879C1067.9 126.879 1067.65 126.119 1067.61 125.399C1067.59 125.013 1067.62 124.627 1067.69 124.249C1068.86 124.76 1070.16 124.879 1071.4 124.589Z" fill="#263238"/>
<path d="M1070 126.458C1069.66 126.716 1069.25 126.863 1068.83 126.878C1067.9 126.878 1067.65 126.118 1067.61 125.398C1068.07 125.279 1068.56 125.318 1068.99 125.511C1069.42 125.703 1069.78 126.037 1070 126.458Z" fill="#D91656"/>
<path d="M1052 126.829C1054.67 126.089 1053.29 120.429 1053.29 120.429C1053.29 120.429 1058.56 118.539 1057.55 110.329C1058.23 112.653 1058.21 115.125 1057.49 117.439C1057.49 117.439 1066.43 113.079 1067.49 103.889C1067.49 103.889 1067.37 108.409 1066.42 110.349C1068.51 108.774 1070.01 106.535 1070.67 103.999C1070.67 103.999 1074.09 107.999 1075.79 108.769C1075.79 108.769 1074.96 101.419 1068.27 98.4785C1064.81 96.9685 1056.74 96.3785 1051.21 104.189C1051.21 104.189 1046.21 108.019 1046.21 113.449C1046.18 115.96 1046.69 118.449 1047.68 120.754C1048.68 123.059 1050.15 125.129 1052 126.829Z" fill="#263238"/>
<path d="M1053.85 125.188C1053.85 125.188 1049.43 120.888 1047.42 122.568C1045.41 124.248 1049.42 130.928 1052.23 131.398C1052.59 131.485 1052.96 131.497 1053.33 131.435C1053.69 131.374 1054.04 131.239 1054.35 131.039C1054.66 130.838 1054.93 130.578 1055.13 130.272C1055.34 129.965 1055.48 129.621 1055.55 129.258L1053.85 125.188Z" fill="#EB9481"/>
<path d="M1048.61 124.448V124.528C1050.61 124.918 1051.91 126.448 1052.94 128.098C1052.8 127.932 1052.62 127.798 1052.42 127.706C1052.22 127.615 1052.01 127.567 1051.79 127.567C1051.57 127.567 1051.35 127.615 1051.16 127.706C1050.96 127.798 1050.78 127.932 1050.64 128.098C1050.64 128.098 1050.64 128.208 1050.71 128.178C1051.02 128.015 1051.37 127.949 1051.71 127.99C1052.06 128.032 1052.38 128.177 1052.64 128.408C1053.07 128.802 1053.46 129.241 1053.8 129.718C1053.91 129.868 1054.2 129.718 1054.1 129.538C1053.67 127.158 1051.19 124.198 1048.61 124.448Z" fill="#263238"/>
</g>
<defs>
<clipPath id="clip0_476_17396">
<rect width="1920" height="600" fill="white"/>
</clipPath>
</defs>
</svg>
