<svg width="375" height="600" viewBox="0 0 375 600" fill="none" xmlns="http://www.w3.org/2000/svg">
<g clip-path="url(#clip0_486_337)">
<rect width="375" height="600" fill="#D91656"/>
<path d="M411.842 1378C393.685 1378 377.797 1371.76 364.179 1359.28C351.695 1346.79 345.454 1330.9 345.454 1311.61V205.137L175.227 264.717C162.744 270.391 151.395 273.228 141.181 273.228C121.889 273.228 106.001 266.986 93.5179 254.503C81.0346 242.02 74.793 226.699 74.793 208.542C74.793 194.924 77.6301 182.44 83.3043 171.092C90.1134 159.743 101.462 151.232 117.35 145.558L379.499 55.3376C385.173 53.0679 390.847 51.3656 396.522 50.2308C403.331 47.961 409.005 46.8262 413.544 46.8262C432.837 46.8262 448.157 53.6353 459.506 67.2534C471.989 79.7367 478.231 95.0571 478.231 113.215V1311.61C478.231 1330.9 471.989 1346.79 459.506 1359.28C447.022 1371.76 431.134 1378 411.842 1378Z" fill="#FFB200" fill-opacity="0.5"/>
<path d="M49.484 70C48.812 70 48.296 69.712 47.936 69.136C47.576 68.56 47.54 67.948 47.828 67.3L57.944 43.144C58.304 42.304 58.892 41.884 59.708 41.884C60.572 41.884 61.16 42.304 61.472 43.144L71.624 67.372C71.888 68.044 71.84 68.656 71.48 69.208C71.144 69.736 70.628 70 69.932 70C69.572 70 69.224 69.904 68.888 69.712C68.576 69.496 68.348 69.208 68.204 68.848L59.276 46.672H60.284L51.212 68.848C51.044 69.232 50.792 69.52 50.456 69.712C50.144 69.904 49.82 70 49.484 70ZM51.392 63.808L52.832 60.712H66.944L68.384 63.808H51.392ZM83.8325 70.18C82.1765 70.18 80.6885 69.832 79.3685 69.136C78.0725 68.416 77.0405 67.372 76.2725 66.004C75.5285 64.636 75.1565 62.956 75.1565 60.964V52.108C75.1565 51.58 75.3245 51.148 75.6605 50.812C76.0205 50.452 76.4645 50.272 76.9925 50.272C77.5205 50.272 77.9525 50.452 78.2885 50.812C78.6485 51.148 78.8285 51.58 78.8285 52.108V60.964C78.8285 62.308 79.0805 63.424 79.5845 64.312C80.0885 65.176 80.7725 65.824 81.6365 66.256C82.5005 66.664 83.4725 66.868 84.5525 66.868C85.5845 66.868 86.4965 66.664 87.2885 66.256C88.1045 65.848 88.7525 65.296 89.2325 64.6C89.7125 63.904 89.9525 63.124 89.9525 62.26H92.2205C92.2205 63.748 91.8485 65.092 91.1045 66.292C90.3845 67.492 89.3885 68.44 88.1165 69.136C86.8685 69.832 85.4405 70.18 83.8325 70.18ZM91.7885 70C91.2605 70 90.8165 69.832 90.4565 69.496C90.1205 69.136 89.9525 68.692 89.9525 68.164V52.108C89.9525 51.556 90.1205 51.112 90.4565 50.776C90.8165 50.44 91.2605 50.272 91.7885 50.272C92.3405 50.272 92.7845 50.44 93.1205 50.776C93.4565 51.112 93.6245 51.556 93.6245 52.108V68.164C93.6245 68.692 93.4565 69.136 93.1205 69.496C92.7845 69.832 92.3405 70 91.7885 70ZM107.256 70C106.056 70 104.976 69.7 104.016 69.1C103.056 68.476 102.3 67.636 101.748 66.58C101.196 65.524 100.92 64.336 100.92 63.016V45.844C100.92 45.316 101.088 44.884 101.424 44.548C101.76 44.212 102.192 44.044 102.72 44.044C103.248 44.044 103.68 44.212 104.016 44.548C104.352 44.884 104.52 45.316 104.52 45.844V63.016C104.52 63.976 104.784 64.78 105.312 65.428C105.84 66.076 106.488 66.4 107.256 66.4H108.48C108.912 66.4 109.272 66.568 109.56 66.904C109.872 67.24 110.028 67.672 110.028 68.2C110.028 68.728 109.824 69.16 109.416 69.496C109.032 69.832 108.528 70 107.904 70H107.256ZM99.2636 54.124C98.7596 54.124 98.3516 53.98 98.0396 53.692C97.7276 53.404 97.5716 53.044 97.5716 52.612C97.5716 52.132 97.7276 51.748 98.0396 51.46C98.3516 51.172 98.7596 51.028 99.2636 51.028H107.58C108.084 51.028 108.492 51.172 108.804 51.46C109.116 51.748 109.272 52.132 109.272 52.612C109.272 53.044 109.116 53.404 108.804 53.692C108.492 53.98 108.084 54.124 107.58 54.124H99.2636ZM123.793 70.144C121.801 70.144 120.025 69.724 118.465 68.884C116.929 68.02 115.717 66.844 114.829 65.356C113.965 63.844 113.533 62.116 113.533 60.172C113.533 58.204 113.941 56.476 114.757 54.988C115.597 53.476 116.749 52.3 118.213 51.46C119.677 50.596 121.357 50.164 123.253 50.164C125.125 50.164 126.733 50.584 128.077 51.424C129.421 52.24 130.441 53.38 131.137 54.844C131.857 56.284 132.217 57.952 132.217 59.848C132.217 60.304 132.061 60.688 131.749 61C131.437 61.288 131.041 61.432 130.561 61.432H116.053V58.552H130.453L128.977 59.56C128.953 58.36 128.713 57.292 128.257 56.356C127.801 55.396 127.153 54.64 126.313 54.088C125.473 53.536 124.453 53.26 123.253 53.26C121.885 53.26 120.709 53.56 119.725 54.16C118.765 54.76 118.033 55.588 117.529 56.644C117.025 57.676 116.773 58.852 116.773 60.172C116.773 61.492 117.073 62.668 117.673 63.7C118.273 64.732 119.101 65.548 120.157 66.148C121.213 66.748 122.425 67.048 123.793 67.048C124.537 67.048 125.293 66.916 126.061 66.652C126.853 66.364 127.489 66.04 127.969 65.68C128.329 65.416 128.713 65.284 129.121 65.284C129.553 65.26 129.925 65.38 130.237 65.644C130.645 66.004 130.861 66.4 130.885 66.832C130.909 67.264 130.717 67.636 130.309 67.948C129.493 68.596 128.473 69.124 127.249 69.532C126.049 69.94 124.897 70.144 123.793 70.144ZM153.532 70.036C153.004 70.036 152.56 69.868 152.2 69.532C151.864 69.172 151.696 68.728 151.696 68.2V59.344C151.696 57.976 151.444 56.86 150.94 55.996C150.436 55.132 149.752 54.496 148.888 54.088C148.048 53.656 147.076 53.44 145.972 53.44C144.964 53.44 144.052 53.644 143.236 54.052C142.42 54.46 141.772 55.012 141.292 55.708C140.812 56.38 140.572 57.16 140.572 58.048H138.304C138.304 56.536 138.664 55.192 139.384 54.016C140.128 52.816 141.136 51.868 142.408 51.172C143.68 50.476 145.108 50.128 146.692 50.128C148.348 50.128 149.824 50.488 151.12 51.208C152.44 51.904 153.472 52.936 154.216 54.304C154.984 55.672 155.368 57.352 155.368 59.344V68.2C155.368 68.728 155.188 69.172 154.828 69.532C154.492 69.868 154.06 70.036 153.532 70.036ZM138.736 70.036C138.208 70.036 137.764 69.868 137.404 69.532C137.068 69.172 136.9 68.728 136.9 68.2V52.144C136.9 51.592 137.068 51.148 137.404 50.812C137.764 50.476 138.208 50.308 138.736 50.308C139.288 50.308 139.732 50.476 140.068 50.812C140.404 51.148 140.572 51.592 140.572 52.144V68.2C140.572 68.728 140.404 69.172 140.068 69.532C139.732 69.868 139.288 70.036 138.736 70.036ZM168.603 70C167.403 70 166.323 69.7 165.363 69.1C164.403 68.476 163.647 67.636 163.095 66.58C162.543 65.524 162.267 64.336 162.267 63.016V45.844C162.267 45.316 162.435 44.884 162.771 44.548C163.107 44.212 163.539 44.044 164.067 44.044C164.595 44.044 165.027 44.212 165.363 44.548C165.699 44.884 165.867 45.316 165.867 45.844V63.016C165.867 63.976 166.131 64.78 166.659 65.428C167.187 66.076 167.835 66.4 168.603 66.4H169.827C170.259 66.4 170.619 66.568 170.907 66.904C171.219 67.24 171.375 67.672 171.375 68.2C171.375 68.728 171.171 69.16 170.763 69.496C170.379 69.832 169.875 70 169.251 70H168.603ZM160.611 54.124C160.107 54.124 159.699 53.98 159.387 53.692C159.075 53.404 158.919 53.044 158.919 52.612C158.919 52.132 159.075 51.748 159.387 51.46C159.699 51.172 160.107 51.028 160.611 51.028H168.927C169.431 51.028 169.839 51.172 170.151 51.46C170.463 51.748 170.619 52.132 170.619 52.612C170.619 53.044 170.463 53.404 170.151 53.692C169.839 53.98 169.431 54.124 168.927 54.124H160.611ZM178.084 70C177.556 70 177.112 69.832 176.752 69.496C176.416 69.136 176.248 68.692 176.248 68.164V52.144C176.248 51.592 176.416 51.148 176.752 50.812C177.112 50.476 177.556 50.308 178.084 50.308C178.636 50.308 179.08 50.476 179.416 50.812C179.752 51.148 179.92 51.592 179.92 52.144V68.164C179.92 68.692 179.752 69.136 179.416 69.496C179.08 69.832 178.636 70 178.084 70ZM178.084 47.104C177.436 47.104 176.872 46.876 176.392 46.42C175.936 45.94 175.708 45.376 175.708 44.728C175.708 44.08 175.936 43.528 176.392 43.072C176.872 42.592 177.436 42.352 178.084 42.352C178.732 42.352 179.284 42.592 179.74 43.072C180.22 43.528 180.46 44.08 180.46 44.728C180.46 45.376 180.22 45.94 179.74 46.42C179.284 46.876 178.732 47.104 178.084 47.104ZM195.68 70.144C193.76 70.144 192.044 69.712 190.532 68.848C189.044 67.96 187.868 66.772 187.004 65.284C186.164 63.772 185.744 62.068 185.744 60.172C185.744 58.228 186.164 56.5 187.004 54.988C187.844 53.476 188.996 52.3 190.46 51.46C191.924 50.596 193.604 50.164 195.5 50.164C196.916 50.164 198.212 50.44 199.388 50.992C200.564 51.52 201.62 52.324 202.556 53.404C202.892 53.788 203.012 54.184 202.916 54.592C202.82 55 202.556 55.36 202.124 55.672C201.788 55.912 201.416 55.996 201.008 55.924C200.6 55.828 200.228 55.612 199.892 55.276C198.716 54.028 197.252 53.404 195.5 53.404C194.276 53.404 193.196 53.692 192.26 54.268C191.324 54.82 190.592 55.6 190.064 56.608C189.536 57.616 189.272 58.804 189.272 60.172C189.272 61.468 189.536 62.62 190.064 63.628C190.616 64.636 191.372 65.44 192.332 66.04C193.292 66.616 194.408 66.904 195.68 66.904C196.52 66.904 197.252 66.808 197.876 66.616C198.524 66.4 199.112 66.076 199.64 65.644C200.024 65.332 200.42 65.164 200.828 65.14C201.236 65.092 201.596 65.2 201.908 65.464C202.316 65.8 202.544 66.184 202.592 66.616C202.64 67.024 202.496 67.396 202.16 67.732C200.432 69.34 198.272 70.144 195.68 70.144ZM210.569 70C210.041 70 209.597 69.832 209.237 69.496C208.901 69.136 208.733 68.692 208.733 68.164V52.144C208.733 51.592 208.901 51.148 209.237 50.812C209.597 50.476 210.041 50.308 210.569 50.308C211.121 50.308 211.565 50.476 211.901 50.812C212.237 51.148 212.405 51.592 212.405 52.144V68.164C212.405 68.692 212.237 69.136 211.901 69.496C211.565 69.832 211.121 70 210.569 70ZM210.569 47.104C209.921 47.104 209.357 46.876 208.877 46.42C208.421 45.94 208.193 45.376 208.193 44.728C208.193 44.08 208.421 43.528 208.877 43.072C209.357 42.592 209.921 42.352 210.569 42.352C211.217 42.352 211.769 42.592 212.225 43.072C212.705 43.528 212.945 44.08 212.945 44.728C212.945 45.376 212.705 45.94 212.225 46.42C211.769 46.876 211.217 47.104 210.569 47.104ZM228.164 70.144C226.292 70.144 224.6 69.712 223.088 68.848C221.6 67.96 220.412 66.76 219.524 65.248C218.66 63.736 218.228 62.032 218.228 60.136C218.228 58.24 218.624 56.548 219.416 55.06C220.232 53.548 221.336 52.36 222.728 51.496C224.12 50.608 225.692 50.164 227.444 50.164C228.86 50.164 230.168 50.464 231.368 51.064C232.568 51.64 233.576 52.432 234.392 53.44V43.72C234.392 43.168 234.56 42.724 234.896 42.388C235.256 42.052 235.7 41.884 236.228 41.884C236.78 41.884 237.224 42.052 237.56 42.388C237.896 42.724 238.064 43.168 238.064 43.72V60.136C238.064 62.032 237.62 63.736 236.732 65.248C235.868 66.76 234.692 67.96 233.204 68.848C231.716 69.712 230.036 70.144 228.164 70.144ZM228.164 66.904C229.388 66.904 230.48 66.616 231.44 66.04C232.4 65.44 233.156 64.624 233.708 63.592C234.26 62.56 234.536 61.408 234.536 60.136C234.536 58.84 234.26 57.688 233.708 56.68C233.156 55.672 232.4 54.88 231.44 54.304C230.48 53.704 229.388 53.404 228.164 53.404C226.964 53.404 225.872 53.704 224.888 54.304C223.928 54.88 223.16 55.672 222.584 56.68C222.032 57.688 221.756 58.84 221.756 60.136C221.756 61.408 222.032 62.56 222.584 63.592C223.16 64.624 223.928 65.44 224.888 66.04C225.872 66.616 226.964 66.904 228.164 66.904ZM252.757 70.144C251.005 70.144 249.433 69.712 248.041 68.848C246.649 67.96 245.545 66.772 244.729 65.284C243.937 63.772 243.541 62.068 243.541 60.172C243.541 58.276 243.973 56.572 244.837 55.06C245.725 53.548 246.913 52.36 248.401 51.496C249.913 50.608 251.605 50.164 253.477 50.164C255.349 50.164 257.029 50.608 258.517 51.496C260.005 52.36 261.181 53.548 262.045 55.06C262.933 56.572 263.377 58.276 263.377 60.172H261.973C261.973 62.068 261.565 63.772 260.749 65.284C259.957 66.772 258.865 67.96 257.473 68.848C256.081 69.712 254.509 70.144 252.757 70.144ZM253.477 66.904C254.701 66.904 255.793 66.616 256.753 66.04C257.713 65.44 258.469 64.636 259.021 63.628C259.573 62.596 259.849 61.444 259.849 60.172C259.849 58.876 259.573 57.724 259.021 56.716C258.469 55.684 257.713 54.88 256.753 54.304C255.793 53.704 254.701 53.404 253.477 53.404C252.277 53.404 251.185 53.704 250.201 54.304C249.241 54.88 248.473 55.684 247.897 56.716C247.345 57.724 247.069 58.876 247.069 60.172C247.069 61.444 247.345 62.596 247.897 63.628C248.473 64.636 249.241 65.44 250.201 66.04C251.185 66.616 252.277 66.904 253.477 66.904ZM261.541 70.036C261.013 70.036 260.569 69.868 260.209 69.532C259.873 69.172 259.705 68.728 259.705 68.2V62.692L260.389 58.876L263.377 60.172V68.2C263.377 68.728 263.197 69.172 262.837 69.532C262.501 69.868 262.069 70.036 261.541 70.036ZM277.77 70.144C275.898 70.144 274.206 69.712 272.694 68.848C271.206 67.96 270.018 66.76 269.13 65.248C268.266 63.736 267.834 62.032 267.834 60.136C267.834 58.24 268.23 56.548 269.022 55.06C269.838 53.548 270.942 52.36 272.334 51.496C273.726 50.608 275.298 50.164 277.05 50.164C278.466 50.164 279.774 50.464 280.974 51.064C282.174 51.64 283.182 52.432 283.998 53.44V43.72C283.998 43.168 284.166 42.724 284.502 42.388C284.862 42.052 285.306 41.884 285.834 41.884C286.386 41.884 286.83 42.052 287.166 42.388C287.502 42.724 287.67 43.168 287.67 43.72V60.136C287.67 62.032 287.226 63.736 286.338 65.248C285.474 66.76 284.298 67.96 282.81 68.848C281.322 69.712 279.642 70.144 277.77 70.144ZM277.77 66.904C278.994 66.904 280.086 66.616 281.046 66.04C282.006 65.44 282.762 64.624 283.314 63.592C283.866 62.56 284.142 61.408 284.142 60.136C284.142 58.84 283.866 57.688 283.314 56.68C282.762 55.672 282.006 54.88 281.046 54.304C280.086 53.704 278.994 53.404 277.77 53.404C276.57 53.404 275.478 53.704 274.494 54.304C273.534 54.88 272.766 55.672 272.19 56.68C271.638 57.688 271.362 58.84 271.362 60.136C271.362 61.408 271.638 62.56 272.19 63.592C272.766 64.624 273.534 65.44 274.494 66.04C275.478 66.616 276.57 66.904 277.77 66.904ZM303.406 70.144C301.414 70.144 299.638 69.724 298.078 68.884C296.542 68.02 295.33 66.844 294.442 65.356C293.578 63.844 293.146 62.116 293.146 60.172C293.146 58.204 293.554 56.476 294.37 54.988C295.21 53.476 296.362 52.3 297.826 51.46C299.29 50.596 300.97 50.164 302.866 50.164C304.738 50.164 306.346 50.584 307.69 51.424C309.034 52.24 310.054 53.38 310.75 54.844C311.47 56.284 311.83 57.952 311.83 59.848C311.83 60.304 311.674 60.688 311.362 61C311.05 61.288 310.654 61.432 310.174 61.432H295.666V58.552H310.066L308.59 59.56C308.566 58.36 308.326 57.292 307.87 56.356C307.414 55.396 306.766 54.64 305.926 54.088C305.086 53.536 304.066 53.26 302.866 53.26C301.498 53.26 300.322 53.56 299.338 54.16C298.378 54.76 297.646 55.588 297.142 56.644C296.638 57.676 296.386 58.852 296.386 60.172C296.386 61.492 296.686 62.668 297.286 63.7C297.886 64.732 298.714 65.548 299.77 66.148C300.826 66.748 302.038 67.048 303.406 67.048C304.15 67.048 304.906 66.916 305.674 66.652C306.466 66.364 307.102 66.04 307.582 65.68C307.942 65.416 308.326 65.284 308.734 65.284C309.166 65.26 309.538 65.38 309.85 65.644C310.258 66.004 310.474 66.4 310.498 66.832C310.522 67.264 310.33 67.636 309.922 67.948C309.106 68.596 308.086 69.124 306.862 69.532C305.662 69.94 304.51 70.144 303.406 70.144Z" fill="white"/>
<path d="M298.1 474.75H296.33V473.57H296.92V472.98H298.1V474.75Z" fill="#EBEBEB"/>
<path d="M293.94 474.75H291.54V473.57H293.94V474.75ZM289.15 474.75H286.76V473.57H289.15V474.75ZM284.36 474.75H281.97V473.57H284.36V474.75ZM279.57 474.75H277.18V473.57H279.57V474.75ZM274.79 474.75H272.39V473.57H274.79V474.75ZM270 474.75H267.6V473.57H270V474.75ZM265.21 474.75H262.82V473.57H265.21V474.75ZM260.42 474.75H258.03V473.57H260.42V474.75ZM255.64 474.75H253.24V473.57H255.64V474.75ZM250.85 474.75H248.45V473.57H250.85V474.75ZM246.06 474.75H243.67V473.57H246.06V474.75ZM241.27 474.75H238.88V473.57H241.3L241.27 474.75ZM236.49 474.75H234.09V473.57H236.49V474.75Z" fill="#EBEBEB"/>
<path d="M231.7 474.75H229.92V472.98H231.11V473.57H231.7V474.75Z" fill="#EBEBEB"/>
<path d="M231.11 470.58H229.92V468.19H231.11V470.58ZM231.11 465.79H229.92V463.4H231.11V465.79ZM231.11 461.01H229.92V458.61H231.11V461.01ZM231.11 456.22H229.92V453.82H231.11V456.22ZM231.11 451.43H229.92V449H231.11V451.43ZM231.11 446.64H229.92V444.25H231.11V446.64ZM231.11 441.86H229.92V439.46H231.11V441.86ZM231.11 437.07H229.92V434.67H231.11V437.07ZM231.11 432.28H229.92V429.89H231.11V432.28ZM231.11 427.49H229.92V425.1H231.11V427.49ZM231.11 422.71H229.92V420.31H231.11V422.71ZM231.11 417.92H229.92V415.52H231.11V417.92ZM231.11 413.13H229.92V410.74H231.11V413.13Z" fill="#EBEBEB"/>
<path d="M231.11 408.34H229.92V406.57H231.7V407.75H231.11V408.34Z" fill="#EBEBEB"/>
<path d="M293.94 407.75H291.54V406.57H293.94V407.75ZM289.15 407.75H286.76V406.57H289.15V407.75ZM284.36 407.75H281.97V406.57H284.36V407.75ZM279.57 407.75H277.18V406.57H279.57V407.75ZM274.79 407.75H272.39V406.57H274.79V407.75ZM270 407.75H267.6V406.57H270V407.75ZM265.21 407.75H262.82V406.57H265.21V407.75ZM260.42 407.75H258.03V406.57H260.42V407.75ZM255.64 407.75H253.24V406.57H255.64V407.75ZM250.85 407.75H248.45V406.57H250.85V407.75ZM246.06 407.75H243.67V406.57H246.06V407.75ZM241.27 407.75H238.88V406.57H241.3L241.27 407.75ZM236.49 407.75H234.09V406.57H236.49V407.75Z" fill="#EBEBEB"/>
<path d="M298.1 408.34H296.92V407.75H296.33V406.57H298.1V408.34Z" fill="#EBEBEB"/>
<path d="M298.1 470.58H296.92V468.19H298.1V470.58ZM298.1 465.79H296.92V463.4H298.1V465.79ZM298.1 461.01H296.92V458.61H298.1V461.01ZM298.1 456.22H296.92V453.83H298.1V456.22ZM298.1 451.43H296.92V449H298.1V451.43ZM298.1 446.64H296.92V444.25H298.1V446.64ZM298.1 441.86H296.92V439.46H298.1V441.86ZM298.1 437.07H296.92V434.67H298.1V437.07ZM298.1 432.28H296.92V429.89H298.1V432.28ZM298.1 427.49H296.92V425.1H298.1V427.49ZM298.1 422.71H296.92V420.31H298.1V422.71ZM298.1 417.92H296.92V415.52H298.1V417.92ZM298.1 413.13H296.92V410.74H298.1V413.13Z" fill="#EBEBEB"/>
<path d="M234.69 469.98H226.34V478.33H234.69V469.98Z" fill="white"/>
<path d="M235.3 478.92H225.77V469.39H235.3V478.92ZM226.95 477.74H234.12V470.58H226.95V477.74Z" fill="#EBEBEB"/>
<path d="M234.69 436.48H226.34V444.83H234.69V436.48Z" fill="white"/>
<path d="M235.3 445.43H225.77V435.89H235.3V445.43ZM226.95 444.24H234.12V437.08H226.95V444.24Z" fill="#EBEBEB"/>
<path d="M234.69 402.99H226.34V411.34H234.69V402.99Z" fill="white"/>
<path d="M235.3 411.93H225.77V402.39H235.3V411.93ZM226.95 410.74H234.12V403.58H226.95V410.74Z" fill="#EBEBEB"/>
<path d="M301.69 469.98H293.34V478.33H301.69V469.98Z" fill="white"/>
<path d="M302.3 478.92H292.77V469.39H302.3V478.92ZM293.95 477.74H301.12V470.58H293.95V477.74Z" fill="#EBEBEB"/>
<path d="M301.69 436.48H293.34V444.83H301.69V436.48Z" fill="white"/>
<path d="M302.3 445.43H292.77V435.89H302.3V445.43ZM293.95 444.24H301.12V437.08H293.95V444.24Z" fill="#EBEBEB"/>
<path d="M301.69 402.99H293.34V411.34H301.69V402.99Z" fill="white"/>
<path d="M302.3 411.93H292.77V402.39H302.3V411.93ZM293.95 410.74H301.12V403.58H293.95V410.74Z" fill="#EBEBEB"/>
<path d="M268.19 402.99H259.84V411.34H268.19V402.99Z" fill="white"/>
<path d="M268.78 411.93H259.3V402.39H268.83L268.78 411.93ZM260.43 410.74H267.6V403.58H260.43V410.74Z" fill="#EBEBEB"/>
<path d="M268.19 469.98H259.84V478.33H268.19V469.98Z" fill="white"/>
<path d="M268.78 478.92H259.3V469.39H268.83L268.78 478.92ZM260.43 477.74H267.6V470.58H260.43V477.74Z" fill="#EBEBEB"/>
<path d="M264.82 448.63H251.46L246.3 463.21H251.3V464.49H240.99V463.21H244.16L261.38 416.82H266.92L283.92 463.21H287.03V464.49H264.96V463.21H269.75L264.82 448.63ZM252.06 447.14H264.3L258.43 429.45L252.06 447.14Z" fill="#DBDBDB"/>
<path d="M278.88 334.66L284.77 325.17L281.86 323.37C281.446 323.106 281.112 322.733 280.895 322.292C280.678 321.851 280.586 321.359 280.63 320.87C280.665 320.314 280.665 319.756 280.63 319.2C280.617 318.709 280.74 318.224 280.985 317.799C281.23 317.373 281.589 317.024 282.02 316.79L285.02 315.17L279.74 305.33L276.74 306.94C276.308 307.172 275.819 307.279 275.329 307.247C274.84 307.215 274.369 307.046 273.97 306.76C273.51 306.44 273.03 306.15 272.55 305.88C272.116 305.651 271.755 305.304 271.507 304.88C271.26 304.456 271.136 303.971 271.15 303.48L271.26 300.06L260.09 299.71L259.99 303.14C259.969 303.632 259.812 304.108 259.537 304.516C259.262 304.923 258.878 305.247 258.43 305.45L257.7 305.82L256.98 306.23C256.564 306.488 256.084 306.624 255.595 306.624C255.106 306.624 254.626 306.488 254.21 306.23L251.3 304.44L245.42 313.93L248.33 315.73C248.746 315.992 249.082 316.365 249.299 316.806C249.516 317.247 249.606 317.74 249.56 318.23C249.51 318.785 249.49 319.343 249.5 319.9C249.515 320.389 249.394 320.872 249.15 321.295C248.906 321.719 248.55 322.067 248.12 322.3L245.12 323.92L250.4 333.76L253.4 332.15C253.833 331.92 254.321 331.815 254.811 331.847C255.3 331.878 255.771 332.046 256.17 332.33C256.628 332.645 257.102 332.935 257.59 333.2C258.024 333.433 258.384 333.781 258.631 334.207C258.878 334.632 259.002 335.118 258.99 335.61L258.88 339.03L270.04 339.38L270.15 335.95C270.172 335.461 270.328 334.988 270.602 334.582C270.875 334.176 271.255 333.854 271.7 333.65L272.44 333.28C272.69 333.15 272.92 333.01 273.16 332.87C273.578 332.612 274.059 332.476 274.55 332.476C275.041 332.476 275.522 332.612 275.94 332.87L278.88 334.66ZM269.43 327.66C267.835 328.513 266.022 328.874 264.221 328.698C262.42 328.521 260.712 327.814 259.313 326.667C257.914 325.52 256.886 323.983 256.36 322.252C255.834 320.521 255.833 318.673 256.357 316.941C256.881 315.209 257.907 313.671 259.305 312.523C260.703 311.374 262.41 310.665 264.211 310.486C266.011 310.307 267.824 310.666 269.421 311.518C271.017 312.369 272.326 313.675 273.18 315.27C274.314 317.405 274.556 319.902 273.853 322.214C273.15 324.527 271.56 326.467 269.43 327.61V327.66Z" fill="#EBEBEB"/>
<path d="M238.87 262.6L234.96 255.83L232.89 257C232.586 257.183 232.236 257.274 231.881 257.264C231.526 257.253 231.182 257.141 230.89 256.94C230.568 256.724 230.234 256.527 229.89 256.35C229.587 256.193 229.334 255.957 229.158 255.665C228.981 255.374 228.889 255.04 228.89 254.7V252.3H221.06V254.7C221.061 255.04 220.968 255.374 220.792 255.665C220.615 255.957 220.362 256.193 220.06 256.35C219.716 256.527 219.382 256.724 219.06 256.94C218.767 257.141 218.423 257.253 218.069 257.264C217.714 257.274 217.364 257.183 217.06 257L214.99 255.81L211.07 262.58L213.16 263.78C213.458 263.954 213.701 264.209 213.862 264.515C214.023 264.821 214.095 265.165 214.07 265.51C214.07 265.7 214.07 265.89 214.07 266.08C214.07 266.27 214.07 266.47 214.07 266.66C214.093 267.003 214.02 267.345 213.859 267.649C213.698 267.953 213.456 268.206 213.16 268.38L211.07 269.58L214.99 276.36L217.07 275.16C217.376 274.981 217.726 274.892 218.08 274.905C218.434 274.917 218.777 275.03 219.07 275.23C219.39 275.44 219.73 275.64 220.07 275.82C220.373 275.975 220.627 276.212 220.803 276.503C220.98 276.795 221.072 277.129 221.07 277.47V279.86H228.9V277.47C228.897 277.129 228.99 276.795 229.166 276.503C229.343 276.212 229.597 275.975 229.9 275.82C230.24 275.64 230.58 275.44 230.9 275.23C231.192 275.03 231.536 274.917 231.89 274.905C232.244 274.892 232.594 274.981 232.9 275.16L234.98 276.36L238.89 269.58L236.81 268.38C236.515 268.205 236.275 267.951 236.116 267.647C235.957 267.344 235.886 267.002 235.91 266.66C235.91 266.47 235.91 266.28 235.91 266.08C235.91 265.88 235.91 265.7 235.91 265.51C235.885 265.165 235.957 264.821 236.118 264.515C236.279 264.209 236.522 263.954 236.82 263.78L238.87 262.6ZM231.39 266.1C231.39 267.368 231.014 268.608 230.309 269.662C229.604 270.716 228.602 271.538 227.43 272.023C226.259 272.508 224.969 272.634 223.726 272.386C222.482 272.138 221.34 271.526 220.444 270.629C219.548 269.731 218.938 268.588 218.692 267.344C218.446 266.1 218.574 264.811 219.061 263.64C219.547 262.469 220.37 261.468 221.426 260.765C222.481 260.062 223.722 259.688 224.99 259.69C225.831 259.69 226.664 259.856 227.441 260.178C228.218 260.5 228.924 260.973 229.519 261.568C230.113 262.163 230.584 262.87 230.906 263.648C231.227 264.425 231.391 265.258 231.39 266.1Z" fill="#EBEBEB"/>
<path d="M224.399 493.98H177.479V497.43H224.399V493.98Z" fill="#C7C7C7"/>
<path d="M220.49 380.2L220.74 398.91L222.32 486.87L222.38 490.82L223.07 542.86H225.73L226.43 490.82L226.48 486.87L228.06 398.91L228.31 380.2H220.49Z" fill="#C7C7C7"/>
<path d="M228.31 380.2H220.49L220.74 398.91H228.06L228.31 380.2Z" fill="#A6A6A6"/>
<path d="M173.57 380.2L173.82 398.91L176.16 542.86H178.81L179.51 490.82L179.56 486.87L181.15 398.91L181.4 380.2H173.57Z" fill="#C7C7C7"/>
<path d="M173.57 380.2L173.82 398.91H181.15L181.4 380.2H173.57Z" fill="#A6A6A6"/>
<path d="M247.83 493.98H201.77V497.43H247.83V493.98Z" fill="#C7C7C7"/>
<path d="M243.93 380.2L244.18 398.91L245.76 486.87L245.81 490.82L246.51 542.86H249.17L251.5 398.91L251.75 380.2H243.93Z" fill="#C7C7C7"/>
<path d="M251.75 380.2H243.93L244.18 398.91H251.5L251.75 380.2Z" fill="#A6A6A6"/>
<path d="M197.86 380.2L198.11 398.91L199.7 486.87L199.75 490.82L200.45 542.86H203.1L203.8 490.82L203.85 486.87L205.44 398.91L205.69 380.2H197.86Z" fill="#C7C7C7"/>
<path d="M205.69 380.2H197.86L198.11 398.91H205.44L205.69 380.2Z" fill="#A6A6A6"/>
<path d="M254.86 361.48H169.5V381.74H254.86V361.48Z" fill="#FFB200"/>
<path opacity="0.1" d="M254.86 361.48H187.33V381.74H254.86V361.48Z" fill="#060212"/>
<path d="M140.16 552.94C142.42 552.64 198.09 525.45 199.55 523.07C200.12 522.17 196.63 513.83 192.13 503.87C191.13 501.72 187.27 467.19 187.27 467.19L149.54 481.42L156.19 521.3C156.19 521.3 139.53 541.25 138.19 544.03C136.85 546.81 137.9 553.24 140.16 552.94Z" fill="#AD6359"/>
<path d="M199.55 523.07C198.09 525.45 142.42 552.64 140.16 552.94C137.9 553.24 136.89 546.8 138.16 544.03C139.43 541.26 156.16 521.3 156.16 521.3L154.81 513L191 497.46C191.229 499.617 191.606 501.755 192.13 503.86C196.63 513.83 200.11 522.17 199.55 523.07Z" fill="#EBEBEB"/>
<path d="M140.16 552.94C142.42 552.64 198.09 525.45 199.55 523.07C200.12 522.17 196.63 513.83 192.13 503.87L156.19 521.3C156.19 521.3 139.53 541.25 138.19 544.03C136.85 546.81 137.9 553.24 140.16 552.94Z" fill="#FFB200"/>
<path d="M139.87 550.32C149.09 545.53 186.72 527.09 196.2 523.06C196.28 523.06 196.3 523.06 196.2 523.12C187.2 528.07 149.38 546.2 139.91 550.47C139.74 550.56 139.67 550.42 139.87 550.32Z" fill="#060212"/>
<path d="M140.8 540.28C141.824 539.743 142.949 539.425 144.102 539.348C145.256 539.27 146.413 539.434 147.5 539.83C149.468 540.527 151.088 541.961 152.02 543.83C152.02 543.89 151.94 543.94 151.91 543.89C150.691 542.194 148.955 540.94 146.962 540.316C144.969 539.692 142.828 539.732 140.86 540.43C140.85 540.434 140.839 540.436 140.829 540.435C140.818 540.435 140.808 540.433 140.798 540.429C140.788 540.425 140.779 540.419 140.772 540.411C140.765 540.403 140.759 540.395 140.755 540.385C140.751 540.375 140.749 540.364 140.749 540.354C140.749 540.343 140.751 540.333 140.756 540.323C140.76 540.313 140.766 540.304 140.773 540.297C140.781 540.289 140.79 540.284 140.8 540.28Z" fill="#060212"/>
<path d="M153.02 524C156.73 522.12 161.71 521.32 165.52 523.25C165.67 523.32 165.52 523.53 165.42 523.53C161.315 523.422 157.212 523.758 153.18 524.53C153.145 524.54 153.108 524.544 153.072 524.54C153.036 524.537 153.001 524.526 152.969 524.509C152.937 524.492 152.908 524.468 152.885 524.44C152.862 524.412 152.845 524.38 152.835 524.345C152.824 524.31 152.821 524.274 152.824 524.237C152.828 524.201 152.838 524.166 152.856 524.134C152.873 524.102 152.896 524.074 152.924 524.051C152.952 524.028 152.985 524.01 153.02 524Z" fill="#060212"/>
<path d="M150.69 526.53C154.4 524.65 159.37 523.86 163.18 525.78C163.33 525.85 163.18 526.06 163.09 526.06C158.986 525.957 154.883 526.293 150.85 527.06C150.78 527.081 150.704 527.073 150.639 527.039C150.574 527.004 150.526 526.945 150.505 526.875C150.484 526.804 150.491 526.729 150.526 526.664C150.561 526.599 150.62 526.551 150.69 526.53Z" fill="#060212"/>
<path d="M148.35 529.06C152.06 527.19 157.04 526.39 160.85 528.31C161 528.38 160.85 528.59 160.75 528.59C156.646 528.488 152.543 528.823 148.51 529.59C148.439 529.611 148.364 529.604 148.299 529.569C148.234 529.534 148.186 529.475 148.165 529.405C148.143 529.335 148.151 529.259 148.186 529.194C148.22 529.13 148.279 529.081 148.35 529.06Z" fill="#060212"/>
<path d="M146.02 531.6C149.73 529.72 154.7 528.92 158.52 530.84C158.66 530.92 158.52 531.13 158.42 531.12C154.316 531.012 150.212 531.348 146.18 532.12C146.111 532.141 146.036 532.134 145.972 532.1C145.909 532.066 145.861 532.009 145.84 531.94C145.818 531.871 145.825 531.796 145.859 531.732C145.893 531.669 145.951 531.621 146.02 531.6Z" fill="#060212"/>
<path d="M189.5 515.36C193.69 513.36 196.86 519.84 192.66 521.88C188.46 523.92 185.3 517.4 189.5 515.36Z" fill="#060212"/>
<path d="M147.09 521.33C150.38 522.95 154.25 523.08 157.8 523.63C157.877 523.629 157.952 523.611 158.021 523.577C158.09 523.543 158.151 523.494 158.199 523.433C158.247 523.373 158.28 523.303 158.298 523.228C158.315 523.153 158.316 523.075 158.3 523C158.317 522.995 158.332 522.987 158.345 522.974C158.358 522.962 158.368 522.947 158.374 522.931C158.38 522.914 158.382 522.896 158.379 522.879C158.377 522.861 158.37 522.844 158.36 522.83C156.415 519.536 153.635 516.814 150.3 514.94C148.3 513.88 145.21 513.51 144.09 516C142.97 518.49 145.17 520.39 147.09 521.33ZM145.41 518.33C143.79 514.09 148.98 515.42 150.41 516.26C151.318 516.812 152.184 517.43 153 518.11C154.73 519.48 156.23 521.11 157.81 522.61C156.08 522.24 154.33 522.02 152.59 521.71C150.5 521.34 146.3 520.66 145.41 518.32V518.33Z" fill="#060212"/>
<path d="M170.49 514C169.01 511.71 165.97 512.54 164.19 513.88C161.173 516.229 158.83 519.334 157.4 522.88C157.392 522.895 157.387 522.913 157.387 522.93C157.387 522.948 157.391 522.965 157.399 522.98C157.407 522.996 157.418 523.01 157.432 523.02C157.446 523.03 157.463 523.037 157.48 523.04C157.473 523.12 157.485 523.2 157.516 523.274C157.546 523.348 157.593 523.414 157.653 523.467C157.714 523.519 157.785 523.557 157.863 523.577C157.941 523.596 158.022 523.597 158.1 523.58C161.53 522.51 165.34 521.8 168.35 519.71C170.1 518.46 171.89 516.14 170.49 514ZM162.98 520.9C161.3 521.46 159.6 521.9 157.98 522.57C159.252 520.779 160.614 519.053 162.06 517.4C162.773 516.61 163.538 515.868 164.35 515.18C165.62 514.18 170.56 512.05 169.59 516.49C169.03 518.9 164.98 520.2 162.98 520.87V520.9Z" fill="#060212"/>
<path d="M195.12 499.06L149.95 518.66C149.95 518.66 137.58 439.25 140.5 407C142.5 385.11 170.58 355.66 184.12 336C184.91 334.86 187.22 322 187.22 322H224.44L223.86 350.05C223.02 367.05 184.65 401.73 184.31 411.93C183.92 423.41 195.12 499.06 195.12 499.06Z" fill="#060212"/>
<path d="M150.73 507.27C161.03 501.91 189 490.12 190.5 489.75C190.6 489.75 190.67 489.87 190.59 489.93C189.49 490.69 163.06 503.28 150.8 507.41C150.71 507.44 150.64 507.32 150.73 507.27Z" fill="#060212"/>
<path d="M215.1 356.7C214.75 357.38 214.38 358.05 213.97 358.7C212.495 360.975 210.906 363.175 209.209 365.29L203.81 372.29C200.21 376.97 196.66 381.68 193.05 386.35C189.44 391.02 186.05 395.35 182.64 399.97C181.074 402.013 179.765 404.239 178.74 406.6C177.78 409.028 177.239 411.601 177.14 414.21C176.86 419.75 177.899 425.39 178.589 430.87C179.309 436.663 180.086 442.45 180.92 448.23C181.753 454.01 182.636 459.78 183.57 465.54C184.48 471.21 185.26 476.95 186.5 482.54C186.82 483.99 187.07 485.45 187.35 486.9C187.35 486.98 187.49 486.96 187.48 486.9C185.72 475.38 184.053 463.847 182.48 452.3C181.68 446.52 180.913 440.737 180.18 434.95C179.46 429.33 178.56 423.67 178.25 418.01C178.042 415.276 178.217 412.526 178.769 409.84C179.425 407.269 180.543 404.84 182.07 402.67C183.6 400.39 185.34 398.22 187.07 396.05C188.88 393.71 190.65 391.36 192.45 389.05C196.05 384.383 199.643 379.7 203.23 375C206.66 370.52 210.23 366.1 213.48 361.48C215.021 359.362 216.288 357.057 217.25 354.62C218.111 352.203 218.659 349.686 218.88 347.13C219.46 341.53 219.15 335.83 219.04 330.22C219.04 328.79 218.98 327.36 218.94 325.93C218.94 325.906 218.93 325.883 218.913 325.866C218.896 325.849 218.873 325.84 218.85 325.84C218.826 325.84 218.803 325.849 218.786 325.866C218.769 325.883 218.76 325.906 218.76 325.93C218.49 331.64 218.439 337.35 218.209 343.06C218.151 345.84 217.816 348.607 217.209 351.32C216.752 353.184 216.081 354.99 215.209 356.7" fill="#060212"/>
<path d="M188.3 425.53C188 423.27 199.61 362.41 201.52 360.37C202.24 359.59 211.2 360.77 221.99 362.49C224.32 362.87 258.66 357.55 258.66 357.55L254.84 397.69L214.61 401.75C214.61 401.75 199.75 423.06 197.41 425.07C195.07 427.08 188.56 427.79 188.3 425.53Z" fill="#AD6359"/>
<path d="M201.47 360.37C199.55 362.37 187.95 423.26 188.25 425.52C188.55 427.78 195.03 427.07 197.36 425.07C199.69 423.07 214.57 401.75 214.57 401.75L222.92 400.9L228.42 361.9C226.276 362.247 224.111 362.444 221.94 362.49C211.15 360.77 202.19 359.6 201.47 360.37Z" fill="#EBEBEB"/>
<path d="M188.3 425.53C188 423.27 199.61 362.41 201.52 360.37C202.24 359.59 211.2 360.77 221.99 362.49L214.61 401.75C214.61 401.75 199.75 423.06 197.41 425.07C195.07 427.08 188.56 427.79 188.3 425.53Z" fill="#FFB200"/>
<path d="M190.85 425.12C193.05 414.97 200.95 373.81 202.35 363.6C202.35 363.52 202.35 363.51 202.29 363.6C199.89 373.6 192.29 414.84 190.69 425.1C190.65 425.3 190.81 425.33 190.85 425.12Z" fill="#060212"/>
<path d="M200.3 421.58C200.546 420.451 200.555 419.283 200.326 418.15C200.097 417.017 199.635 415.944 198.97 415C197.792 413.291 196.001 412.102 193.97 411.68C193.91 411.68 193.89 411.78 193.97 411.8C195.922 412.533 197.585 413.88 198.708 415.637C199.831 417.395 200.355 419.47 200.2 421.55C200.204 421.559 200.21 421.567 200.217 421.573C200.225 421.579 200.234 421.584 200.243 421.587C200.253 421.59 200.262 421.591 200.272 421.589C200.282 421.588 200.291 421.585 200.3 421.58Z" fill="#060212"/>
<path d="M212.79 405.51C213.63 401.44 213.09 396.43 210.24 393.26C210.13 393.13 209.95 393.26 209.99 393.43C211.189 397.356 211.963 401.399 212.3 405.49C212.315 405.541 212.347 405.587 212.389 405.619C212.432 405.652 212.484 405.671 212.537 405.673C212.591 405.676 212.644 405.661 212.69 405.632C212.735 405.602 212.77 405.56 212.79 405.51Z" fill="#060212"/>
<path d="M210.96 408.43C211.8 404.36 211.26 399.35 208.41 396.18C208.3 396.05 208.12 396.18 208.16 396.34C209.351 400.267 210.119 404.31 210.45 408.4C210.458 408.46 210.486 408.516 210.531 408.557C210.575 408.598 210.632 408.623 210.693 408.626C210.753 408.63 210.813 408.612 210.862 408.576C210.91 408.541 210.945 408.489 210.96 408.43Z" fill="#060212"/>
<path d="M209.13 411.35C209.97 407.28 209.43 402.27 206.58 399.09C206.47 398.97 206.29 399.09 206.33 399.26C207.521 403.187 208.288 407.23 208.62 411.32C208.628 411.38 208.656 411.436 208.7 411.477C208.745 411.518 208.802 411.543 208.862 411.546C208.923 411.55 208.983 411.532 209.032 411.496C209.08 411.46 209.115 411.409 209.13 411.35Z" fill="#060212"/>
<path d="M207.3 414.27C208.14 410.19 207.6 405.18 204.75 402.01C204.64 401.89 204.46 402.01 204.5 402.18C205.693 406.106 206.46 410.15 206.79 414.24C206.798 414.3 206.826 414.355 206.87 414.397C206.915 414.438 206.972 414.463 207.032 414.466C207.093 414.47 207.153 414.452 207.201 414.416C207.25 414.38 207.285 414.329 207.3 414.27Z" fill="#060212"/>
<path d="M211.55 368.05C212.41 363.47 205.29 362.12 204.42 366.71C203.55 371.3 210.68 372.64 211.55 368.05Z" fill="#060212"/>
<path d="M222.85 412C224.96 410.27 223.78 407.34 222.24 405.73C219.556 403.005 216.199 401.039 212.51 400.03C212.42 400.03 212.38 400.03 212.37 400.13C212.29 400.132 212.212 400.153 212.142 400.19C212.072 400.228 212.012 400.282 211.967 400.347C211.921 400.412 211.891 400.487 211.879 400.565C211.868 400.644 211.875 400.724 211.9 400.8C213.35 404.09 214.5 407.8 216.9 410.54C218.3 412.14 220.85 413.65 222.85 412ZM215.13 405.34C214.37 403.74 213.7 402.11 212.88 400.54C214.81 401.59 216.682 402.741 218.49 403.99C219.359 404.598 220.184 405.267 220.96 405.99C222.14 407.13 224.79 411.79 220.27 411.35C217.78 411.13 216.03 407.25 215.13 405.34Z" fill="#060212"/>
<path d="M212.93 389.59C211.71 393.04 212.02 396.9 211.93 400.5C211.936 400.579 211.96 400.656 212.001 400.724C212.042 400.793 212.097 400.851 212.164 400.894C212.231 400.938 212.306 400.966 212.385 400.975C212.464 400.985 212.545 400.976 212.62 400.95C212.63 400.962 212.643 400.972 212.658 400.979C212.672 400.986 212.688 400.99 212.705 400.99C212.721 400.99 212.737 400.986 212.752 400.979C212.766 400.972 212.779 400.962 212.79 400.95C215.835 398.634 218.218 395.558 219.7 392.03C220.52 389.96 220.52 386.81 217.92 386.03C215.32 385.25 213.65 387.58 212.93 389.59ZM215.73 387.59C219.73 385.5 219.03 390.81 218.37 392.31C217.916 393.271 217.401 394.203 216.83 395.1C215.66 396.98 214.25 398.65 212.91 400.4C213.08 398.63 213.09 396.87 213.2 395.11C213.3 393 213.5 388.73 215.73 387.57V387.59Z" fill="#060212"/>
<path d="M210.71 322.07H237.84C237.84 322.07 239.4 332.44 241.96 333.65C249.57 337.24 282.32 341.65 301.57 351.87C318.13 360.63 320.15 381.32 297.65 389.95C266.81 401.79 225.13 403.83 225.13 403.83L227.59 358.59C227.59 358.59 258.03 355.12 281.11 355.7C281.11 355.7 257.6 362.15 231.53 357.7C225.53 356.7 218.95 353.7 213.05 351.53L210.71 322.07Z" fill="#060212"/>
<path d="M233.37 399.2C233.6 396.65 233.59 394.07 233.69 391.51L233.99 383.82C234.2 378.71 235.4 361.26 235.72 359.92C235.72 359.899 235.728 359.878 235.743 359.863C235.758 359.848 235.778 359.84 235.8 359.84C235.821 359.84 235.841 359.848 235.856 359.863C235.871 359.878 235.88 359.899 235.88 359.92C236.03 361.15 235.54 372.55 235.39 375.11C235.1 380.23 234.65 385.34 234.25 390.45C234.14 391.91 233.99 393.37 233.87 394.82C233.75 396.27 233.56 397.74 233.51 399.2C233.5 399.3 233.36 399.29 233.37 399.2Z" fill="#060212"/>
<path d="M292.3 355.36C287.446 354.812 282.565 354.538 277.68 354.54C279.55 354.13 281.45 353.8 283.33 353.54C283.43 353.54 283.44 353.36 283.33 353.37C281.117 353.57 278.928 353.975 276.79 354.58C273.56 354.58 270.33 354.69 267.11 354.86C258.67 355.29 250.26 356.09 241.85 356.91C237.08 357.38 232.3 357.91 227.53 358.37C227.422 358.375 227.32 358.422 227.246 358.5C227.171 358.578 227.13 358.682 227.13 358.79C227.13 360.04 227.23 361.29 227.28 362.54C227.291 362.597 227.322 362.647 227.367 362.684C227.411 362.72 227.467 362.74 227.525 362.74C227.583 362.74 227.638 362.72 227.683 362.684C227.728 362.647 227.758 362.597 227.77 362.54C227.82 361.42 227.9 360.3 227.93 359.17C236.237 358.503 244.54 357.797 252.84 357.05C261.25 356.32 269.67 355.79 278.11 355.59C282.84 355.48 287.56 355.47 292.29 355.59C292.35 355.54 292.37 355.37 292.3 355.36Z" fill="#060212"/>
<path d="M294.04 358.43C286.68 358.43 279.33 358.62 272.04 359.14C264.75 359.66 257.52 360.34 250.31 361.34C248.31 361.613 246.31 361.907 244.31 362.22C242.31 362.55 240.31 362.97 238.26 363.32C238.18 363.32 238.2 363.47 238.26 363.46C241.89 362.96 245.55 362.59 249.19 362.17C252.83 361.75 256.35 361.33 259.93 360.98C267.183 360.26 274.443 359.683 281.71 359.25C285.82 359 289.94 358.74 294.05 358.59C294.06 358.589 294.071 358.586 294.08 358.582C294.089 358.577 294.098 358.571 294.105 358.563C294.112 358.555 294.117 358.546 294.121 358.536C294.124 358.526 294.125 358.515 294.125 358.505C294.124 358.494 294.121 358.484 294.117 358.475C294.112 358.465 294.106 358.457 294.098 358.45C294.09 358.443 294.081 358.437 294.071 358.434C294.061 358.431 294.05 358.429 294.04 358.43Z" fill="#060212"/>
<path d="M207.3 348.73C211.304 349.968 215.192 351.554 218.92 353.47C219.07 353.54 218.98 353.77 218.83 353.71C214.92 352.25 210.94 350.87 207.12 349.2C207.089 349.188 207.061 349.17 207.037 349.148C207.013 349.125 206.993 349.098 206.98 349.068C206.953 349.007 206.951 348.937 206.975 348.875C206.999 348.813 207.046 348.762 207.107 348.735C207.168 348.708 207.237 348.706 207.3 348.73Z" fill="#060212"/>
<path d="M204.71 322.3C204.71 322.17 204.95 322.12 204.95 322.3C205.16 326.88 205.66 330.9 206.26 335.16C206.54 337.16 208.69 348.05 212.06 347.07C212.62 346.91 212.89 346.32 212.93 345.45C212.863 344.311 212.652 343.185 212.3 342.1C211.81 339.82 211.38 337.53 211.07 335.21C210.449 330.906 210.271 326.55 210.54 322.21C210.54 322.181 210.551 322.153 210.572 322.132C210.593 322.112 210.621 322.1 210.65 322.1C210.679 322.1 210.707 322.112 210.728 322.132C210.748 322.153 210.76 322.181 210.76 322.21C210.98 328.215 211.649 334.195 212.76 340.1C213.34 342.94 214.98 347.16 212.05 347.76C209.12 348.36 206.73 341.26 206.27 339.31C205.024 333.73 204.499 328.013 204.71 322.3Z" fill="#060212"/>
<path d="M211.98 347.34C212.326 348.066 212.624 348.814 212.87 349.58C213.119 350.166 213.258 350.793 213.28 351.43C213.28 351.56 213.12 351.58 213.05 351.5C212.667 350.954 212.367 350.354 212.16 349.72C211.87 349.03 211.56 348.34 211.28 347.64C211.24 347.547 211.239 347.442 211.276 347.348C211.314 347.254 211.387 347.179 211.48 347.14C211.573 347.1 211.677 347.099 211.771 347.136C211.865 347.174 211.94 347.247 211.98 347.34Z" fill="#060212"/>
<path d="M228.21 267.18C228.21 270.18 229.78 271.18 229.87 272.83C229.87 272.83 223 276.07 211.35 276.07C199.7 276.07 192.84 272.83 192.84 272.83C192.93 271.21 194.5 270.19 194.5 267.18C194.5 263.7 192.17 263.44 192.72 258.18C193.13 254.26 196.08 253.77 196.55 246.06C197.03 238.06 200.06 234.86 202.41 233.06C204.916 230.988 208.101 229.919 211.35 230.06C211.35 230.06 215.52 229.23 220.07 232.75C222.42 234.56 225.68 238.06 226.16 246.04C226.63 253.75 229.58 254.24 229.99 258.16C230.54 263.44 228.21 263.7 228.21 267.18Z" fill="#060212"/>
<path d="M196.39 250.34C197.39 248.13 197.39 245.51 197.17 243.11C197.17 242.99 197 242.98 197 243.11C197 245.41 197.08 247.78 196.16 249.92C195.36 251.77 193.88 253.09 192.74 254.67C191.657 256.111 191.074 257.867 191.08 259.67C191.087 260.609 191.259 261.54 191.59 262.42C191.993 263.284 192.461 264.116 192.99 264.91C194.41 267.46 192.69 270.18 191.29 272.2C192.44 270.68 193.68 269 193.79 266.93C193.833 265.955 193.563 264.991 193.02 264.18C192.4 263.292 191.946 262.299 191.68 261.25C191.445 260.189 191.435 259.091 191.653 258.026C191.87 256.961 192.308 255.954 192.94 255.07C194.09 253.51 195.56 252.18 196.39 250.34Z" fill="#060212"/>
<path d="M231.14 257.93C230.63 255.854 229.682 253.91 228.36 252.23C227.746 251.368 227.239 250.434 226.85 249.45C226.459 248.301 226.187 247.115 226.04 245.91C225.84 244.6 225.67 243.28 225.35 242C225.008 240.719 224.564 239.469 224.02 238.26C224.02 238.21 223.93 238.26 223.95 238.26C224.866 240.573 225.452 243.004 225.69 245.48C225.861 247.661 226.509 249.778 227.59 251.68C228.72 253.48 230.1 255.1 230.64 257.27C231.18 259.44 231.39 262.44 230.22 264.55C229.22 266.28 227.4 268.29 228.39 270.48C228.39 270.55 228.54 270.48 228.51 270.48C227.68 267.98 229.85 266.19 230.77 264.19C231.507 262.185 231.636 260.008 231.14 257.93Z" fill="#060212"/>
<path d="M206.61 278.86C201.12 287.01 176.9 316.03 166.61 315.13C159.3 314.49 125.38 297.62 120.3 293C117.38 290.35 138.04 270.92 142.4 272.86C147.8 275.27 165.4 289.65 168.89 290.04C170.76 290.25 183.01 282.18 200.28 271.57C209.12 266.08 211.35 271.82 206.61 278.86Z" fill="#AD6359"/>
<path d="M120.3 293C117.52 291.59 105.39 284 102.49 281.1C99.5897 278.2 91.8297 269.36 93.7997 266.91C95.7697 264.46 98.2597 266.91 98.2597 266.91C98.2597 266.91 95.5697 262.64 97.7897 260.36C100.01 258.08 103.73 261.97 103.73 261.97C103.73 261.97 101.3 257.38 103.67 255.27C106.04 253.16 109.13 257.68 109.13 257.68C109.13 257.68 106.71 253.6 109.4 252.68C112.63 251.56 116.24 259.6 119.68 262.53C120.46 263.2 136.49 274.9 136.49 274.9L120.3 293Z" fill="#AD6359"/>
<path d="M108.82 257.23C111.49 263.13 113.68 265.23 119 268.76C119.024 268.772 119.042 268.793 119.05 268.818C119.059 268.843 119.057 268.871 119.045 268.895C119.033 268.919 119.012 268.937 118.987 268.945C118.961 268.954 118.934 268.952 118.91 268.94C113.39 265.94 110.26 263.71 108.53 257.35C108.44 257 108.69 257 108.82 257.23Z" fill="#060212"/>
<path d="M103.49 261.42C106.8 267.31 109.15 269.63 114.49 273.72C114.56 273.78 114.49 273.91 114.39 273.86C108.85 270.28 105.78 267.95 103.25 261.64C103.1 261.35 103.3 261.15 103.49 261.42Z" fill="#060212"/>
<path d="M98.4897 267C102.11 272.47 104.58 275.12 110.24 278.43C110.269 278.444 110.291 278.47 110.301 278.501C110.312 278.532 110.309 278.566 110.295 278.595C110.28 278.624 110.255 278.646 110.224 278.656C110.193 278.667 110.159 278.664 110.13 278.65C104.03 275.84 100.92 272.54 98.3397 267.13C98.1597 266.8 98.2997 266.69 98.4897 267Z" fill="#060212"/>
<path d="M142.36 272.82C142.36 272.82 138.17 265.87 135.65 263.23C133.13 260.59 120.13 254.16 118.59 256.89C116.59 260.42 123.37 265.6 127.02 267.7C127.02 267.7 122.4 275.85 126.46 280.63C130.52 285.41 142.36 272.82 142.36 272.82Z" fill="#AD6359"/>
<path d="M118.36 258C118.86 262.53 123.83 265 127.22 267.29C127.269 267.324 127.31 267.37 127.338 267.423C127.366 267.476 127.38 267.535 127.38 267.595C127.38 267.655 127.366 267.714 127.338 267.767C127.31 267.82 127.269 267.866 127.22 267.9C125.51 271.45 124.13 276.9 126.17 280.57C126.183 280.59 126.188 280.614 126.183 280.638C126.178 280.661 126.164 280.682 126.145 280.695C126.125 280.708 126.1 280.713 126.077 280.708C126.053 280.704 126.033 280.69 126.02 280.67C123.3 277.09 124.22 271.58 126.34 267.81C122.82 265.5 117.95 262.81 118.28 258C118.3 258 118.36 258 118.36 258Z" fill="#060212"/>
<path d="M174.71 285.77L196.45 297C196.45 297 206.13 284.77 209.87 276C212.73 269.29 209.18 267.19 204.67 268.94C189.62 274.75 174.71 285.77 174.71 285.77Z" fill="#FFB200"/>
<path d="M195.3 279.38C195.001 279.378 194.708 279.465 194.458 279.63C194.209 279.794 194.014 280.029 193.898 280.305C193.782 280.581 193.751 280.885 193.808 281.178C193.865 281.472 194.008 281.742 194.219 281.954C194.429 282.166 194.698 282.311 194.992 282.37C195.285 282.429 195.589 282.4 195.865 282.286C196.142 282.172 196.378 281.978 196.545 281.73C196.711 281.481 196.8 281.189 196.8 280.89C196.797 280.492 196.639 280.111 196.358 279.829C196.078 279.546 195.698 279.385 195.3 279.38ZM195.3 282.1C194.979 282.1 194.671 281.972 194.444 281.746C194.217 281.519 194.09 281.211 194.09 280.89C194.09 280.569 194.217 280.261 194.444 280.034C194.671 279.807 194.979 279.68 195.3 279.68C195.621 279.68 195.929 279.807 196.155 280.034C196.382 280.261 196.51 280.569 196.51 280.89C196.51 281.211 196.382 281.519 196.155 281.746C195.929 281.972 195.621 282.1 195.3 282.1ZM180.77 281.63C180.703 281.884 180.554 282.108 180.346 282.267C180.137 282.426 179.882 282.512 179.62 282.51H179.46L179.13 282.73C179.286 282.791 179.452 282.821 179.62 282.82C179.998 282.818 180.361 282.674 180.637 282.417C180.913 282.159 181.082 281.807 181.11 281.43L180.77 281.63ZM210.52 269.93C210.344 270.021 210.148 270.069 209.95 270.07C209.629 270.07 209.321 269.942 209.094 269.716C208.867 269.489 208.74 269.181 208.74 268.86C208.729 268.75 208.729 268.64 208.74 268.53L208.47 268.46C208.428 268.589 208.408 268.724 208.41 268.86C208.41 269.258 208.568 269.639 208.849 269.921C209.13 270.202 209.512 270.36 209.91 270.36C210.15 270.361 210.387 270.302 210.6 270.19L210.52 269.93ZM196.01 291.82C195.714 291.822 195.425 291.912 195.179 292.078C194.934 292.244 194.743 292.479 194.631 292.753C194.519 293.027 194.491 293.328 194.55 293.619C194.609 293.909 194.753 294.175 194.963 294.384C195.173 294.593 195.44 294.735 195.731 294.792C196.022 294.849 196.323 294.819 196.596 294.705C196.87 294.591 197.103 294.399 197.268 294.152C197.432 293.906 197.52 293.616 197.52 293.32C197.52 293.12 197.48 292.921 197.402 292.737C197.324 292.552 197.21 292.385 197.066 292.245C196.923 292.105 196.753 291.995 196.566 291.922C196.38 291.849 196.18 291.815 195.98 291.82H196.01ZM196.01 294.53C195.771 294.53 195.537 294.459 195.338 294.326C195.139 294.193 194.984 294.004 194.892 293.783C194.8 293.562 194.776 293.319 194.823 293.084C194.87 292.849 194.985 292.634 195.154 292.464C195.324 292.295 195.539 292.18 195.774 292.133C196.009 292.087 196.252 292.11 196.473 292.202C196.694 292.294 196.883 292.449 197.016 292.648C197.149 292.847 197.22 293.081 197.22 293.32C197.22 293.481 197.188 293.641 197.125 293.79C197.062 293.939 196.97 294.074 196.855 294.186C196.739 294.299 196.602 294.388 196.452 294.447C196.302 294.506 196.141 294.534 195.98 294.53H196.01ZM204.46 285.69C204.061 285.693 203.68 285.853 203.399 286.136C203.118 286.419 202.96 286.801 202.96 287.2C202.955 287.431 203.014 287.66 203.13 287.86C203.19 287.76 203.26 287.67 203.32 287.56C203.278 287.445 203.258 287.323 203.26 287.2C203.255 286.907 203.359 286.623 203.55 286.401C203.742 286.18 204.009 286.037 204.3 286L204.49 285.7L204.46 285.69ZM202.3 273.87C201.902 273.87 201.521 274.028 201.239 274.309C200.958 274.591 200.8 274.972 200.8 275.37C200.8 275.768 200.958 276.149 201.239 276.431C201.521 276.712 201.902 276.87 202.3 276.87C202.698 276.87 203.079 276.712 203.361 276.431C203.642 276.149 203.8 275.768 203.8 275.37C203.8 274.972 203.642 274.591 203.361 274.309C203.079 274.028 202.698 273.87 202.3 273.87ZM202.3 276.58C202.06 276.582 201.824 276.512 201.624 276.38C201.423 276.248 201.267 276.059 201.174 275.838C201.081 275.616 201.056 275.372 201.103 275.136C201.149 274.901 201.265 274.684 201.434 274.514C201.604 274.345 201.821 274.229 202.056 274.183C202.292 274.136 202.536 274.161 202.758 274.254C202.979 274.347 203.168 274.503 203.3 274.704C203.432 274.904 203.502 275.14 203.5 275.38C203.495 275.697 203.367 275.999 203.143 276.223C202.919 276.447 202.617 276.575 202.3 276.58ZM187.3 286.36C187.001 286.36 186.709 286.449 186.461 286.614C186.213 286.78 186.019 287.016 185.905 287.292C185.79 287.568 185.761 287.872 185.819 288.165C185.877 288.457 186.021 288.727 186.232 288.938C186.443 289.149 186.712 289.293 187.005 289.351C187.298 289.409 187.602 289.379 187.878 289.265C188.154 289.151 188.389 288.957 188.555 288.709C188.721 288.461 188.81 288.169 188.81 287.87C188.81 287.478 188.658 287.101 188.385 286.82C188.113 286.538 187.742 286.373 187.35 286.36H187.3ZM187.3 289.07C186.982 289.07 186.676 288.944 186.451 288.718C186.226 288.493 186.1 288.188 186.1 287.87C186.1 287.711 186.131 287.554 186.192 287.407C186.253 287.26 186.342 287.127 186.454 287.014C186.567 286.902 186.7 286.813 186.847 286.752C186.994 286.691 187.151 286.66 187.31 286.66C187.469 286.66 187.626 286.691 187.773 286.752C187.92 286.813 188.053 286.902 188.165 287.014C188.278 287.127 188.367 287.26 188.428 287.407C188.489 287.554 188.52 287.711 188.52 287.87C188.517 288.182 188.394 288.482 188.176 288.705C187.958 288.929 187.662 289.06 187.35 289.07H187.3Z" fill="white"/>
<path d="M197.53 293.11C191.625 289.511 185.496 286.295 179.18 283.48C179.18 283.48 179.06 283.6 179.1 283.62C183.95 286.53 194.03 291.62 197.41 293.31C197.48 293.34 197.59 293.14 197.53 293.11Z" fill="#060212"/>
<path opacity="0.1" d="M209.88 276C206.13 284.8 196.45 297 196.45 297L181.97 289.5L209.4 268.78C211.02 269.74 211.55 272.09 209.88 276Z" fill="black"/>
<path d="M189.57 306.63L185.57 323.31L236.17 323.02C236.17 323.02 230.87 284.02 222.08 273.28C216.08 266.01 208.63 266.09 203.59 270.63C202.32 271.79 188.89 285.56 186.96 292.72C185.3 299 189.57 306.63 189.57 306.63Z" fill="#FFB200"/>
<path d="M197.92 276.69C196.39 278.33 194.85 279.94 193.39 281.63C193.967 280.639 194.608 279.687 195.31 278.78C195.31 278.78 195.31 278.69 195.31 278.73C194.744 279.39 194.22 280.085 193.74 280.81C193.43 281.28 193.16 281.81 192.9 282.26C192.42 282.83 191.95 283.41 191.51 284C190.546 285.269 189.674 286.606 188.9 288C188.183 289.39 187.558 290.827 187.03 292.3C187.03 292.38 187.13 292.43 187.16 292.3C187.818 290.913 188.577 289.576 189.43 288.3C190.28 286.95 191.16 285.63 192.09 284.3C193.96 281.71 195.96 279.17 198.01 276.71C197.98 276.7 197.94 276.67 197.92 276.69Z" fill="#060212"/>
<path d="M195.55 279.41L195.33 279.68C195.553 279.691 195.77 279.763 195.955 279.889C196.139 280.016 196.286 280.191 196.377 280.395C196.468 280.6 196.501 280.826 196.471 281.048C196.442 281.27 196.351 281.479 196.21 281.653C196.068 281.826 195.882 281.957 195.67 282.031C195.459 282.105 195.231 282.118 195.012 282.07C194.794 282.022 194.593 281.915 194.432 281.759C194.27 281.604 194.156 281.407 194.1 281.19L193.88 281.46C193.98 281.699 194.14 281.908 194.345 282.067C194.549 282.226 194.792 282.33 195.049 282.367C195.305 282.404 195.567 282.374 195.809 282.28C196.05 282.186 196.263 282.031 196.427 281.83C196.591 281.629 196.7 281.389 196.743 281.133C196.786 280.877 196.763 280.615 196.674 280.371C196.586 280.127 196.436 279.911 196.239 279.742C196.042 279.574 195.804 279.459 195.55 279.41ZM222.14 308.74C221.84 308.738 221.547 308.825 221.297 308.99C221.047 309.155 220.852 309.391 220.737 309.667C220.621 309.944 220.59 310.248 220.648 310.542C220.706 310.836 220.85 311.106 221.062 311.317C221.274 311.529 221.544 311.673 221.838 311.731C222.132 311.789 222.436 311.758 222.712 311.643C222.989 311.527 223.224 311.332 223.389 311.082C223.555 310.833 223.642 310.539 223.64 310.24C223.637 309.843 223.478 309.463 223.198 309.182C222.917 308.901 222.537 308.742 222.14 308.74ZM222.14 311.46C221.816 311.46 221.506 311.331 221.277 311.102C221.048 310.874 220.92 310.563 220.92 310.24C220.922 310.001 220.994 309.769 221.128 309.571C221.262 309.374 221.451 309.22 221.671 309.13C221.892 309.04 222.135 309.017 222.368 309.064C222.602 309.111 222.817 309.226 222.985 309.394C223.154 309.563 223.269 309.778 223.316 310.011C223.363 310.245 223.34 310.488 223.25 310.708C223.159 310.929 223.006 311.118 222.808 311.252C222.611 311.385 222.378 311.458 222.14 311.46ZM205.21 320.68C204.812 320.68 204.43 320.838 204.149 321.119C203.868 321.4 203.71 321.782 203.71 322.18C203.712 322.553 203.859 322.912 204.12 323.18H204.57C204.399 323.074 204.258 322.927 204.16 322.752C204.062 322.577 204.011 322.38 204.01 322.18C204.009 322.021 204.039 321.864 204.098 321.717C204.158 321.571 204.246 321.437 204.358 321.325C204.469 321.212 204.602 321.123 204.748 321.062C204.895 321.001 205.051 320.97 205.21 320.97C205.471 320.97 205.726 321.055 205.935 321.212C206.145 321.369 206.297 321.59 206.371 321.841C206.444 322.092 206.434 322.361 206.341 322.606C206.249 322.851 206.08 323.059 205.86 323.2H206.3C206.559 322.931 206.706 322.573 206.71 322.2C206.711 322.001 206.673 321.805 206.599 321.621C206.524 321.437 206.414 321.27 206.275 321.129C206.135 320.988 205.97 320.876 205.787 320.799C205.604 320.721 205.408 320.681 205.21 320.68ZM205.21 309.36C204.842 309.402 204.502 309.579 204.256 309.855C204.009 310.132 203.873 310.489 203.873 310.86C203.873 311.23 204.009 311.588 204.256 311.864C204.502 312.141 204.842 312.317 205.21 312.36C205.421 312.384 205.636 312.364 205.839 312.299C206.042 312.235 206.229 312.129 206.388 311.987C206.547 311.846 206.674 311.672 206.761 311.478C206.848 311.283 206.893 311.073 206.893 310.86C206.893 310.647 206.848 310.436 206.761 310.242C206.674 310.048 206.547 309.874 206.388 309.732C206.229 309.591 206.042 309.484 205.839 309.42C205.636 309.356 205.421 309.335 205.21 309.36ZM205.21 312.07C204.889 312.07 204.581 311.942 204.354 311.715C204.127 311.488 204 311.181 204 310.86C204 310.539 204.127 310.231 204.354 310.004C204.581 309.777 204.889 309.65 205.21 309.65C205.531 309.65 205.839 309.777 206.065 310.004C206.292 310.231 206.42 310.539 206.42 310.86C206.42 311.181 206.292 311.488 206.065 311.715C205.839 311.942 205.531 312.07 205.21 312.07ZM218.36 273.31C218.06 273.308 217.767 273.395 217.517 273.56C217.267 273.725 217.072 273.961 216.957 274.237C216.841 274.514 216.81 274.818 216.868 275.112C216.926 275.406 217.07 275.676 217.282 275.887C217.494 276.099 217.764 276.243 218.058 276.301C218.352 276.359 218.656 276.328 218.932 276.213C219.209 276.097 219.444 275.902 219.609 275.652C219.775 275.403 219.862 275.109 219.86 274.81C219.857 274.413 219.698 274.033 219.418 273.752C219.137 273.471 218.757 273.312 218.36 273.31ZM218.36 276.02C218.12 276.02 217.887 275.949 217.688 275.816C217.489 275.683 217.333 275.494 217.242 275.273C217.15 275.052 217.126 274.808 217.173 274.574C217.22 274.339 217.335 274.123 217.504 273.954C217.673 273.785 217.889 273.67 218.124 273.623C218.358 273.576 218.602 273.6 218.823 273.692C219.044 273.783 219.233 273.939 219.366 274.138C219.499 274.337 219.57 274.57 219.57 274.81C219.565 275.127 219.435 275.43 219.208 275.652C218.982 275.875 218.677 276 218.36 276V276.02ZM218.89 285.02C218.591 285.02 218.299 285.108 218.051 285.274C217.803 285.44 217.609 285.676 217.495 285.952C217.38 286.228 217.351 286.531 217.409 286.824C217.467 287.117 217.611 287.386 217.822 287.598C218.033 287.809 218.302 287.953 218.595 288.011C218.888 288.069 219.192 288.039 219.468 287.925C219.744 287.811 219.979 287.617 220.145 287.369C220.311 287.12 220.4 286.828 220.4 286.53C220.402 286.33 220.365 286.131 220.291 285.946C220.216 285.76 220.105 285.591 219.965 285.449C219.824 285.307 219.657 285.194 219.472 285.117C219.288 285.039 219.09 285 218.89 285V285.02ZM218.89 287.74C218.651 287.74 218.417 287.669 218.218 287.536C218.019 287.403 217.863 287.214 217.772 286.993C217.68 286.772 217.656 286.528 217.703 286.294C217.75 286.059 217.865 285.843 218.034 285.674C218.203 285.505 218.419 285.39 218.654 285.343C218.888 285.296 219.132 285.32 219.353 285.412C219.574 285.503 219.763 285.659 219.896 285.858C220.029 286.057 220.1 286.29 220.1 286.53C220.095 286.847 219.965 287.15 219.738 287.372C219.512 287.595 219.207 287.72 218.89 287.72V287.74ZM210.56 267.53C209.996 267.569 209.437 267.659 208.89 267.8C208.741 267.937 208.622 268.104 208.541 268.29C208.46 268.476 208.419 268.677 208.42 268.88C208.416 269.152 208.485 269.42 208.621 269.655C208.757 269.891 208.953 270.086 209.191 270.219C209.428 270.352 209.697 270.418 209.968 270.412C210.24 270.405 210.505 270.324 210.735 270.179C210.965 270.034 211.152 269.829 211.275 269.587C211.399 269.345 211.454 269.074 211.436 268.802C211.418 268.531 211.327 268.269 211.173 268.045C211.019 267.821 210.807 267.643 210.56 267.53ZM209.92 270.09C209.68 270.09 209.447 270.019 209.248 269.886C209.049 269.753 208.894 269.564 208.802 269.343C208.71 269.122 208.686 268.878 208.733 268.644C208.78 268.409 208.895 268.193 209.064 268.024C209.233 267.855 209.449 267.74 209.684 267.693C209.918 267.646 210.162 267.67 210.383 267.762C210.604 267.853 210.793 268.009 210.926 268.208C211.059 268.407 211.13 268.64 211.13 268.88C211.125 269.197 210.995 269.5 210.768 269.722C210.542 269.945 210.237 270.07 209.92 270.07V270.09ZM195.98 291.84C195.684 291.842 195.395 291.931 195.149 292.097C194.904 292.263 194.713 292.498 194.601 292.773C194.489 293.047 194.461 293.348 194.52 293.639C194.579 293.929 194.723 294.195 194.933 294.404C195.143 294.613 195.41 294.755 195.701 294.812C195.992 294.869 196.293 294.838 196.566 294.725C196.84 294.611 197.073 294.419 197.238 294.172C197.402 293.926 197.49 293.636 197.49 293.34C197.492 293.14 197.455 292.942 197.38 292.757C197.306 292.572 197.195 292.404 197.054 292.263C196.913 292.121 196.746 292.009 196.562 291.933C196.377 291.857 196.179 291.818 195.98 291.82V291.84ZM195.98 294.55C195.74 294.55 195.507 294.479 195.308 294.346C195.109 294.213 194.954 294.024 194.862 293.803C194.77 293.582 194.746 293.338 194.793 293.104C194.84 292.869 194.955 292.653 195.124 292.484C195.293 292.315 195.509 292.2 195.744 292.153C195.978 292.106 196.222 292.13 196.443 292.222C196.664 292.313 196.853 292.469 196.986 292.668C197.119 292.867 197.19 293.1 197.19 293.34C197.185 293.657 197.055 293.96 196.828 294.182C196.602 294.405 196.297 294.53 195.98 294.53V294.55ZM203.85 298.35C203.452 298.35 203.07 298.508 202.789 298.789C202.508 299.07 202.35 299.452 202.35 299.85C202.35 300.248 202.508 300.629 202.789 300.91C203.07 301.192 203.452 301.35 203.85 301.35C204.248 301.35 204.629 301.192 204.91 300.91C205.192 300.629 205.35 300.248 205.35 299.85C205.35 299.452 205.192 299.07 204.91 298.789C204.629 298.508 204.248 298.35 203.85 298.35ZM203.85 301.06C203.611 301.058 203.379 300.985 203.181 300.852C202.984 300.718 202.83 300.529 202.74 300.308C202.65 300.088 202.627 299.845 202.674 299.611C202.721 299.378 202.836 299.163 203.004 298.994C203.173 298.826 203.388 298.711 203.621 298.664C203.855 298.617 204.098 298.64 204.318 298.73C204.539 298.82 204.728 298.974 204.862 299.171C204.995 299.369 205.068 299.601 205.07 299.84C205.057 300.154 204.922 300.45 204.695 300.667C204.467 300.883 204.164 301.003 203.85 301V301.06ZM212.26 303.86C212.048 303.835 211.834 303.856 211.631 303.92C211.428 303.984 211.241 304.091 211.082 304.232C210.923 304.374 210.796 304.548 210.708 304.742C210.621 304.936 210.576 305.147 210.576 305.36C210.576 305.573 210.621 305.783 210.708 305.978C210.796 306.172 210.923 306.346 211.082 306.487C211.241 306.629 211.428 306.735 211.631 306.799C211.834 306.864 212.048 306.884 212.26 306.86C212.628 306.817 212.967 306.641 213.214 306.364C213.46 306.088 213.596 305.73 213.596 305.36C213.596 304.989 213.46 304.632 213.214 304.355C212.967 304.079 212.628 303.902 212.26 303.86ZM212.26 306.58C212.02 306.582 211.785 306.512 211.585 306.381C211.385 306.249 211.228 306.061 211.135 305.84C211.042 305.619 211.016 305.375 211.062 305.14C211.107 304.905 211.222 304.688 211.391 304.518C211.56 304.348 211.775 304.231 212.01 304.184C212.245 304.136 212.489 304.16 212.711 304.251C212.932 304.342 213.122 304.497 213.255 304.697C213.389 304.896 213.46 305.13 213.46 305.37C213.455 305.679 213.332 305.974 213.116 306.195C212.901 306.417 212.609 306.547 212.3 306.56L212.26 306.58ZM195.26 314.67C194.961 314.668 194.668 314.755 194.418 314.919C194.169 315.084 193.973 315.319 193.858 315.595C193.742 315.871 193.711 316.175 193.768 316.468C193.825 316.762 193.968 317.032 194.179 317.244C194.389 317.456 194.658 317.601 194.952 317.66C195.245 317.719 195.549 317.69 195.825 317.576C196.102 317.462 196.338 317.268 196.505 317.02C196.671 316.771 196.76 316.479 196.76 316.18C196.763 315.785 196.612 315.405 196.34 315.119C196.067 314.834 195.694 314.665 195.3 314.65L195.26 314.67ZM195.26 317.39C194.939 317.39 194.631 317.262 194.404 317.035C194.177 316.808 194.05 316.501 194.05 316.18C194.05 315.859 194.177 315.551 194.404 315.324C194.631 315.097 194.939 314.97 195.26 314.97C195.581 314.97 195.888 315.097 196.115 315.324C196.342 315.551 196.47 315.859 196.47 316.18C196.47 316.501 196.342 316.808 196.115 317.035C195.888 317.262 195.581 317.39 195.26 317.39ZM210.89 279.39C210.591 279.39 210.299 279.478 210.051 279.644C209.803 279.81 209.609 280.046 209.495 280.322C209.38 280.598 209.351 280.901 209.409 281.194C209.467 281.487 209.611 281.756 209.822 281.968C210.033 282.179 210.302 282.323 210.595 282.381C210.888 282.439 211.192 282.409 211.468 282.295C211.744 282.181 211.979 281.987 212.145 281.739C212.311 281.49 212.4 281.198 212.4 280.9C212.4 280.5 212.242 280.116 211.962 279.832C211.681 279.548 211.299 279.385 210.9 279.38L210.89 279.39ZM210.89 282.11C210.65 282.112 210.415 282.042 210.215 281.911C210.015 281.779 209.858 281.591 209.765 281.37C209.672 281.149 209.646 280.905 209.692 280.67C209.737 280.435 209.852 280.218 210.021 280.048C210.19 279.878 210.405 279.761 210.64 279.714C210.875 279.666 211.119 279.69 211.341 279.781C211.562 279.872 211.752 280.027 211.885 280.227C212.019 280.426 212.09 280.66 212.09 280.9C212.087 281.216 211.961 281.518 211.739 281.742C211.517 281.966 211.215 282.095 210.9 282.1L210.89 282.11ZM204.42 285.7C204.121 285.7 203.829 285.788 203.581 285.954C203.333 286.12 203.139 286.356 203.025 286.632C202.91 286.908 202.881 287.211 202.939 287.504C202.997 287.797 203.141 288.066 203.352 288.278C203.563 288.489 203.832 288.633 204.125 288.691C204.418 288.749 204.722 288.719 204.998 288.605C205.274 288.491 205.509 288.297 205.675 288.049C205.841 287.8 205.93 287.508 205.93 287.21C205.931 287.011 205.893 286.815 205.819 286.631C205.744 286.447 205.634 286.28 205.495 286.139C205.355 285.998 205.19 285.886 205.007 285.809C204.824 285.731 204.628 285.691 204.43 285.69L204.42 285.7ZM204.42 288.41C204.119 288.382 203.84 288.244 203.636 288.021C203.433 287.798 203.32 287.507 203.32 287.205C203.32 286.903 203.433 286.612 203.636 286.389C203.84 286.166 204.119 286.027 204.42 286C204.587 285.985 204.756 286.004 204.915 286.058C205.075 286.112 205.221 286.198 205.346 286.311C205.47 286.425 205.569 286.563 205.637 286.716C205.705 286.87 205.74 287.037 205.74 287.205C205.74 287.373 205.705 287.539 205.637 287.693C205.569 287.847 205.47 287.985 205.346 288.098C205.221 288.212 205.075 288.298 204.915 288.352C204.756 288.405 204.587 288.425 204.42 288.41ZM195.74 303.85C195.441 303.848 195.148 303.935 194.898 304.099C194.649 304.264 194.453 304.499 194.338 304.775C194.222 305.051 194.19 305.355 194.248 305.648C194.305 305.942 194.448 306.212 194.659 306.424C194.869 306.636 195.138 306.781 195.432 306.84C195.725 306.899 196.029 306.87 196.305 306.756C196.582 306.642 196.818 306.448 196.985 306.2C197.151 305.951 197.24 305.659 197.24 305.36C197.242 304.961 197.087 304.577 196.808 304.293C196.529 304.008 196.149 303.845 195.75 303.84L195.74 303.85ZM195.74 306.57C195.5 306.57 195.267 306.499 195.068 306.366C194.869 306.233 194.713 306.044 194.622 305.823C194.53 305.602 194.506 305.358 194.553 305.124C194.6 304.889 194.715 304.673 194.884 304.504C195.053 304.335 195.269 304.22 195.504 304.173C195.738 304.126 195.982 304.15 196.203 304.242C196.424 304.333 196.613 304.489 196.746 304.688C196.879 304.887 196.95 305.12 196.95 305.36C196.945 305.676 196.817 305.979 196.593 306.203C196.369 306.427 196.066 306.555 195.75 306.56L195.74 306.57ZM187.07 320.09C186.798 320.089 186.531 320.165 186.3 320.31L186.19 320.78C186.3 320.655 186.435 320.554 186.587 320.486C186.739 320.417 186.903 320.381 187.07 320.38C187.391 320.38 187.698 320.507 187.925 320.734C188.152 320.961 188.28 321.269 188.28 321.59C188.28 321.911 188.152 322.218 187.925 322.445C187.698 322.672 187.391 322.8 187.07 322.8C186.809 322.801 186.556 322.716 186.348 322.559C186.14 322.402 185.99 322.181 185.92 321.93L185.8 322.39C185.934 322.606 186.121 322.785 186.343 322.909C186.565 323.033 186.815 323.099 187.07 323.1C187.281 323.124 187.496 323.104 187.699 323.039C187.902 322.975 188.089 322.869 188.248 322.727C188.407 322.586 188.534 322.412 188.621 322.218C188.708 322.023 188.753 321.813 188.753 321.6C188.753 321.387 188.708 321.176 188.621 320.982C188.534 320.788 188.407 320.614 188.248 320.472C188.089 320.331 187.902 320.224 187.699 320.16C187.496 320.096 187.281 320.075 187.07 320.1V320.09ZM220.77 297.99C220.47 297.988 220.177 298.075 219.927 298.24C219.677 298.405 219.482 298.641 219.367 298.917C219.251 299.194 219.22 299.498 219.278 299.792C219.336 300.086 219.48 300.356 219.692 300.567C219.904 300.779 220.174 300.923 220.468 300.981C220.762 301.039 221.066 301.008 221.342 300.893C221.619 300.777 221.854 300.582 222.019 300.332C222.185 300.083 222.272 299.789 222.27 299.49C222.265 299.096 222.106 298.72 221.828 298.442C221.549 298.164 221.173 298.005 220.78 298L220.77 297.99ZM220.77 300.7C220.53 300.7 220.297 300.629 220.098 300.496C219.899 300.363 219.743 300.174 219.652 299.953C219.56 299.732 219.536 299.488 219.583 299.254C219.63 299.019 219.745 298.803 219.914 298.634C220.083 298.465 220.299 298.35 220.534 298.303C220.768 298.256 221.012 298.28 221.233 298.372C221.454 298.463 221.643 298.619 221.776 298.818C221.909 299.017 221.98 299.25 221.98 299.49C221.977 299.807 221.85 300.111 221.625 300.335C221.401 300.56 221.097 300.687 220.78 300.69L220.77 300.7ZM229.86 302.11C229.492 302.152 229.152 302.329 228.906 302.605C228.659 302.882 228.523 303.239 228.523 303.61C228.523 303.98 228.659 304.338 228.906 304.614C229.152 304.891 229.492 305.067 229.86 305.11C230.071 305.134 230.286 305.114 230.489 305.049C230.692 304.985 230.879 304.879 231.038 304.737C231.197 304.596 231.324 304.422 231.411 304.228C231.498 304.033 231.543 303.823 231.543 303.61C231.543 303.397 231.498 303.186 231.411 302.992C231.324 302.798 231.197 302.624 231.038 302.482C230.879 302.341 230.692 302.234 230.489 302.17C230.286 302.106 230.071 302.085 229.86 302.11ZM229.86 304.82C229.621 304.818 229.388 304.745 229.19 304.611C228.993 304.477 228.839 304.287 228.749 304.066C228.659 303.845 228.636 303.602 228.684 303.368C228.732 303.134 228.848 302.919 229.018 302.751C229.187 302.582 229.403 302.468 229.637 302.422C229.872 302.376 230.115 302.401 230.335 302.493C230.556 302.585 230.744 302.74 230.877 302.939C231.009 303.137 231.08 303.371 231.08 303.61C231.075 303.928 230.945 304.232 230.719 304.456C230.493 304.68 230.188 304.807 229.87 304.81L229.86 304.82ZM215.64 315.07C215.34 315.068 215.047 315.155 214.797 315.32C214.547 315.485 214.352 315.721 214.237 315.997C214.121 316.274 214.09 316.578 214.148 316.872C214.206 317.166 214.35 317.436 214.562 317.647C214.774 317.859 215.044 318.003 215.338 318.061C215.632 318.119 215.936 318.088 216.212 317.973C216.489 317.857 216.724 317.662 216.889 317.412C217.055 317.163 217.142 316.869 217.14 316.57C217.14 316.173 216.984 315.792 216.705 315.509C216.426 315.226 216.047 315.065 215.65 315.06L215.64 315.07ZM215.64 317.78C215.481 317.78 215.324 317.748 215.177 317.688C215.03 317.627 214.897 317.538 214.784 317.425C214.672 317.313 214.583 317.18 214.522 317.033C214.461 316.886 214.43 316.729 214.43 316.57C214.43 316.411 214.461 316.254 214.522 316.107C214.583 315.96 214.672 315.827 214.784 315.714C214.897 315.602 215.03 315.513 215.177 315.452C215.324 315.391 215.481 315.36 215.64 315.36C215.961 315.36 216.269 315.487 216.495 315.714C216.722 315.941 216.85 316.249 216.85 316.57C216.85 316.891 216.722 317.198 216.495 317.425C216.269 317.652 215.961 317.78 215.64 317.78ZM232.3 313.7C232 313.698 231.707 313.785 231.457 313.95C231.207 314.115 231.012 314.351 230.897 314.627C230.781 314.904 230.75 315.208 230.808 315.502C230.866 315.796 231.01 316.066 231.222 316.277C231.434 316.489 231.704 316.633 231.998 316.691C232.292 316.749 232.596 316.718 232.872 316.603C233.149 316.487 233.384 316.292 233.549 316.042C233.715 315.793 233.802 315.499 233.8 315.2C233.797 314.803 233.638 314.423 233.358 314.142C233.077 313.861 232.697 313.702 232.3 313.7ZM232.3 316.42C231.978 316.417 231.67 316.287 231.444 316.059C231.217 315.83 231.09 315.522 231.09 315.2C231.09 314.879 231.217 314.571 231.444 314.344C231.671 314.117 231.979 313.99 232.3 313.99C232.621 313.99 232.928 314.117 233.155 314.344C233.382 314.571 233.51 314.879 233.51 315.2C233.51 315.522 233.383 315.83 233.156 316.059C232.929 316.287 232.622 316.417 232.3 316.42ZM202.3 273.87C201.902 273.87 201.52 274.028 201.239 274.309C200.958 274.59 200.8 274.972 200.8 275.37C200.8 275.768 200.958 276.149 201.239 276.43C201.52 276.712 201.902 276.87 202.3 276.87C202.698 276.87 203.079 276.712 203.36 276.43C203.642 276.149 203.8 275.768 203.8 275.37C203.8 274.972 203.642 274.59 203.36 274.309C203.079 274.028 202.698 273.87 202.3 273.87ZM202.3 276.58C202.06 276.582 201.824 276.512 201.624 276.38C201.423 276.248 201.267 276.059 201.174 275.837C201.081 275.616 201.056 275.372 201.103 275.136C201.149 274.901 201.264 274.684 201.434 274.514C201.604 274.344 201.821 274.229 202.056 274.183C202.292 274.136 202.536 274.161 202.758 274.254C202.979 274.347 203.168 274.503 203.3 274.704C203.432 274.904 203.502 275.14 203.5 275.38C203.495 275.696 203.367 275.999 203.143 276.223C202.919 276.447 202.616 276.575 202.3 276.58ZM187.3 298.14C187.096 298.137 186.894 298.181 186.71 298.27C186.71 298.38 186.71 298.48 186.71 298.58C186.875 298.487 187.061 298.439 187.25 298.44C187.571 298.44 187.878 298.567 188.105 298.794C188.332 299.021 188.46 299.329 188.46 299.65C188.46 299.971 188.332 300.278 188.105 300.505C187.878 300.732 187.571 300.86 187.25 300.86H187.3L187.39 301.16C187.758 301.117 188.097 300.941 188.344 300.664C188.59 300.388 188.726 300.03 188.726 299.66C188.726 299.289 188.59 298.932 188.344 298.655C188.097 298.379 187.758 298.202 187.39 298.16L187.3 298.14ZM226.3 281C226.263 280.941 226.236 280.877 226.22 280.81C226.13 280.57 226.02 280.34 225.92 280.1C225.836 280.409 225.857 280.737 225.978 281.033C226.099 281.329 226.314 281.578 226.59 281.74L226.3 281ZM212.3 291.82C211.902 291.82 211.52 291.978 211.239 292.259C210.958 292.54 210.8 292.922 210.8 293.32C210.8 293.718 210.958 294.099 211.239 294.38C211.52 294.662 211.902 294.82 212.3 294.82C212.698 294.82 213.079 294.662 213.36 294.38C213.642 294.099 213.8 293.718 213.8 293.32C213.8 292.922 213.642 292.54 213.36 292.259C213.079 291.978 212.698 291.82 212.3 291.82ZM212.3 294.53C212.06 294.532 211.825 294.462 211.625 294.331C211.425 294.199 211.268 294.011 211.175 293.79C211.082 293.569 211.056 293.325 211.102 293.09C211.147 292.855 211.262 292.638 211.431 292.468C211.599 292.298 211.815 292.181 212.05 292.134C212.285 292.086 212.529 292.11 212.75 292.201C212.972 292.292 213.162 292.447 213.295 292.647C213.429 292.846 213.5 293.08 213.5 293.32C213.5 293.639 213.374 293.945 213.149 294.172C212.924 294.399 212.619 294.527 212.3 294.53ZM227.42 290.46C227.121 290.46 226.829 290.548 226.581 290.714C226.333 290.88 226.139 291.116 226.025 291.392C225.91 291.668 225.881 291.971 225.939 292.264C225.997 292.557 226.141 292.826 226.352 293.038C226.563 293.249 226.832 293.393 227.125 293.451C227.418 293.509 227.722 293.479 227.998 293.365C228.274 293.251 228.509 293.057 228.675 292.809C228.841 292.56 228.93 292.268 228.93 291.97C228.93 291.768 228.89 291.568 228.811 291.383C228.733 291.197 228.618 291.028 228.474 290.888C228.329 290.747 228.158 290.637 227.97 290.563C227.782 290.49 227.581 290.454 227.38 290.46H227.42ZM227.42 293.17C227.102 293.17 226.796 293.043 226.571 292.818C226.346 292.593 226.22 292.288 226.22 291.97C226.218 291.73 226.287 291.494 226.42 291.294C226.552 291.093 226.741 290.937 226.962 290.844C227.184 290.751 227.428 290.726 227.663 290.773C227.899 290.819 228.116 290.934 228.285 291.104C228.455 291.274 228.571 291.491 228.617 291.726C228.663 291.962 228.639 292.206 228.546 292.427C228.453 292.649 228.296 292.838 228.096 292.97C227.895 293.102 227.66 293.172 227.42 293.17ZM223.8 321.22C223.4 321.222 223.018 321.382 222.735 321.665C222.452 321.948 222.292 322.33 222.29 322.73C222.275 322.856 222.275 322.984 222.29 323.11H222.59C222.535 322.944 222.518 322.768 222.538 322.594C222.558 322.42 222.616 322.253 222.707 322.104C222.798 321.954 222.92 321.827 223.065 321.729C223.21 321.632 223.375 321.567 223.547 321.539C223.72 321.511 223.897 321.521 224.065 321.568C224.234 321.615 224.39 321.698 224.523 321.811C224.656 321.924 224.763 322.065 224.837 322.224C224.911 322.382 224.949 322.555 224.95 322.73C224.95 322.852 224.93 322.974 224.89 323.09H225.19C225.235 322.975 225.255 322.853 225.25 322.73C225.25 322.333 225.094 321.952 224.815 321.669C224.536 321.386 224.157 321.225 223.76 321.22H223.8Z" fill="white"/>
<path d="M192.37 305.59C194.231 305.302 196.108 305.119 197.99 305.04C198.93 305.04 199.87 305.04 200.81 305.04L202.15 305.12C202.65 305.12 203.15 305.26 203.63 305.29C203.63 305.29 203.69 305.38 203.63 305.37C203.17 305.37 202.7 305.37 202.23 305.43H200.82C199.88 305.43 198.95 305.49 198.01 305.5C196.13 305.5 194.26 305.58 192.38 305.68C192.3 305.75 192.3 305.61 192.37 305.59Z" fill="#060212"/>
<path d="M94.7033 232.5L65.5332 261.681L168.223 364.335L197.393 335.154L94.7033 232.5Z" fill="#EBEBEB"/>
<path d="M94.3364 239.378L72.4199 261.302L86.6211 275.498L108.538 253.574L94.3364 239.378Z" fill="#FFB200"/>
<path opacity="0.8" d="M111.555 256.583L89.6387 278.507L103.84 292.704L125.756 270.779L111.555 256.583Z" fill="#FFB200"/>
<path opacity="0.6" d="M128.778 273.799L106.861 295.723L121.063 309.919L142.979 287.995L128.778 273.799Z" fill="#FFB200"/>
<path opacity="0.4" d="M145.986 291.015L124.07 312.939L138.271 327.135L160.187 305.211L145.986 291.015Z" fill="#FFB200"/>
<path opacity="0.2" d="M163.202 308.223L141.286 330.147L155.487 344.344L177.403 322.42L163.202 308.223Z" fill="#FFB200"/>
<g opacity="0.1">
<path d="M94.3364 239.378L72.4199 261.302L86.6211 275.498L108.538 253.574L94.3364 239.378Z" fill="black"/>
<path opacity="0.8" d="M111.555 256.583L89.6387 278.507L103.84 292.704L125.756 270.779L111.555 256.583Z" fill="black"/>
<path opacity="0.6" d="M128.778 273.799L106.861 295.723L121.063 309.919L142.979 287.995L128.778 273.799Z" fill="black"/>
<path opacity="0.4" d="M145.986 291.015L124.07 312.939L138.271 327.135L160.187 305.211L145.986 291.015Z" fill="black"/>
<path opacity="0.2" d="M163.202 308.223L141.286 330.147L155.487 344.344L177.403 322.42L163.202 308.223Z" fill="black"/>
</g>
<path d="M178.85 339.78C179.445 340.374 179.852 341.131 180.017 341.956C180.182 342.781 180.099 343.636 179.778 344.413C179.456 345.191 178.912 345.855 178.212 346.323C177.513 346.791 176.691 347.04 175.85 347.04C175.008 347.04 174.186 346.791 173.487 346.323C172.788 345.855 172.243 345.191 171.922 344.413C171.6 343.636 171.517 342.781 171.682 341.956C171.848 341.131 172.254 340.374 172.85 339.78C173.243 339.386 173.711 339.073 174.226 338.859C174.741 338.646 175.292 338.536 175.85 338.536C176.407 338.536 176.959 338.646 177.473 338.859C177.988 339.073 178.456 339.386 178.85 339.78Z" fill="#060212"/>
<path d="M160.726 206.703L120.874 217.389L158.479 357.635L198.331 346.949L160.726 206.703Z" fill="#EBEBEB"/>
<path d="M156.955 212.474L127.013 220.503L132.213 239.898L162.155 231.869L156.955 212.474Z" fill="#FFB200"/>
<path opacity="0.8" d="M163.271 235.988L133.329 244.017L138.53 263.411L168.472 255.383L163.271 235.988Z" fill="#FFB200"/>
<path opacity="0.6" d="M169.565 259.504L139.623 267.533L144.823 286.928L174.765 278.899L169.565 259.504Z" fill="#FFB200"/>
<path opacity="0.4" d="M175.869 283.01L145.927 291.039L151.127 310.434L181.07 302.405L175.869 283.01Z" fill="#FFB200"/>
<path opacity="0.2" d="M182.185 306.533L152.243 314.562L157.443 333.957L187.385 325.928L182.185 306.533Z" fill="#FFB200"/>
<path d="M179.95 341.69C180.166 342.5 180.137 343.355 179.868 344.149C179.598 344.942 179.099 345.638 178.434 346.148C177.768 346.658 176.967 346.96 176.131 347.015C175.294 347.07 174.46 346.875 173.734 346.456C173.008 346.038 172.423 345.413 172.052 344.661C171.681 343.91 171.54 343.065 171.649 342.234C171.758 341.403 172.11 340.623 172.662 339.992C173.214 339.361 173.94 338.908 174.75 338.69C175.288 338.543 175.85 338.505 176.404 338.577C176.957 338.648 177.491 338.829 177.974 339.108C178.458 339.386 178.881 339.758 179.22 340.201C179.559 340.645 179.807 341.15 179.95 341.69Z" fill="#060212"/>
<path d="M223.19 273.51C236.75 285.51 261.45 313.59 256.66 322.64C248.79 337.51 230.01 353.86 222.38 358.2C219.08 360.08 200.5 337.26 203.38 334.38C206.8 330.92 230.13 314.96 229.97 313.69C229.81 312.42 220.97 295.8 216.19 282.27C210.3 265.48 217.53 268.53 223.19 273.51Z" fill="#AD6359"/>
<path d="M215.83 329.62C215.83 329.62 204.319 328.93 196.769 328.84C192.559 328.78 185.33 329.34 182.22 330.71C177.56 332.77 159.41 344.36 162.12 348.82C164.58 352.82 178.91 340.92 178.91 340.92C178.91 340.92 163.39 351.69 167.24 356C171.09 360.31 185.49 344.68 185.49 344.68C185.49 344.68 169.79 356.1 174.49 359.92C178.03 362.81 191.87 349.39 191.87 349.39C191.87 349.39 178.44 359.29 181.94 362.39C185.82 365.85 199.37 354.26 199.37 354.26C209.63 360.72 217.11 360.17 222.37 358.16C223.61 357.73 215.83 329.62 215.83 329.62Z" fill="#AD6359"/>
<path d="M183.3 337.39C171.3 344.44 167.51 351.59 167.65 351.39C170.91 347.39 177.12 342.39 178.88 341.06C180.64 339.73 181.6 338.78 183.35 337.42C183.43 337.42 183.37 337.36 183.3 337.39Z" fill="#060212"/>
<path d="M189.07 343.11C184.069 345.742 179.578 349.247 175.81 353.46C175.68 353.63 175.81 353.64 175.95 353.46C178.14 351.67 186.85 344.8 189.11 343.12C189.15 343.14 189.11 343.09 189.07 343.11Z" fill="#060212"/>
<path d="M194.35 347.7C190.516 349.821 187.108 352.636 184.3 356C184.16 356.16 184.3 356.18 184.49 356C187.77 353.17 190.33 350.93 194.41 347.77C194.408 347.753 194.402 347.738 194.391 347.725C194.38 347.713 194.366 347.704 194.35 347.7Z" fill="#060212"/>
<path d="M245.75 291.44L222.4 298.84C222.4 298.84 214.95 285.14 212.76 275.84C211.08 268.74 214.94 267.27 219.09 269.76C232.93 278.05 245.75 291.44 245.75 291.44Z" fill="#FFB200"/>
<path d="M244.3 290C244.19 290.138 244.05 290.249 243.89 290.326C243.731 290.402 243.556 290.441 243.38 290.44C243.059 290.44 242.751 290.313 242.524 290.086C242.297 289.859 242.17 289.551 242.17 289.23C242.17 289.059 242.206 288.891 242.277 288.735C242.348 288.58 242.451 288.442 242.58 288.33C242.52 288.26 242.45 288.2 242.37 288.12C242.224 288.259 242.108 288.426 242.028 288.61C241.948 288.795 241.906 288.994 241.904 289.195C241.903 289.396 241.942 289.596 242.019 289.782C242.096 289.968 242.21 290.136 242.353 290.277C242.497 290.418 242.668 290.529 242.855 290.602C243.042 290.676 243.242 290.711 243.444 290.706C243.645 290.701 243.843 290.655 244.026 290.571C244.209 290.488 244.374 290.368 244.51 290.22L244.3 290ZM218.3 273.32C218 273.318 217.707 273.405 217.457 273.57C217.207 273.736 217.012 273.971 216.897 274.248C216.781 274.524 216.75 274.828 216.808 275.122C216.866 275.416 217.01 275.686 217.222 275.898C217.434 276.11 217.704 276.254 217.998 276.312C218.291 276.369 218.596 276.339 218.872 276.223C219.149 276.108 219.384 275.913 219.549 275.663C219.715 275.413 219.802 275.12 219.8 274.82C219.8 274.431 219.651 274.058 219.383 273.776C219.114 273.495 218.748 273.328 218.36 273.31L218.3 273.32ZM218.3 276.03C218.06 276.03 217.827 275.959 217.628 275.826C217.429 275.693 217.273 275.504 217.182 275.283C217.09 275.062 217.066 274.819 217.113 274.584C217.16 274.349 217.275 274.134 217.444 273.964C217.613 273.795 217.829 273.68 218.064 273.633C218.298 273.587 218.542 273.611 218.763 273.702C218.984 273.794 219.173 273.949 219.306 274.148C219.439 274.347 219.51 274.581 219.51 274.82C219.503 275.126 219.38 275.417 219.167 275.636C218.953 275.855 218.665 275.985 218.36 276L218.3 276.03ZM218.83 285.03C218.531 285.03 218.239 285.119 217.991 285.285C217.743 285.45 217.549 285.686 217.435 285.962C217.32 286.238 217.291 286.542 217.349 286.835C217.407 287.128 217.551 287.397 217.762 287.608C217.973 287.819 218.242 287.963 218.535 288.021C218.828 288.079 219.132 288.049 219.408 287.935C219.684 287.821 219.919 287.627 220.085 287.379C220.251 287.131 220.34 286.839 220.34 286.54C220.348 286.145 220.201 285.762 219.929 285.474C219.658 285.186 219.285 285.016 218.89 285L218.83 285.03ZM218.83 287.75C218.59 287.75 218.357 287.679 218.158 287.546C217.959 287.413 217.803 287.224 217.712 287.003C217.62 286.782 217.596 286.539 217.643 286.304C217.69 286.069 217.805 285.854 217.974 285.684C218.143 285.515 218.359 285.4 218.594 285.353C218.828 285.307 219.072 285.331 219.293 285.422C219.514 285.514 219.703 285.669 219.836 285.868C219.969 286.067 220.04 286.301 220.04 286.54C220.033 286.846 219.91 287.137 219.697 287.356C219.483 287.575 219.195 287.705 218.89 287.72L218.83 287.75ZM234.92 283.68C234.623 283.68 234.333 283.768 234.086 283.933C233.84 284.098 233.647 284.332 233.534 284.606C233.42 284.88 233.391 285.182 233.449 285.473C233.506 285.764 233.649 286.031 233.859 286.241C234.069 286.451 234.336 286.593 234.627 286.651C234.918 286.709 235.22 286.679 235.494 286.566C235.768 286.452 236.002 286.26 236.167 286.013C236.332 285.767 236.42 285.477 236.42 285.18C236.428 284.787 236.282 284.407 236.012 284.121C235.743 283.835 235.372 283.666 234.98 283.65L234.92 283.68ZM234.92 286.39C234.68 286.39 234.447 286.319 234.248 286.186C234.049 286.053 233.893 285.864 233.802 285.643C233.71 285.422 233.686 285.179 233.733 284.944C233.78 284.709 233.895 284.494 234.064 284.324C234.233 284.155 234.449 284.04 234.684 283.993C234.918 283.947 235.162 283.971 235.383 284.062C235.604 284.154 235.793 284.309 235.926 284.508C236.059 284.707 236.13 284.941 236.13 285.18C236.123 285.486 236 285.777 235.787 285.996C235.573 286.215 235.285 286.345 234.98 286.36L234.92 286.39ZM227.32 278.98C227.021 278.98 226.728 279.069 226.48 279.235C226.231 279.402 226.038 279.638 225.924 279.915C225.81 280.191 225.78 280.495 225.84 280.788C225.899 281.082 226.043 281.351 226.256 281.561C226.468 281.772 226.738 281.915 227.031 281.972C227.325 282.029 227.629 281.998 227.905 281.882C228.18 281.766 228.415 281.571 228.58 281.322C228.745 281.072 228.832 280.779 228.83 280.48C228.825 280.094 228.671 279.725 228.401 279.449C228.131 279.174 227.765 279.013 227.38 279L227.32 278.98ZM227.32 281.69C227.081 281.688 226.848 281.615 226.65 281.481C226.453 281.347 226.299 281.157 226.209 280.936C226.119 280.715 226.096 280.472 226.144 280.238C226.192 280.004 226.308 279.789 226.478 279.621C226.647 279.453 226.863 279.339 227.097 279.293C227.332 279.247 227.575 279.271 227.795 279.363C228.016 279.455 228.204 279.61 228.337 279.809C228.469 280.008 228.54 280.241 228.54 280.48C228.532 280.787 228.408 281.08 228.193 281.299C227.978 281.518 227.687 281.647 227.38 281.66L227.32 281.69ZM227.32 290.49C227.021 290.49 226.729 290.579 226.481 290.745C226.233 290.91 226.039 291.146 225.925 291.422C225.81 291.698 225.781 292.002 225.839 292.295C225.897 292.588 226.041 292.857 226.252 293.068C226.463 293.279 226.732 293.423 227.025 293.481C227.318 293.539 227.622 293.509 227.898 293.395C228.174 293.281 228.409 293.087 228.575 292.839C228.741 292.591 228.83 292.299 228.83 292C228.838 291.605 228.691 291.222 228.419 290.934C228.148 290.646 227.775 290.476 227.38 290.46L227.32 290.49ZM227.32 293.2C227.002 293.2 226.696 293.074 226.471 292.849C226.246 292.624 226.12 292.318 226.12 292C226.118 291.76 226.187 291.525 226.32 291.324C226.452 291.124 226.641 290.967 226.862 290.874C227.084 290.781 227.328 290.757 227.563 290.803C227.799 290.849 228.016 290.965 228.185 291.135C228.355 291.304 228.471 291.521 228.517 291.756C228.563 291.992 228.539 292.236 228.446 292.458C228.353 292.679 228.196 292.868 227.996 293C227.795 293.132 227.56 293.202 227.32 293.2Z" fill="white"/>
<path d="M222.02 294.79C228.448 292.253 235.031 290.129 241.73 288.43C241.73 288.43 241.82 288.57 241.79 288.58C236.51 290.58 225.71 293.92 222.09 295.01C222.02 295 221.95 294.82 222.02 294.79Z" fill="#060212"/>
<path d="M222.17 299C221.17 297.24 220.41 295.39 219.58 293.57C219.25 293.11 218.91 292.64 218.58 292.16C218.186 291.546 217.851 290.897 217.58 290.22C217.58 290.22 217.58 290.16 217.63 290.22C217.82 290.52 217.98 290.84 218.16 291.15L218.72 292.06C218.91 292.37 219.1 292.68 219.31 292.98C218.51 291.2 217.75 289.39 217.07 287.55H217.15C218.15 289.38 219.1 291.25 219.97 293.15C220.84 295.05 221.73 296.85 222.45 298.75C222.79 298.67 223.11 298.59 223.45 298.53C223.54 298.53 223.59 298.64 223.51 298.68C223.15 298.86 222.79 299 222.43 299.15C222.403 299.159 222.374 299.162 222.346 299.159C222.318 299.157 222.291 299.148 222.266 299.134C222.241 299.119 222.22 299.1 222.203 299.077C222.187 299.054 222.175 299.028 222.17 299Z" fill="#060212"/>
<path d="M213.6 269.93C213.24 271.31 209.44 277.42 205.17 276.93C202.98 276.69 203.53 268.93 203.53 268.93L203.46 268.36L202.55 260.36L213.83 254.8C213.83 254.8 213.71 269.53 213.6 269.93Z" fill="#AD6359"/>
<path d="M213.78 260.31C212.717 262.305 211.251 264.058 209.474 265.456C207.698 266.854 205.649 267.867 203.46 268.43L202.55 260.43L213.83 254.86C213.83 254.86 213.81 257.33 213.78 260.31Z" fill="#060212"/>
<path d="M192.36 247.38C190.05 261.38 198.18 264.38 201.2 264.86C203.94 265.31 213.34 266.49 217.09 252.8C220.84 239.11 215.09 233.59 208.84 232.23C202.59 230.87 194.68 233.37 192.36 247.38Z" fill="#AD6359"/>
<path d="M195.03 244.51C195.365 244.498 195.699 244.464 196.03 244.41C196.386 244.426 196.737 244.324 197.03 244.12C197.107 244.038 197.154 243.932 197.165 243.82C197.176 243.708 197.15 243.595 197.09 243.5C196.944 243.331 196.757 243.203 196.546 243.129C196.335 243.055 196.109 243.038 195.89 243.08C195.434 243.099 195.002 243.288 194.68 243.61C194.612 243.684 194.567 243.776 194.549 243.874C194.531 243.973 194.54 244.075 194.577 244.168C194.613 244.261 194.675 244.343 194.755 244.403C194.835 244.464 194.93 244.501 195.03 244.51Z" fill="#060212"/>
<path d="M204.51 245.55C204.195 245.466 203.884 245.366 203.58 245.25C203.234 245.19 202.918 245.017 202.68 244.76C202.624 244.662 202.601 244.55 202.614 244.438C202.626 244.327 202.674 244.222 202.75 244.14C202.928 244.006 203.137 243.921 203.358 243.893C203.579 243.864 203.804 243.895 204.01 243.98C204.451 244.097 204.835 244.37 205.09 244.75C205.142 244.84 205.168 244.944 205.162 245.049C205.157 245.153 205.122 245.254 205.06 245.339C204.999 245.424 204.914 245.489 204.816 245.526C204.719 245.564 204.612 245.572 204.51 245.55Z" fill="#060212"/>
<path d="M202.3 248.91C202.3 248.91 202.37 248.97 202.37 249.01C202.21 249.96 202.2 251.08 203.02 251.51V251.57C201.92 251.28 201.95 249.79 202.3 248.91Z" fill="#060212"/>
<path d="M203.24 248C204.8 248.09 204.52 251.19 203.07 251.12C201.62 251.05 201.93 248 203.24 248Z" fill="#060212"/>
<path d="M203.83 248.24C204.09 248.44 204.33 248.78 204.65 248.84C204.97 248.9 205.34 248.61 205.65 248.32C205.65 248.92 205.32 249.51 204.65 249.54C203.98 249.57 203.65 249 203.65 248.39C203.62 248.32 203.73 248.16 203.83 248.24Z" fill="#060212"/>
<path d="M196.53 248.23C196.53 248.23 196.45 248.23 196.44 248.3C196.44 249.3 196.18 250.37 195.28 250.62C196.36 250.61 196.63 249.15 196.53 248.23Z" fill="#060212"/>
<path d="M195.75 247.15C194.21 246.9 193.83 250 195.26 250.23C196.69 250.46 197.04 247.35 195.75 247.15Z" fill="#060212"/>
<path d="M195.08 247.27C194.81 247.41 194.53 247.68 194.24 247.66C193.95 247.64 193.69 247.28 193.51 246.93H193.46C193.37 247.52 193.46 248.16 194.04 248.34C194.62 248.52 195.04 248.05 195.21 247.47C195.3 247.4 195.18 247.22 195.08 247.27Z" fill="#060212"/>
<path d="M201.63 256.47C201.43 256.72 201.24 257.06 200.9 257.14C200.543 257.182 200.182 257.148 199.84 257.04C200.002 257.211 200.207 257.335 200.435 257.399C200.662 257.462 200.902 257.462 201.13 257.4C201.329 257.323 201.499 257.185 201.614 257.005C201.729 256.825 201.784 256.613 201.77 256.4C201.765 256.391 201.759 256.382 201.751 256.376C201.743 256.369 201.734 256.364 201.724 256.36C201.715 256.357 201.704 256.356 201.694 256.357C201.684 256.357 201.674 256.36 201.665 256.365C201.655 256.369 201.647 256.376 201.641 256.383C201.634 256.391 201.629 256.4 201.625 256.41C201.622 256.42 201.621 256.43 201.622 256.44C201.622 256.451 201.625 256.461 201.63 256.47Z" fill="#060212"/>
<path d="M197.59 252.63C197.59 252.63 197.25 254.04 197.18 254.72C197.799 254.939 198.466 254.986 199.11 254.858C199.754 254.729 200.352 254.429 200.84 253.99C200.9 253.93 200.84 253.85 200.75 253.88C199.835 254.38 198.783 254.573 197.75 254.43C197.75 254.23 198.42 252.02 198.32 252C197.787 251.993 197.256 252.057 196.74 252.19C197.37 249.19 198.48 246.38 199.06 243.41C199.064 243.399 199.065 243.387 199.065 243.375C199.064 243.363 199.061 243.351 199.056 243.341C199.051 243.33 199.044 243.321 199.035 243.313C199.026 243.305 199.016 243.299 199.005 243.295C198.994 243.291 198.982 243.289 198.97 243.29C198.958 243.29 198.947 243.293 198.936 243.298C198.925 243.303 198.916 243.311 198.908 243.319C198.9 243.328 198.894 243.339 198.89 243.35C197.612 246.361 196.641 249.494 195.99 252.7C195.86 253.08 197.3 252.72 197.59 252.63Z" fill="#060212"/>
<path d="M198.11 254.74C198.44 255.249 198.894 255.665 199.43 255.95C199.739 256.103 200.09 256.152 200.43 256.09C201.14 255.96 201.21 255.33 201.13 254.77C201.08 254.478 200.997 254.192 200.88 253.92C200.07 254.488 199.098 254.775 198.11 254.74Z" fill="#060212"/>
<path d="M199.43 256C199.739 256.153 200.09 256.202 200.43 256.14C201.14 256.01 201.21 255.38 201.13 254.82C200.754 254.791 200.38 254.893 200.07 255.108C199.76 255.323 199.534 255.638 199.43 256Z" fill="#FF9ABB"/>
<path d="M216.3 252.34C213.63 252.52 213.3 246.42 213.3 246.42C213.3 246.42 202.14 243.83 201.74 234.6C200.083 238.237 197.094 241.1 193.39 242.6C193.39 242.6 194.39 232.6 202.48 231.08C202.48 231.08 212.6 228.08 217.7 236.25C222.8 244.42 218.12 252.22 216.3 252.34Z" fill="#060212"/>
<path d="M201.78 233.91C201.557 235.318 201.642 236.758 202.03 238.13C202.389 239.539 203.04 240.857 203.94 242C204.16 242.283 204.397 242.554 204.65 242.81L205.02 243.2L205.43 243.55C205.71 243.77 205.98 244.01 206.27 244.22L207.18 244.78L207.64 245.06L208.13 245.28L209.13 245.72C209.8 245.95 210.49 246.14 211.13 246.33C210.5 246.01 209.85 245.76 209.23 245.43L208.33 244.92L207.88 244.67C207.73 244.58 207.6 244.47 207.45 244.37C207.3 244.27 206.9 243.96 206.62 243.77C206.34 243.58 206.1 243.32 205.84 243.09L205.46 242.76L205.12 242.38C204.88 242.134 204.657 241.873 204.45 241.6C203.594 240.523 202.934 239.305 202.5 238C202.271 237.348 202.097 236.68 201.98 236C201.852 235.31 201.785 234.611 201.78 233.91Z" fill="#060212"/>
<path d="M203 254.44C201.793 254.1 200.771 253.295 200.158 252.201C199.545 251.108 199.391 249.817 199.73 248.61C199.981 247.706 200.496 246.896 201.208 246.285C201.92 245.673 202.797 245.287 203.729 245.175C204.661 245.062 205.605 245.229 206.442 245.654C207.279 246.079 207.971 246.743 208.43 247.562C208.889 248.38 209.095 249.317 209.021 250.253C208.948 251.188 208.598 252.081 208.016 252.818C207.435 253.555 206.647 254.102 205.754 254.391C204.861 254.68 203.902 254.697 203 254.44ZM200.3 248.78C200.072 249.558 200.08 250.385 200.323 251.158C200.565 251.931 201.032 252.615 201.663 253.124C202.294 253.632 203.061 253.942 203.868 254.014C204.675 254.087 205.486 253.919 206.197 253.531C206.908 253.143 207.489 252.553 207.865 251.836C208.242 251.118 208.397 250.305 208.312 249.499C208.227 248.693 207.904 247.931 207.386 247.308C206.868 246.685 206.176 246.23 205.4 246C205.075 245.903 204.738 245.852 204.4 245.85C203.487 245.812 202.589 246.08 201.846 246.611C201.104 247.141 200.559 247.905 200.3 248.78Z" fill="#FFB200"/>
<path d="M193.12 253C191.2 252.73 189.94 250.4 190.31 247.82C190.453 246.648 190.964 245.553 191.77 244.69C192.09 244.294 192.508 243.988 192.982 243.802C193.456 243.616 193.97 243.557 194.474 243.629C194.978 243.702 195.455 243.904 195.857 244.216C196.26 244.528 196.574 244.94 196.77 245.41C197.291 246.466 197.473 247.657 197.29 248.82C196.94 251.27 195.29 253.08 193.44 253.03C193.332 253.031 193.225 253.021 193.12 253ZM192.22 245.13C191.509 245.899 191.058 246.871 190.93 247.91C190.61 250.15 191.63 252.15 193.21 252.38C194.79 252.61 196.33 250.97 196.65 248.73C196.814 247.707 196.657 246.659 196.2 245.73C196.034 245.361 195.78 245.038 195.462 244.788C195.143 244.539 194.768 244.372 194.37 244.3H194.14C193.78 244.297 193.424 244.368 193.094 244.509C192.764 244.651 192.466 244.858 192.22 245.12V245.13Z" fill="#FFB200"/>
<path d="M199.81 249.17L200.28 248.75C199.66 248.05 198.13 247.01 196.81 248.07L197.21 248.57C198.39 247.62 199.76 249.11 199.81 249.17Z" fill="#FFB200"/>
<path d="M220.5 253.37L221.1 253.17C221 252.89 220.1 250.43 218.75 250.01C217.4 249.59 208.97 249.19 208.61 249.17V249.8C211.04 249.92 217.61 250.3 218.61 250.61C219.61 250.92 220.3 252.7 220.5 253.37Z" fill="#FFB200"/>
<path d="M214.69 251.71C214.69 251.71 218.12 247.53 220.04 248.79C221.96 250.05 219.14 256.27 216.72 256.97C216.415 257.081 216.091 257.128 215.767 257.11C215.443 257.092 215.126 257.009 214.836 256.865C214.545 256.721 214.286 256.52 214.076 256.273C213.865 256.026 213.707 255.74 213.61 255.43L214.69 251.71Z" fill="#AD6359"/>
<path d="M219.18 250.56C219.18 250.56 219.18 250.56 219.18 250.62C218.394 250.938 217.683 251.417 217.094 252.027C216.505 252.637 216.05 253.364 215.76 254.16C215.87 254.004 216.012 253.874 216.176 253.778C216.341 253.682 216.524 253.622 216.714 253.603C216.904 253.585 217.095 253.607 217.276 253.668C217.456 253.73 217.621 253.829 217.76 253.96C217.76 253.96 217.76 254.05 217.7 254.04C217.417 253.924 217.105 253.9 216.807 253.97C216.51 254.04 216.242 254.201 216.04 254.43C215.704 254.813 215.412 255.232 215.17 255.68C215.08 255.82 214.82 255.68 214.89 255.56C215.04 253.41 216.91 250.59 219.18 250.56Z" fill="#060212"/>
<path d="M216.49 256.42C216.434 256.577 216.318 256.707 216.167 256.779C216.016 256.851 215.842 256.86 215.685 256.805C215.527 256.749 215.398 256.633 215.325 256.482C215.253 256.331 215.244 256.157 215.3 256C215.354 255.847 215.467 255.723 215.613 255.653C215.759 255.584 215.927 255.575 216.08 255.63C216.232 255.684 216.357 255.797 216.426 255.943C216.496 256.089 216.504 256.257 216.45 256.41L216.49 256.42Z" fill="#060212"/>
<path d="M216.19 256.31C216.163 256.381 216.109 256.44 216.04 256.473C215.972 256.507 215.893 256.513 215.82 256.49C215.784 256.477 215.75 256.458 215.722 256.433C215.693 256.407 215.67 256.377 215.653 256.342C215.636 256.308 215.626 256.27 215.624 256.232C215.622 256.194 215.627 256.156 215.64 256.12C215.652 256.084 215.672 256.05 215.697 256.022C215.722 255.993 215.753 255.97 215.787 255.953C215.822 255.936 215.859 255.927 215.897 255.924C215.935 255.922 215.974 255.927 216.01 255.94C216.046 255.952 216.079 255.972 216.108 255.997C216.136 256.022 216.16 256.053 216.176 256.087C216.193 256.122 216.203 256.159 216.205 256.197C216.207 256.235 216.202 256.274 216.19 256.31Z" fill="#060212"/>
<path d="M217.61 255.76C217.581 255.84 217.529 255.909 217.461 255.96C217.393 256.011 217.311 256.04 217.226 256.044C217.141 256.048 217.057 256.027 216.984 255.983C216.911 255.94 216.853 255.875 216.816 255.798C216.78 255.721 216.767 255.636 216.78 255.551C216.792 255.467 216.829 255.389 216.886 255.326C216.943 255.263 217.018 255.218 217.1 255.197C217.183 255.177 217.27 255.181 217.35 255.21C217.403 255.229 217.452 255.258 217.494 255.296C217.536 255.334 217.569 255.38 217.594 255.431C217.618 255.482 217.632 255.537 217.634 255.594C217.637 255.65 217.629 255.706 217.61 255.76Z" fill="#060212"/>
</g>
<defs>
<clipPath id="clip0_486_337">
<rect width="375" height="600" fill="white"/>
</clipPath>
</defs>
</svg>
