<svg width="727" height="229" viewBox="0 0 727 229" fill="none" xmlns="http://www.w3.org/2000/svg">
<path d="M141.68 3.17993C140.14 1.64993 138.15 0.879883 135.69 0.879883H8.33972C5.87972 0.879883 3.88973 1.64993 2.34973 3.17993C0.809731 4.71993 0.0498047 6.70992 0.0498047 9.16992C0.0498047 11.4699 0.819731 13.3899 2.34973 14.9299C3.87973 16.4699 5.87972 17.23 8.33972 17.23H62.9198V171.76C62.9198 174.22 63.7997 176.33 65.5697 178.09C67.3297 179.86 69.4498 180.74 71.8998 180.74C74.5098 180.74 76.6597 179.86 78.3497 178.09C80.0397 176.33 80.8798 174.21 80.8798 171.76V17.23H135.69C138.14 17.23 140.14 16.4599 141.68 14.9299C143.21 13.3999 143.98 11.4799 143.98 9.16992C143.98 6.71992 143.21 4.71993 141.68 3.17993Z" fill="white"/>
<path d="M166.01 42.1299C163.62 42.1299 161.559 41.26 159.829 39.53C158.089 37.8 157.229 35.6799 157.229 33.1899C157.229 30.4799 158.12 28.34 159.91 26.76C161.7 25.19 163.79 24.3999 166.17 24.3999C168.55 24.3999 170.48 25.19 172.27 26.76C174.06 28.33 174.949 30.4799 174.949 33.1899C174.949 35.6899 174.079 37.8 172.349 39.53C170.619 41.26 168.5 42.1299 166.01 42.1299ZM166.209 180.73C163.449 180.73 161.26 179.92 159.65 178.31C158.04 176.7 157.229 174.51 157.229 171.75V63.74C157.229 60.98 158.04 58.7899 159.65 57.1799C161.26 55.5699 163.449 54.76 166.209 54.76C168.819 54.76 170.93 55.5699 172.54 57.1799C174.15 58.7899 174.959 60.98 174.959 63.74V171.75C174.959 174.51 174.15 176.7 172.54 178.31C170.93 179.92 168.819 180.73 166.209 180.73Z" fill="white"/>
<path d="M321.089 83.3201C315.639 73.6501 308.109 66.0899 298.519 60.6399C288.919 55.1899 277.909 52.46 265.469 52.46C253.029 52.46 242.209 55.1899 232.539 60.6399C222.869 66.0899 215.269 73.6501 209.739 83.3201C204.209 92.9901 201.449 104.13 201.449 116.71C201.449 129.29 204.099 140.2 209.389 149.87C214.689 159.54 222.019 167.11 231.379 172.55C240.739 178 251.489 180.73 263.619 180.73C274.359 180.73 283.919 178.24 292.289 173.25C300.659 168.26 307.219 161.35 311.979 152.52V161.78C311.979 171.91 309.939 180.74 305.879 188.26C301.809 195.78 296.319 201.62 289.409 205.76C282.499 209.91 274.749 211.98 266.149 211.98C256.939 211.98 248.839 210.29 241.849 206.91C234.859 203.53 229.139 199.08 224.689 193.55C223.309 191.71 221.389 190.56 218.929 190.1C216.469 189.64 214.239 190.1 212.249 191.48C210.249 192.86 209.139 194.62 208.909 196.78C208.679 198.93 209.409 200.93 211.099 202.77C217.089 210.6 224.689 216.78 233.899 221.31C243.109 225.84 253.779 228.1 265.909 228.1C278.039 228.1 289.089 225.22 298.609 219.46C308.129 213.7 315.649 205.87 321.179 195.97C326.709 186.07 329.469 174.9 329.469 162.46V116.69C329.319 104.1 326.509 92.97 321.059 83.3L321.089 83.3201ZM306.009 141.58C302.019 148.8 296.529 154.44 289.539 158.51C282.549 162.58 274.529 164.61 265.469 164.61C256.409 164.61 248.349 162.58 241.289 158.51C234.229 154.44 228.699 148.8 224.709 141.58C220.719 134.37 218.719 126.08 218.719 116.71C218.719 107.34 220.709 99.02 224.709 91.72C228.699 84.43 234.229 78.7499 241.289 74.6799C248.349 70.6099 256.409 68.5801 265.469 68.5801C274.529 68.5801 282.549 70.6199 289.539 74.6799C296.519 78.7499 302.009 84.43 306.009 91.72C309.999 99.01 311.999 107.34 311.999 116.71C311.999 126.08 309.999 134.37 306.009 141.58Z" fill="white"/>
<path d="M613.229 83.78C607.619 74.11 600.019 66.4701 590.429 60.8701C580.829 55.2701 569.969 52.46 557.839 52.46C545.709 52.46 534.809 55.2601 525.139 60.8701C515.469 66.4801 507.829 74.11 502.229 83.78C496.619 93.45 493.819 104.43 493.819 116.71C493.819 128.99 496.539 139.74 501.999 149.41C507.449 159.08 514.859 166.72 524.219 172.32C533.579 177.93 544.179 180.73 555.999 180.73C567.209 180.73 577.219 178.16 586.049 173.02C593.219 168.84 599.159 163.43 603.899 156.81V169.83C603.899 172.44 604.739 174.55 606.429 176.16C608.119 177.77 610.269 178.58 612.879 178.58C615.489 178.58 617.639 177.77 619.329 176.16C621.019 174.55 621.859 172.44 621.859 169.83V116.71C621.709 104.43 618.829 93.45 613.219 83.78H613.229ZM581.679 158.39C574.689 162.54 566.749 164.61 557.839 164.61C548.929 164.61 541.179 162.54 534.119 158.39C527.059 154.24 521.449 148.53 517.309 141.23C513.159 133.94 511.089 125.76 511.089 116.7C511.089 107.64 513.159 99.2801 517.309 92.0601C521.459 84.8501 527.059 79.1299 534.119 74.8999C541.179 70.6799 549.089 68.5701 557.839 68.5701C566.589 68.5701 574.689 70.6799 581.679 74.8999C588.659 79.1199 594.189 84.8401 598.259 92.0601C602.329 99.2801 604.359 107.49 604.359 116.7C604.359 125.91 602.319 133.94 598.259 141.23C594.189 148.52 588.659 154.24 581.679 158.39Z" fill="white"/>
<path d="M721.6 56.3701C717.76 54.3801 712.31 53.3799 705.25 53.3799C696.34 53.3799 688.24 55.5301 680.95 59.8301C674.99 63.3401 669.98 67.9401 665.87 73.6001V63.51C665.87 60.75 665.1 58.6001 663.57 57.0601C662.03 55.5301 659.89 54.76 657.12 54.76C654.35 54.76 652.2 55.5301 650.67 57.0601C649.13 58.6001 648.37 60.74 648.37 63.51V171.98C648.37 174.74 649.14 176.9 650.67 178.43C652.2 179.97 654.35 180.73 657.12 180.73C659.89 180.73 662.03 179.96 663.57 178.43C665.1 176.9 665.87 174.75 665.87 171.98V103.12C665.87 95.9101 667.83 89.69 671.74 84.47C675.65 79.25 680.95 75.3701 687.63 72.8401C694.31 70.3101 701.94 69.4299 710.54 70.1899C713.15 70.3399 715.49 70.4999 717.56 70.6499C719.63 70.7999 721.4 70.5 722.86 69.73C724.32 68.96 725.35 67.4301 725.97 65.1201C726.89 61.2801 725.43 58.3701 721.59 56.3701H721.6Z" fill="white"/>
<path d="M363.069 228.11C361.429 228.11 360.019 227.83 358.849 227.26C357.669 226.7 356.599 225.84 355.649 224.69L358.279 222.06C358.899 222.86 359.609 223.48 360.399 223.92C361.189 224.36 362.159 224.58 363.309 224.58C364.339 224.58 365.159 224.37 365.769 223.97C366.369 223.56 366.679 223 366.679 222.27C366.679 221.65 366.499 221.14 366.149 220.75C365.799 220.36 365.339 220.03 364.759 219.77C364.179 219.51 363.549 219.26 362.859 219.04C362.169 218.82 361.479 218.56 360.799 218.27C360.119 217.98 359.479 217.61 358.899 217.16C358.319 216.71 357.849 216.15 357.509 215.46C357.169 214.78 356.999 213.9 356.999 212.83C356.999 211.58 357.299 210.52 357.909 209.64C358.509 208.76 359.339 208.09 360.389 207.62C361.439 207.15 362.629 206.92 363.959 206.92C365.359 206.92 366.639 207.18 367.779 207.71C368.919 208.24 369.839 208.92 370.539 209.76L367.909 212.39C367.309 211.73 366.689 211.24 366.049 210.93C365.419 210.62 364.699 210.46 363.899 210.46C362.979 210.46 362.259 210.64 361.739 211C361.209 211.36 360.949 211.86 360.949 212.51C360.949 213.08 361.129 213.53 361.479 213.87C361.829 214.21 362.289 214.51 362.869 214.78C363.449 215.05 364.079 215.29 364.789 215.53C365.489 215.76 366.179 216.03 366.869 216.33C367.559 216.63 368.179 217.01 368.759 217.47C369.329 217.93 369.799 218.52 370.149 219.25C370.499 219.98 370.679 220.88 370.679 221.95C370.679 223.86 370.009 225.37 368.659 226.47C367.319 227.57 365.459 228.12 363.109 228.12L363.069 228.11Z" fill="white"/>
<path d="M383.6 228.11C382.1 228.11 380.7 227.84 379.4 227.29C378.1 226.74 376.97 225.98 375.99 225.01C375.02 224.04 374.25 222.9 373.71 221.62C373.16 220.33 372.89 218.95 372.89 217.47C372.89 215.99 373.16 214.61 373.71 213.33C374.26 212.05 375.01 210.93 375.98 209.95C376.94 208.98 378.07 208.23 379.36 207.7C380.65 207.17 382.04 206.91 383.54 206.91C385.04 206.91 386.46 207.17 387.75 207.7C389.04 208.23 390.16 208.98 391.13 209.95C392.09 210.92 392.85 212.06 393.4 213.34C393.95 214.63 394.22 216.01 394.22 217.49C394.22 218.97 393.95 220.36 393.4 221.64C392.85 222.93 392.1 224.06 391.15 225.03C390.19 226 389.07 226.76 387.77 227.3C386.47 227.84 385.08 228.1 383.6 228.1V228.11ZM383.54 224.42C384.85 224.42 385.99 224.13 386.98 223.54C387.96 222.96 388.73 222.14 389.27 221.1C389.82 220.06 390.09 218.84 390.09 217.46C390.09 216.45 389.93 215.52 389.62 214.68C389.31 213.84 388.86 213.12 388.27 212.5C387.69 211.89 387 211.41 386.21 211.08C385.42 210.75 384.53 210.58 383.53 210.58C382.24 210.58 381.11 210.87 380.14 211.44C379.17 212.01 378.4 212.82 377.84 213.85C377.28 214.88 377.01 216.08 377.01 217.45C377.01 218.48 377.17 219.43 377.48 220.29C377.79 221.15 378.24 221.88 378.81 222.48C379.38 223.08 380.08 223.56 380.89 223.9C381.7 224.24 382.58 224.41 383.54 224.41V224.42Z" fill="white"/>
<path d="M410.919 210.74V207.23H397.149V227.79H401.119V219.37H410.419V215.86H401.119V210.74H410.919Z" fill="white"/>
<path d="M430.45 207.23H413.34V210.77H419.89V227.79H423.9V210.77H430.45V207.23Z" fill="white"/>
<path d="M456.599 207.23L452.319 220.92L448.15 207.23H445.17L441.01 220.87L436.75 207.23H432.77L439.439 227.79H442.449L446.66 214.09L450.87 227.79H453.849L460.52 207.23H456.599Z" fill="white"/>
<path d="M474.369 227.79H478.609L470.389 207.24H467.119L458.819 227.79H463.029L464.489 223.96H472.919L474.369 227.79ZM465.759 220.62L468.719 212.87L471.649 220.62H465.749H465.759Z" fill="white"/>
<path d="M492.5 227.79H497.32L490.46 219.14C491.31 219.03 492.09 218.81 492.79 218.46C493.8 217.95 494.59 217.26 495.14 216.37C495.7 215.48 495.97 214.44 495.97 213.23C495.97 212.02 495.69 211.03 495.14 210.13C494.58 209.23 493.8 208.53 492.8 208.01C491.8 207.49 490.64 207.24 489.33 207.24H481.26V227.79H485.24V219.22H485.92L492.49 227.79H492.5ZM485.25 210.48H488.96C489.93 210.48 490.69 210.75 491.21 211.28C491.74 211.82 492 212.49 492 213.31C492 214.13 491.74 214.84 491.21 215.34C490.68 215.84 489.92 216.08 488.93 216.08H485.25V210.47V210.48Z" fill="white"/>
<path d="M503.549 224.28V219.01H512.879V215.59H503.549V210.74H513.719V207.23H499.569V227.79H502.499H503.549H513.869V224.28H503.549Z" fill="white"/>
<path d="M540.039 207.23V215.42H531.119V207.23H527.149V227.79H531.119V218.93H540.039V227.79H544.009V207.23H540.039Z" fill="white"/>
<path d="M557.05 228.11C555.55 228.11 554.15 227.84 552.85 227.29C551.55 226.74 550.42 225.98 549.44 225.01C548.47 224.04 547.7 222.9 547.16 221.62C546.61 220.33 546.34 218.95 546.34 217.47C546.34 215.99 546.61 214.61 547.16 213.33C547.71 212.05 548.46 210.93 549.43 209.95C550.39 208.98 551.52 208.23 552.81 207.7C554.1 207.17 555.49 206.91 556.99 206.91C558.49 206.91 559.91 207.17 561.2 207.7C562.49 208.23 563.61 208.98 564.58 209.95C565.54 210.92 566.3 212.06 566.85 213.34C567.4 214.63 567.67 216.01 567.67 217.49C567.67 218.97 567.4 220.36 566.85 221.64C566.3 222.93 565.55 224.06 564.6 225.03C563.64 226 562.52 226.76 561.22 227.3C559.92 227.84 558.53 228.1 557.05 228.1V228.11ZM556.99 224.42C558.3 224.42 559.44 224.13 560.43 223.54C561.41 222.96 562.18 222.14 562.72 221.1C563.27 220.06 563.54 218.84 563.54 217.46C563.54 216.45 563.38 215.52 563.07 214.68C562.76 213.84 562.31 213.12 561.72 212.5C561.14 211.89 560.45 211.41 559.66 211.08C558.87 210.75 557.98 210.58 556.98 210.58C555.69 210.58 554.56 210.87 553.59 211.44C552.62 212.01 551.85 212.82 551.29 213.85C550.73 214.88 550.46 216.08 550.46 217.45C550.46 218.48 550.62 219.43 550.93 220.29C551.24 221.15 551.69 221.88 552.26 222.48C552.83 223.08 553.53 223.56 554.34 223.9C555.15 224.24 556.03 224.41 556.99 224.41V224.42Z" fill="white"/>
<path d="M578.949 228.11C577.329 228.11 575.89 227.75 574.62 227.03C573.35 226.31 572.35 225.33 571.62 224.08C570.89 222.83 570.52 221.42 570.52 219.84V207.24H574.52V219.96C574.52 220.88 574.709 221.67 575.099 222.33C575.489 222.99 576.02 223.5 576.68 223.86C577.34 224.22 578.09 224.4 578.93 224.4C579.77 224.4 580.5 224.22 581.14 223.86C581.78 223.5 582.28 222.99 582.66 222.33C583.04 221.67 583.229 220.89 583.229 219.99V207.24H587.229V219.87C587.229 221.45 586.87 222.86 586.16 224.09C585.45 225.33 584.469 226.31 583.219 227.03C581.969 227.75 580.54 228.11 578.92 228.11H578.949Z" fill="white"/>
<path d="M596.869 228.11C595.229 228.11 593.819 227.83 592.649 227.26C591.469 226.7 590.399 225.84 589.449 224.69L592.079 222.06C592.699 222.86 593.409 223.48 594.199 223.92C594.989 224.36 595.959 224.58 597.109 224.58C598.139 224.58 598.959 224.37 599.569 223.97C600.169 223.56 600.479 223 600.479 222.27C600.479 221.65 600.299 221.14 599.949 220.75C599.599 220.36 599.139 220.03 598.559 219.77C597.979 219.51 597.349 219.26 596.659 219.04C595.969 218.82 595.279 218.56 594.599 218.27C593.919 217.98 593.279 217.61 592.699 217.16C592.119 216.71 591.649 216.15 591.309 215.46C590.969 214.78 590.799 213.9 590.799 212.83C590.799 211.58 591.099 210.52 591.709 209.64C592.309 208.76 593.139 208.09 594.189 207.62C595.239 207.15 596.429 206.92 597.759 206.92C599.159 206.92 600.439 207.18 601.579 207.71C602.719 208.24 603.639 208.92 604.339 209.76L601.709 212.39C601.109 211.73 600.489 211.24 599.849 210.93C599.219 210.62 598.499 210.46 597.699 210.46C596.779 210.46 596.059 210.64 595.539 211C595.009 211.36 594.749 211.86 594.749 212.51C594.749 213.08 594.929 213.53 595.279 213.87C595.629 214.21 596.089 214.51 596.669 214.78C597.249 215.05 597.879 215.29 598.589 215.53C599.289 215.76 599.979 216.03 600.669 216.33C601.359 216.63 601.979 217.01 602.559 217.47C603.129 217.93 603.599 218.52 603.949 219.25C604.299 219.98 604.479 220.88 604.479 221.95C604.479 223.86 603.809 225.37 602.459 226.47C601.119 227.57 599.259 228.12 596.909 228.12L596.869 228.11Z" fill="white"/>
<path d="M611.549 224.28V219.01H620.869V215.59H611.549V210.74H621.719V207.23H607.569V227.79H621.869V224.28H611.549Z" fill="white"/>
<path d="M467.32 69.4299H414.32V122.43H467.32V69.4299Z" fill="#FFB200"/>
<path d="M467.32 11.1299C442 11.1299 414.32 35.4501 414.32 64.1101C414.67 64.1101 461.12 64.1501 467.32 64.1101C467.32 55.8401 467.32 19.8899 467.32 11.1299ZM452.47 38.03C449.44 38.03 446.98 35.5099 446.98 32.3999C446.98 29.2899 449.44 26.77 452.47 26.77C455.5 26.77 457.96 29.2899 457.96 32.3999C457.96 35.5099 455.5 38.03 452.47 38.03Z" fill="#FFB200"/>
<path d="M414.3 180.73C439.62 180.73 467.3 156.41 467.3 127.75C466.95 127.75 420.5 127.71 414.3 127.75C414.3 136.02 414.3 171.97 414.3 180.73Z" fill="#FFB200"/>
<path d="M409 127.75C402.8 127.71 356.35 127.75 356 127.75C356 156.41 383.68 180.73 409 180.73C409 171.97 409 136.02 409 127.75Z" fill="#FFB200"/>
<path d="M382.5 109.5C382.5 95.51 368.66 83.6499 356 83.6499C356 87.9199 356 122.44 356 122.44H382.5V109.51V109.5Z" fill="#FFB200"/>
</svg>
