<svg width="112" height="170" viewBox="0 0 112 170" fill="none" xmlns="http://www.w3.org/2000/svg">
<path d="M111.32 58.4299H58.3203V111.43H111.32V58.4299Z" fill="#FFB200"/>
<path d="M111.32 0.129883C86.0003 0.129883 58.3203 24.4501 58.3203 53.1101C58.6703 53.1101 105.12 53.1501 111.32 53.1101C111.32 44.8401 111.32 8.88988 111.32 0.129883ZM96.4703 27.03C93.4403 27.03 90.9803 24.5099 90.9803 21.3999C90.9803 18.2899 93.4403 15.77 96.4703 15.77C99.5003 15.77 101.96 18.2899 101.96 21.3999C101.96 24.5099 99.5003 27.03 96.4703 27.03Z" fill="#FFB200"/>
<path d="M58.2998 169.73C83.6198 169.73 111.3 145.41 111.3 116.75C110.95 116.75 64.4998 116.71 58.2998 116.75C58.2998 125.02 58.2998 160.97 58.2998 169.73Z" fill="#FFB200"/>
<path d="M53 116.75C46.8 116.71 0.35 116.75 0 116.75C0 145.41 27.68 169.73 53 169.73C53 160.97 53 125.02 53 116.75Z" fill="#FFB200"/>
<path d="M26.5 98.5C26.5 84.51 12.66 72.6499 0 72.6499C0 76.9199 0 111.44 0 111.44H26.5V98.51V98.5Z" fill="#FFB200"/>
</svg>
