<svg width="678" height="426" viewBox="0 0 678 426" fill="none" xmlns="http://www.w3.org/2000/svg">
<path d="M533.143 235.766C533.968 233.009 534.143 230.098 533.654 227.263C533.165 224.427 532.025 221.743 530.325 219.422C528.624 217.1 526.409 215.205 523.852 213.883C521.296 212.562 518.468 211.851 515.591 211.807H540.27C543.148 211.848 545.978 212.556 548.536 213.876C551.094 215.197 553.311 217.093 555.013 219.415C556.714 221.737 557.853 224.423 558.341 227.26C558.828 230.097 558.651 233.009 557.822 235.766L502.918 425H478.204L533.143 235.766Z" fill="#2E180B"/>
<path d="M533.145 235.766L478.24 425H285.022L342.945 225.199C344.028 221.368 346.324 217.992 349.489 215.577C352.654 213.162 356.517 211.839 360.498 211.807H515.539C518.421 211.843 521.255 212.548 523.818 213.866C526.381 215.184 528.604 217.079 530.31 219.401C532.017 221.723 533.161 224.41 533.653 227.25C534.145 230.09 533.971 233.005 533.145 235.766Z" fill="#D91656"/>
<path d="M313.299 232.869C313.299 232.869 283.302 239.135 265.767 262.708C248.232 286.282 225.712 331.743 225.712 331.743L252.041 374.483L291.323 323.581L313.299 232.869Z" fill="#640D5F"/>
<path d="M291.358 323.529L284.652 303.606L265.661 356.861L291.358 323.529Z" fill="#2E180B"/>
<path d="M291.356 323.528C293.76 325.477 298.605 392.404 286.3 412.362H413.398L448.065 344.837L415.575 242.681C415.575 242.681 401.199 233.905 376.362 228.411L321.23 237.029L313.296 232.869L289.442 274.873L291.356 323.528Z" fill="#640D5F"/>
<path d="M289.443 274.873C284.181 285.516 281.657 297.304 282.102 309.169C282.546 321.033 285.944 332.599 291.988 342.819C312.788 378.714 317.264 294.304 317.264 294.304L289.443 274.873Z" fill="#640D5F"/>
<path d="M333.87 381.083H305.961C303.693 381.05 301.454 381.587 299.448 382.645C297.442 383.704 295.734 385.249 294.482 387.139L278.684 412.362H302.029L309.963 402.796C309.963 402.796 335.046 414.065 344.77 396.723L333.87 381.083Z" fill="#F0B28B"/>
<path d="M425.3 359.02C412.855 336.429 383.7 284.685 383.7 284.685L414.242 241.839C414.242 241.839 432.777 246.666 446.451 272.977C458.878 296.901 490.332 351.63 487.085 390.333C486.804 393.683 485.499 396.866 483.349 399.45C481.198 402.034 478.305 403.895 475.061 404.779C432.935 416.048 340.521 412.292 340.521 412.292L329.99 376.677L425.3 359.02Z" fill="#640D5F"/>
<path d="M331.36 381.083L330.079 376.748L440.238 355.509" stroke="#2E180B" stroke-width="0.89" stroke-miterlimit="10"/>
<path d="M395.249 305.203L408.975 361.617L425.299 359.019L395.249 305.203Z" fill="#2E180B"/>
<path d="M383.103 128.888C385.092 137.891 389.79 146.069 396.566 152.321C405.956 160.694 423.211 187.549 417.717 221.057L273.435 228.078C270.31 221.057 260.2 213.351 275.717 183.687C281.825 172.015 280.035 151.057 280.035 151.057L288.951 128.239L345.979 120.305L383.103 128.888Z" fill="#2E180B"/>
<path d="M313.807 169.663C314.062 172.283 313.534 174.92 312.291 177.24C311.047 179.56 309.144 181.458 306.82 182.696C304.497 183.934 301.86 184.455 299.24 184.193C296.621 183.931 294.139 182.898 292.107 181.225C290.075 179.551 288.585 177.313 287.826 174.793C287.066 172.273 287.071 169.584 287.84 167.067C288.609 164.549 290.108 162.317 292.146 160.651C294.184 158.986 296.671 157.962 299.291 157.71C301.029 157.541 302.783 157.716 304.454 158.225C306.125 158.734 307.678 159.567 309.027 160.678C310.375 161.788 311.491 163.153 312.311 164.695C313.131 166.237 313.639 167.925 313.807 169.663Z" fill="#D8906C"/>
<path d="M358.407 181.528L362.743 228.691C363.831 239.557 355.634 238.381 345.524 239.785L332.675 241.54C331.812 241.629 330.939 241.546 330.108 241.294C329.277 241.042 328.505 240.626 327.836 240.072C327.168 239.518 326.617 238.836 326.215 238.067C325.813 237.297 325.569 236.455 325.496 235.59L321.477 202.099L358.407 181.528Z" fill="#F0B28B"/>
<path d="M355.16 196.694L324.145 224.409L320.705 197.554L355.16 196.694Z" fill="#D8906C"/>
<path d="M288.303 143.158L293.674 181.686C295.429 194.956 304.574 203.732 316.492 206.874C324.296 208.804 332.516 208.138 339.907 204.978L359.584 196.904L355.845 147.915L328.235 130.082L288.303 143.158Z" fill="#F0B28B"/>
<path d="M313.877 184.056L309.489 183.968L309.471 175.63" stroke="#2E180B" stroke-width="1.3" stroke-linecap="round" stroke-linejoin="round"/>
<path d="M322.443 169.873C322.504 170.304 322.648 170.718 322.869 171.092C323.09 171.466 323.382 171.793 323.729 172.054C324.077 172.315 324.472 172.505 324.893 172.613C325.314 172.72 325.752 172.744 326.182 172.682C326.822 172.586 327.419 172.303 327.899 171.869C328.379 171.435 328.72 170.868 328.878 170.241C329.037 169.614 329.007 168.953 328.791 168.343C328.576 167.733 328.185 167.2 327.668 166.811C327.15 166.423 326.53 166.196 325.883 166.159C325.237 166.122 324.595 166.277 324.037 166.604C323.478 166.931 323.029 167.416 322.746 167.998C322.462 168.58 322.357 169.232 322.443 169.873Z" fill="#2E180B"/>
<path d="M298.889 171.278C298.998 172.009 299.39 172.668 299.982 173.112C300.573 173.555 301.316 173.748 302.048 173.647C302.589 173.566 303.094 173.327 303.499 172.96C303.904 172.593 304.192 172.114 304.326 171.584C304.46 171.053 304.434 170.495 304.252 169.98C304.069 169.464 303.738 169.014 303.301 168.686C302.863 168.358 302.339 168.166 301.793 168.136C301.247 168.105 300.704 168.236 300.232 168.513C299.761 168.79 299.382 169.201 299.143 169.692C298.904 170.184 298.815 170.736 298.889 171.278Z" fill="#2E180B"/>
<path d="M327.182 154.216C327.182 154.216 319.301 153.778 319.319 156.955C319.319 156.955 319.319 159.096 326.235 159.342C333.15 159.587 334.87 159.043 335.45 157.007C336.029 154.971 330.851 154.076 327.182 154.216Z" fill="#2E180B"/>
<path d="M297.586 157.218C297.586 157.218 302.747 155.357 304.204 157.85C304.204 157.85 305.151 159.605 300.588 161.045C296.024 162.484 294.567 162.466 293.251 161.045C291.934 159.623 295.041 157.868 297.586 157.218Z" fill="#2E180B"/>
<path d="M328.393 186.548C328.393 186.548 325.128 191.182 315.667 190.304" stroke="#2E180B" stroke-width="1.3" stroke-linecap="round" stroke-linejoin="round"/>
<path d="M371.396 156.603C370.887 159.096 326.743 147.985 323.566 119.041C323.513 118.971 378.961 119.462 371.396 156.603Z" fill="#2E180B"/>
<path d="M383.104 128.888C379.593 109.949 363.796 90.1322 321.529 95.6788C298.711 98.6802 271.803 122.183 279.649 149.986C279.741 150.361 279.871 150.725 280.035 151.075C309.014 150.794 335.15 132.434 335.15 132.434L383.104 128.888Z" fill="#2E180B"/>
<path d="M347.963 141.579L352.158 169.698L370.799 145.564L347.963 141.579Z" fill="#2E180B"/>
<path d="M377.365 164.871C377.623 167.558 377.079 170.262 375.801 172.64C374.522 175.019 372.568 176.964 370.184 178.232C367.8 179.5 365.094 180.033 362.408 179.763C359.721 179.493 357.175 178.433 355.091 176.717C353.007 175 351.478 172.705 350.698 170.12C349.918 167.535 349.922 164.777 350.709 162.194C351.496 159.612 353.031 157.32 355.12 155.61C357.209 153.899 359.759 152.846 362.446 152.584C366.053 152.237 369.651 153.336 372.449 155.64C375.246 157.943 377.015 161.264 377.365 164.871Z" fill="#F0B28B"/>
<path d="M359.409 170.699C359.409 170.699 358.444 160.835 368.027 161.467" stroke="#2E180B" stroke-width="1.3" stroke-linecap="round" stroke-linejoin="round"/>
<path d="M351.544 223.005L381.928 229.552C381.928 229.552 371.765 252.37 338.047 252.37C311.349 252.37 308.435 234.081 308.435 234.081L327.936 225.006L351.544 223.005Z" fill="#F0B28B"/>
<path d="M373.451 425H261.378V412.362H373.451C374.281 412.362 375.102 412.525 375.869 412.843C376.636 413.16 377.332 413.626 377.919 414.213C378.506 414.799 378.971 415.496 379.289 416.263C379.606 417.029 379.77 417.851 379.77 418.681C379.77 419.511 379.606 420.332 379.289 421.099C378.971 421.866 378.506 422.562 377.919 423.149C377.332 423.736 376.636 424.201 375.869 424.519C375.102 424.836 374.281 425 373.451 425Z" fill="#131B1E"/>
<path d="M276.123 425H115.131C110.97 425.005 106.922 423.644 103.609 421.127C100.295 418.609 97.8994 415.074 96.7889 411.063L69.4947 307.03C66.9321 297.832 72.2154 288.722 81.7815 288.722H230.609C233.387 288.723 236.086 289.643 238.287 291.338C240.487 293.034 242.064 295.41 242.773 298.095L276.123 425Z" fill="#273237"/>
<path d="M586.5 424.999H-0.000286139" stroke="white" stroke-width="1.4" stroke-miterlimit="10"/>
<path d="M664.19 424.999H614.042" stroke="white" stroke-width="1.4" stroke-miterlimit="10"/>
<path d="M100.227 129.046H203.717C205.83 129.046 207.543 130.76 207.543 132.873V163.976C207.543 166.089 205.83 167.802 203.717 167.802H100.227C98.1136 167.802 96.4004 166.089 96.4004 163.976V132.873C96.4004 130.76 98.1136 129.046 100.227 129.046Z" fill="#EB5B00"/>
<path d="M189.166 142.842H122.449" stroke="white" stroke-width="0.86" stroke-miterlimit="10"/>
<path d="M189.166 152.146H159.292" stroke="white" stroke-width="0.86" stroke-miterlimit="10"/>
<path d="M519.244 0H439.099C436.38 0 433.773 1.07998 431.85 3.00235C429.928 4.92473 428.848 7.53202 428.848 10.2507V84.9894C428.848 87.708 429.928 90.3153 431.85 92.2377C433.773 94.1601 436.38 95.24 439.099 95.24H515.979C519.563 95.24 523.001 93.8161 525.536 91.2815C528.07 88.7468 529.494 85.3091 529.494 81.7246V10.2507C529.494 8.90454 529.229 7.57158 528.714 6.32791C528.199 5.08424 527.444 3.95422 526.492 3.00235C525.54 2.05049 524.41 1.29543 523.166 0.780284C521.923 0.265139 520.59 0 519.244 0Z" fill="#640D5F"/>
<path d="M457.404 54.6586L463.144 48.9365C463.601 48.402 464.166 47.9696 464.801 47.6672C465.436 47.3648 466.127 47.1993 466.83 47.1812C467.522 47.1979 468.203 47.3506 468.836 47.6307C469.468 47.9108 470.039 48.3127 470.516 48.8136L473.781 52.0784L474.395 51.78C474.817 51.5693 475.115 51.464 475.431 51.2709C478.659 49.1548 481.522 46.5288 483.909 43.4952C484.981 42.2216 485.878 40.8108 486.577 39.3001C485.752 38.5805 485.05 37.7555 484.33 37.0358L483.4 36.1231C482.855 35.6551 482.417 35.0748 482.117 34.4219C481.817 33.7691 481.662 33.059 481.662 32.3405C481.662 31.622 481.817 30.912 482.117 30.2591C482.417 29.6062 482.855 29.026 483.4 28.558L486.278 25.6794C486.604 25.3595 486.909 25.0195 487.191 24.6613L488.999 22.7305C489.476 22.2297 490.047 21.8277 490.68 21.5476C491.312 21.2675 491.994 21.1148 492.685 21.0981C493.378 21.107 494.062 21.2561 494.695 21.5367C495.329 21.8173 495.899 22.2234 496.371 22.7305L499.882 26.241C501.214 27.5979 502.044 29.3688 502.234 31.2611C502.345 33.9182 501.89 36.5687 500.9 39.0368C499.102 43.9682 496.393 48.5174 492.913 52.447C488.419 57.8204 482.838 62.1813 476.537 65.2428C473.657 66.6966 470.544 67.6295 467.339 67.9985H466.62C465.465 68.0147 464.32 67.7852 463.261 67.3252C462.202 66.8653 461.252 66.1853 460.476 65.3305H460.371C459.838 64.6682 459.251 64.0517 458.616 63.4875L457.282 62.1535C456.78 61.663 456.384 61.0753 456.117 60.4264C455.85 59.7775 455.719 59.0811 455.73 58.3796C455.742 57.6781 455.896 56.9863 456.184 56.3466C456.472 55.7068 456.887 55.1324 457.404 54.6586ZM459.774 59.9243L460.985 61.153C461.705 61.7674 462.319 62.487 463.039 63.2067C463.511 63.7065 464.083 64.101 464.719 64.3641C465.354 64.6273 466.038 64.7533 466.725 64.7337H467.234C470.033 64.4529 472.748 63.6176 475.22 62.2764C481.089 59.4019 486.286 55.323 490.473 50.3056C493.613 46.6435 496.132 42.4933 497.933 38.0188C498.884 36.0423 499.308 33.8533 499.162 31.6648C499.092 30.5285 498.582 29.4643 497.74 28.6984L494.23 25.1879C493.866 24.774 493.357 24.5163 492.808 24.4682C492.531 24.481 492.26 24.5516 492.012 24.6755C491.764 24.7995 491.545 24.974 491.369 25.1879L489.526 27.0309C489.218 27.4003 488.877 27.741 488.508 28.0489L485.646 30.9275C485.246 31.3015 484.991 31.8052 484.927 32.3493C484.97 32.9044 485.229 33.4207 485.646 33.7886L486.559 34.7014L488.999 37.264L489.104 37.3693C489.459 37.6805 489.709 38.0941 489.819 38.553C489.929 39.012 489.894 39.4938 489.719 39.932V39.9847C488.849 41.969 487.709 43.8237 486.331 45.4962C483.727 48.8279 480.582 51.6994 477.028 53.9916C476.604 54.2682 476.158 54.5089 475.694 54.7112C475.291 54.9219 474.975 55.0272 474.676 55.2203L474.571 55.3256C474.103 55.5748 473.565 55.6601 473.044 55.5679C472.522 55.4756 472.046 55.2111 471.692 54.8166L468.182 51.306C468.004 51.0982 467.787 50.9275 467.543 50.804C467.299 50.6805 467.033 50.6065 466.76 50.5864C466.241 50.6508 465.765 50.9076 465.426 51.306L459.704 57.0282C459.489 57.2094 459.317 57.4352 459.199 57.6899C459.081 57.9445 459.02 58.2219 459.02 58.5026C459.02 58.7833 459.081 59.0607 459.199 59.3153C459.317 59.5699 459.489 59.7958 459.704 59.977L459.774 59.9243Z" fill="white"/>
<path d="M592.813 208.745C577.205 193.137 577.205 167.831 592.813 152.223C608.421 136.615 633.727 136.615 649.335 152.223C664.943 167.831 664.943 193.137 649.335 208.745C633.727 224.354 608.421 224.354 592.813 208.745Z" fill="#EB5B00"/>
<path d="M603.177 192.464H633.491H638.967V168.469H603.177V174.472V192.464Z" stroke="white" stroke-linecap="round" stroke-linejoin="round"/>
<path d="M638.967 168.469L621.081 182.564L603.177 168.469" stroke="white" stroke-linecap="round" stroke-linejoin="round"/>
<path d="M22.1014 229.446H153.149C153.617 229.446 154.081 229.353 154.513 229.171C154.944 228.989 155.335 228.722 155.662 228.387C155.99 228.052 156.246 227.654 156.417 227.218C156.589 226.782 156.671 226.316 156.659 225.848C156.659 224.917 156.289 224.024 155.631 223.366C154.973 222.707 154.08 222.337 153.149 222.337H22.1014C21.1703 222.337 20.2775 222.707 19.6191 223.366C18.9608 224.024 18.5909 224.917 18.5909 225.848C18.5792 226.316 18.6613 226.782 18.8325 227.218C19.0036 227.654 19.2604 228.052 19.5875 228.387C19.9147 228.722 20.3056 228.989 20.7374 229.171C21.1691 229.353 21.6329 229.446 22.1014 229.446Z" fill="#640D5F"/>
<path d="M294.163 44.1444H353.737C354.668 44.1444 355.561 43.7745 356.219 43.1162C356.877 42.4579 357.247 41.5649 357.247 40.6339C357.259 40.1656 357.177 39.6996 357.005 39.2635C356.834 38.8274 356.578 38.43 356.25 38.0947C355.923 37.7593 355.532 37.4929 355.101 37.311C354.669 37.1291 354.205 37.0355 353.737 37.0356H294.163C293.695 37.0355 293.231 37.1291 292.799 37.311C292.368 37.4929 291.977 37.7593 291.649 38.0947C291.322 38.43 291.065 38.8274 290.894 39.2635C290.723 39.6996 290.641 40.1656 290.653 40.6339C290.653 41.5649 291.023 42.4579 291.681 43.1162C292.339 43.7745 293.232 44.1444 294.163 44.1444Z" fill="#640D5F"/>
<path d="M621.73 286.896H660.802C662.673 286.896 664.19 288.413 664.19 290.284V290.688C664.19 292.559 662.673 294.075 660.802 294.075H621.73C619.859 294.075 618.342 292.559 618.342 290.688V290.284C618.342 288.413 619.859 286.896 621.73 286.896Z" fill="#640D5F"/>
<path d="M38.5494 102.49H44.2364C45.7293 102.49 46.9396 103.7 46.9396 105.193V110.546C46.9396 112.039 45.7293 113.249 44.2364 113.249H38.5494C37.0565 113.249 35.8464 112.039 35.8464 110.546V105.193C35.8464 103.7 37.0565 102.49 38.5494 102.49Z" fill="#D91656"/>
<path d="M594.137 339.22H601.685C603.663 339.22 605.266 340.823 605.266 342.8V349.874C605.266 351.852 603.663 353.455 601.685 353.455H594.137C592.16 353.455 590.557 351.852 590.557 349.874V342.8C590.557 340.823 592.16 339.22 594.137 339.22Z" fill="#D91656"/>
<path d="M201.662 42.6348H173.859C173.173 42.644 172.518 42.9242 172.038 43.4142C171.558 43.9042 171.291 44.5641 171.296 45.2501V58.8709C171.294 59.212 171.359 59.5503 171.487 59.8663C171.616 60.1824 171.805 60.4701 172.045 60.7129C172.284 60.9558 172.569 61.1491 172.883 61.2818C173.198 61.4144 173.535 61.4839 173.876 61.4862H188.217L196.747 68.7881V61.8724L201.732 61.7319C202.412 61.7136 203.057 61.4294 203.53 60.9404C204.003 60.4514 204.265 59.7966 204.26 59.1166V45.2501C204.262 44.9075 204.197 44.5678 204.067 44.2506C203.938 43.9334 203.747 43.6449 203.505 43.4018C203.264 43.1587 202.977 42.9658 202.66 42.8342C202.344 42.7025 202.005 42.6348 201.662 42.6348Z" stroke="#FFF6EE" stroke-miterlimit="10"/>
<path d="M12.465 288.652C12.4892 290.313 13.0039 291.929 13.9443 293.298C14.8847 294.668 16.2088 295.728 17.7503 296.347C19.2917 296.966 20.9818 297.116 22.608 296.777C24.2341 296.438 25.7238 295.626 26.8898 294.443C28.0558 293.26 28.8462 291.759 29.1614 290.128C29.4767 288.497 29.3028 286.809 28.6617 285.277C28.0205 283.744 26.9407 282.436 25.558 281.515C24.1752 280.595 22.5513 280.104 20.8902 280.104C19.7754 280.11 18.6729 280.337 17.6458 280.771C16.6187 281.204 15.6872 281.836 14.9046 282.63C14.122 283.424 13.5037 284.365 13.0851 285.398C12.6665 286.431 12.4558 287.537 12.465 288.652Z" stroke="#FFF6EE" stroke-miterlimit="10"/>
<path d="M506.92 154.199C506.944 155.86 507.459 157.477 508.399 158.846C509.34 160.215 510.664 161.276 512.205 161.895C513.747 162.514 515.437 162.663 517.063 162.324C518.689 161.985 520.179 161.173 521.345 159.99C522.511 158.807 523.301 157.306 523.617 155.675C523.932 154.044 523.758 152.357 523.117 150.824C522.476 149.292 521.396 147.983 520.013 147.063C518.63 146.142 517.006 145.651 515.345 145.651C514.231 145.658 513.128 145.884 512.101 146.318C511.074 146.752 510.142 147.383 509.36 148.177C508.577 148.971 507.959 149.912 507.54 150.945C507.122 151.978 506.911 153.084 506.92 154.199Z" stroke="#FFF6EE" stroke-miterlimit="10"/>
</svg>
